<?xml version="1.0" standalone="no"?>
<!DOCTYPE svg PUBLIC "-//W3C//DTD SVG 1.1//EN" "http://www.w3.org/Graphics/SVG/1.1/DTD/svg11.dtd" >
<svg xmlns="http://www.w3.org/2000/svg" xmlns:xlink="http://www.w3.org/1999/xlink" version="1.1">
<metadata>
Created by FontForge 20170731 at Tue Nov 24 12:50:47 2020
 By Aleksey,,,
Copyright 2014 The Nunito Project Authors (https://github.com/googlefonts/nunito)
</metadata>
<defs>
<font id="Nunito-ExtraLightItalic" horiz-adv-x="0" >
  <font-face 
    font-family="Nunito ExtraLight"
    font-weight="200"
    font-style="italic"
    font-stretch="normal"
    units-per-em="1000"
    panose-1="0 0 0 0 0 0 0 0 0 0"
    ascent="800"
    descent="-200"
    x-height="484"
    cap-height="705"
    bbox="-283.12 -276 1319.53 1039"
    underline-thickness="28"
    underline-position="-122"
    slope="-9"
    unicode-range="U+000D-FB02"
  />
<missing-glyph horiz-adv-x="500" 
d="M50 -180v885h400v-885h-400zM100 -130h300v785h-300v-785z" />
    <glyph glyph-name="fi" unicode="fi" horiz-adv-x="512" 
d="M87 -6q-22 0 -17 25l68 429h-75q-18 0 -18 14q0 22 24 22h75l7 49q12 78 60 122.5t126 49.5l29 2q15 1 20 -8t1 -19t-16 -11l-32 -2q-126 -7 -147 -139l-7 -44h259q22 0 17 -25l-70 -444q-3 -21 -24 -21q-22 0 -17 25l68 429h-238l-69 -433q-3 -21 -24 -21zM467 616
q-30 0 -30 28q0 20 11 30.5t30 10.5q30 0 30 -28q0 -19 -11 -30t-30 -11z" />
    <glyph glyph-name="fl" unicode="fl" horiz-adv-x="581" 
d="M87 -6q-22 0 -17 25l68 429h-75q-18 0 -18 14q0 22 24 22h75l7 49q12 78 60 122.5t126 49.5l29 2q15 1 20 -8t1 -19t-16 -11l-32 -2q-126 -7 -147 -139l-7 -44h127q18 0 18 -13q0 -23 -24 -23h-126l-69 -433q-3 -21 -24 -21zM483 -8q-62 0 -91 38t-17 113l87 547
q3 21 24 21q22 0 17 -25l-86 -543q-10 -61 8.5 -86.5t65.5 -25.5q16 0 24.5 2t12.5 2q11 0 11 -15q0 -20 -24 -25q-7 -1 -16.5 -2t-15.5 -1z" />
    <glyph glyph-name=".notdef" horiz-adv-x="500" 
d="M50 -180v885h400v-885h-400zM100 -130h300v785h-300v-785z" />
    <glyph glyph-name=".null" 
 />
    <glyph glyph-name="nonmarkingreturn" horiz-adv-x="333" 
 />
    <glyph glyph-name="NULL" 
 />
    <glyph glyph-name="NULL" 
 />
    <glyph glyph-name="CR" unicode="&#xd;" horiz-adv-x="246" 
 />
    <glyph glyph-name="space" unicode=" " horiz-adv-x="246" 
 />
    <glyph glyph-name="exclam" unicode="!" horiz-adv-x="211" 
d="M95 158q-15 0 -13 17l69 511q3 25 28 25q28 0 23 -29l-92 -509q-1 -5 -5 -10t-10 -5zM74 -3q-16 0 -27 11t-11 27q0 17 11 27.5t27 10.5q17 0 27 -10.5t10 -27.5q0 -16 -10 -27t-27 -11z" />
    <glyph glyph-name="quotedbl" unicode="&#x22;" horiz-adv-x="342" 
d="M133 434q-6 0 -10 4.5t-3 15.5l26 234q1 9 7.5 16t19.5 7q28 0 23 -28l-46 -230q-3 -19 -17 -19zM273 434q-6 0 -10 4.5t-3 15.5l26 234q1 9 7.5 16t19.5 7q28 0 23 -28l-46 -230q-3 -19 -17 -19z" />
    <glyph glyph-name="numbersign" unicode="#" horiz-adv-x="600" 
d="M75 -6q-22 0 -12 29l61 168h-78q-24 0 -24 17q0 23 26 23h89l89 251h-115q-24 0 -24 17q0 23 26 23h126l60 169q8 20 28 20q21 0 11 -29l-56 -160h188l59 169q6 20 28 20t12 -29l-56 -160h77q24 0 24 -17q0 -23 -26 -23h-89l-89 -251h115q24 0 24 -17q0 -23 -26 -23h-126
l-64 -177q-8 -20 -28 -20q-22 0 -12 29l60 168h-187l-63 -177q-8 -20 -28 -20zM179 231h188l89 251h-188z" />
    <glyph glyph-name="dollar" unicode="$" horiz-adv-x="600" 
d="M254 -121q-9 0 -14 7t-3 20l14 91q-65 4 -117.5 23t-89.5 53q-10 10 -8 22t12.5 16.5t24.5 -7.5q41 -34 90.5 -50.5t124.5 -16.5q53 0 97.5 16t71 48t26.5 79q0 36 -13.5 61.5t-46.5 44.5t-92 35l-81 22q-67 18 -108 56.5t-41 117.5q0 65 35.5 108.5t95.5 65t131 18.5
l15 92q3 19 22 19q8 0 13.5 -6t3.5 -20l-14 -89q51 -7 95.5 -29.5t75.5 -57.5q7 -8 3.5 -18.5t-13.5 -14t-23 8.5q-75 74 -190 74q-94 0 -150 -38.5t-56 -112.5q0 -62 29 -90.5t85 -43.5l81 -22q101 -28 144 -69t43 -108q0 -59 -32.5 -100.5t-86 -64t-117.5 -23.5l-16 -98
q-3 -19 -21 -19z" />
    <glyph glyph-name="percent" unicode="%" horiz-adv-x="916" 
d="M237 -6q-10 -14 -21.5 -12.5t-16 12t5.5 24.5l507 689q11 14 22.5 13t16.5 -11t-6 -24zM239 282q-63 0 -100 42t-37 117q0 74 23 136t68.5 99t111.5 37q63 0 100 -42t37 -117q0 -74 -23 -136t-68 -99t-112 -37zM239 319q53 0 88 30.5t53 82.5t20 116q2 67 -25 97.5
t-70 30.5q-53 0 -88 -30.5t-53 -82t-20 -116.5q-2 -67 25 -97.5t70 -30.5zM646 -8q-63 0 -100 42t-37 117q0 74 23 136t68.5 99t111.5 37q63 0 100 -42t37 -117q0 -74 -23 -136t-68 -99t-112 -37zM646 29q53 0 88 30.5t53 82.5t20 116q2 67 -25 97.5t-70 30.5
q-53 0 -88 -30.5t-53 -82t-20 -116.5q-2 -67 25 -97.5t70 -30.5z" />
    <glyph glyph-name="ampersand" unicode="&#x26;" horiz-adv-x="664" 
d="M242 -8q-87 0 -138.5 40t-51.5 110q0 43 17.5 79.5t46 66.5t61.5 53.5t63 40.5l28 16q-35 47 -49 85t-14 69q0 73 46.5 117t122.5 44q59 0 93.5 -33.5t34.5 -86.5q0 -47 -22 -81t-62 -64t-93 -62l154 -219q28 39 51 99t35 124q5 20 24 20q22 0 17 -24q-15 -74 -41 -139.5
t-62 -114.5l78 -110q8 -10 2 -19t-19 -9q-12 0 -19 10l-66 95q-44 -51 -103 -79t-134 -28zM373 674q-56 0 -91 -34.5t-35 -83.5q0 -34 11.5 -63t45.5 -76q60 37 94.5 65t49 53t14.5 54q0 37 -24.5 61t-64.5 24zM239 31q70 0 123.5 26t93.5 75l-168 235l-28 -17
q-75 -45 -120.5 -93t-45.5 -113q0 -113 145 -113z" />
    <glyph glyph-name="quotesingle" unicode="'" horiz-adv-x="202" 
d="M133 434q-6 0 -10 4.5t-3 15.5l26 234q1 9 7.5 16t19.5 7q28 0 23 -28l-46 -230q-3 -19 -17 -19z" />
    <glyph glyph-name="parenleft" unicode="(" horiz-adv-x="281" 
d="M136 -165q-16 68 -25 134.5t-9 132.5q0 113 21.5 220.5t60 204t90.5 173.5q8 12 18.5 11t16 -9.5t-2.5 -22.5q-73 -125 -116.5 -270t-43.5 -309q0 -61 7 -127t20 -133q3 -13 -5 -20t-18 -3.5t-14 18.5z" />
    <glyph glyph-name="parenright" unicode=")" horiz-adv-x="281" 
d="M13 -174q-7 -11 -18 -10.5t-16.5 9.5t2.5 22q74 125 117 270t43 309q0 62 -7.5 127.5t-19.5 132.5q-2 14 6 20.5t18 3.5t13 -19q15 -67 24.5 -134t9.5 -133q0 -169 -46 -322.5t-126 -275.5z" />
    <glyph glyph-name="asterisk" unicode="*" horiz-adv-x="448" 
d="M176 376q-16 10 -2 34l70 114l-134 -3q-28 0 -28 19q0 18 28 18l134 -3l-70 115q-14 24 2 34q8 5 16 0t14 -16l65 -117l64 117q7 12 15.5 16.5t15.5 -0.5q15 -11 1 -34l-69 -115l134 3q28 0 28 -18q0 -19 -28 -19l-134 3l69 -114q14 -24 -1 -33q-8 -5 -16.5 -0.5
t-14.5 15.5l-64 116l-65 -117q-14 -25 -30 -15z" />
    <glyph glyph-name="plus" unicode="+" horiz-adv-x="600" 
d="M268 34q-22 0 -17 26l33 207h-205q-22 0 -22 16q0 23 24 23h209l32 206q2 10 7 16t16 6q22 0 17 -26l-32 -202h205q22 0 22 -16q0 -23 -24 -23h-209l-33 -211q-1 -10 -6.5 -16t-16.5 -6z" />
    <glyph glyph-name="comma" unicode="," horiz-adv-x="211" 
d="M60 -86q-10 -10 -19.5 -7.5t-12 12t7.5 20.5q27 30 33 59q-15 1 -24 11.5t-9 25.5q0 17 10 27.5t26 10.5q36 0 36 -45q0 -31 -13.5 -62t-34.5 -52z" />
    <glyph glyph-name="hyphen" unicode="-" horiz-adv-x="416" 
d="M91 246q-18 0 -18 14q0 9 6 16.5t18 7.5h236q18 0 18 -14q0 -9 -6 -16.5t-18 -7.5h-236z" />
    <glyph glyph-name="period" unicode="." horiz-adv-x="211" 
d="M74 -3q-16 0 -27 11t-11 27q0 17 11 27.5t27 10.5q17 0 27 -10.5t10 -27.5q0 -16 -10 -27t-27 -11z" />
    <glyph glyph-name="slash" unicode="/" horiz-adv-x="256" 
d="M-19 -40q-7 -14 -17.5 -14t-17 9.5t-1.5 20.5l361 754q6 13 17 13t18.5 -9t0.5 -22z" />
    <glyph glyph-name="zero" unicode="0" horiz-adv-x="600" 
d="M289 -8q-105 0 -159 65t-54 188q0 146 33 251t94 161t144 56q105 0 158.5 -65t53.5 -188q0 -146 -33 -251t-93.5 -161t-143.5 -56zM292 33q104 0 163 115.5t59 329.5q0 194 -170 194q-104 0 -163.5 -115t-59.5 -330q0 -194 171 -194z" />
    <glyph glyph-name="one" unicode="1" horiz-adv-x="600" 
d="M119 0q-22 0 -22 17q0 22 24 22h147l97 611l-124 -79q-13 -8 -22.5 -2.5t-9.5 17t13 19.5l152 98q12 8 23 8q8 0 13 -5.5t3 -17.5l-103 -649h133q22 0 22 -16q0 -23 -24 -23h-322z" />
    <glyph glyph-name="two" unicode="2" horiz-adv-x="600" 
d="M90 0q-23 0 -23 18q0 10 15 25l278 260q62 58 104 119.5t42 130.5q0 56 -37 87.5t-106 31.5q-48 0 -94.5 -18t-95.5 -56q-14 -11 -24 -6t-11 17t11 22q44 39 100.5 60.5t114.5 21.5q86 0 136 -43.5t50 -114.5q0 -55 -22.5 -104t-60.5 -93.5t-85 -87.5l-250 -231h348
q22 0 22 -16q0 -23 -24 -23h-388z" />
    <glyph glyph-name="three" unicode="3" horiz-adv-x="600" 
d="M279 -8q-58 0 -117.5 16.5t-106.5 59.5q-11 11 -9 22.5t12 16t23 -6.5q47 -40 95 -53.5t103 -13.5q51 0 92.5 20.5t65.5 59t24 91.5q0 60 -41 97.5t-116 37.5h-74q-22 0 -22 17q0 22 24 22h76q52 0 95 20.5t68.5 58.5t25.5 89q0 56 -38.5 91t-102.5 35q-49 0 -99.5 -18
t-91.5 -54q-11 -10 -21 -6t-12 15.5t9 21.5q44 40 101 61t115 21q56 0 97 -21.5t64 -59t23 -85.5q0 -68 -41 -119.5t-106 -69.5q54 -19 82.5 -60t28.5 -94q0 -64 -31 -112t-82.5 -74t-112.5 -26z" />
    <glyph glyph-name="four" unicode="4" horiz-adv-x="600" 
d="M384 -6q-20 0 -17 25l23 147h-320q-24 0 -24 16q0 5 2.5 12t11.5 17l412 487q10 13 24 13q23 0 18 -25l-76 -481h92q22 0 22 -16q0 -23 -24 -23h-96l-24 -151q-3 -21 -24 -21zM396 205l67 422l-359 -422h292z" />
    <glyph glyph-name="five" unicode="5" horiz-adv-x="600" 
d="M292 -8q-54 0 -109 17t-102 60q-10 10 -8 21.5t12 16.5t23 -7q46 -40 89.5 -53.5t94.5 -13.5q56 0 101 26.5t71.5 72t26.5 102.5q0 70 -39.5 115t-109.5 45q-54 0 -96.5 -23t-78.5 -64q-6 -7 -11.5 -11t-14.5 -4t-14.5 6.5t-4.5 16.5l59 369q3 21 24 21h347q22 0 22 -16
q0 -23 -24 -23h-330l-48 -305q33 36 79.5 55t94.5 19q49 0 92 -21t70 -64.5t27 -113.5q0 -72 -33 -127t-88.5 -86t-121.5 -31z" />
    <glyph glyph-name="six" unicode="6" horiz-adv-x="600" 
d="M303 -8q-66 0 -115 31t-76 88.5t-27 135.5q0 92 19 175.5t58 149t97.5 103.5t137.5 38q53 0 103.5 -23.5t81.5 -62.5q9 -11 6 -22.5t-13.5 -15t-22.5 10.5q-61 72 -160 72q-76 0 -134 -48.5t-92.5 -136.5t-39.5 -208q24 72 83.5 113t128.5 41q58 0 102.5 -25.5t70 -70
t25.5 -100.5q0 -69 -30.5 -124.5t-83.5 -88t-119 -32.5zM300 33q58 0 101 27.5t67 74t24 101.5q0 46 -20.5 81t-56.5 55t-81 20q-57 0 -100.5 -27.5t-67.5 -73.5t-24 -102q0 -46 21 -81t56.5 -55t80.5 -20z" />
    <glyph glyph-name="seven" unicode="7" horiz-adv-x="600" 
d="M129 -6q-14 0 -18 11t6 26l419 635h-372q-22 0 -22 17q0 22 24 22h403q23 0 23 -17q0 -7 -3 -12.5t-8 -13.5l-428 -652q-11 -16 -24 -16z" />
    <glyph glyph-name="eight" unicode="8" horiz-adv-x="600" 
d="M269 -8q-63 0 -113 19.5t-79 56.5t-29 87q0 53 22.5 98t62 74t90.5 36q-51 15 -78 53t-27 91q0 66 32.5 112t89 70t129.5 24q60 0 106.5 -20.5t73 -57t26.5 -86.5q0 -73 -44 -125t-111 -68q53 -12 85.5 -50.5t32.5 -96.5q0 -70 -34.5 -118.5t-95 -73.5t-139.5 -25z
M323 377q61 0 107.5 20.5t73.5 59t27 91.5q0 60 -44.5 92.5t-118.5 32.5q-96 0 -151 -42t-55 -126q0 -61 44 -94.5t117 -33.5zM271 32q104 0 163.5 45t59.5 135q0 63 -48.5 94t-127.5 31q-103 0 -164.5 -44.5t-61.5 -133.5q0 -64 49.5 -95.5t129.5 -31.5z" />
    <glyph glyph-name="nine" unicode="9" horiz-adv-x="600" 
d="M238 -8q-53 0 -103 23.5t-82 62.5q-9 11 -5.5 22.5t13.5 15t22 -10.5q61 -72 160 -72q76 0 134 48.5t92.5 136.5t39.5 208q-24 -72 -83.5 -113t-128.5 -41q-57 0 -102 25.5t-70.5 70t-25.5 100.5q0 70 31 125t83.5 87.5t118.5 32.5t115 -31t76 -88t27 -136
q0 -92 -19 -175.5t-58 -149t-97.5 -103.5t-137.5 -38zM301 313q58 0 101 27.5t67 74t24 101.5q0 46 -20.5 81t-56.5 55t-81 20q-57 0 -100.5 -27.5t-67.5 -73.5t-24 -102q0 -46 21 -81t56.5 -55t80.5 -20z" />
    <glyph glyph-name="colon" unicode=":" horiz-adv-x="211" 
d="M139 411q-16 0 -27 11t-11 27q0 17 11 27.5t27 10.5q17 0 27 -10.5t10 -27.5q0 -16 -10 -27t-27 -11zM74 -3q-16 0 -27 11t-11 27q0 17 11 27.5t27 10.5q17 0 27 -10.5t10 -27.5q0 -16 -10 -27t-27 -11z" />
    <glyph glyph-name="semicolon" unicode=";" horiz-adv-x="211" 
d="M139 411q-16 0 -27 11t-11 27q0 17 11 27.5t27 10.5q17 0 27 -10.5t10 -27.5q0 -16 -10 -27t-27 -11zM60 -86q-10 -10 -19.5 -7.5t-12 12t7.5 20.5q27 30 33 59q-15 1 -24 11.5t-9 25.5q0 17 10 27.5t26 10.5q36 0 36 -45q0 -31 -13.5 -62t-34.5 -52z" />
    <glyph glyph-name="less" unicode="&#x3c;" horiz-adv-x="600" 
d="M495 46l-418 214q-20 10 -20 25q0 17 18 24l491 217q14 6 22 -1t7.5 -18t-13.5 -17l-468 -206l399 -203q13 -6 12.5 -17t-9 -17.5t-21.5 -0.5z" />
    <glyph glyph-name="equal" unicode="=" horiz-adv-x="600" 
d="M94 367q-22 0 -22 16q0 23 24 23h454q22 0 22 -16q0 -23 -24 -23h-454zM63 168q-22 0 -22 16q0 23 24 23h454q22 0 22 -16q0 -23 -24 -23h-454z" />
    <glyph glyph-name="greater" unicode="&#x3e;" horiz-adv-x="600" 
d="M48 48q-13 -6 -21.5 1t-8 18.5t13.5 16.5l468 205l-399 204q-12 7 -12 17.5t9 17.5t21 0l418 -214q20 -10 20 -25q0 -16 -18 -24z" />
    <glyph glyph-name="question" unicode="?" horiz-adv-x="429" 
d="M183 159q-9 0 -12 6.5t-2 16.5q5 38 16 70.5t36 66t70 73.5q42 37 66.5 65t35 54.5t10.5 56.5q0 44 -28.5 74t-90.5 30q-50 0 -95.5 -18t-83.5 -51q-13 -11 -24 -7.5t-12.5 15.5t11.5 24q41 38 96 58t108 20q54 0 90.5 -19.5t54.5 -52t18 -71.5q0 -55 -35 -105.5
t-97 -103.5q-61 -52 -83 -94.5t-31 -83.5q-4 -24 -18 -24zM161 -3q-16 0 -27 11t-11 27q0 17 11 27.5t27 10.5q17 0 27 -10.5t10 -27.5q0 -16 -10 -27t-27 -11z" />
    <glyph glyph-name="at" unicode="@" horiz-adv-x="943" 
d="M495 -162q-126 0 -220 53.5t-145.5 152t-51.5 233.5q0 96 31 176t88 138.5t135.5 90t172.5 31.5q113 0 199 -46.5t134.5 -129t48.5 -191.5q0 -87 -23.5 -151.5t-65.5 -100t-99 -35.5q-48 0 -76 24.5t-30 66.5q-28 -43 -69.5 -67t-85.5 -24q-75 0 -116.5 47t-41.5 130
q0 74 28.5 132t78 91t111.5 33q50 0 84.5 -23t47.5 -63l10 61q4 23 25 23q22 0 17 -24l-44 -257q-2 -11 -3 -21.5t-1 -19.5q0 -72 68 -72q44 0 76.5 31t51 87.5t18.5 131.5q0 97 -44 170.5t-121.5 115.5t-178.5 42q-114 0 -200.5 -50t-135 -139.5t-48.5 -207.5
q0 -125 46 -214.5t130 -137.5t199 -48q80 0 144.5 25t106.5 67q12 12 23.5 9.5t15.5 -13.5t-9 -24q-46 -49 -119 -76t-162 -27zM439 98q50 0 89.5 30t62.5 82t23 117q0 126 -116 126q-49 0 -89 -28t-63 -77t-23 -112q0 -67 30.5 -102.5t85.5 -35.5z" />
    <glyph glyph-name="A" unicode="A" horiz-adv-x="716" 
d="M29 -6q-12 0 -18 9.5t2 23.5l394 669q8 15 26 15q17 0 22 -16l180 -666q5 -19 0 -27t-15 -8q-19 0 -24 22l-48 179h-387l-109 -185q-9 -16 -23 -16zM425 648l-241 -414h353l-110 414h-2z" />
    <glyph glyph-name="B" unicode="B" horiz-adv-x="666" 
d="M85 0q-28 0 -23 27l104 655q3 23 27 23h224q104 0 156 -43.5t52 -120.5q0 -72 -40 -120.5t-109 -65.5q52 -16 82 -55t30 -93q0 -103 -62 -155t-180 -52h-261zM160 376h227q89 0 141.5 42.5t52.5 121.5q0 126 -167 126h-208zM107 39h243q194 0 194 167q0 65 -42.5 98
t-122.5 33h-225z" />
    <glyph glyph-name="C" unicode="C" horiz-adv-x="667" 
d="M373 -8q-87 0 -152.5 33.5t-101.5 102.5t-36 177q0 87 24.5 161.5t70.5 129.5t110.5 86t144.5 31q67 0 123 -22t96 -62q11 -10 7.5 -22t-14 -16.5t-22.5 7.5q-39 39 -86 56.5t-107 17.5q-92 0 -160 -47.5t-105 -130.5t-37 -190q0 -97 30.5 -157t86 -87t131.5 -27
q54 0 99.5 17t88.5 57q12 11 22.5 6.5t13.5 -16t-9 -22.5q-48 -43 -100.5 -63t-117.5 -20z" />
    <glyph glyph-name="D" unicode="D" horiz-adv-x="725" 
d="M85 0q-28 0 -23 27l104 655q3 23 27 23h167q153 0 236 -75.5t83 -213.5q0 -85 -22.5 -160t-70.5 -132.5t-122.5 -90.5t-179.5 -33h-199zM106 39h180q96 0 162.5 30t107.5 83t59.5 121t18.5 143q0 122 -69 186t-206 64h-153z" />
    <glyph glyph-name="E" unicode="E" horiz-adv-x="570" 
d="M85 0q-28 0 -23 27l104 655q4 23 27 23h383q21 0 21 -15q0 -13 -7 -18.5t-16 -5.5h-368l-46 -289h344q21 0 21 -15q0 -13 -7 -18.5t-16 -5.5h-349l-47 -299h364q21 0 21 -15q0 -13 -7 -18.5t-16 -5.5h-383z" />
    <glyph glyph-name="F" unicode="F" horiz-adv-x="536" 
d="M82 -6q-26 0 -21 27l105 661q4 23 27 23h366q22 0 22 -16q0 -23 -24 -23h-351l-46 -289h327q22 0 22 -16q0 -23 -24 -23h-331l-51 -321q-4 -23 -21 -23z" />
    <glyph glyph-name="G" unicode="G" horiz-adv-x="718" 
d="M384 -8q-145 0 -223.5 76t-78.5 221q0 128 43 223.5t122 148t186 52.5q68 0 126.5 -21t95.5 -62q11 -12 8.5 -24.5t-13 -16.5t-23.5 9q-37 39 -86 56.5t-111 17.5q-93 0 -161 -46.5t-105 -132.5t-37 -204q0 -130 65.5 -193t193.5 -63q52 0 94 8.5t79 21.5l41 253h-175
q-22 0 -22 17q0 22 24 22h194q26 0 21 -25l-44 -280q-3 -18 -15 -23q-36 -16 -90 -25.5t-109 -9.5z" />
    <glyph glyph-name="H" unicode="H" horiz-adv-x="751" 
d="M78 -6q-22 0 -17 26l106 669q3 22 23 22q23 0 18 -26l-48 -308h474l50 312q3 22 23 22q23 0 18 -26l-106 -669q-3 -22 -23 -22q-23 0 -18 26l50 318h-474l-52 -322q-3 -22 -24 -22z" />
    <glyph glyph-name="I" unicode="I" horiz-adv-x="234" 
d="M79 -6q-23 0 -18 26l106 669q3 22 23 22q23 0 18 -26l-106 -669q-3 -22 -23 -22z" />
    <glyph glyph-name="J" unicode="J" horiz-adv-x="297" 
d="M-23 -6q-26 -3 -26 19q0 18 22 20l33 3q122 11 144 151l80 503q3 21 24 21q22 0 17 -25l-81 -509q-13 -82 -57.5 -127t-124.5 -53z" />
    <glyph glyph-name="K" unicode="K" horiz-adv-x="590" 
d="M80 -6q-23 0 -18 25l106 671q3 21 23 21q23 0 18 -25l-49 -309h2l416 324q13 10 24 10q14 0 18 -11.5t-7 -19.5l-415 -326l332 -328q11 -10 6 -21t-19 -11q-12 0 -24 12l-337 332h-2l-51 -323q-3 -21 -23 -21z" />
    <glyph glyph-name="L" unicode="L" horiz-adv-x="527" 
d="M82 0q-23 0 -20 24l106 667q3 20 23 20q21 0 18 -24l-102 -648h357q21 0 21 -15q0 -13 -7 -18.5t-16 -5.5h-380z" />
    <glyph glyph-name="M" unicode="M" horiz-adv-x="844" 
d="M82 0q-21 0 -18 23l106 668q3 20 21 20q15 0 21 -18l195 -540l371 544q9 14 23 14q19 0 16 -24l-106 -668q-3 -19 -20 -19q-21 0 -18 23l94 594l-342 -500q-9 -13 -22 -13q-16 0 -22 18l-183 506l-96 -609q-3 -19 -20 -19z" />
    <glyph glyph-name="N" unicode="N" horiz-adv-x="732" 
d="M77 -6q-19 0 -16 24l107 673q3 20 21 20q8 0 12.5 -3.5t8.5 -11.5l359 -629l99 624q3 20 23 20q18 0 15 -24l-107 -673q-3 -20 -19 -20q-8 0 -12.5 4t-9.5 11l-360 631l-99 -626q-3 -20 -22 -20z" />
    <glyph glyph-name="O" unicode="O" horiz-adv-x="751" 
d="M357 -8q-126 0 -200.5 76t-74.5 221q0 89 22 166t66 135t109 90.5t150 32.5q126 0 200.5 -76t74.5 -221q0 -89 -22 -166t-66 -135t-108.5 -90.5t-150.5 -32.5zM359 33q98 0 164.5 50.5t101 137.5t34.5 195q0 130 -61.5 193t-171.5 63q-97 0 -163.5 -50.5t-101 -137
t-34.5 -195.5q0 -130 61.5 -193t170.5 -63z" />
    <glyph glyph-name="P" unicode="P" horiz-adv-x="616" 
d="M81 -6q-23 0 -20 24l106 667q3 20 23 20h217q100 0 157 -45.5t57 -138.5q0 -101 -64.5 -162.5t-186.5 -61.5h-223l-45 -283q-3 -20 -21 -20zM154 336h220q99 0 151 47t52 137q0 76 -43.5 111t-126.5 35h-201z" />
    <glyph glyph-name="Q" unicode="Q" horiz-adv-x="751" 
d="M547 -159q7 -14 0 -22.5t-18 -7.5t-17 14l-46 101q-14 32 -45 49t-74 17v0q-122 3 -193.5 79t-71.5 218q0 89 22 166t66 135t109 90.5t150 32.5q126 0 200.5 -76t74.5 -221q0 -103 -29.5 -189.5t-87.5 -145.5t-144 -79q19 -8 34 -24.5t29 -46.5zM359 33q98 0 164.5 50.5
t101 137.5t34.5 195q0 130 -61.5 193t-171.5 63q-97 0 -163.5 -50.5t-101 -137t-34.5 -195.5q0 -130 61.5 -193t170.5 -63z" />
    <glyph glyph-name="R" unicode="R" horiz-adv-x="654" 
d="M79 -6q-22 0 -17 25l105 665q3 21 24 21h210q111 0 165.5 -49.5t54.5 -135.5q0 -89 -55 -140.5t-142 -61.5q22 -10 38.5 -31.5t28.5 -52.5l80 -210q11 -30 -14 -30q-15 0 -22 18l-80 209q-19 50 -49 70.5t-89 20.5h-168l-47 -297q-3 -21 -23 -21zM156 351h227
q91 0 142.5 44t51.5 124q0 73 -42 110t-134 37h-195z" />
    <glyph glyph-name="S" unicode="S" horiz-adv-x="600" 
d="M295 -8q-71 0 -137.5 17.5t-114.5 59.5q-11 10 -9 21t12 16t23 -5q50 -40 105 -54t123 -14q90 0 146.5 39.5t56.5 109.5q0 47 -33 81t-119 53l-99 24q-67 16 -108 54.5t-41 117.5q0 60 33.5 105.5t90 70.5t125.5 25q62 0 124 -19.5t104 -62.5q11 -10 8.5 -22t-12.5 -16.5
t-23 6.5q-42 40 -94.5 56.5t-108.5 16.5q-57 0 -103 -20t-73 -55.5t-27 -84.5q0 -62 29 -90t85 -42l99 -24q99 -22 143 -65t44 -105t-33 -105.5t-89 -66t-127 -22.5z" />
    <glyph glyph-name="T" unicode="T" horiz-adv-x="586" 
d="M254 -6q-22 0 -17 25l102 647h-250q-22 0 -22 17q0 22 24 22h546q22 0 22 -16q0 -23 -24 -23h-254l-103 -651q-3 -21 -24 -21z" />
    <glyph glyph-name="U" unicode="U" horiz-adv-x="720" 
d="M330 -8q-132 0 -193.5 74.5t-38.5 221.5l64 402q3 21 24 21q22 0 17 -25l-64 -404q-20 -126 29 -187.5t162 -61.5t177 56t84 181l67 420q3 21 24 21q22 0 17 -25l-67 -425q-21 -135 -95.5 -202t-206.5 -67z" />
    <glyph glyph-name="V" unicode="V" horiz-adv-x="666" 
d="M293 -6q-21 0 -27 24l-178 661q-3 12 2.5 19t16.5 7q16 0 22 -20l171 -633l375 637q9 16 26 16q13 0 17.5 -8t-2.5 -20l-392 -663q-11 -20 -31 -20z" />
    <glyph glyph-name="W" unicode="W" horiz-adv-x="1091" 
d="M263 -6q-19 0 -24 25l-124 665q-5 27 20 27q8 0 13.5 -4.5t7.5 -16.5l116 -626l316 627q10 20 27 20q18 0 23 -26l117 -627l320 637q7 16 23 16q14 0 18 -9t-2 -21l-337 -667q-10 -20 -29 -20q-20 0 -25 25l-116 623l-316 -628q-10 -20 -28 -20z" />
    <glyph glyph-name="X" unicode="X" horiz-adv-x="631" 
d="M21 -6q-10 0 -16 10t5 23l301 337l-181 314q-8 14 -3.5 23.5t17.5 9.5q9 0 13.5 -4t8.5 -12l173 -301l269 305q11 12 24 12q11 0 16.5 -10t-5.5 -23l-282 -318l192 -333q8 -14 3.5 -23.5t-17.5 -9.5q-9 0 -13 4.5t-9 11.5l-185 319l-288 -323q-10 -12 -23 -12z" />
    <glyph glyph-name="Y" unicode="Y" horiz-adv-x="577" 
d="M249 -6q-21 0 -18 24l51 324l-194 336q-8 14 -4 23.5t17 9.5q9 0 13.5 -4t8.5 -12l183 -316l288 320q11 12 23 12q11 0 16.5 -10t-6.5 -23l-303 -335l-52 -329q-3 -20 -23 -20z" />
    <glyph glyph-name="Z" unicode="Z" horiz-adv-x="575" 
d="M34 0q-15 0 -19 13t9 29l523 624h-413q-20 0 -20 16q0 13 7.5 18t15.5 5h451q18 0 21 -12.5t-11 -29.5l-524 -624h428q21 0 21 -15q0 -13 -7 -18.5t-16 -5.5h-466z" />
    <glyph glyph-name="bracketleft" unicode="[" horiz-adv-x="281" 
d="M75 -180q-12 0 -19.5 9t-5.5 21l132 835q2 8 8 14t15 6h121q27 0 27 -18q0 -19 -23 -19h-109l-128 -811h107q12 0 15.5 -5t3.5 -12q0 -8 -5.5 -14t-17.5 -6h-121z" />
    <glyph glyph-name="backslash" unicode="\" horiz-adv-x="256" 
d="M187 -39l-124 761q-2 13 6.5 19.5t18.5 4t12 -17.5l125 -762q3 -14 -6 -20t-19 -2.5t-13 17.5z" />
    <glyph glyph-name="bracketright" unicode="]" horiz-adv-x="281" 
d="M-39 -180q-27 0 -27 18q0 19 23 19h109l128 811h-107q-12 0 -15.5 5t-3.5 12q0 8 5.5 14t17.5 6h121q12 0 19.5 -9t5.5 -21l-132 -835q-1 -8 -7.5 -14t-15.5 -6h-121z" />
    <glyph glyph-name="asciicircum" unicode="^" horiz-adv-x="600" 
d="M62 134q-13 0 -16 9.5t6 23.5l284 450q6 10 12 13t14 3q16 0 22 -21l142 -450q5 -13 0 -20.5t-16 -7.5q-14 0 -20 18l-135 424l-270 -428q-8 -14 -23 -14z" />
    <glyph glyph-name="underscore" unicode="_" horiz-adv-x="500" 
d="M-7 -33q-20 0 -20 14q0 9 6.5 14t14.5 5h431q20 0 20 -15q0 -7 -6.5 -12.5t-14.5 -5.5h-431z" />
    <glyph glyph-name="grave" unicode="`" horiz-adv-x="500" 
d="M275 553l-120 172q-10 14 -3 23.5t20.5 9.5t21.5 -14l107 -174q7 -10 2.5 -18t-13 -8.5t-15.5 9.5z" />
    <glyph glyph-name="a" unicode="a" horiz-adv-x="514" 
d="M205 -8q-40 0 -76 17.5t-58 49.5t-22 75q0 76 65 108.5t210 32.5h71l6 40q11 68 -15.5 103t-96.5 35q-40 0 -75.5 -8t-67.5 -31q-14 -10 -24 -4.5t-10.5 17.5t14.5 21q35 23 78 33.5t87 10.5q88 0 126 -50t24 -140l-46 -287q-3 -21 -23 -21t-17 25l9 61
q-25 -45 -69 -66.5t-90 -21.5zM208 30q40 0 76.5 19t62.5 55t34 87l8 47h-49q-93 0 -146 -9.5t-75.5 -32t-22.5 -60.5q0 -52 34.5 -79t77.5 -27z" />
    <glyph glyph-name="b" unicode="b" horiz-adv-x="568" 
d="M275 -8q-57 0 -102.5 27.5t-66.5 85.5l-14 -90q-3 -21 -24 -21q-22 0 -17 25l106 671q3 21 24 21q22 0 17 -25l-45 -285q28 43 72 67t102 24q86 0 138 -55.5t52 -150.5q0 -78 -27.5 -145t-81.5 -108t-133 -41zM277 31q64 0 108 35t66.5 93t22.5 127q0 83 -40.5 125
t-112.5 42q-64 0 -108 -35t-66.5 -92.5t-22.5 -127.5q0 -82 40.5 -124.5t112.5 -42.5z" />
    <glyph glyph-name="c" unicode="c" horiz-adv-x="455" 
d="M248 -8q-100 0 -148 58.5t-48 151.5q0 53 14 104.5t43.5 93.5t76 67t111.5 25q39 0 75.5 -12t61.5 -32q16 -12 16 -25t-8.5 -18t-21.5 5q-52 43 -125 43q-53 0 -91 -21.5t-62 -58t-35.5 -81t-11.5 -90.5q0 -78 36.5 -124.5t118.5 -46.5q28 0 58.5 9.5t57.5 30.5
q13 10 22 5t11 -16t-9 -20q-28 -23 -66.5 -35.5t-75.5 -12.5z" />
    <glyph glyph-name="d" unicode="d" horiz-adv-x="568" 
d="M241 -8q-85 0 -137.5 55.5t-52.5 150.5q0 78 27.5 145t81.5 108t133 41q57 0 103 -28t66 -87l50 313q3 21 24 21q22 0 17 -25l-106 -671q-3 -21 -24 -21q-22 0 -17 25l10 66q-27 -43 -72 -68t-103 -25zM247 31q64 0 108 35t66.5 93t22.5 127q0 83 -40.5 125t-112.5 42
q-64 0 -108 -35t-66.5 -92.5t-22.5 -127.5q0 -82 40.5 -124.5t112.5 -42.5z" />
    <glyph glyph-name="e" unicode="e" horiz-adv-x="523" 
d="M261 -8q-98 0 -154 55.5t-56 152.5q0 77 29 143.5t85 107.5t136 41q72 0 113.5 -33.5t57 -87t6.5 -112.5q-2 -14 -7 -19.5t-18 -5.5h-358q-11 -91 32.5 -147t131.5 -56q42 0 77 10.5t69 35.5q15 11 24.5 6.5t10.5 -16t-13 -22.5q-33 -25 -77.5 -39t-88.5 -14zM300 454
q-62 0 -103 -27t-64 -69t-32 -87h339q6 51 -6 92.5t-45 66t-89 24.5z" />
    <glyph glyph-name="f" unicode="f" horiz-adv-x="306" 
d="M87 -6q-22 0 -17 25l68 429h-75q-18 0 -18 14q0 22 24 22h75l7 49q12 78 60 122.5t126 49.5l29 2q15 1 20 -8t1 -19t-16 -11l-32 -2q-126 -7 -147 -139l-7 -44h127q18 0 18 -13q0 -23 -24 -23h-126l-69 -433q-3 -21 -24 -21z" />
    <glyph glyph-name="g" unicode="g" horiz-adv-x="570" 
d="M241 -188q-57 0 -104.5 18t-87.5 47q-9 7 -6.5 18t11.5 17t21 -3q38 -28 75.5 -43t88.5 -15q68 0 111 36.5t55 112.5l17 110q-27 -46 -73 -72.5t-107 -26.5q-57 0 -100 24.5t-67 69t-24 103.5q0 55 15.5 106t46.5 91t76 63.5t105 23.5q57 0 103 -27.5t67 -85.5l14 90
q3 21 24 21q22 0 17 -25l-73 -463q-16 -97 -66.5 -143.5t-138.5 -46.5zM248 50q65 0 109 34.5t66.5 90.5t22.5 121q0 75 -40.5 116t-113.5 41q-64 0 -108.5 -34.5t-67 -90t-22.5 -120.5q0 -76 40.5 -117t113.5 -41z" />
    <glyph glyph-name="h" unicode="h" horiz-adv-x="553" 
d="M67 -6q-22 0 -17 25l106 671q3 21 24 21q22 0 17 -25l-46 -290q28 45 73.5 70.5t106.5 25.5q81 0 122 -48.5t25 -148.5l-44 -280q-3 -21 -25 -21t-17 25l44 277q25 157 -106 157q-86 0 -135.5 -51.5t-63.5 -137.5l-39 -249q-3 -21 -25 -21z" />
    <glyph glyph-name="i" unicode="i" horiz-adv-x="212" 
d="M167 616q-30 0 -30 28q0 20 11 30.5t30 10.5q30 0 30 -28q0 -19 -11 -30t-30 -11zM67 -6q-22 0 -17 25l71 450q3 21 24 21q22 0 17 -25l-71 -450q-3 -21 -24 -21z" />
    <glyph glyph-name="j" unicode="j" horiz-adv-x="215" 
d="M167 616q-30 0 -30 28q0 20 11 30.5t30 10.5q30 0 30 -28q0 -19 -11 -30t-30 -11zM-100 -191q-14 0 -18.5 9.5t-0.5 19t17 9.5q61 0 99 31t49 100l78 491q3 21 24 21q22 0 17 -25l-78 -491q-13 -84 -62 -124.5t-125 -40.5z" />
    <glyph glyph-name="k" unicode="k" horiz-adv-x="468" 
d="M67 -6q-22 0 -17 25l106 671q3 21 24 21q22 0 17 -25l-67 -426h2l279 220q13 10 25 10q11 0 15.5 -11t-9.5 -22l-267 -212l226 -218q11 -10 7 -21.5t-16 -11.5q-14 0 -30 16l-234 227h-2l-35 -222q-3 -21 -24 -21z" />
    <glyph glyph-name="l" unicode="l" horiz-adv-x="275" 
d="M177 -8q-62 0 -91 38t-17 113l87 547q3 21 24 21q22 0 17 -25l-86 -543q-10 -61 8.5 -86.5t65.5 -25.5q16 0 24.5 2t12.5 2q11 0 11 -15q0 -20 -24 -25q-7 -1 -16.5 -2t-15.5 -1z" />
    <glyph glyph-name="m" unicode="m" horiz-adv-x="838" 
d="M69 -6q-22 0 -17 25l71 450q3 21 24 21q19 0 16 -25l-11 -71q27 47 68 72.5t94 25.5q54 0 89.5 -27.5t45.5 -79.5q25 50 70 78.5t106 28.5q76 0 114 -48t22 -149l-44 -280q-3 -21 -25 -21q-20 0 -17 25l44 282q24 152 -96 152q-71 0 -118 -50t-61 -139l-39 -249
q-3 -21 -25 -21t-17 25l45 282q24 152 -96 152q-71 0 -118 -50t-61 -139l-39 -249q-3 -21 -25 -21z" />
    <glyph glyph-name="n" unicode="n" horiz-adv-x="553" 
d="M68 -6q-10 0 -14.5 7.5t-2.5 19.5l71 448q3 21 24 21t16 -25l-11 -69q28 45 73.5 70.5t106.5 25.5q81 0 122 -48.5t25 -148.5l-45 -282q-3 -19 -24 -19q-22 0 -17 25l44 277q25 157 -106 157q-86 0 -135.5 -51.5t-63.5 -137.5l-39 -249q-3 -21 -24 -21z" />
    <glyph glyph-name="o" unicode="o" horiz-adv-x="538" 
d="M245 -8q-89 0 -141.5 55.5t-52.5 152.5q0 77 28 143.5t82 107.5t132 41q89 0 141.5 -55t52.5 -153q0 -77 -28 -143.5t-81.5 -107.5t-132.5 -41zM247 31q64 0 108 35t66.5 93t22.5 127q0 83 -40.5 125t-112.5 42q-64 0 -108 -35t-66.5 -92.5t-22.5 -127.5
q0 -82 40.5 -124.5t112.5 -42.5z" />
    <glyph glyph-name="p" unicode="p" horiz-adv-x="568" 
d="M38 -186q-22 0 -17 25l100 630q3 21 24 21q22 0 17 -25l-10 -66q27 43 72 68t103 25q86 0 138 -55.5t52 -150.5q0 -78 -27.5 -145t-81.5 -108t-133 -41q-57 0 -103 28t-66 87l-44 -272q-3 -21 -24 -21zM277 31q64 0 108 35t66.5 93t22.5 127q0 83 -40.5 125t-112.5 42
q-64 0 -108 -35t-66.5 -92.5t-22.5 -127.5q0 -82 40.5 -124.5t112.5 -42.5z" />
    <glyph glyph-name="q" unicode="q" horiz-adv-x="568" 
d="M394 -186q-20 0 -17 25l38 244q-28 -43 -72 -67t-102 -24q-85 0 -137.5 55.5t-52.5 150.5q0 78 27.5 145t81.5 108t133 41q57 0 103 -28t66 -87l15 92q3 21 24 21q22 0 17 -25l-100 -630q-3 -21 -24 -21zM247 31q64 0 108 35t66.5 93t22.5 127q0 83 -40.5 125t-112.5 42
q-64 0 -108 -35t-66.5 -92.5t-22.5 -127.5q0 -82 40.5 -124.5t112.5 -42.5z" />
    <glyph glyph-name="r" unicode="r" horiz-adv-x="327" 
d="M68 -6q-22 0 -17 25l71 450q3 21 24 21q9 0 14 -6.5t3 -18.5l-10 -60q27 43 73.5 66t97.5 23q30 0 30 -17q0 -10 -5 -14.5t-19 -6.5l-12 -1q-91 -7 -131.5 -54t-52.5 -121l-42 -265q-3 -21 -24 -21z" />
    <glyph glyph-name="s" unicode="s" horiz-adv-x="475" 
d="M220 -8q-49 0 -91.5 13t-72.5 35q-11 9 -10 20.5t11 17t24 -5.5q31 -22 66.5 -31.5t75.5 -9.5q60 0 95.5 25t35.5 72q0 30 -19.5 50t-54.5 29l-97 26q-45 12 -72 43t-27 74q0 63 50.5 102.5t130.5 39.5q44 0 84 -14t65 -37q12 -11 10.5 -22.5t-11 -15.5t-22.5 7
q-50 43 -127 43q-61 0 -98.5 -27.5t-37.5 -74.5q0 -29 17.5 -50t53.5 -31l97 -26q47 -13 74.5 -41t27.5 -72q0 -64 -49 -101.5t-129 -37.5z" />
    <glyph glyph-name="t" unicode="t" horiz-adv-x="320" 
d="M220 -8q-73 0 -108 43t-23 118l47 295h-78q-22 0 -22 15q0 21 24 21h81l22 136q3 21 24 21q22 0 17 -25l-21 -132h140q22 0 22 -15q0 -21 -24 -21h-144l-45 -286q-11 -70 12.5 -100.5t78.5 -30.5q24 0 37 4.5t20 4.5q13 0 13 -15q0 -18 -13 -23q-10 -4 -27.5 -7t-32.5 -3
z" />
    <glyph glyph-name="u" unicode="u" horiz-adv-x="545" 
d="M219 -8q-79 0 -119.5 48.5t-24.5 148.5l44 280q3 21 24 21q23 0 18 -25l-44 -277q-25 -157 103 -157q83 0 132 52t62 137l39 249q3 21 24 21t18 -22l-72 -453q-3 -21 -23 -21q-22 0 -17 25l11 68q-27 -45 -72.5 -70t-102.5 -25z" />
    <glyph glyph-name="v" unicode="v" horiz-adv-x="504" 
d="M213 -6q-21 0 -29 26l-117 437q-4 14 2 23.5t19 9.5q15 0 21 -20l109 -426l247 430q9 16 23 16t18.5 -10.5t-3.5 -24.5l-257 -440q-6 -10 -13 -15.5t-20 -5.5z" />
    <glyph glyph-name="w" unicode="w" horiz-adv-x="830" 
d="M196 -6q-10 0 -18.5 6.5t-10.5 19.5l-83 434q-3 16 1.5 26t17.5 10q11 0 15 -5.5t6 -16.5l77 -419l217 420q11 21 33 21q11 0 19.5 -6t10.5 -20l79 -416l217 426q9 16 23 16t17.5 -9.5t-2.5 -21.5l-227 -444q-10 -21 -31 -21q-10 0 -18.5 6.5t-11.5 19.5l-81 414
l-218 -419q-10 -21 -32 -21z" />
    <glyph glyph-name="x" unicode="x" horiz-adv-x="506" 
d="M26 -6q-13 0 -17 10t3 18l218 228l-132 205q-11 17 -4 26t15 9q14 0 23 -15l127 -198l187 201q6 6 11 9t13 3q14 0 18 -10t-4 -18l-203 -216l140 -217q11 -17 3.5 -26t-15.5 -9q-14 0 -23 15l-134 210l-202 -213q-12 -12 -24 -12z" />
    <glyph glyph-name="y" unicode="y" horiz-adv-x="504" 
d="M115 -186q-13 0 -16.5 10.5t4.5 24.5l86 148l-122 461q-4 14 1.5 23t18.5 9q10 0 14 -4.5t7 -15.5l108 -426l249 430q9 16 23 16t19 -10.5t-3 -24.5l-366 -624q-9 -17 -23 -17z" />
    <glyph glyph-name="z" unicode="z" horiz-adv-x="454" 
d="M42 0q-12 0 -17.5 10t4.5 21l360 418h-280q-19 0 -19 15q0 20 21 20h317q14 0 18.5 -10.5t-8.5 -24.5l-357 -414h291q19 0 19 -14q0 -21 -21 -21h-328z" />
    <glyph glyph-name="braceleft" unicode="{" horiz-adv-x="318" 
d="M185 -180q-54 0 -75 21.5t-14 63.5l40 257q8 48 -9.5 64.5t-57.5 17.5q-17 0 -17 17q0 8 6 14.5t15 6.5q44 1 66 18t29 64l41 256q7 41 30.5 63t65.5 22h63q22 0 22 -18q0 -9 -7 -14t-15 -5h-65q-44 0 -52 -46l-41 -261q-7 -47 -31.5 -70t-50.5 -28q24 -6 40.5 -29
t9.5 -69l-40 -262q-8 -46 36 -46h56q11 0 18.5 -5t7.5 -12q0 -20 -22 -20h-49z" />
    <glyph glyph-name="bar" unicode="|" horiz-adv-x="244" 
d="M54 -186q-20 0 -17 25l135 851q3 21 24 21q20 0 17 -25l-135 -851q-3 -21 -24 -21z" />
    <glyph glyph-name="braceright" unicode="}" horiz-adv-x="318" 
d="M-44 -180q-22 0 -22 18q0 9 7 14t15 5h65q44 0 52 46l41 261q7 47 31.5 70t50.5 28q-24 6 -40.5 29t-9.5 69l40 262q8 46 -36 46h-56q-11 0 -18.5 5t-7.5 12q0 20 22 20h49q54 0 75 -21.5t14 -63.5l-40 -257q-7 -48 10 -65t57 -17q17 0 17 -17q0 -8 -6 -14.5t-15 -6.5
q-43 0 -65 -17.5t-30 -64.5l-41 -256q-7 -40 -30.5 -62.5t-65.5 -22.5h-63z" />
    <glyph glyph-name="asciitilde" unicode="~" horiz-adv-x="600" 
d="M422 224q-36 0 -67.5 15t-59.5 31q-28 17 -52.5 29t-49.5 12q-34 0 -55.5 -17t-37.5 -40q-7 -10 -18 -10t-17 8t2 21q25 39 54.5 58t70.5 19q36 0 69 -15t61 -32q28 -16 51 -28t48 -12q35 0 56.5 17.5t36.5 39.5q7 11 18 10.5t17 -8.5t-2 -21q-25 -40 -54.5 -58.5
t-70.5 -18.5z" />
    <glyph glyph-name="uni00A0" unicode="&#xa0;" horiz-adv-x="246" 
 />
    <glyph glyph-name="exclamdown" unicode="&#xa1;" horiz-adv-x="211" 
d="M139 411q-16 0 -27 11t-11 27q0 17 11 27.5t27 10.5q17 0 27 -10.5t10 -27.5q0 -16 -10 -27t-27 -11zM40 -186q-28 0 -23 29l86 471q1 5 5 10t10 5q15 0 13 -17l-63 -473q-3 -25 -28 -25z" />
    <glyph glyph-name="cent" unicode="&#xa2;" horiz-adv-x="600" 
d="M253 -121q-8 0 -13.5 5.5t-3.5 18.5l15 95q-79 14 -116 69t-37 135q0 50 13 99t40.5 90t71 67.5t105.5 30.5l16 101q3 20 22 20q8 0 13.5 -6t3.5 -20l-15 -95q82 -7 130 -53q10 -9 7.5 -19t-12.5 -13.5t-24 7.5q-49 40 -121 40q-56 0 -95.5 -21.5t-64 -57.5t-36 -80.5
t-11.5 -89.5q0 -76 37 -122.5t125 -46.5q28 0 58.5 9.5t58.5 30.5q14 11 23.5 6.5t12 -15t-7.5 -18.5q-35 -29 -79 -41.5t-78 -10.5l-15 -95q-3 -20 -23 -20z" />
    <glyph glyph-name="sterling" unicode="&#xa3;" horiz-adv-x="600" 
d="M34 0q-12 0 -18 5.5t-6 12.5q0 10 7 15.5t17 5.5h96l47 296h-94q-21 0 -21 16q0 8 7 14t17 6h97l24 151q15 95 67.5 143t150.5 48q53 0 100 -18.5t78 -52.5q11 -12 7.5 -23t-14 -14t-21.5 8q-30 33 -68 46t-85 13q-149 0 -173 -148l-24 -153h172q22 0 22 -16q0 -8 -7 -14
t-17 -6h-176l-47 -296h322q12 0 17 -5t5 -12q0 -10 -7 -16t-17 -6h-458z" />
    <glyph glyph-name="currency" unicode="&#xa4;" horiz-adv-x="600" 
d="M52 -10q-18 19 0 37l62 63q-24 32 -38 72t-14 83q0 44 13.5 84t38.5 71l-62 64q-16 18 0 36q7 8 18 7.5t19 -9.5l60 -62q31 27 70.5 42t82.5 15t81.5 -14.5t69.5 -40.5l58 60q8 9 19 9.5t18 -7.5q18 -18 -1 -37l-60 -60q26 -33 40.5 -73t14.5 -85t-14.5 -85t-40.5 -72
l60 -61q18 -19 0 -37q-7 -7 -18 -7t-19 8l-58 61q-31 -26 -69 -40.5t-81 -14.5t-82 15t-71 41l-61 -62q-18 -18 -36 -1zM301 40q54 0 97.5 27.5t69 74t25.5 103.5t-25.5 103.5t-69 74.5t-97.5 27q-53 0 -96.5 -27.5t-69.5 -74t-26 -103.5t26 -103.5t69.5 -74t96.5 -27.5z
" />
    <glyph glyph-name="yen" unicode="&#xa5;" horiz-adv-x="600" 
d="M261 -6q-21 0 -18 24l27 171h-187q-11 0 -15 4.5t-4 11.5q0 8 6.5 14t15.5 6h190l18 114h-187q-11 0 -15 4.5t-4 11.5q0 8 6.5 14t15.5 6h161l-177 302q-8 15 -3.5 24.5t17.5 9.5q9 0 13.5 -4t8.5 -12l187 -323l292 327q11 12 23 12q11 0 17 -10t-6 -24l-270 -302h156
q11 0 15 -4.5t4 -11.5q0 -8 -6.5 -14t-15.5 -6h-190l-18 -114h187q11 0 15 -4.5t4 -11.5q0 -8 -6.5 -14t-15.5 -6h-190l-28 -175q-3 -20 -23 -20z" />
    <glyph glyph-name="brokenbar" unicode="&#xa6;" horiz-adv-x="244" 
d="M142 366q-22 0 -17 25l48 299q3 21 24 21q22 0 17 -25l-48 -299q-3 -21 -24 -21zM55 -186q-22 0 -17 25l48 299q3 21 24 21q22 0 17 -25l-48 -299q-3 -21 -24 -21z" />
    <glyph glyph-name="section" unicode="&#xa7;" horiz-adv-x="523" 
d="M187 -188q-61 0 -107.5 14.5t-76.5 39.5q-12 10 -10 21.5t12.5 16t24.5 -7.5q55 -45 156 -45q52 0 89.5 19.5t57.5 52.5t20 73q0 46 -19.5 71.5t-65.5 54.5l-88 56q-56 36 -86 75t-30 83q0 38 21 76t57 63q-9 26 -9 56q0 53 29 94t76.5 64.5t104.5 23.5q50 0 93 -13
t77 -42q12 -10 10 -21t-12.5 -15t-24.5 7q-26 22 -64 33.5t-78 11.5q-52 0 -89.5 -19.5t-57.5 -52.5t-20 -73q0 -46 19 -73.5t66 -56.5l84 -52q119 -73 119 -158q0 -37 -20 -74.5t-57 -64.5q9 -24 9 -56q0 -53 -29 -94t-76.5 -64.5t-104.5 -23.5zM105 340q0 -36 25.5 -65.5
t73.5 -61.5l75 -49q32 -21 55 -40t38 -41q25 22 38.5 50t13.5 52q0 36 -26 65.5t-76 61.5l-70 45q-32 21 -55.5 41t-38.5 43q-26 -22 -39.5 -49.5t-13.5 -51.5z" />
    <glyph glyph-name="dieresis" unicode="&#xa8;" horiz-adv-x="500" 
d="M390 617q-29 0 -29 27q0 39 38 39q29 0 29 -27q0 -39 -38 -39zM229 617q-29 0 -29 27q0 39 38 39q29 0 29 -27q0 -39 -38 -39z" />
    <glyph glyph-name="copyright" unicode="&#xa9;" horiz-adv-x="815" 
d="M425 -8q-76 0 -142 27.5t-115 76.5t-76.5 115t-27.5 142q0 77 27.5 142.5t76.5 114t114.5 76t142.5 27.5t142.5 -27.5t114 -76t76 -114t27.5 -142.5q0 -76 -27.5 -142t-76 -115t-114 -76.5t-142.5 -27.5zM425 28q68 0 127 24.5t103 69t68.5 103.5t24.5 128t-24.5 128
t-68.5 103t-103 68.5t-127 24.5q-69 0 -128 -24.5t-103 -68.5t-68.5 -103t-24.5 -128t24.5 -128t68.5 -103.5t103 -69t128 -24.5zM434 137q-94 0 -147 60.5t-53 158.5t53 155t147 57q38 0 74 -13.5t61 -37.5q9 -8 6.5 -17.5t-11.5 -13t-22 5.5q-27 21 -55 29.5t-54 8.5
q-74 0 -116 -46t-42 -129q0 -82 42 -131t116 -49q26 0 54.5 9t55.5 31q12 10 21 5.5t11.5 -14.5t-6.5 -18q-27 -24 -63 -37.5t-72 -13.5z" />
    <glyph glyph-name="ordfeminine" unicode="&#xaa;" horiz-adv-x="316" 
d="M171 413q-41 0 -69 25.5t-28 62.5q0 44 39 64t127 20h54l3 21q6 39 -16.5 57.5t-60.5 18.5q-23 0 -43 -6t-40 -17q-11 -6 -18.5 -1.5t-7.5 13.5t11 16q20 12 45.5 19t53.5 7q53 0 85.5 -30.5t23.5 -86.5l-26 -166q-3 -16 -20 -16t-14 19l6 38h-2q-16 -26 -42 -42t-61 -16
zM173 444q25 0 49.5 12t42 33.5t21.5 47.5l3 19h-40q-79 0 -109 -12.5t-30 -41.5q0 -26 17.5 -42t45.5 -16z" />
    <glyph glyph-name="guillemotleft" unicode="&#xab;" horiz-adv-x="394" 
d="M148 95q-7 -2 -15 1t-11 11l-58 143q-2 5 -2 13.5t6 16.5l109 148q10 14 25 7q8 -4 9 -13.5t-6 -19.5l-98 -139l51 -140q8 -23 -10 -28zM306 95q-7 -2 -15 1t-11 11l-58 143q-2 5 -2 13.5t6 16.5l109 148q10 14 25 7q8 -4 9 -13.5t-6 -19.5l-98 -139l51 -140
q8 -23 -10 -28z" />
    <glyph glyph-name="logicalnot" unicode="&#xac;" horiz-adv-x="600" 
d="M508 151q-20 0 -15 26l31 193h-429q-22 0 -22 16q0 23 24 23h443q12 0 19.5 -8.5t5.5 -22.5l-33 -208q-3 -19 -24 -19z" />
    <glyph glyph-name="uni00AD" unicode="&#xad;" horiz-adv-x="416" 
d="M91 246q-18 0 -18 14q0 9 6 16.5t18 7.5h236q18 0 18 -14q0 -9 -6 -16.5t-18 -7.5h-236z" />
    <glyph glyph-name="registered" unicode="&#xae;" horiz-adv-x="815" 
d="M425 -8q-76 0 -142 27.5t-115 76.5t-76.5 115t-27.5 142q0 77 27.5 142.5t76.5 114t114.5 76t142.5 27.5t142.5 -27.5t114 -76t76 -114t27.5 -142.5q0 -76 -27.5 -142t-76 -115t-114 -76.5t-142.5 -27.5zM425 28q68 0 127 24.5t103 69t68.5 103.5t24.5 128t-24.5 128
t-68.5 103t-103 68.5t-127 24.5q-69 0 -128 -24.5t-103 -68.5t-68.5 -103t-24.5 -128t24.5 -128t68.5 -103.5t103 -69t128 -24.5zM311 136q-21 0 -21 22v380q0 25 25 25h137q65 0 100 -31t35 -89q0 -97 -97 -115q31 -11 46 -47l47 -115q5 -13 0 -21.5t-16 -8.5q-15 0 -21 16
l-52 124q-11 28 -33 37.5t-53 9.5h-77v-165q0 -22 -20 -22zM331 360h116q99 0 99 83t-99 83h-116v-166z" />
    <glyph glyph-name="macron" unicode="&#xaf;" horiz-adv-x="500" 
d="M190 633q-21 0 -21 16q0 22 23 22h248q21 0 21 -16q0 -22 -23 -22h-248z" />
    <glyph glyph-name="degree" unicode="&#xb0;" horiz-adv-x="364" 
d="M234 426q-40 0 -72 19t-50.5 51t-18.5 72t18.5 72t50.5 51t72 19t71.5 -18.5t50 -50.5t18.5 -73q0 -40 -18.5 -72.5t-50 -51t-71.5 -18.5zM234 466q44 0 71 28.5t27 73.5t-27 73.5t-71 28.5q-43 0 -70.5 -28.5t-27.5 -73.5t27.5 -73.5t70.5 -28.5z" />
    <glyph glyph-name="plusminus" unicode="&#xb1;" horiz-adv-x="600" 
d="M281 111q-22 0 -17 26l26 166h-205q-22 0 -22 16q0 23 24 23h210l26 170q2 10 7 16t16 6q22 0 17 -26l-26 -166h204q22 0 22 -16q0 -23 -24 -23h-209l-26 -170q-1 -10 -6.5 -16t-16.5 -6zM37 0q-22 0 -22 16q0 23 24 23h454q22 0 22 -16q0 -23 -24 -23h-454z" />
    <glyph glyph-name="uni00B2" unicode="&#xb2;" horiz-adv-x="380" 
d="M85 282q-20 0 -20 16q0 5 3.5 10t8.5 10l163 150q37 35 62 68.5t26 70.5q1 31 -20 48t-59 17q-28 0 -54.5 -9.5t-52.5 -26.5q-13 -9 -21.5 -4t-9 16t11.5 19q28 20 62 31t70 11q54 0 85.5 -27t29.5 -71q-1 -50 -31.5 -89.5t-74.5 -79.5l-135 -123h192q20 0 20 -17
q0 -20 -22 -20h-234z" />
    <glyph glyph-name="uni00B3" unicode="&#xb3;" horiz-adv-x="380" 
d="M203 279q-34 0 -70.5 9.5t-64.5 32.5q-10 9 -9 19.5t10 15t22 -5.5q26 -20 54 -27t59 -7q40 0 70 24t31 66q1 33 -21.5 52.5t-65.5 19.5h-58q-20 0 -20 16q0 21 22 21h61q44 0 75.5 24t32.5 65q1 31 -20.5 49.5t-58.5 18.5q-58 0 -110 -38q-12 -8 -20.5 -3.5t-9 15
t10.5 18.5q28 20 62.5 32.5t72.5 12.5q55 0 85.5 -29t29.5 -72q-1 -40 -26 -70t-65 -41q32 -11 48.5 -35.5t15.5 -56.5q-1 -37 -20.5 -65.5t-51.5 -44.5t-71 -16z" />
    <glyph glyph-name="acute" unicode="&#xb4;" horiz-adv-x="500" 
d="M318 552q-7 -9 -15.5 -8t-12 8t2.5 16l118 175q11 17 24 15.5t18.5 -12.5t-4.5 -24z" />
    <glyph glyph-name="uni00B5" unicode="&#xb5;" horiz-adv-x="600" 
d="M65 -186q-22 0 -17 25l100 630q3 21 24 21q23 0 18 -25l-44 -277q-25 -157 103 -157q83 0 132 52t62 137l39 249q3 21 24 21q22 0 17 -25l-71 -450q-3 -21 -23 -21q-22 0 -17 25l11 68q-27 -45 -72.5 -70t-102.5 -25q-92 0 -128 62l-31 -219q-3 -21 -24 -21z" />
    <glyph glyph-name="paragraph" unicode="&#xb6;" horiz-adv-x="556" 
d="M192 -186q-20 0 -17 25l78 496q-50 0 -85.5 21.5t-54.5 57.5t-19 80q0 62 27 109.5t75 74.5t110 27h200q28 0 23 -27l-134 -843q-3 -21 -24 -21q-20 0 -17 25l131 828h-137l-132 -832q-3 -21 -24 -21z" />
    <glyph glyph-name="periodcentered" unicode="&#xb7;" horiz-adv-x="211" 
d="M110 227q-16 0 -27 11t-11 27q0 17 11 27.5t27 10.5q17 0 27 -10.5t10 -27.5q0 -16 -10 -27t-27 -11z" />
    <glyph glyph-name="cedilla" unicode="&#xb8;" horiz-adv-x="500" 
d="M193 -190q-17 0 -34 3t-31 9q-11 5 -12 15.5t6 17.5t19 1q23 -10 59 -10q28 0 47 11.5t19 33.5q0 30 -35 30q-8 0 -19 -1.5t-21 -4.5q-15 -5 -21 1q-3 3 -3.5 7t2.5 13l27 84h38l-23 -69q15 3 26 3q29 0 49 -15.5t20 -44.5q0 -37 -32 -60.5t-81 -23.5z" />
    <glyph glyph-name="uni00B9" unicode="&#xb9;" horiz-adv-x="380" 
d="M131 282q-20 0 -20 16q0 21 22 21h74l52 332l-67 -41q-13 -8 -22.5 -2.5t-9.5 17t13 19.5l88 54q14 9 26 9q18 0 15 -25l-57 -363h60q20 0 20 -15q0 -22 -22 -22h-172z" />
    <glyph glyph-name="ordmasculine" unicode="&#xba;" horiz-adv-x="326" 
d="M207 413q-57 0 -93 37.5t-36 99.5q0 50 19.5 86.5t52 56.5t71.5 20q57 0 93 -37.5t36 -99.5q0 -50 -19.5 -86.5t-51.5 -56.5t-72 -20zM208 444q47 0 76.5 34.5t29.5 98.5q0 50 -25.5 77.5t-68.5 27.5q-47 0 -76.5 -34.5t-29.5 -98.5q0 -50 25.5 -77.5t68.5 -27.5z" />
    <glyph glyph-name="guillemotright" unicode="&#xbb;" horiz-adv-x="394" 
d="M40 95q-8 4 -8.5 13.5t6.5 19.5l97 139l-50 140q-8 23 9 28q8 2 15.5 -1t10.5 -11l58 -143q2 -5 2 -13.5t-6 -16.5l-109 -148q-10 -14 -25 -7zM198 95q-8 4 -8.5 13.5t6.5 19.5l97 139l-50 140q-8 23 9 28q8 2 15.5 -1t10.5 -11l58 -143q2 -5 2 -13.5t-6 -16.5l-109 -148
q-10 -14 -25 -7z" />
    <glyph glyph-name="onequarter" unicode="&#xbc;" horiz-adv-x="877" 
d="M131 282q-20 0 -20 16q0 21 22 21h74l52 332l-67 -41q-13 -8 -22.5 -2.5t-9.5 17t13 19.5l88 54q14 9 26 9q18 0 15 -25l-57 -363h60q20 0 20 -15q0 -22 -22 -22h-172zM232 -7q-8 -12 -18 -11t-13.5 9.5t4.5 20.5l514 700q9 12 18.5 11.5t13.5 -9.5t-5 -21zM721 -3
q-20 0 -17 23l12 74h-173q-22 0 -22 19q0 5 3 10t7 11l233 277q11 14 23 14q19 0 16 -23l-43 -271h44q20 0 20 -15q0 -22 -22 -22h-48l-12 -78q-3 -19 -21 -19zM722 131l34 218l-183 -218h149z" />
    <glyph glyph-name="onehalf" unicode="&#xbd;" horiz-adv-x="917" 
d="M131 282q-20 0 -20 16q0 21 22 21h74l52 332l-67 -41q-13 -8 -22.5 -2.5t-9.5 17t13 19.5l88 54q14 9 26 9q18 0 15 -25l-57 -363h60q20 0 20 -15q0 -22 -22 -22h-172zM232 -7q-8 -12 -18 -11t-13.5 9.5t4.5 20.5l514 700q9 12 18.5 11.5t13.5 -9.5t-5 -21zM577 0
q-20 0 -20 16q0 5 3.5 10t8.5 10l163 150q37 35 62 68.5t26 70.5q1 31 -20 48t-59 17q-28 0 -54.5 -9.5t-52.5 -26.5q-13 -9 -21.5 -4t-9 16t11.5 19q28 20 62 31t70 11q54 0 85.5 -27t29.5 -71q-1 -50 -31.5 -89.5t-74.5 -79.5l-135 -123h192q20 0 20 -17q0 -20 -22 -20
h-234z" />
    <glyph glyph-name="threequarters" unicode="&#xbe;" horiz-adv-x="877" 
d="M203 279q-34 0 -70.5 9.5t-64.5 32.5q-10 9 -9 19.5t10 15t22 -5.5q26 -20 54 -27t59 -7q40 0 70 24t31 66q1 33 -21.5 52.5t-65.5 19.5h-58q-20 0 -20 16q0 21 22 21h61q44 0 75.5 24t32.5 65q1 31 -20.5 49.5t-58.5 18.5q-58 0 -110 -38q-12 -8 -20.5 -3.5t-9 15
t10.5 18.5q28 20 62.5 32.5t72.5 12.5q55 0 85.5 -29t29.5 -72q-1 -40 -26 -70t-65 -41q32 -11 48.5 -35.5t15.5 -56.5q-1 -37 -20.5 -65.5t-51.5 -44.5t-71 -16zM232 -7q-8 -12 -18 -11t-13.5 9.5t4.5 20.5l514 700q9 12 18.5 11.5t13.5 -9.5t-5 -21zM721 -3q-20 0 -17 23
l12 74h-173q-22 0 -22 19q0 5 3 10t7 11l233 277q11 14 23 14q19 0 16 -23l-43 -271h44q20 0 20 -15q0 -22 -22 -22h-48l-12 -78q-3 -19 -21 -19zM722 131l34 218l-183 -218h149z" />
    <glyph glyph-name="questiondown" unicode="&#xbf;" horiz-adv-x="429" 
d="M266 411q-16 0 -27 11t-11 27q0 17 11 27.5t27 10.5q17 0 27 -10.5t10 -27.5q0 -16 -10 -27t-27 -11zM142 -188q-48 0 -83 18.5t-54.5 50t-19.5 69.5q-1 54 32.5 97.5t84.5 86.5q57 48 85.5 86.5t38.5 87.5q4 20 19 20q16 0 13 -18q-7 -43 -20.5 -75.5t-38.5 -62
t-67 -65.5q-46 -39 -74.5 -74.5t-28.5 -80.5q0 -42 29.5 -70.5t84.5 -28.5q59 0 106.5 16.5t82.5 44.5q15 12 25 7t11 -17t-11 -22q-40 -33 -94.5 -51.5t-120.5 -18.5z" />
    <glyph glyph-name="Agrave" unicode="&#xc0;" horiz-adv-x="716" 
d="M29 -6q-12 0 -18 9.5t2 23.5l394 669q8 15 26 15q17 0 22 -16l180 -666q5 -19 0 -27t-15 -8q-19 0 -24 22l-48 179h-387l-109 -185q-9 -16 -23 -16zM425 648l-241 -414h353l-110 414h-2zM422 769l-99 138q-10 14 -3 24t20 11.5t22 -13.5l88 -143q6 -9 1 -16.5t-13.5 -8.5
t-15.5 8z" />
    <glyph glyph-name="Aacute" unicode="&#xc1;" horiz-adv-x="716" 
d="M29 -6q-12 0 -18 9.5t2 23.5l394 669q8 15 26 15q17 0 22 -16l180 -666q5 -19 0 -27t-15 -8q-19 0 -24 22l-48 179h-387l-109 -185q-9 -16 -23 -16zM425 648l-241 -414h353l-110 414h-2zM466 768q-7 -8 -16 -7t-12.5 8.5t2.5 15.5l112 145q11 14 23.5 12.5t18.5 -11.5
t-5 -23z" />
    <glyph glyph-name="Acircumflex" unicode="&#xc2;" horiz-adv-x="716" 
d="M29 -6q-12 0 -18 9.5t2 23.5l394 669q8 15 26 15q17 0 22 -16l180 -666q5 -19 0 -27t-15 -8q-19 0 -24 22l-48 179h-387l-109 -185q-9 -16 -23 -16zM425 648l-241 -414h353l-110 414h-2zM327 765q-7 -8 -16 -7.5t-12.5 7.5t4.5 16l114 139q9 11 17.5 16.5t20.5 5.5
q11 0 17.5 -5.5t13.5 -16.5l85 -140q6 -10 1 -16.5t-14.5 -6t-16.5 10.5l-90 129z" />
    <glyph glyph-name="Atilde" unicode="&#xc3;" horiz-adv-x="716" 
d="M29 -6q-12 0 -18 9.5t2 23.5l394 669q8 15 26 15q17 0 22 -16l180 -666q5 -19 0 -27t-15 -8q-19 0 -24 22l-48 179h-387l-109 -185q-9 -16 -23 -16zM425 648l-241 -414h353l-110 414h-2zM263 790q-18 2 -13 20q27 105 111 105q27 0 50.5 -13t45 -29.5t41.5 -29.5t40 -13
q54 0 76 75q5 15 19 14q18 -2 13 -20q-27 -105 -111 -105q-27 0 -50.5 13t-45 29.5t-41.5 29.5t-40 13q-53 0 -76 -75q-5 -15 -19 -14z" />
    <glyph glyph-name="Adieresis" unicode="&#xc4;" horiz-adv-x="716" 
d="M29 -6q-12 0 -18 9.5t2 23.5l394 669q8 15 26 15q17 0 22 -16l180 -666q5 -19 0 -27t-15 -8q-19 0 -24 22l-48 179h-387l-109 -185q-9 -16 -23 -16zM425 648l-241 -414h353l-110 414h-2zM533 817q-29 0 -29 27q0 39 38 39q29 0 29 -27q0 -39 -38 -39zM372 817
q-29 0 -29 27q0 39 38 39q29 0 29 -27q0 -39 -38 -39z" />
    <glyph glyph-name="Aring" unicode="&#xc5;" horiz-adv-x="716" 
d="M29 -6q-12 0 -18 9.5t2 23.5l394 669q8 15 26 15q17 0 22 -16l180 -666q5 -19 0 -27t-15 -8q-19 0 -24 22l-48 179h-387l-109 -185q-9 -16 -23 -16zM425 648l-241 -414h353l-110 414h-2zM461 760q-47 0 -79.5 32t-32.5 78t32.5 78t79.5 32t79.5 -32t32.5 -78t-32.5 -78
t-79.5 -32zM461 792q35 0 56.5 22.5t21.5 55.5t-21.5 55.5t-56.5 22.5q-34 0 -56 -22.5t-22 -55.5t22 -55.5t56 -22.5z" />
    <glyph glyph-name="AE" unicode="&#xc6;" horiz-adv-x="971" 
d="M-5 -6q-14 0 -18 10t5 21l503 667q9 13 27 13h465q21 0 21 -15q0 -13 -7 -18.5t-16 -5.5h-436l15 -289h351q21 0 21 -15q0 -13 -7 -18.5t-16 -5.5h-347l15 -299h301q21 0 21 -15q0 -24 -24 -24h-314q-20 0 -22 21l-8 174h-366l-138 -184q-13 -17 -26 -17zM499 648
l-310 -414h334l-22 414h-2z" />
    <glyph glyph-name="Ccedilla" unicode="&#xc7;" horiz-adv-x="667" 
d="M373 -8q-87 0 -152.5 33.5t-101.5 102.5t-36 177q0 87 24.5 161.5t70.5 129.5t110.5 86t144.5 31q67 0 123 -22t96 -62q11 -10 7.5 -22t-14 -16.5t-22.5 7.5q-39 39 -86 56.5t-107 17.5q-92 0 -160 -47.5t-105 -130.5t-37 -190q0 -97 30.5 -157t86 -87t131.5 -27
q54 0 99.5 17t88.5 57q12 11 22.5 6.5t13.5 -16t-9 -22.5q-48 -43 -100.5 -63t-117.5 -20zM346 -190q-17 0 -34 3t-31 9q-11 5 -12 15.5t6 17.5t19 1q23 -10 59 -10q28 0 47 11.5t19 33.5q0 30 -35 30q-8 0 -19 -1.5t-21 -4.5q-15 -5 -21 1q-3 3 -3.5 7t2.5 13l27 84h38
l-23 -69q15 3 26 3q29 0 49 -15.5t20 -44.5q0 -37 -32 -60.5t-81 -23.5z" />
    <glyph glyph-name="Egrave" unicode="&#xc8;" horiz-adv-x="570" 
d="M85 0q-28 0 -23 27l104 655q4 23 27 23h383q21 0 21 -15q0 -13 -7 -18.5t-16 -5.5h-368l-46 -289h344q21 0 21 -15q0 -13 -7 -18.5t-16 -5.5h-349l-47 -299h364q21 0 21 -15q0 -13 -7 -18.5t-16 -5.5h-383zM384 769l-99 138q-10 14 -3 24t20 11.5t22 -13.5l88 -143
q6 -9 1 -16.5t-13.5 -8.5t-15.5 8z" />
    <glyph glyph-name="Eacute" unicode="&#xc9;" horiz-adv-x="570" 
d="M85 0q-28 0 -23 27l104 655q4 23 27 23h383q21 0 21 -15q0 -13 -7 -18.5t-16 -5.5h-368l-46 -289h344q21 0 21 -15q0 -13 -7 -18.5t-16 -5.5h-349l-47 -299h364q21 0 21 -15q0 -13 -7 -18.5t-16 -5.5h-383zM428 768q-7 -8 -16 -7t-12.5 8.5t2.5 15.5l112 145
q11 14 23.5 12.5t18.5 -11.5t-5 -23z" />
    <glyph glyph-name="Ecircumflex" unicode="&#xca;" horiz-adv-x="570" 
d="M85 0q-28 0 -23 27l104 655q4 23 27 23h383q21 0 21 -15q0 -13 -7 -18.5t-16 -5.5h-368l-46 -289h344q21 0 21 -15q0 -13 -7 -18.5t-16 -5.5h-349l-47 -299h364q21 0 21 -15q0 -13 -7 -18.5t-16 -5.5h-383zM289 765q-7 -8 -16 -7.5t-12.5 7.5t4.5 16l114 139
q9 11 17.5 16.5t20.5 5.5q11 0 17.5 -5.5t13.5 -16.5l85 -140q6 -10 1 -16.5t-14.5 -6t-16.5 10.5l-90 129z" />
    <glyph glyph-name="Edieresis" unicode="&#xcb;" horiz-adv-x="570" 
d="M85 0q-28 0 -23 27l104 655q4 23 27 23h383q21 0 21 -15q0 -13 -7 -18.5t-16 -5.5h-368l-46 -289h344q21 0 21 -15q0 -13 -7 -18.5t-16 -5.5h-349l-47 -299h364q21 0 21 -15q0 -13 -7 -18.5t-16 -5.5h-383zM495 817q-29 0 -29 27q0 39 38 39q29 0 29 -27q0 -39 -38 -39z
M334 817q-29 0 -29 27q0 39 38 39q29 0 29 -27q0 -39 -38 -39z" />
    <glyph glyph-name="Igrave" unicode="&#xcc;" horiz-adv-x="234" 
d="M79 -6q-23 0 -18 26l106 669q3 22 23 22q23 0 18 -26l-106 -669q-3 -22 -23 -22zM179 769l-99 138q-10 14 -3 24t20 11.5t22 -13.5l88 -143q6 -9 1 -16.5t-13.5 -8.5t-15.5 8z" />
    <glyph glyph-name="Iacute" unicode="&#xcd;" horiz-adv-x="234" 
d="M79 -6q-23 0 -18 26l106 669q3 22 23 22q23 0 18 -26l-106 -669q-3 -22 -23 -22zM223 768q-7 -8 -16 -7t-12.5 8.5t2.5 15.5l112 145q11 14 23.5 12.5t18.5 -11.5t-5 -23z" />
    <glyph glyph-name="Icircumflex" unicode="&#xce;" horiz-adv-x="234" 
d="M79 -6q-23 0 -18 26l106 669q3 22 23 22q23 0 18 -26l-106 -669q-3 -22 -23 -22zM84 765q-7 -8 -16 -7.5t-12.5 7.5t4.5 16l114 139q9 11 17.5 16.5t20.5 5.5q11 0 17.5 -5.5t13.5 -16.5l85 -140q6 -10 1 -16.5t-14.5 -6t-16.5 10.5l-90 129z" />
    <glyph glyph-name="Idieresis" unicode="&#xcf;" horiz-adv-x="234" 
d="M79 -6q-23 0 -18 26l106 669q3 22 23 22q23 0 18 -26l-106 -669q-3 -22 -23 -22zM290 817q-29 0 -29 27q0 39 38 39q29 0 29 -27q0 -39 -38 -39zM129 817q-29 0 -29 27q0 39 38 39q29 0 29 -27q0 -39 -38 -39z" />
    <glyph glyph-name="Eth" unicode="&#xd0;" horiz-adv-x="725" 
d="M85 0q-28 0 -23 27l104 655q3 23 27 23h167q153 0 236 -75.5t83 -213.5q0 -85 -22.5 -160t-70.5 -132.5t-122.5 -90.5t-179.5 -33h-199zM106 39h180q96 0 162.5 30t107.5 83t59.5 121t18.5 143q0 122 -69 186t-206 64h-153zM40 340q-21 0 -21 16q0 21 23 21h302
q21 0 21 -15q0 -22 -23 -22h-302z" />
    <glyph glyph-name="Ntilde" unicode="&#xd1;" horiz-adv-x="732" 
d="M77 -6q-19 0 -16 24l107 673q3 20 21 20q8 0 12.5 -3.5t8.5 -11.5l359 -629l99 624q3 20 23 20q18 0 15 -24l-107 -673q-3 -20 -19 -20q-8 0 -12.5 4t-9.5 11l-360 631l-99 -626q-3 -20 -22 -20zM269 790q-18 2 -13 20q27 105 111 105q27 0 50.5 -13t45 -29.5t41.5 -29.5
t40 -13q54 0 76 75q5 15 19 14q18 -2 13 -20q-27 -105 -111 -105q-27 0 -50.5 13t-45 29.5t-41.5 29.5t-40 13q-53 0 -76 -75q-5 -15 -19 -14z" />
    <glyph glyph-name="Ograve" unicode="&#xd2;" horiz-adv-x="751" 
d="M357 -8q-126 0 -200.5 76t-74.5 221q0 89 22 166t66 135t109 90.5t150 32.5q126 0 200.5 -76t74.5 -221q0 -89 -22 -166t-66 -135t-108.5 -90.5t-150.5 -32.5zM359 33q98 0 164.5 50.5t101 137.5t34.5 195q0 130 -61.5 193t-171.5 63q-97 0 -163.5 -50.5t-101 -137
t-34.5 -195.5q0 -130 61.5 -193t170.5 -63zM428 769l-99 138q-10 14 -3 24t20 11.5t22 -13.5l88 -143q6 -9 1 -16.5t-13.5 -8.5t-15.5 8z" />
    <glyph glyph-name="Oacute" unicode="&#xd3;" horiz-adv-x="751" 
d="M357 -8q-126 0 -200.5 76t-74.5 221q0 89 22 166t66 135t109 90.5t150 32.5q126 0 200.5 -76t74.5 -221q0 -89 -22 -166t-66 -135t-108.5 -90.5t-150.5 -32.5zM359 33q98 0 164.5 50.5t101 137.5t34.5 195q0 130 -61.5 193t-171.5 63q-97 0 -163.5 -50.5t-101 -137
t-34.5 -195.5q0 -130 61.5 -193t170.5 -63zM472 768q-7 -8 -16 -7t-12.5 8.5t2.5 15.5l112 145q11 14 23.5 12.5t18.5 -11.5t-5 -23z" />
    <glyph glyph-name="Ocircumflex" unicode="&#xd4;" horiz-adv-x="751" 
d="M357 -8q-126 0 -200.5 76t-74.5 221q0 89 22 166t66 135t109 90.5t150 32.5q126 0 200.5 -76t74.5 -221q0 -89 -22 -166t-66 -135t-108.5 -90.5t-150.5 -32.5zM359 33q98 0 164.5 50.5t101 137.5t34.5 195q0 130 -61.5 193t-171.5 63q-97 0 -163.5 -50.5t-101 -137
t-34.5 -195.5q0 -130 61.5 -193t170.5 -63zM333 765q-7 -8 -16 -7.5t-12.5 7.5t4.5 16l114 139q9 11 17.5 16.5t20.5 5.5q11 0 17.5 -5.5t13.5 -16.5l85 -140q6 -10 1 -16.5t-14.5 -6t-16.5 10.5l-90 129z" />
    <glyph glyph-name="Otilde" unicode="&#xd5;" horiz-adv-x="751" 
d="M357 -8q-126 0 -200.5 76t-74.5 221q0 89 22 166t66 135t109 90.5t150 32.5q126 0 200.5 -76t74.5 -221q0 -89 -22 -166t-66 -135t-108.5 -90.5t-150.5 -32.5zM359 33q98 0 164.5 50.5t101 137.5t34.5 195q0 130 -61.5 193t-171.5 63q-97 0 -163.5 -50.5t-101 -137
t-34.5 -195.5q0 -130 61.5 -193t170.5 -63zM269 790q-18 2 -13 20q27 105 111 105q27 0 50.5 -13t45 -29.5t41.5 -29.5t40 -13q54 0 76 75q5 15 19 14q18 -2 13 -20q-27 -105 -111 -105q-27 0 -50.5 13t-45 29.5t-41.5 29.5t-40 13q-53 0 -76 -75q-5 -15 -19 -14z" />
    <glyph glyph-name="Odieresis" unicode="&#xd6;" horiz-adv-x="751" 
d="M357 -8q-126 0 -200.5 76t-74.5 221q0 89 22 166t66 135t109 90.5t150 32.5q126 0 200.5 -76t74.5 -221q0 -89 -22 -166t-66 -135t-108.5 -90.5t-150.5 -32.5zM359 33q98 0 164.5 50.5t101 137.5t34.5 195q0 130 -61.5 193t-171.5 63q-97 0 -163.5 -50.5t-101 -137
t-34.5 -195.5q0 -130 61.5 -193t170.5 -63zM539 817q-29 0 -29 27q0 39 38 39q29 0 29 -27q0 -39 -38 -39zM378 817q-29 0 -29 27q0 39 38 39q29 0 29 -27q0 -39 -38 -39z" />
    <glyph glyph-name="multiply" unicode="&#xd7;" horiz-adv-x="600" 
d="M93 59q-11 -10 -21 -6t-13 14.5t6 19.5l215 199l-178 195q-8 10 -4 20t14.5 13.5t20.5 -8.5l177 -194l213 196q12 11 22 6.5t13 -15t-7 -19.5l-215 -198l179 -197q9 -9 4.5 -19.5t-14.5 -13.5t-21 8l-178 195z" />
    <glyph glyph-name="Oslash" unicode="&#xd8;" horiz-adv-x="751" 
d="M357 -8q-126 0 -200.5 76t-74.5 221q0 89 22 166t66 135t109 90.5t150 32.5q126 0 200.5 -76t74.5 -221q0 -89 -22 -166t-66 -135t-108.5 -90.5t-150.5 -32.5zM359 33q98 0 164.5 50.5t101 137.5t34.5 195q0 130 -61.5 193t-171.5 63q-97 0 -163.5 -50.5t-101 -137
t-34.5 -195.5q0 -130 61.5 -193t170.5 -63zM145 -13q-8 -10 -18.5 -8.5t-15 10.5t3.5 20l50 68l17 22l392 530l16 22l51 67q8 11 18.5 9t15.5 -10.5t-4 -20.5l-51 -68l-16 -22l-392 -530l-17 -22z" />
    <glyph glyph-name="Ugrave" unicode="&#xd9;" horiz-adv-x="720" 
d="M330 -8q-132 0 -193.5 74.5t-38.5 221.5l64 402q3 21 24 21q22 0 17 -25l-64 -404q-20 -126 29 -187.5t162 -61.5t177 56t84 181l67 420q3 21 24 21q22 0 17 -25l-67 -425q-21 -135 -95.5 -202t-206.5 -67zM421 769l-99 138q-10 14 -3 24t20 11.5t22 -13.5l88 -143
q6 -9 1 -16.5t-13.5 -8.5t-15.5 8z" />
    <glyph glyph-name="Uacute" unicode="&#xda;" horiz-adv-x="720" 
d="M330 -8q-132 0 -193.5 74.5t-38.5 221.5l64 402q3 21 24 21q22 0 17 -25l-64 -404q-20 -126 29 -187.5t162 -61.5t177 56t84 181l67 420q3 21 24 21q22 0 17 -25l-67 -425q-21 -135 -95.5 -202t-206.5 -67zM465 768q-7 -8 -16 -7t-12.5 8.5t2.5 15.5l112 145
q11 14 23.5 12.5t18.5 -11.5t-5 -23z" />
    <glyph glyph-name="Ucircumflex" unicode="&#xdb;" horiz-adv-x="720" 
d="M330 -8q-132 0 -193.5 74.5t-38.5 221.5l64 402q3 21 24 21q22 0 17 -25l-64 -404q-20 -126 29 -187.5t162 -61.5t177 56t84 181l67 420q3 21 24 21q22 0 17 -25l-67 -425q-21 -135 -95.5 -202t-206.5 -67zM326 765q-7 -8 -16 -7.5t-12.5 7.5t4.5 16l114 139
q9 11 17.5 16.5t20.5 5.5q11 0 17.5 -5.5t13.5 -16.5l85 -140q6 -10 1 -16.5t-14.5 -6t-16.5 10.5l-90 129z" />
    <glyph glyph-name="Udieresis" unicode="&#xdc;" horiz-adv-x="720" 
d="M330 -8q-132 0 -193.5 74.5t-38.5 221.5l64 402q3 21 24 21q22 0 17 -25l-64 -404q-20 -126 29 -187.5t162 -61.5t177 56t84 181l67 420q3 21 24 21q22 0 17 -25l-67 -425q-21 -135 -95.5 -202t-206.5 -67zM532 817q-29 0 -29 27q0 39 38 39q29 0 29 -27q0 -39 -38 -39z
M371 817q-29 0 -29 27q0 39 38 39q29 0 29 -27q0 -39 -38 -39z" />
    <glyph glyph-name="Yacute" unicode="&#xdd;" horiz-adv-x="577" 
d="M249 -6q-21 0 -18 24l51 324l-194 336q-8 14 -4 23.5t17 9.5q9 0 13.5 -4t8.5 -12l183 -316l288 320q11 12 23 12q11 0 16.5 -10t-6.5 -23l-303 -335l-52 -329q-3 -20 -23 -20zM388 768q-7 -8 -16 -7t-12.5 8.5t2.5 15.5l112 145q11 14 23.5 12.5t18.5 -11.5t-5 -23z" />
    <glyph glyph-name="Thorn" unicode="&#xde;" horiz-adv-x="616" 
d="M78 -6q-22 0 -17 25l106 671q3 21 24 21t18 -25l-18 -116h194q100 0 157 -45.5t57 -138.5q0 -101 -64.5 -162.5t-186.5 -61.5h-222l-24 -147q-3 -21 -24 -21zM132 201h220q99 0 151 47t52 137q0 76 -43.5 111t-126.5 35h-201z" />
    <glyph glyph-name="germandbls" unicode="&#xdf;" horiz-adv-x="581" 
d="M350 -8q-49 0 -94.5 14t-73.5 37q-11 10 -9.5 21t11.5 16t23 -6q27 -20 62.5 -31.5t75.5 -11.5q66 0 101.5 25t35.5 72q0 30 -20.5 55t-81.5 45q-70 24 -97 52t-27 71q0 25 9 44.5t32 40.5t63 50q37 27 58 51.5t21 61.5q0 32 -23 53.5t-67 21.5q-76 0 -121.5 -45.5
t-59.5 -128.5l-77 -485q-3 -21 -24 -21q-22 0 -17 25l76 482q16 101 72.5 156.5t152.5 55.5q62 0 96.5 -32.5t34.5 -77.5q0 -52 -28 -84t-73 -66q-36 -25 -58.5 -47.5t-22.5 -55.5q0 -26 21.5 -46.5t74.5 -38.5q63 -22 96.5 -51.5t33.5 -82.5q0 -64 -49 -101.5t-127 -37.5z
" />
    <glyph glyph-name="agrave" unicode="&#xe0;" horiz-adv-x="514" 
d="M205 -8q-40 0 -76 17.5t-58 49.5t-22 75q0 76 65 108.5t210 32.5h71l6 40q11 68 -15.5 103t-96.5 35q-40 0 -75.5 -8t-67.5 -31q-14 -10 -24 -4.5t-10.5 17.5t14.5 21q35 23 78 33.5t87 10.5q88 0 126 -50t24 -140l-46 -287q-3 -21 -23 -21t-17 25l9 61
q-25 -45 -69 -66.5t-90 -21.5zM208 30q40 0 76.5 19t62.5 55t34 87l8 47h-49q-93 0 -146 -9.5t-75.5 -32t-22.5 -60.5q0 -52 34.5 -79t77.5 -27zM287 553l-120 172q-10 14 -3 23.5t20.5 9.5t21.5 -14l107 -174q7 -10 2.5 -18t-13 -8.5t-15.5 9.5z" />
    <glyph glyph-name="aacute" unicode="&#xe1;" horiz-adv-x="514" 
d="M205 -8q-40 0 -76 17.5t-58 49.5t-22 75q0 76 65 108.5t210 32.5h71l6 40q11 68 -15.5 103t-96.5 35q-40 0 -75.5 -8t-67.5 -31q-14 -10 -24 -4.5t-10.5 17.5t14.5 21q35 23 78 33.5t87 10.5q88 0 126 -50t24 -140l-46 -287q-3 -21 -23 -21t-17 25l9 61
q-25 -45 -69 -66.5t-90 -21.5zM208 30q40 0 76.5 19t62.5 55t34 87l8 47h-49q-93 0 -146 -9.5t-75.5 -32t-22.5 -60.5q0 -52 34.5 -79t77.5 -27zM330 552q-7 -9 -15.5 -8t-12 8t2.5 16l118 175q11 17 24 15.5t18.5 -12.5t-4.5 -24z" />
    <glyph glyph-name="acircumflex" unicode="&#xe2;" horiz-adv-x="514" 
d="M205 -8q-40 0 -76 17.5t-58 49.5t-22 75q0 76 65 108.5t210 32.5h71l6 40q11 68 -15.5 103t-96.5 35q-40 0 -75.5 -8t-67.5 -31q-14 -10 -24 -4.5t-10.5 17.5t14.5 21q35 23 78 33.5t87 10.5q88 0 126 -50t24 -140l-46 -287q-3 -21 -23 -21t-17 25l9 61
q-25 -45 -69 -66.5t-90 -21.5zM208 30q40 0 76.5 19t62.5 55t34 87l8 47h-49q-93 0 -146 -9.5t-75.5 -32t-22.5 -60.5q0 -52 34.5 -79t77.5 -27zM435 565q5 -10 -1 -16t-15 -5t-13 9l-77 157l-115 -158q-6 -8 -15 -8.5t-13.5 6t2.5 17.5l113 173q8 11 15.5 14.5t16.5 3.5
q18 0 26 -18z" />
    <glyph glyph-name="atilde" unicode="&#xe3;" horiz-adv-x="514" 
d="M205 -8q-40 0 -76 17.5t-58 49.5t-22 75q0 76 65 108.5t210 32.5h71l6 40q11 68 -15.5 103t-96.5 35q-40 0 -75.5 -8t-67.5 -31q-14 -10 -24 -4.5t-10.5 17.5t14.5 21q35 23 78 33.5t87 10.5q88 0 126 -50t24 -140l-46 -287q-3 -21 -23 -21t-17 25l9 61
q-25 -45 -69 -66.5t-90 -21.5zM208 30q40 0 76.5 19t62.5 55t34 87l8 47h-49q-93 0 -146 -9.5t-75.5 -32t-22.5 -60.5q0 -52 34.5 -79t77.5 -27zM163 593q-17 2 -12 19q12 51 38 78.5t63 27.5q24 0 41 -13t31 -29.5t28.5 -29.5t32.5 -13q24 0 41 19.5t27 54.5q5 17 20 15
q17 -2 12 -19q-12 -51 -38 -78.5t-62 -27.5q-24 0 -41.5 13t-31.5 29.5t-28.5 29.5t-32.5 13q-24 0 -41 -19.5t-27 -54.5q-5 -17 -20 -15z" />
    <glyph glyph-name="adieresis" unicode="&#xe4;" horiz-adv-x="514" 
d="M205 -8q-40 0 -76 17.5t-58 49.5t-22 75q0 76 65 108.5t210 32.5h71l6 40q11 68 -15.5 103t-96.5 35q-40 0 -75.5 -8t-67.5 -31q-14 -10 -24 -4.5t-10.5 17.5t14.5 21q35 23 78 33.5t87 10.5q88 0 126 -50t24 -140l-46 -287q-3 -21 -23 -21t-17 25l9 61
q-25 -45 -69 -66.5t-90 -21.5zM208 30q40 0 76.5 19t62.5 55t34 87l8 47h-49q-93 0 -146 -9.5t-75.5 -32t-22.5 -60.5q0 -52 34.5 -79t77.5 -27zM402 617q-29 0 -29 27q0 39 38 39q29 0 29 -27q0 -39 -38 -39zM241 617q-29 0 -29 27q0 39 38 39q29 0 29 -27q0 -39 -38 -39z
" />
    <glyph glyph-name="aring" unicode="&#xe5;" horiz-adv-x="514" 
d="M205 -8q-40 0 -76 17.5t-58 49.5t-22 75q0 76 65 108.5t210 32.5h71l6 40q11 68 -15.5 103t-96.5 35q-40 0 -75.5 -8t-67.5 -31q-14 -10 -24 -4.5t-10.5 17.5t14.5 21q35 23 78 33.5t87 10.5q88 0 126 -50t24 -140l-46 -287q-3 -21 -23 -21t-17 25l9 61
q-25 -45 -69 -66.5t-90 -21.5zM208 30q40 0 76.5 19t62.5 55t34 87l8 47h-49q-93 0 -146 -9.5t-75.5 -32t-22.5 -60.5q0 -52 34.5 -79t77.5 -27zM328 547q-47 0 -79.5 32t-32.5 78t32.5 78t79.5 32t79.5 -32t32.5 -78t-32.5 -78t-79.5 -32zM328 579q35 0 56.5 22.5
t21.5 55.5t-21.5 55.5t-56.5 22.5q-34 0 -56 -22.5t-22 -55.5t22 -55.5t56 -22.5z" />
    <glyph glyph-name="ae" unicode="&#xe6;" horiz-adv-x="857" 
d="M205 -8q-40 0 -76 17.5t-58 49.5t-22 75q0 76 65 108t210 32h75l5 31q24 148 -115 148q-40 0 -75.5 -8t-67.5 -31q-14 -10 -24 -4.5t-10.5 17.5t14.5 21q35 23 78 33.5t87 10.5q124 0 151 -99q32 45 80.5 72t112.5 27q72 0 113 -33t56.5 -85.5t7.5 -111.5l-1 -8
q-2 -17 -23 -17h-358q-13 -92 30.5 -149t132.5 -57q42 0 77 10t69 36q15 11 24.5 6.5t10.5 -16t-13 -22.5q-33 -25 -77.5 -39t-88.5 -14q-74 0 -124.5 32t-71.5 90q-29 -63 -81 -92.5t-113 -29.5zM634 454q-61 0 -102 -26.5t-64 -68t-32 -85.5h339q5 50 -7.5 91t-45 65
t-88.5 24zM208 30q40 0 77 17t64 50.5t35 84.5l9 55h-53q-93 0 -146 -9.5t-75.5 -31.5t-22.5 -60q0 -52 34.5 -79t77.5 -27z" />
    <glyph glyph-name="ccedilla" unicode="&#xe7;" horiz-adv-x="455" 
d="M248 -8q-100 0 -148 58.5t-48 151.5q0 53 14 104.5t43.5 93.5t76 67t111.5 25q39 0 75.5 -12t61.5 -32q16 -12 16 -25t-8.5 -18t-21.5 5q-52 43 -125 43q-53 0 -91 -21.5t-62 -58t-35.5 -81t-11.5 -90.5q0 -78 36.5 -124.5t118.5 -46.5q28 0 58.5 9.5t57.5 30.5
q13 10 22 5t11 -16t-9 -20q-28 -23 -66.5 -35.5t-75.5 -12.5zM217 -190q-17 0 -34 3t-31 9q-11 5 -12 15.5t6 17.5t19 1q23 -10 59 -10q28 0 47 11.5t19 33.5q0 30 -35 30q-8 0 -19 -1.5t-21 -4.5q-15 -5 -21 1q-3 3 -3.5 7t2.5 13l27 84h38l-23 -69q15 3 26 3
q29 0 49 -15.5t20 -44.5q0 -37 -32 -60.5t-81 -23.5z" />
    <glyph glyph-name="egrave" unicode="&#xe8;" horiz-adv-x="523" 
d="M261 -8q-98 0 -154 55.5t-56 152.5q0 77 29 143.5t85 107.5t136 41q72 0 113.5 -33.5t57 -87t6.5 -112.5q-2 -14 -7 -19.5t-18 -5.5h-358q-11 -91 32.5 -147t131.5 -56q42 0 77 10.5t69 35.5q15 11 24.5 6.5t10.5 -16t-13 -22.5q-33 -25 -77.5 -39t-88.5 -14zM300 454
q-62 0 -103 -27t-64 -69t-32 -87h339q6 51 -6 92.5t-45 66t-89 24.5zM292 553l-120 172q-10 14 -3 23.5t20.5 9.5t21.5 -14l107 -174q7 -10 2.5 -18t-13 -8.5t-15.5 9.5z" />
    <glyph glyph-name="eacute" unicode="&#xe9;" horiz-adv-x="523" 
d="M261 -8q-98 0 -154 55.5t-56 152.5q0 77 29 143.5t85 107.5t136 41q72 0 113.5 -33.5t57 -87t6.5 -112.5q-2 -14 -7 -19.5t-18 -5.5h-358q-11 -91 32.5 -147t131.5 -56q42 0 77 10.5t69 35.5q15 11 24.5 6.5t10.5 -16t-13 -22.5q-33 -25 -77.5 -39t-88.5 -14zM300 454
q-62 0 -103 -27t-64 -69t-32 -87h339q6 51 -6 92.5t-45 66t-89 24.5zM335 552q-7 -9 -15.5 -8t-12 8t2.5 16l118 175q11 17 24 15.5t18.5 -12.5t-4.5 -24z" />
    <glyph glyph-name="ecircumflex" unicode="&#xea;" horiz-adv-x="523" 
d="M261 -8q-98 0 -154 55.5t-56 152.5q0 77 29 143.5t85 107.5t136 41q72 0 113.5 -33.5t57 -87t6.5 -112.5q-2 -14 -7 -19.5t-18 -5.5h-358q-11 -91 32.5 -147t131.5 -56q42 0 77 10.5t69 35.5q15 11 24.5 6.5t10.5 -16t-13 -22.5q-33 -25 -77.5 -39t-88.5 -14zM300 454
q-62 0 -103 -27t-64 -69t-32 -87h339q6 51 -6 92.5t-45 66t-89 24.5zM440 565q5 -10 -1 -16t-15 -5t-13 9l-77 157l-115 -158q-6 -8 -15 -8.5t-13.5 6t2.5 17.5l113 173q8 11 15.5 14.5t16.5 3.5q18 0 26 -18z" />
    <glyph glyph-name="edieresis" unicode="&#xeb;" horiz-adv-x="523" 
d="M261 -8q-98 0 -154 55.5t-56 152.5q0 77 29 143.5t85 107.5t136 41q72 0 113.5 -33.5t57 -87t6.5 -112.5q-2 -14 -7 -19.5t-18 -5.5h-358q-11 -91 32.5 -147t131.5 -56q42 0 77 10.5t69 35.5q15 11 24.5 6.5t10.5 -16t-13 -22.5q-33 -25 -77.5 -39t-88.5 -14zM300 454
q-62 0 -103 -27t-64 -69t-32 -87h339q6 51 -6 92.5t-45 66t-89 24.5zM407 617q-29 0 -29 27q0 39 38 39q29 0 29 -27q0 -39 -38 -39zM246 617q-29 0 -29 27q0 39 38 39q29 0 29 -27q0 -39 -38 -39z" />
    <glyph glyph-name="igrave" unicode="&#xec;" horiz-adv-x="212" 
d="M67 -6q-22 0 -17 25l71 450q3 21 24 21q22 0 17 -25l-71 -450q-3 -21 -24 -21zM133 553l-120 172q-10 14 -3 23.5t20.5 9.5t21.5 -14l107 -174q7 -10 2.5 -18t-13 -8.5t-15.5 9.5z" />
    <glyph glyph-name="iacute" unicode="&#xed;" horiz-adv-x="212" 
d="M67 -6q-22 0 -17 25l71 450q3 21 24 21q22 0 17 -25l-71 -450q-3 -21 -24 -21zM176 552q-7 -9 -15.5 -8t-12 8t2.5 16l118 175q11 17 24 15.5t18.5 -12.5t-4.5 -24z" />
    <glyph glyph-name="icircumflex" unicode="&#xee;" horiz-adv-x="212" 
d="M67 -6q-22 0 -17 25l71 450q3 21 24 21q22 0 17 -25l-71 -450q-3 -21 -24 -21zM281 565q5 -10 -1 -16t-15 -5t-13 9l-77 157l-115 -158q-6 -8 -15 -8.5t-13.5 6t2.5 17.5l113 173q8 11 15.5 14.5t16.5 3.5q18 0 26 -18z" />
    <glyph glyph-name="idieresis" unicode="&#xef;" horiz-adv-x="212" 
d="M67 -6q-22 0 -17 25l71 450q3 21 24 21q22 0 17 -25l-71 -450q-3 -21 -24 -21zM248 617q-29 0 -29 27q0 39 38 39q29 0 29 -27q0 -39 -38 -39zM87 617q-29 0 -29 27q0 39 38 39q29 0 29 -27q0 -39 -38 -39z" />
    <glyph glyph-name="eth" unicode="&#xf0;" horiz-adv-x="541" 
d="M245 -8q-56 0 -100.5 23t-70.5 66.5t-26 102.5q0 80 32 140.5t87 95t125 34.5q56 0 100 -24.5t64 -75.5q-4 85 -31.5 150.5t-80.5 109.5l-133 -57q-12 -5 -19.5 1.5t-7 16.5t12.5 15l113 48q-18 11 -38.5 20.5t-43.5 16.5q-14 5 -16 14.5t5.5 16.5t21.5 2q33 -11 60 -24
t51 -30l124 52q14 6 21.5 -0.5t6.5 -16.5t-14 -16l-107 -44q59 -54 86.5 -133.5t26.5 -183.5q0 -60 -13.5 -117t-42.5 -103t-76.5 -73t-116.5 -27zM246 31q55 0 99.5 26.5t71.5 77.5t27 124q0 75 -41.5 115.5t-113.5 40.5q-54 0 -99 -26.5t-72 -77.5t-27 -124
q0 -75 41.5 -115.5t113.5 -40.5z" />
    <glyph glyph-name="ntilde" unicode="&#xf1;" horiz-adv-x="553" 
d="M68 -6q-10 0 -14.5 7.5t-2.5 19.5l71 448q3 21 24 21t16 -25l-11 -69q28 45 73.5 70.5t106.5 25.5q81 0 122 -48.5t25 -148.5l-45 -282q-3 -19 -24 -19q-22 0 -17 25l44 277q25 157 -106 157q-86 0 -135.5 -51.5t-63.5 -137.5l-39 -249q-3 -21 -24 -21zM179 593
q-17 2 -12 19q12 51 38 78.5t63 27.5q24 0 41 -13t31 -29.5t28.5 -29.5t32.5 -13q24 0 41 19.5t27 54.5q5 17 20 15q17 -2 12 -19q-12 -51 -38 -78.5t-62 -27.5q-24 0 -41.5 13t-31.5 29.5t-28.5 29.5t-32.5 13q-24 0 -41 -19.5t-27 -54.5q-5 -17 -20 -15z" />
    <glyph glyph-name="ograve" unicode="&#xf2;" horiz-adv-x="538" 
d="M245 -8q-89 0 -141.5 55.5t-52.5 152.5q0 77 28 143.5t82 107.5t132 41q89 0 141.5 -55t52.5 -153q0 -77 -28 -143.5t-81.5 -107.5t-132.5 -41zM247 31q64 0 108 35t66.5 93t22.5 127q0 83 -40.5 125t-112.5 42q-64 0 -108 -35t-66.5 -92.5t-22.5 -127.5
q0 -82 40.5 -124.5t112.5 -42.5zM297 553l-120 172q-10 14 -3 23.5t20.5 9.5t21.5 -14l107 -174q7 -10 2.5 -18t-13 -8.5t-15.5 9.5z" />
    <glyph glyph-name="oacute" unicode="&#xf3;" horiz-adv-x="538" 
d="M245 -8q-89 0 -141.5 55.5t-52.5 152.5q0 77 28 143.5t82 107.5t132 41q89 0 141.5 -55t52.5 -153q0 -77 -28 -143.5t-81.5 -107.5t-132.5 -41zM247 31q64 0 108 35t66.5 93t22.5 127q0 83 -40.5 125t-112.5 42q-64 0 -108 -35t-66.5 -92.5t-22.5 -127.5
q0 -82 40.5 -124.5t112.5 -42.5zM340 552q-7 -9 -15.5 -8t-12 8t2.5 16l118 175q11 17 24 15.5t18.5 -12.5t-4.5 -24z" />
    <glyph glyph-name="ocircumflex" unicode="&#xf4;" horiz-adv-x="538" 
d="M245 -8q-89 0 -141.5 55.5t-52.5 152.5q0 77 28 143.5t82 107.5t132 41q89 0 141.5 -55t52.5 -153q0 -77 -28 -143.5t-81.5 -107.5t-132.5 -41zM247 31q64 0 108 35t66.5 93t22.5 127q0 83 -40.5 125t-112.5 42q-64 0 -108 -35t-66.5 -92.5t-22.5 -127.5
q0 -82 40.5 -124.5t112.5 -42.5zM445 565q5 -10 -1 -16t-15 -5t-13 9l-77 157l-115 -158q-6 -8 -15 -8.5t-13.5 6t2.5 17.5l113 173q8 11 15.5 14.5t16.5 3.5q18 0 26 -18z" />
    <glyph glyph-name="otilde" unicode="&#xf5;" horiz-adv-x="538" 
d="M245 -8q-89 0 -141.5 55.5t-52.5 152.5q0 77 28 143.5t82 107.5t132 41q89 0 141.5 -55t52.5 -153q0 -77 -28 -143.5t-81.5 -107.5t-132.5 -41zM247 31q64 0 108 35t66.5 93t22.5 127q0 83 -40.5 125t-112.5 42q-64 0 -108 -35t-66.5 -92.5t-22.5 -127.5
q0 -82 40.5 -124.5t112.5 -42.5zM173 593q-17 2 -12 19q12 51 38 78.5t63 27.5q24 0 41 -13t31 -29.5t28.5 -29.5t32.5 -13q24 0 41 19.5t27 54.5q5 17 20 15q17 -2 12 -19q-12 -51 -38 -78.5t-62 -27.5q-24 0 -41.5 13t-31.5 29.5t-28.5 29.5t-32.5 13q-24 0 -41 -19.5
t-27 -54.5q-5 -17 -20 -15z" />
    <glyph glyph-name="odieresis" unicode="&#xf6;" horiz-adv-x="538" 
d="M245 -8q-89 0 -141.5 55.5t-52.5 152.5q0 77 28 143.5t82 107.5t132 41q89 0 141.5 -55t52.5 -153q0 -77 -28 -143.5t-81.5 -107.5t-132.5 -41zM247 31q64 0 108 35t66.5 93t22.5 127q0 83 -40.5 125t-112.5 42q-64 0 -108 -35t-66.5 -92.5t-22.5 -127.5
q0 -82 40.5 -124.5t112.5 -42.5zM412 617q-29 0 -29 27q0 39 38 39q29 0 29 -27q0 -39 -38 -39zM251 617q-29 0 -29 27q0 39 38 39q29 0 29 -27q0 -39 -38 -39z" />
    <glyph glyph-name="divide" unicode="&#xf7;" horiz-adv-x="600" 
d="M327 449q-16 0 -24.5 9t-8.5 23q0 19 12.5 31.5t32.5 12.5q16 0 24 -9t8 -23q0 -19 -12 -31.5t-32 -12.5zM79 267q-22 0 -22 16q0 23 24 23h454q22 0 22 -16q0 -23 -24 -23h-454zM263 48q-16 0 -24.5 9t-8.5 23q0 19 12.5 31.5t32.5 12.5q16 0 24 -9t8 -23
q0 -19 -12 -31.5t-32 -12.5z" />
    <glyph glyph-name="oslash" unicode="&#xf8;" horiz-adv-x="538" 
d="M102 -19q-7 -10 -17 -8.5t-15 10.5t3 20l31 43q-53 56 -53 154q0 77 28 143.5t81.5 107.5t132.5 41q66 0 113 -31l31 42q8 11 17.5 9t14.5 -11t-3 -20l-32 -44q53 -55 53 -153q0 -77 -28 -143.5t-81.5 -107.5t-132.5 -41q-66 0 -113 31zM94 198q0 -75 35 -118l254 348
q-37 25 -92 25q-64 0 -108 -35t-66.5 -92.5t-22.5 -127.5zM247 31q64 0 108 35t66.5 93t22.5 127q0 75 -34 118l-254 -349q36 -24 91 -24z" />
    <glyph glyph-name="ugrave" unicode="&#xf9;" horiz-adv-x="545" 
d="M219 -8q-79 0 -119.5 48.5t-24.5 148.5l44 280q3 21 24 21q23 0 18 -25l-44 -277q-25 -157 103 -157q83 0 132 52t62 137l39 249q3 21 24 21t18 -22l-72 -453q-3 -21 -23 -21q-22 0 -17 25l11 68q-27 -45 -72.5 -70t-102.5 -25zM294 554l-120 172q-10 14 -3 23.5
t20.5 9.5t21.5 -14l107 -174q7 -10 2.5 -18t-13 -8.5t-15.5 9.5z" />
    <glyph glyph-name="uacute" unicode="&#xfa;" horiz-adv-x="545" 
d="M219 -8q-79 0 -119.5 48.5t-24.5 148.5l44 280q3 21 24 21q23 0 18 -25l-44 -277q-25 -157 103 -157q83 0 132 52t62 137l39 249q3 21 24 21t18 -22l-72 -453q-3 -21 -23 -21q-22 0 -17 25l11 68q-27 -45 -72.5 -70t-102.5 -25zM337 553q-7 -9 -15.5 -8t-12 8t2.5 16
l118 175q11 17 24 15.5t18.5 -12.5t-4.5 -24z" />
    <glyph glyph-name="ucircumflex" unicode="&#xfb;" horiz-adv-x="545" 
d="M219 -8q-79 0 -119.5 48.5t-24.5 148.5l44 280q3 21 24 21q23 0 18 -25l-44 -277q-25 -157 103 -157q83 0 132 52t62 137l39 249q3 21 24 21t18 -22l-72 -453q-3 -21 -23 -21q-22 0 -17 25l11 68q-27 -45 -72.5 -70t-102.5 -25zM442 566q5 -10 -1 -16t-15 -5t-13 9
l-77 157l-115 -158q-6 -8 -15 -8.5t-13.5 6t2.5 17.5l113 173q8 11 15.5 14.5t16.5 3.5q18 0 26 -18z" />
    <glyph glyph-name="udieresis" unicode="&#xfc;" horiz-adv-x="545" 
d="M219 -8q-79 0 -119.5 48.5t-24.5 148.5l44 280q3 21 24 21q23 0 18 -25l-44 -277q-25 -157 103 -157q83 0 132 52t62 137l39 249q3 21 24 21t18 -22l-72 -453q-3 -21 -23 -21q-22 0 -17 25l11 68q-27 -45 -72.5 -70t-102.5 -25zM409 618q-29 0 -29 27q0 39 38 39
q29 0 29 -27q0 -39 -38 -39zM248 618q-29 0 -29 27q0 39 38 39q29 0 29 -27q0 -39 -38 -39z" />
    <glyph glyph-name="yacute" unicode="&#xfd;" horiz-adv-x="504" 
d="M115 -186q-13 0 -16.5 10.5t4.5 24.5l86 148l-122 461q-4 14 1.5 23t18.5 9q10 0 14 -4.5t7 -15.5l108 -426l249 430q9 16 23 16t19 -10.5t-3 -24.5l-366 -624q-9 -17 -23 -17zM310 552q-7 -9 -15.5 -8t-12 8t2.5 16l118 175q11 17 24 15.5t18.5 -12.5t-4.5 -24z" />
    <glyph glyph-name="thorn" unicode="&#xfe;" horiz-adv-x="568" 
d="M38 -186q-22 0 -17 25l135 851q3 21 24 21q22 0 17 -25l-45 -287q27 43 72 68t103 25q86 0 138 -55.5t52 -150.5q0 -78 -27.5 -145t-81.5 -108t-133 -41q-57 0 -103 28t-66 87l-44 -272q-3 -21 -24 -21zM277 31q64 0 108 35t66.5 93t22.5 127q0 83 -40.5 125t-112.5 42
q-64 0 -108 -35t-66.5 -92.5t-22.5 -127.5q0 -82 40.5 -124.5t112.5 -42.5z" />
    <glyph glyph-name="ydieresis" unicode="&#xff;" horiz-adv-x="504" 
d="M115 -186q-13 0 -16.5 10.5t4.5 24.5l86 148l-122 461q-4 14 1.5 23t18.5 9q10 0 14 -4.5t7 -15.5l108 -426l249 430q9 16 23 16t19 -10.5t-3 -24.5l-366 -624q-9 -17 -23 -17zM382 617q-29 0 -29 27q0 39 38 39q29 0 29 -27q0 -39 -38 -39zM221 617q-29 0 -29 27
q0 39 38 39q29 0 29 -27q0 -39 -38 -39z" />
    <glyph glyph-name="Amacron" unicode="&#x100;" horiz-adv-x="716" 
d="M29 -6q-12 0 -18 9.5t2 23.5l394 669q8 15 26 15q17 0 22 -16l180 -666q5 -19 0 -27t-15 -8q-19 0 -24 22l-48 179h-387l-109 -185q-9 -16 -23 -16zM425 648l-241 -414h353l-110 414h-2zM316 822q-21 0 -21 16q0 22 23 22h278q21 0 21 -16q0 -22 -23 -22h-278z" />
    <glyph glyph-name="amacron" unicode="&#x101;" horiz-adv-x="514" 
d="M205 -8q-40 0 -76 17.5t-58 49.5t-22 75q0 76 65 108.5t210 32.5h71l6 40q11 68 -15.5 103t-96.5 35q-40 0 -75.5 -8t-67.5 -31q-14 -10 -24 -4.5t-10.5 17.5t14.5 21q35 23 78 33.5t87 10.5q88 0 126 -50t24 -140l-46 -287q-3 -21 -23 -21t-17 25l9 61
q-25 -45 -69 -66.5t-90 -21.5zM208 30q40 0 76.5 19t62.5 55t34 87l8 47h-49q-93 0 -146 -9.5t-75.5 -32t-22.5 -60.5q0 -52 34.5 -79t77.5 -27zM202 633q-21 0 -21 16q0 22 23 22h248q21 0 21 -16q0 -22 -23 -22h-248z" />
    <glyph glyph-name="Abreve" unicode="&#x102;" horiz-adv-x="716" 
d="M29 -6q-12 0 -18 9.5t2 23.5l394 669q8 15 26 15q17 0 22 -16l180 -666q5 -19 0 -27t-15 -8q-19 0 -24 22l-48 179h-387l-109 -185q-9 -16 -23 -16zM425 648l-241 -414h353l-110 414h-2zM447 760q-61 0 -101.5 42t-41.5 115q0 16 16 18q17 2 17 -17q0 -58 31.5 -90
t81.5 -32q51 0 86.5 32.5t46.5 91.5q3 17 19 15q18 -2 13 -24q-16 -71 -62 -111t-106 -40z" />
    <glyph glyph-name="abreve" unicode="&#x103;" horiz-adv-x="514" 
d="M205 -8q-40 0 -76 17.5t-58 49.5t-22 75q0 76 65 108.5t210 32.5h71l6 40q11 68 -15.5 103t-96.5 35q-40 0 -75.5 -8t-67.5 -31q-14 -10 -24 -4.5t-10.5 17.5t14.5 21q35 23 78 33.5t87 10.5q88 0 126 -50t24 -140l-46 -287q-3 -21 -23 -21t-17 25l9 61
q-25 -45 -69 -66.5t-90 -21.5zM208 30q40 0 76.5 19t62.5 55t34 87l8 47h-49q-93 0 -146 -9.5t-75.5 -32t-22.5 -60.5q0 -52 34.5 -79t77.5 -27zM319 547q-60 0 -95.5 46t-35.5 128q0 17 15 18q18 2 18 -17q0 -67 26.5 -103t72.5 -36q47 0 78 36.5t44 104.5q3 17 18 15
q18 -2 13 -26q-16 -79 -55.5 -122.5t-98.5 -43.5z" />
    <glyph glyph-name="Aogonek" unicode="&#x104;" horiz-adv-x="716" 
d="M615 -190q-43 0 -66 24.5t-23 62.5t20 68t50 50v1l-48 179h-387l-109 -185q-9 -16 -23 -16q-12 0 -18 9.5t2 23.5l394 669q8 15 26 15q17 0 22 -16l180 -666q7 -24 -5 -32q-35 -23 -50 -47t-15 -49t13.5 -40t41.5 -15q18 0 39 7q12 4 17 -3.5t4 -17t-9 -12.5
q-13 -5 -29 -7.5t-27 -2.5zM425 648l-241 -414h353l-110 414h-2z" />
    <glyph glyph-name="aogonek" unicode="&#x105;" horiz-adv-x="514" 
d="M362 -190q-43 0 -66 24.5t-23 62.5q0 40 22.5 72t59.5 53l9 58q-25 -45 -69 -66.5t-90 -21.5q-40 0 -76 17.5t-58 49.5t-22 75q0 76 65 108.5t210 32.5h71l6 40q11 68 -15.5 103t-96.5 35q-40 0 -75.5 -8t-67.5 -31q-14 -10 -24 -4.5t-10.5 17.5t14.5 21q35 23 78 33.5
t87 10.5q88 0 126 -50t24 -140l-46 -287q-3 -15 -15 -21q-34 -17 -51 -41t-17 -52q0 -25 13.5 -40t41.5 -15q18 0 39 7q12 4 17 -3.5t4 -17t-9 -12.5q-13 -5 -29 -7.5t-27 -2.5zM208 30q40 0 76.5 19t62.5 55t34 87l8 47h-49q-93 0 -146 -9.5t-75.5 -32t-22.5 -60.5
q0 -52 34.5 -79t77.5 -27z" />
    <glyph glyph-name="Cacute" unicode="&#x106;" horiz-adv-x="667" 
d="M373 -8q-87 0 -152.5 33.5t-101.5 102.5t-36 177q0 87 24.5 161.5t70.5 129.5t110.5 86t144.5 31q67 0 123 -22t96 -62q11 -10 7.5 -22t-14 -16.5t-22.5 7.5q-39 39 -86 56.5t-107 17.5q-92 0 -160 -47.5t-105 -130.5t-37 -190q0 -97 30.5 -157t86 -87t131.5 -27
q54 0 99.5 17t88.5 57q12 11 22.5 6.5t13.5 -16t-9 -22.5q-48 -43 -100.5 -63t-117.5 -20zM465 768q-7 -8 -16 -7t-12.5 8.5t2.5 15.5l112 145q11 14 23.5 12.5t18.5 -11.5t-5 -23z" />
    <glyph glyph-name="cacute" unicode="&#x107;" horiz-adv-x="455" 
d="M248 -8q-100 0 -148 58.5t-48 151.5q0 53 14 104.5t43.5 93.5t76 67t111.5 25q39 0 75.5 -12t61.5 -32q16 -12 16 -25t-8.5 -18t-21.5 5q-52 43 -125 43q-53 0 -91 -21.5t-62 -58t-35.5 -81t-11.5 -90.5q0 -78 36.5 -124.5t118.5 -46.5q28 0 58.5 9.5t57.5 30.5
q13 10 22 5t11 -16t-9 -20q-28 -23 -66.5 -35.5t-75.5 -12.5zM327 552q-7 -9 -15.5 -8t-12 8t2.5 16l118 175q11 17 24 15.5t18.5 -12.5t-4.5 -24z" />
    <glyph glyph-name="Ccircumflex" unicode="&#x108;" horiz-adv-x="667" 
d="M373 -8q-87 0 -152.5 33.5t-101.5 102.5t-36 177q0 87 24.5 161.5t70.5 129.5t110.5 86t144.5 31q67 0 123 -22t96 -62q11 -10 7.5 -22t-14 -16.5t-22.5 7.5q-39 39 -86 56.5t-107 17.5q-92 0 -160 -47.5t-105 -130.5t-37 -190q0 -97 30.5 -157t86 -87t131.5 -27
q54 0 99.5 17t88.5 57q12 11 22.5 6.5t13.5 -16t-9 -22.5q-48 -43 -100.5 -63t-117.5 -20zM326 765q-7 -8 -16 -7.5t-12.5 7.5t4.5 16l114 139q9 11 17.5 16.5t20.5 5.5q11 0 17.5 -5.5t13.5 -16.5l85 -140q6 -10 1 -16.5t-14.5 -6t-16.5 10.5l-90 129z" />
    <glyph glyph-name="ccircumflex" unicode="&#x109;" horiz-adv-x="455" 
d="M248 -8q-100 0 -148 58.5t-48 151.5q0 53 14 104.5t43.5 93.5t76 67t111.5 25q39 0 75.5 -12t61.5 -32q16 -12 16 -25t-8.5 -18t-21.5 5q-52 43 -125 43q-53 0 -91 -21.5t-62 -58t-35.5 -81t-11.5 -90.5q0 -78 36.5 -124.5t118.5 -46.5q28 0 58.5 9.5t57.5 30.5
q13 10 22 5t11 -16t-9 -20q-28 -23 -66.5 -35.5t-75.5 -12.5zM432 565q5 -10 -1 -16t-15 -5t-13 9l-77 157l-115 -158q-6 -8 -15 -8.5t-13.5 6t2.5 17.5l113 173q8 11 15.5 14.5t16.5 3.5q18 0 26 -18z" />
    <glyph glyph-name="Cdotaccent" unicode="&#x10a;" horiz-adv-x="667" 
d="M373 -8q-87 0 -152.5 33.5t-101.5 102.5t-36 177q0 87 24.5 161.5t70.5 129.5t110.5 86t144.5 31q67 0 123 -22t96 -62q11 -10 7.5 -22t-14 -16.5t-22.5 7.5q-39 39 -86 56.5t-107 17.5q-92 0 -160 -47.5t-105 -130.5t-37 -190q0 -97 30.5 -157t86 -87t131.5 -27
q54 0 99.5 17t88.5 57q12 11 22.5 6.5t13.5 -16t-9 -22.5q-48 -43 -100.5 -63t-117.5 -20zM451 815q-30 0 -30 28q0 20 11 30.5t30 10.5q30 0 30 -28q0 -19 -11 -30t-30 -11z" />
    <glyph glyph-name="cdotaccent" unicode="&#x10b;" horiz-adv-x="455" 
d="M248 -8q-100 0 -148 58.5t-48 151.5q0 53 14 104.5t43.5 93.5t76 67t111.5 25q39 0 75.5 -12t61.5 -32q16 -12 16 -25t-8.5 -18t-21.5 5q-52 43 -125 43q-53 0 -91 -21.5t-62 -58t-35.5 -81t-11.5 -90.5q0 -78 36.5 -124.5t118.5 -46.5q28 0 58.5 9.5t57.5 30.5
q13 10 22 5t11 -16t-9 -20q-28 -23 -66.5 -35.5t-75.5 -12.5zM318 616q-30 0 -30 28q0 20 11 30.5t30 10.5q30 0 30 -28q0 -19 -11 -30t-30 -11z" />
    <glyph glyph-name="Ccaron" unicode="&#x10c;" horiz-adv-x="667" 
d="M373 -8q-87 0 -152.5 33.5t-101.5 102.5t-36 177q0 87 24.5 161.5t70.5 129.5t110.5 86t144.5 31q67 0 123 -22t96 -62q11 -10 7.5 -22t-14 -16.5t-22.5 7.5q-39 39 -86 56.5t-107 17.5q-92 0 -160 -47.5t-105 -130.5t-37 -190q0 -97 30.5 -157t86 -87t131.5 -27
q54 0 99.5 17t88.5 57q12 11 22.5 6.5t13.5 -16t-9 -22.5q-48 -43 -100.5 -63t-117.5 -20zM441 758q-11 0 -18 6t-13 16l-85 140q-6 10 -1 16.5t14 6t16 -10.5l89 -129l125 132q8 8 16.5 7.5t12.5 -7t-4 -16.5l-114 -139q-9 -11 -17.5 -16.5t-20.5 -5.5z" />
    <glyph glyph-name="ccaron" unicode="&#x10d;" horiz-adv-x="455" 
d="M248 -8q-100 0 -148 58.5t-48 151.5q0 53 14 104.5t43.5 93.5t76 67t111.5 25q39 0 75.5 -12t61.5 -32q16 -12 16 -25t-8.5 -18t-21.5 5q-52 43 -125 43q-53 0 -91 -21.5t-62 -58t-35.5 -81t-11.5 -90.5q0 -78 36.5 -124.5t118.5 -46.5q28 0 58.5 9.5t57.5 30.5
q13 10 22 5t11 -16t-9 -20q-28 -23 -66.5 -35.5t-75.5 -12.5zM305 544q-9 0 -16.5 4.5t-12.5 16.5l-74 170q-5 12 0.5 18t14.5 5t14 -11l78 -159l117 161q7 9 15.5 9t13 -6.5t-2.5 -17.5l-110 -168q-7 -12 -17.5 -17t-19.5 -5z" />
    <glyph glyph-name="Dcaron" unicode="&#x10e;" horiz-adv-x="725" 
d="M85 0q-28 0 -23 27l104 655q3 23 27 23h167q153 0 236 -75.5t83 -213.5q0 -85 -22.5 -160t-70.5 -132.5t-122.5 -90.5t-179.5 -33h-199zM106 39h180q96 0 162.5 30t107.5 83t59.5 121t18.5 143q0 122 -69 186t-206 64h-153zM434 758q-11 0 -18 6t-13 16l-85 140
q-6 10 -1 16.5t14 6t16 -10.5l89 -129l125 132q8 8 16.5 7.5t12.5 -7t-4 -16.5l-114 -139q-9 -11 -17.5 -16.5t-20.5 -5.5z" />
    <glyph glyph-name="dcaron" unicode="&#x10f;" horiz-adv-x="568" 
d="M241 -8q-85 0 -137.5 55.5t-52.5 150.5q0 78 27.5 145t81.5 108t133 41q57 0 103 -28t66 -87l50 313q3 21 24 21q22 0 17 -25l-106 -671q-3 -21 -24 -21q-22 0 -17 25l10 66q-27 -43 -72 -68t-103 -25zM247 31q64 0 108 35t66.5 93t22.5 127q0 83 -40.5 125t-112.5 42
q-64 0 -108 -35t-66.5 -92.5t-22.5 -127.5q0 -82 40.5 -124.5t112.5 -42.5zM589 514q-14 0 -11 15l25 159q4 23 27 23q27 0 19 -28l-43 -155q-4 -14 -17 -14z" />
    <glyph glyph-name="Dcroat" unicode="&#x110;" horiz-adv-x="725" 
d="M85 0q-28 0 -23 27l104 655q3 23 27 23h167q153 0 236 -75.5t83 -213.5q0 -85 -22.5 -160t-70.5 -132.5t-122.5 -90.5t-179.5 -33h-199zM106 39h180q96 0 162.5 30t107.5 83t59.5 121t18.5 143q0 122 -69 186t-206 64h-153zM40 340q-21 0 -21 16q0 21 23 21h302
q21 0 21 -15q0 -22 -23 -22h-302z" />
    <glyph glyph-name="dcroat" unicode="&#x111;" horiz-adv-x="568" 
d="M241 -8q-85 0 -137.5 55.5t-52.5 150.5q0 78 27.5 145t81.5 108t133 41q57 0 102.5 -27.5t66.5 -85.5l29 183h-178q-22 0 -22 15q0 21 24 21h182l15 92q3 21 24 21q22 0 17 -25l-14 -88h76q22 0 22 -15q0 -21 -24 -21h-80l-87 -547q-3 -21 -24 -21q-22 0 -17 25l10 64
q-28 -43 -72 -67t-102 -24zM247 31q64 0 108 35t66.5 93t22.5 127q0 83 -40.5 125t-112.5 42q-64 0 -108 -35t-66.5 -92.5t-22.5 -127.5q0 -82 40.5 -124.5t112.5 -42.5z" />
    <glyph glyph-name="Emacron" unicode="&#x112;" horiz-adv-x="570" 
d="M85 0q-28 0 -23 27l104 655q4 23 27 23h383q21 0 21 -15q0 -13 -7 -18.5t-16 -5.5h-368l-46 -289h344q21 0 21 -15q0 -13 -7 -18.5t-16 -5.5h-349l-47 -299h364q21 0 21 -15q0 -13 -7 -18.5t-16 -5.5h-383zM278 822q-21 0 -21 16q0 22 23 22h278q21 0 21 -16
q0 -22 -23 -22h-278z" />
    <glyph glyph-name="emacron" unicode="&#x113;" horiz-adv-x="523" 
d="M261 -8q-98 0 -154 55.5t-56 152.5q0 77 29 143.5t85 107.5t136 41q72 0 113.5 -33.5t57 -87t6.5 -112.5q-2 -14 -7 -19.5t-18 -5.5h-358q-11 -91 32.5 -147t131.5 -56q42 0 77 10.5t69 35.5q15 11 24.5 6.5t10.5 -16t-13 -22.5q-33 -25 -77.5 -39t-88.5 -14zM300 454
q-62 0 -103 -27t-64 -69t-32 -87h339q6 51 -6 92.5t-45 66t-89 24.5zM207 633q-21 0 -21 16q0 22 23 22h248q21 0 21 -16q0 -22 -23 -22h-248z" />
    <glyph glyph-name="Ebreve" unicode="&#x114;" horiz-adv-x="570" 
d="M85 0q-28 0 -23 27l104 655q4 23 27 23h383q21 0 21 -15q0 -13 -7 -18.5t-16 -5.5h-368l-46 -289h344q21 0 21 -15q0 -13 -7 -18.5t-16 -5.5h-349l-47 -299h364q21 0 21 -15q0 -13 -7 -18.5t-16 -5.5h-383zM409 760q-61 0 -101.5 42t-41.5 115q0 16 16 18q17 2 17 -17
q0 -58 31.5 -90t81.5 -32q51 0 86.5 32.5t46.5 91.5q3 17 19 15q18 -2 13 -24q-16 -71 -62 -111t-106 -40z" />
    <glyph glyph-name="ebreve" unicode="&#x115;" horiz-adv-x="523" 
d="M261 -8q-98 0 -154 55.5t-56 152.5q0 77 29 143.5t85 107.5t136 41q72 0 113.5 -33.5t57 -87t6.5 -112.5q-2 -14 -7 -19.5t-18 -5.5h-358q-11 -91 32.5 -147t131.5 -56q42 0 77 10.5t69 35.5q15 11 24.5 6.5t10.5 -16t-13 -22.5q-33 -25 -77.5 -39t-88.5 -14zM300 454
q-62 0 -103 -27t-64 -69t-32 -87h339q6 51 -6 92.5t-45 66t-89 24.5zM324 547q-60 0 -95.5 46t-35.5 128q0 17 15 18q18 2 18 -17q0 -67 26.5 -103t72.5 -36q47 0 78 36.5t44 104.5q3 17 18 15q18 -2 13 -26q-16 -79 -55.5 -122.5t-98.5 -43.5z" />
    <glyph glyph-name="Edotaccent" unicode="&#x116;" horiz-adv-x="570" 
d="M85 0q-28 0 -23 27l104 655q4 23 27 23h383q21 0 21 -15q0 -13 -7 -18.5t-16 -5.5h-368l-46 -289h344q21 0 21 -15q0 -13 -7 -18.5t-16 -5.5h-349l-47 -299h364q21 0 21 -15q0 -13 -7 -18.5t-16 -5.5h-383zM414 815q-30 0 -30 28q0 20 11 30.5t30 10.5q30 0 30 -28
q0 -19 -11 -30t-30 -11z" />
    <glyph glyph-name="edotaccent" unicode="&#x117;" horiz-adv-x="523" 
d="M261 -8q-98 0 -154 55.5t-56 152.5q0 77 29 143.5t85 107.5t136 41q72 0 113.5 -33.5t57 -87t6.5 -112.5q-2 -14 -7 -19.5t-18 -5.5h-358q-11 -91 32.5 -147t131.5 -56q42 0 77 10.5t69 35.5q15 11 24.5 6.5t10.5 -16t-13 -22.5q-33 -25 -77.5 -39t-88.5 -14zM300 454
q-62 0 -103 -27t-64 -69t-32 -87h339q6 51 -6 92.5t-45 66t-89 24.5zM326 616q-30 0 -30 28q0 20 11 30.5t30 10.5q30 0 30 -28q0 -19 -11 -30t-30 -11z" />
    <glyph glyph-name="Eogonek" unicode="&#x118;" horiz-adv-x="570" 
d="M85 0q-28 0 -23 27l104 655q4 23 27 23h383q21 0 21 -15q0 -13 -7 -18.5t-16 -5.5h-368l-46 -289h344q21 0 21 -15q0 -13 -7 -18.5t-16 -5.5h-349l-47 -299h364q21 0 21 -15q0 -13 -7 -18.5t-16 -5.5h-383zM419 -190q-43 0 -66 24.5t-23 62.5q0 44 28.5 79.5t72.5 54.5
l18 -31q-40 -16 -60 -43t-20 -56q0 -25 13.5 -40t41.5 -15q18 0 39 7q12 4 17 -3.5t4 -17t-9 -12.5q-13 -5 -29 -7.5t-27 -2.5z" />
    <glyph glyph-name="eogonek" unicode="&#x119;" horiz-adv-x="523" 
d="M261 -8q-98 0 -154 55.5t-56 152.5q0 77 29 143.5t85 107.5t136 41q72 0 113.5 -33.5t57 -87t6.5 -112.5q-2 -14 -7 -19.5t-18 -5.5h-358q-11 -91 32.5 -147t131.5 -56q42 0 77 10.5t69 35.5q15 11 24.5 6.5t10.5 -16t-13 -22.5q-33 -25 -77.5 -39t-88.5 -14zM300 454
q-62 0 -103 -27t-64 -69t-32 -87h339q6 51 -6 92.5t-45 66t-89 24.5zM273 -190q-43 0 -66 24.5t-23 62.5q0 44 28.5 79.5t72.5 54.5l18 -31q-40 -16 -60 -43t-20 -56q0 -25 13.5 -40t41.5 -15q18 0 39 7q12 4 17 -3.5t4 -17t-9 -12.5q-13 -5 -29 -7.5t-27 -2.5z" />
    <glyph glyph-name="Ecaron" unicode="&#x11a;" horiz-adv-x="570" 
d="M85 0q-28 0 -23 27l104 655q4 23 27 23h383q21 0 21 -15q0 -13 -7 -18.5t-16 -5.5h-368l-46 -289h344q21 0 21 -15q0 -13 -7 -18.5t-16 -5.5h-349l-47 -299h364q21 0 21 -15q0 -13 -7 -18.5t-16 -5.5h-383zM404 758q-11 0 -18 6t-13 16l-85 140q-6 10 -1 16.5t14 6
t16 -10.5l89 -129l125 132q8 8 16.5 7.5t12.5 -7t-4 -16.5l-114 -139q-9 -11 -17.5 -16.5t-20.5 -5.5z" />
    <glyph glyph-name="ecaron" unicode="&#x11b;" horiz-adv-x="523" 
d="M261 -8q-98 0 -154 55.5t-56 152.5q0 77 29 143.5t85 107.5t136 41q72 0 113.5 -33.5t57 -87t6.5 -112.5q-2 -14 -7 -19.5t-18 -5.5h-358q-11 -91 32.5 -147t131.5 -56q42 0 77 10.5t69 35.5q15 11 24.5 6.5t10.5 -16t-13 -22.5q-33 -25 -77.5 -39t-88.5 -14zM300 454
q-62 0 -103 -27t-64 -69t-32 -87h339q6 51 -6 92.5t-45 66t-89 24.5zM313 544q-9 0 -16.5 4.5t-12.5 16.5l-74 170q-5 12 0.5 18t14.5 5t14 -11l78 -159l117 161q7 9 15.5 9t13 -6.5t-2.5 -17.5l-110 -168q-7 -12 -17.5 -17t-19.5 -5z" />
    <glyph glyph-name="Gcircumflex" unicode="&#x11c;" horiz-adv-x="718" 
d="M384 -8q-145 0 -223.5 76t-78.5 221q0 128 43 223.5t122 148t186 52.5q68 0 126.5 -21t95.5 -62q11 -12 8.5 -24.5t-13 -16.5t-23.5 9q-37 39 -86 56.5t-111 17.5q-93 0 -161 -46.5t-105 -132.5t-37 -204q0 -130 65.5 -193t193.5 -63q52 0 94 8.5t79 21.5l41 253h-175
q-22 0 -22 17q0 22 24 22h194q26 0 21 -25l-44 -280q-3 -18 -15 -23q-36 -16 -90 -25.5t-109 -9.5zM327 765q-7 -8 -16 -7.5t-12.5 7.5t4.5 16l114 139q9 11 17.5 16.5t20.5 5.5q11 0 17.5 -5.5t13.5 -16.5l85 -140q6 -10 1 -16.5t-14.5 -6t-16.5 10.5l-90 129z" />
    <glyph glyph-name="gcircumflex" unicode="&#x11d;" horiz-adv-x="570" 
d="M241 -188q-57 0 -104.5 18t-87.5 47q-9 7 -6.5 18t11.5 17t21 -3q38 -28 75.5 -43t88.5 -15q68 0 111 36.5t55 112.5l17 110q-27 -46 -73 -72.5t-107 -26.5q-57 0 -100 24.5t-67 69t-24 103.5q0 55 15.5 106t46.5 91t76 63.5t105 23.5q57 0 103 -27.5t67 -85.5l14 90
q3 21 24 21q22 0 17 -25l-73 -463q-16 -97 -66.5 -143.5t-138.5 -46.5zM248 50q65 0 109 34.5t66.5 90.5t22.5 121q0 75 -40.5 116t-113.5 41q-64 0 -108.5 -34.5t-67 -90t-22.5 -120.5q0 -76 40.5 -117t113.5 -41zM461 565q5 -10 -1 -16t-15 -5t-13 9l-77 157l-115 -158
q-6 -8 -15 -8.5t-13.5 6t2.5 17.5l113 173q8 11 15.5 14.5t16.5 3.5q18 0 26 -18z" />
    <glyph glyph-name="Gbreve" unicode="&#x11e;" horiz-adv-x="718" 
d="M384 -8q-145 0 -223.5 76t-78.5 221q0 128 43 223.5t122 148t186 52.5q68 0 126.5 -21t95.5 -62q11 -12 8.5 -24.5t-13 -16.5t-23.5 9q-37 39 -86 56.5t-111 17.5q-93 0 -161 -46.5t-105 -132.5t-37 -204q0 -130 65.5 -193t193.5 -63q52 0 94 8.5t79 21.5l41 253h-175
q-22 0 -22 17q0 22 24 22h194q26 0 21 -25l-44 -280q-3 -18 -15 -23q-36 -16 -90 -25.5t-109 -9.5zM447 760q-61 0 -101.5 42t-41.5 115q0 16 16 18q17 2 17 -17q0 -58 31.5 -90t81.5 -32q51 0 86.5 32.5t46.5 91.5q3 17 19 15q18 -2 13 -24q-16 -71 -62 -111t-106 -40z" />
    <glyph glyph-name="gbreve" unicode="&#x11f;" horiz-adv-x="570" 
d="M241 -188q-57 0 -104.5 18t-87.5 47q-9 7 -6.5 18t11.5 17t21 -3q38 -28 75.5 -43t88.5 -15q68 0 111 36.5t55 112.5l17 110q-27 -46 -73 -72.5t-107 -26.5q-57 0 -100 24.5t-67 69t-24 103.5q0 55 15.5 106t46.5 91t76 63.5t105 23.5q57 0 103 -27.5t67 -85.5l14 90
q3 21 24 21q22 0 17 -25l-73 -463q-16 -97 -66.5 -143.5t-138.5 -46.5zM248 50q65 0 109 34.5t66.5 90.5t22.5 121q0 75 -40.5 116t-113.5 41q-64 0 -108.5 -34.5t-67 -90t-22.5 -120.5q0 -76 40.5 -117t113.5 -41zM345 547q-60 0 -95.5 46t-35.5 128q0 17 15 18
q18 2 18 -17q0 -67 26.5 -103t72.5 -36q47 0 78 36.5t44 104.5q3 17 18 15q18 -2 13 -26q-16 -79 -55.5 -122.5t-98.5 -43.5z" />
    <glyph glyph-name="Gdotaccent" unicode="&#x120;" horiz-adv-x="718" 
d="M384 -8q-145 0 -223.5 76t-78.5 221q0 128 43 223.5t122 148t186 52.5q68 0 126.5 -21t95.5 -62q11 -12 8.5 -24.5t-13 -16.5t-23.5 9q-37 39 -86 56.5t-111 17.5q-93 0 -161 -46.5t-105 -132.5t-37 -204q0 -130 65.5 -193t193.5 -63q52 0 94 8.5t79 21.5l41 253h-175
q-22 0 -22 17q0 22 24 22h194q26 0 21 -25l-44 -280q-3 -18 -15 -23q-36 -16 -90 -25.5t-109 -9.5zM452 815q-30 0 -30 28q0 20 11 30.5t30 10.5q30 0 30 -28q0 -19 -11 -30t-30 -11z" />
    <glyph glyph-name="gdotaccent" unicode="&#x121;" horiz-adv-x="570" 
d="M241 -188q-57 0 -104.5 18t-87.5 47q-9 7 -6.5 18t11.5 17t21 -3q38 -28 75.5 -43t88.5 -15q68 0 111 36.5t55 112.5l17 110q-27 -46 -73 -72.5t-107 -26.5q-57 0 -100 24.5t-67 69t-24 103.5q0 55 15.5 106t46.5 91t76 63.5t105 23.5q57 0 103 -27.5t67 -85.5l14 90
q3 21 24 21q22 0 17 -25l-73 -463q-16 -97 -66.5 -143.5t-138.5 -46.5zM248 50q65 0 109 34.5t66.5 90.5t22.5 121q0 75 -40.5 116t-113.5 41q-64 0 -108.5 -34.5t-67 -90t-22.5 -120.5q0 -76 40.5 -117t113.5 -41zM347 616q-30 0 -30 28q0 20 11 30.5t30 10.5q30 0 30 -28
q0 -19 -11 -30t-30 -11z" />
    <glyph glyph-name="uni0122" unicode="&#x122;" horiz-adv-x="718" 
d="M384 -8q-145 0 -223.5 76t-78.5 221q0 128 43 223.5t122 148t186 52.5q68 0 126.5 -21t95.5 -62q11 -12 8.5 -24.5t-13 -16.5t-23.5 9q-37 39 -86 56.5t-111 17.5q-93 0 -161 -46.5t-105 -132.5t-37 -204q0 -130 65.5 -193t193.5 -63q52 0 94 8.5t79 21.5l41 253h-175
q-22 0 -22 17q0 22 24 22h194q26 0 21 -25l-44 -280q-3 -18 -15 -23q-36 -16 -90 -25.5t-109 -9.5zM340 -242q-10 -10 -19.5 -7.5t-12 12t7.5 20.5q27 30 33 59q-15 1 -24 11.5t-9 25.5q0 17 10 27.5t26 10.5q36 0 36 -45q0 -31 -13.5 -62t-34.5 -52z" />
    <glyph glyph-name="uni0123" unicode="&#x123;" horiz-adv-x="570" 
d="M241 -188q-57 0 -104.5 18t-87.5 47q-9 7 -6.5 18t11.5 17t21 -3q38 -28 75.5 -43t88.5 -15q68 0 111 36.5t55 112.5l17 110q-27 -46 -73 -72.5t-107 -26.5q-57 0 -100 24.5t-67 69t-24 103.5q0 55 15.5 106t46.5 91t76 63.5t105 23.5q57 0 103 -27.5t67 -85.5l14 90
q3 21 24 21q22 0 17 -25l-73 -463q-16 -97 -66.5 -143.5t-138.5 -46.5zM248 50q65 0 109 34.5t66.5 90.5t22.5 121q0 75 -40.5 116t-113.5 41q-64 0 -108.5 -34.5t-67 -90t-22.5 -120.5q0 -76 40.5 -117t113.5 -41zM347 567q-36 0 -36 45q0 32 13.5 62.5t34.5 51.5
q11 11 20 8t11.5 -12.5t-7.5 -20.5q-27 -30 -33 -59q15 -1 24 -11.5t9 -25.5q0 -16 -10 -27t-26 -11z" />
    <glyph glyph-name="Hcircumflex" unicode="&#x124;" horiz-adv-x="751" 
d="M78 -6q-22 0 -17 26l106 669q3 22 23 22q23 0 18 -26l-48 -308h474l50 312q3 22 23 22q23 0 18 -26l-106 -669q-3 -22 -23 -22q-23 0 -18 26l50 318h-474l-52 -322q-3 -22 -24 -22zM341 765q-7 -8 -16 -7.5t-12.5 7.5t4.5 16l114 139q9 11 17.5 16.5t20.5 5.5
q11 0 17.5 -5.5t13.5 -16.5l85 -140q6 -10 1 -16.5t-14.5 -6t-16.5 10.5l-90 129z" />
    <glyph glyph-name="hcircumflex" unicode="&#x125;" horiz-adv-x="553" 
d="M67 -6q-22 0 -17 25l106 671q3 21 24 21q22 0 17 -25l-46 -290q28 45 73.5 70.5t106.5 25.5q81 0 122 -48.5t25 -148.5l-44 -280q-3 -21 -25 -21t-17 25l44 277q25 157 -106 157q-86 0 -135.5 -51.5t-63.5 -137.5l-39 -249q-3 -21 -25 -21zM244 765q-7 -8 -16 -7.5
t-12.5 7.5t4.5 16l114 139q9 11 17.5 16.5t20.5 5.5q11 0 17.5 -5.5t13.5 -16.5l85 -140q6 -10 1 -16.5t-14.5 -6t-16.5 10.5l-90 129z" />
    <glyph glyph-name="Hbar" unicode="&#x126;" horiz-adv-x="781" 
d="M94 -6q-23 0 -18 26l80 507h-76q-23 0 -23 16q0 11 7.5 16.5t17.5 5.5h80l20 124q3 22 23 22q10 0 15 -7t3 -19l-19 -120h474l20 124q3 22 23 22q21 0 18 -26l-19 -120h77q23 0 23 -16q0 -10 -7 -16t-18 -6h-81l-81 -511q-3 -22 -23 -22q-23 0 -18 26l50 318h-474
l-51 -322q-3 -22 -23 -22zM174 377h474l24 150h-474z" />
    <glyph glyph-name="hbar" unicode="&#x127;" horiz-adv-x="553" 
d="M67 -6q-22 0 -17 25l86 543h-70q-22 0 -22 15q0 21 24 21h74l15 92q3 21 24 21q22 0 17 -25l-14 -88h172q22 0 22 -15q0 -21 -24 -21h-176l-26 -164q28 45 73.5 69.5t105.5 24.5q81 0 122 -48.5t25 -148.5l-44 -280q-3 -21 -25 -21t-17 25l44 277q25 157 -106 157
q-86 0 -135.5 -51.5t-63.5 -137.5l-39 -249q-3 -21 -25 -21z" />
    <glyph glyph-name="Itilde" unicode="&#x128;" horiz-adv-x="234" 
d="M79 -6q-23 0 -18 26l106 669q3 22 23 22q23 0 18 -26l-106 -669q-3 -22 -23 -22zM20 790q-18 2 -13 20q27 105 111 105q27 0 50.5 -13t45 -29.5t41.5 -29.5t40 -13q54 0 76 75q5 15 19 14q18 -2 13 -20q-27 -105 -111 -105q-27 0 -50.5 13t-45 29.5t-41.5 29.5t-40 13
q-53 0 -76 -75q-5 -15 -19 -14z" />
    <glyph glyph-name="itilde" unicode="&#x129;" horiz-adv-x="212" 
d="M67 -6q-22 0 -17 25l71 450q3 21 24 21q22 0 17 -25l-71 -450q-3 -21 -24 -21zM9 593q-17 2 -12 19q12 51 38 78.5t63 27.5q24 0 41 -13t31 -29.5t28.5 -29.5t32.5 -13q24 0 41 19.5t27 54.5q5 17 20 15q17 -2 12 -19q-12 -51 -38 -78.5t-62 -27.5q-24 0 -41.5 13
t-31.5 29.5t-28.5 29.5t-32.5 13q-24 0 -41 -19.5t-27 -54.5q-5 -17 -20 -15z" />
    <glyph glyph-name="Imacron" unicode="&#x12a;" horiz-adv-x="234" 
d="M79 -6q-23 0 -18 26l106 669q3 22 23 22q23 0 18 -26l-106 -669q-3 -22 -23 -22zM73 822q-21 0 -21 16q0 22 23 22h278q21 0 21 -16q0 -22 -23 -22h-278z" />
    <glyph glyph-name="imacron" unicode="&#x12b;" horiz-adv-x="212" 
d="M67 -6q-22 0 -17 25l71 450q3 21 24 21q22 0 17 -25l-71 -450q-3 -21 -24 -21zM48 633q-21 0 -21 16q0 22 23 22h248q21 0 21 -16q0 -22 -23 -22h-248z" />
    <glyph glyph-name="Ibreve" unicode="&#x12c;" horiz-adv-x="234" 
d="M79 -6q-23 0 -18 26l106 669q3 22 23 22q23 0 18 -26l-106 -669q-3 -22 -23 -22zM204 760q-61 0 -101.5 42t-41.5 115q0 16 16 18q17 2 17 -17q0 -58 31.5 -90t81.5 -32q51 0 86.5 32.5t46.5 91.5q3 17 19 15q18 -2 13 -24q-16 -71 -62 -111t-106 -40z" />
    <glyph glyph-name="ibreve" unicode="&#x12d;" horiz-adv-x="212" 
d="M67 -6q-22 0 -17 25l71 450q3 21 24 21q22 0 17 -25l-71 -450q-3 -21 -24 -21zM165 547q-60 0 -95.5 46t-35.5 128q0 17 15 18q18 2 18 -17q0 -67 26.5 -103t72.5 -36q47 0 78 36.5t44 104.5q3 17 18 15q18 -2 13 -26q-16 -79 -55.5 -122.5t-98.5 -43.5z" />
    <glyph glyph-name="Iogonek" unicode="&#x12e;" horiz-adv-x="234" 
d="M70 -190q-43 0 -66 24.5t-23 62.5q0 40 23 72.5t57 50.5l106 669q3 22 23 22q23 0 18 -26l-106 -669q-3 -17 -15 -22q-34 -17 -50.5 -41.5t-16.5 -51.5q0 -25 13.5 -40t41.5 -15q18 0 39 7q12 4 17 -3.5t4 -17t-9 -12.5q-13 -5 -29 -7.5t-27 -2.5z" />
    <glyph glyph-name="iogonek" unicode="&#x12f;" horiz-adv-x="212" 
d="M167 616q-30 0 -30 28q0 20 11 30.5t30 10.5q30 0 30 -28q0 -19 -11 -30t-30 -11zM59 -190q-43 0 -66 24.5t-23 62.5q0 39 22 70.5t58 53.5l71 448q3 21 24 21q22 0 17 -25l-71 -450q-1 -14 -14 -20q-68 -35 -68 -94q0 -25 13.5 -40t41.5 -15q18 0 39 7q12 4 17 -3.5
t4 -17t-9 -12.5q-13 -5 -29 -7.5t-27 -2.5z" />
    <glyph glyph-name="Idotaccent" unicode="&#x130;" horiz-adv-x="234" 
d="M79 -6q-23 0 -18 26l106 669q3 22 23 22q23 0 18 -26l-106 -669q-3 -22 -23 -22zM209 815q-30 0 -30 28q0 20 11 30.5t30 10.5q30 0 30 -28q0 -19 -11 -30t-30 -11z" />
    <glyph glyph-name="dotlessi" unicode="&#x131;" horiz-adv-x="212" 
d="M67 -6q-22 0 -17 25l71 450q3 21 24 21q22 0 17 -25l-71 -450q-3 -21 -24 -21z" />
    <glyph glyph-name="IJ" unicode="&#x132;" horiz-adv-x="531" 
d="M79 -6q-23 0 -18 26l106 669q3 22 23 22q23 0 18 -26l-106 -669q-3 -22 -23 -22zM211 -6q-26 -3 -26 19q0 18 22 20l33 3q122 11 144 151l80 503q3 21 24 21q22 0 17 -25l-81 -509q-13 -82 -57.5 -127t-124.5 -53z" />
    <glyph glyph-name="Jcircumflex" unicode="&#x134;" horiz-adv-x="297" 
d="M-23 -6q-26 -3 -26 19q0 18 22 20l33 3q122 11 144 151l80 503q3 21 24 21q22 0 17 -25l-81 -509q-13 -82 -57.5 -127t-124.5 -53zM146 765q-7 -8 -16 -7.5t-12.5 7.5t4.5 16l114 139q9 11 17.5 16.5t20.5 5.5q11 0 17.5 -5.5t13.5 -16.5l85 -140q6 -10 1 -16.5t-14.5 -6
t-16.5 10.5l-90 129z" />
    <glyph glyph-name="jcircumflex" unicode="&#x135;" horiz-adv-x="215" 
d="M-100 -191q-14 0 -18.5 9.5t-0.5 19t17 9.5q61 0 99 31t49 100l78 491q3 21 24 21q22 0 17 -25l-78 -491q-13 -84 -62 -124.5t-125 -40.5zM281 565q5 -10 -1 -16t-15 -5t-13 9l-77 157l-115 -158q-6 -8 -15 -8.5t-13.5 6t2.5 17.5l113 173q8 11 15.5 14.5t16.5 3.5
q18 0 26 -18z" />
    <glyph glyph-name="uni0136" unicode="&#x136;" horiz-adv-x="590" 
d="M80 -6q-23 0 -18 25l106 671q3 21 23 21q23 0 18 -25l-49 -309h2l416 324q13 10 24 10q14 0 18 -11.5t-7 -19.5l-415 -326l332 -328q11 -10 6 -21t-19 -11q-12 0 -24 12l-337 332h-2l-51 -323q-3 -21 -23 -21zM242 -242q-10 -10 -19.5 -7.5t-12 12t7.5 20.5q27 30 33 59
q-15 1 -24 11.5t-9 25.5q0 17 10 27.5t26 10.5q36 0 36 -45q0 -31 -13.5 -62t-34.5 -52z" />
    <glyph glyph-name="uni0137" unicode="&#x137;" horiz-adv-x="468" 
d="M67 -6q-22 0 -17 25l106 671q3 21 24 21q22 0 17 -25l-67 -426h2l279 220q13 10 25 10q11 0 15.5 -11t-9.5 -22l-267 -212l226 -218q11 -10 7 -21.5t-16 -11.5q-14 0 -30 16l-234 227h-2l-35 -222q-3 -21 -24 -21zM167 -242q-10 -10 -19.5 -7.5t-12 12t7.5 20.5
q27 30 33 59q-15 1 -24 11.5t-9 25.5q0 17 10 27.5t26 10.5q36 0 36 -45q0 -31 -13.5 -62t-34.5 -52z" />
    <glyph glyph-name="kgreenlandic" unicode="&#x138;" horiz-adv-x="468" 
d="M67 -6q-22 0 -17 25l71 450q3 21 24 21q22 0 17 -25l-32 -205h2l279 220q13 10 23 10q13 0 17.5 -11t-9.5 -22l-267 -212l226 -218q11 -10 7.5 -21.5t-17.5 -11.5q-13 0 -29 16l-234 227h-2l-35 -222q-3 -21 -24 -21z" />
    <glyph glyph-name="Lacute" unicode="&#x139;" horiz-adv-x="527" 
d="M82 0q-23 0 -20 24l106 667q3 20 23 20q21 0 18 -24l-102 -648h357q21 0 21 -15q0 -13 -7 -18.5t-16 -5.5h-380zM223 768q-7 -8 -16 -7t-12.5 8.5t2.5 15.5l112 145q11 14 23.5 12.5t18.5 -11.5t-5 -23z" />
    <glyph glyph-name="lacute" unicode="&#x13a;" horiz-adv-x="275" 
d="M177 -8q-62 0 -91 38t-17 113l87 547q3 21 24 21q22 0 17 -25l-86 -543q-10 -61 8.5 -86.5t65.5 -25.5q16 0 24.5 2t12.5 2q11 0 11 -15q0 -20 -24 -25q-7 -1 -16.5 -2t-15.5 -1zM212 768q-7 -8 -16 -7t-12.5 8.5t2.5 15.5l112 145q11 14 23.5 12.5t18.5 -11.5t-5 -23z
" />
    <glyph glyph-name="uni013B" unicode="&#x13b;" horiz-adv-x="527" 
d="M82 0q-23 0 -20 24l106 667q3 20 23 20q21 0 18 -24l-102 -648h357q21 0 21 -15q0 -13 -7 -18.5t-16 -5.5h-380zM235 -242q-10 -10 -19.5 -7.5t-12 12t7.5 20.5q27 30 33 59q-15 1 -24 11.5t-9 25.5q0 17 10 27.5t26 10.5q36 0 36 -45q0 -31 -13.5 -62t-34.5 -52z" />
    <glyph glyph-name="uni013C" unicode="&#x13c;" horiz-adv-x="275" 
d="M177 -8q-62 0 -91 38t-17 113l87 547q3 21 24 21q22 0 17 -25l-86 -543q-10 -61 8.5 -86.5t65.5 -25.5q16 0 24.5 2t12.5 2q11 0 11 -15q0 -20 -24 -25q-7 -1 -16.5 -2t-15.5 -1zM111 -242q-10 -10 -19.5 -7.5t-12 12t7.5 20.5q27 30 33 59q-15 1 -24 11.5t-9 25.5
q0 17 10 27.5t26 10.5q36 0 36 -45q0 -31 -13.5 -62t-34.5 -52z" />
    <glyph glyph-name="Lcaron" unicode="&#x13d;" horiz-adv-x="527" 
d="M82 0q-23 0 -20 24l106 667q3 20 23 20q21 0 18 -24l-102 -648h357q21 0 21 -15q0 -13 -7 -18.5t-16 -5.5h-380zM314 486q-14 0 -12 16l29 184q2 14 9 19.5t18 5.5q26 0 20 -27l-45 -183q-4 -15 -19 -15z" />
    <glyph glyph-name="lcaron" unicode="&#x13e;" horiz-adv-x="275" 
d="M177 -8q-62 0 -91 38t-17 113l87 547q3 21 24 21q22 0 17 -25l-86 -543q-10 -61 8.5 -86.5t65.5 -25.5q16 0 24.5 2t12.5 2q11 0 11 -15q0 -20 -24 -25q-7 -1 -16.5 -2t-15.5 -1zM233 514q-14 0 -11 15l25 159q4 23 27 23q27 0 19 -28l-43 -155q-4 -14 -17 -14z" />
    <glyph glyph-name="Ldot" unicode="&#x13f;" horiz-adv-x="527" 
d="M82 0q-23 0 -20 24l106 667q3 20 23 20q21 0 18 -24l-102 -648h357q21 0 21 -15q0 -13 -7 -18.5t-16 -5.5h-380zM409 348q-16 0 -27 11t-11 27q0 17 11 27.5t27 10.5q17 0 27 -10.5t10 -27.5q0 -16 -10 -27t-27 -11z" />
    <glyph glyph-name="ldot" unicode="&#x140;" horiz-adv-x="275" 
d="M177 -8q-62 0 -91 38t-17 113l87 547q3 21 24 21q22 0 17 -25l-86 -543q-10 -61 8.5 -86.5t65.5 -25.5q16 0 24.5 2t12.5 2q11 0 11 -15q0 -20 -24 -25q-7 -1 -16.5 -2t-15.5 -1zM263 315q-16 0 -27 11t-11 27q0 17 11 27.5t27 10.5q17 0 27 -10.5t10 -27.5
q0 -16 -10 -27t-27 -11z" />
    <glyph glyph-name="Lslash" unicode="&#x141;" horiz-adv-x="527" 
d="M82 0q-23 0 -20 24l106 667q3 20 23 20q21 0 18 -24l-102 -648h357q21 0 21 -15q0 -13 -7 -18.5t-16 -5.5h-380zM29 297q-12 -5 -19.5 1.5t-7 17.5t13.5 17l313 145q12 6 19.5 -1t7 -18t-13.5 -17z" />
    <glyph glyph-name="lslash" unicode="&#x142;" horiz-adv-x="275" 
d="M177 -8q-62 0 -91 38t-17 113l87 547q3 21 24 21q22 0 17 -25l-86 -543q-10 -61 8.5 -86.5t65.5 -25.5q16 0 24.5 2t12.5 2q11 0 11 -15q0 -20 -24 -25q-7 -1 -16.5 -2t-15.5 -1zM34 289q-12 -6 -21 1t-8.5 18t14.5 17l210 99q13 6 22 -1t9 -17.5t-14 -17.5z" />
    <glyph glyph-name="Nacute" unicode="&#x143;" horiz-adv-x="732" 
d="M77 -6q-19 0 -16 24l107 673q3 20 21 20q8 0 12.5 -3.5t8.5 -11.5l359 -629l99 624q3 20 23 20q18 0 15 -24l-107 -673q-3 -20 -19 -20q-8 0 -12.5 4t-9.5 11l-360 631l-99 -626q-3 -20 -22 -20zM472 768q-7 -8 -16 -7t-12.5 8.5t2.5 15.5l112 145q11 14 23.5 12.5
t18.5 -11.5t-5 -23z" />
    <glyph glyph-name="nacute" unicode="&#x144;" horiz-adv-x="553" 
d="M68 -6q-10 0 -14.5 7.5t-2.5 19.5l71 448q3 21 24 21t16 -25l-11 -69q28 45 73.5 70.5t106.5 25.5q81 0 122 -48.5t25 -148.5l-45 -282q-3 -19 -24 -19q-22 0 -17 25l44 277q25 157 -106 157q-86 0 -135.5 -51.5t-63.5 -137.5l-39 -249q-3 -21 -24 -21zM346 552
q-7 -9 -15.5 -8t-12 8t2.5 16l118 175q11 17 24 15.5t18.5 -12.5t-4.5 -24z" />
    <glyph glyph-name="uni0145" unicode="&#x145;" horiz-adv-x="732" 
d="M77 -6q-19 0 -16 24l107 673q3 20 21 20q8 0 12.5 -3.5t8.5 -11.5l359 -629l99 624q3 20 23 20q18 0 15 -24l-107 -673q-3 -20 -19 -20q-8 0 -12.5 4t-9.5 11l-360 631l-99 -626q-3 -20 -22 -20zM306 -242q-10 -10 -19.5 -7.5t-12 12t7.5 20.5q27 30 33 59
q-15 1 -24 11.5t-9 25.5q0 17 10 27.5t26 10.5q36 0 36 -45q0 -31 -13.5 -62t-34.5 -52z" />
    <glyph glyph-name="uni0146" unicode="&#x146;" horiz-adv-x="553" 
d="M68 -6q-10 0 -14.5 7.5t-2.5 19.5l71 448q3 21 24 21t16 -25l-11 -69q28 45 73.5 70.5t106.5 25.5q81 0 122 -48.5t25 -148.5l-45 -282q-3 -19 -24 -19q-22 0 -17 25l44 277q25 157 -106 157q-86 0 -135.5 -51.5t-63.5 -137.5l-39 -249q-3 -21 -24 -21zM212 -242
q-10 -10 -19.5 -7.5t-12 12t7.5 20.5q27 30 33 59q-15 1 -24 11.5t-9 25.5q0 17 10 27.5t26 10.5q36 0 36 -45q0 -31 -13.5 -62t-34.5 -52z" />
    <glyph glyph-name="Ncaron" unicode="&#x147;" horiz-adv-x="732" 
d="M77 -6q-19 0 -16 24l107 673q3 20 21 20q8 0 12.5 -3.5t8.5 -11.5l359 -629l99 624q3 20 23 20q18 0 15 -24l-107 -673q-3 -20 -19 -20q-8 0 -12.5 4t-9.5 11l-360 631l-99 -626q-3 -20 -22 -20zM448 758q-11 0 -18 6t-13 16l-85 140q-6 10 -1 16.5t14 6t16 -10.5
l89 -129l125 132q8 8 16.5 7.5t12.5 -7t-4 -16.5l-114 -139q-9 -11 -17.5 -16.5t-20.5 -5.5z" />
    <glyph glyph-name="ncaron" unicode="&#x148;" horiz-adv-x="553" 
d="M68 -6q-10 0 -14.5 7.5t-2.5 19.5l71 448q3 21 24 21t16 -25l-11 -69q28 45 73.5 70.5t106.5 25.5q81 0 122 -48.5t25 -148.5l-45 -282q-3 -19 -24 -19q-22 0 -17 25l44 277q25 157 -106 157q-86 0 -135.5 -51.5t-63.5 -137.5l-39 -249q-3 -21 -24 -21zM324 544
q-9 0 -16.5 4.5t-12.5 16.5l-74 170q-5 12 0.5 18t14.5 5t14 -11l78 -159l117 161q7 9 15.5 9t13 -6.5t-2.5 -17.5l-110 -168q-7 -12 -17.5 -17t-19.5 -5z" />
    <glyph glyph-name="napostrophe" unicode="&#x149;" horiz-adv-x="553" 
d="M95 587q-10 -10 -19.5 -7.5t-12 12t7.5 20.5q27 30 33 59q-15 1 -24 11.5t-9 25.5q0 17 10 27.5t26 10.5q36 0 36 -45q0 -31 -13.5 -62t-34.5 -52zM68 -6q-10 0 -14.5 7.5t-2.5 19.5l71 448q3 21 24 21t16 -25l-11 -69q28 45 73.5 70.5t106.5 25.5q81 0 122 -48.5
t25 -148.5l-45 -282q-3 -19 -24 -19q-22 0 -17 25l44 277q25 157 -106 157q-86 0 -135.5 -51.5t-63.5 -137.5l-39 -249q-3 -21 -24 -21z" />
    <glyph glyph-name="Eng" unicode="&#x14a;" horiz-adv-x="732" 
d="M406 -191q-14 0 -18.5 9.5t-0.5 19t17 9.5q61 0 100.5 31t50.5 100l4 28l-361 634l-99 -626q-3 -20 -22 -20t-16 24l107 673q3 20 21 20q8 0 12.5 -3.5t8.5 -11.5l359 -629l99 624q3 20 23 20q18 0 15 -24l-113 -713q-13 -83 -62 -124t-125 -41z" />
    <glyph glyph-name="eng" unicode="&#x14b;" horiz-adv-x="553" 
d="M239 -191q-14 0 -18.5 9.5t-0.5 19t17 9.5q61 0 99 31t49 100l51 318q25 157 -106 157q-86 0 -135.5 -51.5t-63.5 -137.5l-39 -249q-3 -21 -24 -21q-22 0 -17 25l71 450q3 21 24 21t16 -25l-11 -69q28 45 73.5 70.5t106.5 25.5q81 0 122.5 -48.5t24.5 -148.5l-52 -321
q-13 -84 -62 -124.5t-125 -40.5z" />
    <glyph glyph-name="Omacron" unicode="&#x14c;" horiz-adv-x="751" 
d="M357 -8q-126 0 -200.5 76t-74.5 221q0 89 22 166t66 135t109 90.5t150 32.5q126 0 200.5 -76t74.5 -221q0 -89 -22 -166t-66 -135t-108.5 -90.5t-150.5 -32.5zM359 33q98 0 164.5 50.5t101 137.5t34.5 195q0 130 -61.5 193t-171.5 63q-97 0 -163.5 -50.5t-101 -137
t-34.5 -195.5q0 -130 61.5 -193t170.5 -63zM322 822q-21 0 -21 16q0 22 23 22h278q21 0 21 -16q0 -22 -23 -22h-278z" />
    <glyph glyph-name="omacron" unicode="&#x14d;" horiz-adv-x="538" 
d="M245 -8q-89 0 -141.5 55.5t-52.5 152.5q0 77 28 143.5t82 107.5t132 41q89 0 141.5 -55t52.5 -153q0 -77 -28 -143.5t-81.5 -107.5t-132.5 -41zM247 31q64 0 108 35t66.5 93t22.5 127q0 83 -40.5 125t-112.5 42q-64 0 -108 -35t-66.5 -92.5t-22.5 -127.5
q0 -82 40.5 -124.5t112.5 -42.5zM212 633q-21 0 -21 16q0 22 23 22h248q21 0 21 -16q0 -22 -23 -22h-248z" />
    <glyph glyph-name="Obreve" unicode="&#x14e;" horiz-adv-x="751" 
d="M357 -8q-126 0 -200.5 76t-74.5 221q0 89 22 166t66 135t109 90.5t150 32.5q126 0 200.5 -76t74.5 -221q0 -89 -22 -166t-66 -135t-108.5 -90.5t-150.5 -32.5zM359 33q98 0 164.5 50.5t101 137.5t34.5 195q0 130 -61.5 193t-171.5 63q-97 0 -163.5 -50.5t-101 -137
t-34.5 -195.5q0 -130 61.5 -193t170.5 -63zM453 760q-61 0 -101.5 42t-41.5 115q0 16 16 18q17 2 17 -17q0 -58 31.5 -90t81.5 -32q51 0 86.5 32.5t46.5 91.5q3 17 19 15q18 -2 13 -24q-16 -71 -62 -111t-106 -40z" />
    <glyph glyph-name="obreve" unicode="&#x14f;" horiz-adv-x="538" 
d="M245 -8q-89 0 -141.5 55.5t-52.5 152.5q0 77 28 143.5t82 107.5t132 41q89 0 141.5 -55t52.5 -153q0 -77 -28 -143.5t-81.5 -107.5t-132.5 -41zM247 31q64 0 108 35t66.5 93t22.5 127q0 83 -40.5 125t-112.5 42q-64 0 -108 -35t-66.5 -92.5t-22.5 -127.5
q0 -82 40.5 -124.5t112.5 -42.5zM329 547q-60 0 -95.5 46t-35.5 128q0 17 15 18q18 2 18 -17q0 -67 26.5 -103t72.5 -36q47 0 78 36.5t44 104.5q3 17 18 15q18 -2 13 -26q-16 -79 -55.5 -122.5t-98.5 -43.5z" />
    <glyph glyph-name="Ohungarumlaut" unicode="&#x150;" horiz-adv-x="751" 
d="M357 -8q-126 0 -200.5 76t-74.5 221q0 89 22 166t66 135t109 90.5t150 32.5q126 0 200.5 -76t74.5 -221q0 -89 -22 -166t-66 -135t-108.5 -90.5t-150.5 -32.5zM359 33q98 0 164.5 50.5t101 137.5t34.5 195q0 130 -61.5 193t-171.5 63q-97 0 -163.5 -50.5t-101 -137
t-34.5 -195.5q0 -130 61.5 -193t170.5 -63zM409 765q-8 -11 -17.5 -5t-2.5 17l89 151q9 15 21.5 14.5t19 -10t-3.5 -23.5zM518 765q-8 -11 -17.5 -5t-2.5 17l88 151q9 15 21.5 14.5t19 -10t-3.5 -23.5z" />
    <glyph glyph-name="ohungarumlaut" unicode="&#x151;" horiz-adv-x="538" 
d="M245 -8q-89 0 -141.5 55.5t-52.5 152.5q0 77 28 143.5t82 107.5t132 41q89 0 141.5 -55t52.5 -153q0 -77 -28 -143.5t-81.5 -107.5t-132.5 -41zM247 31q64 0 108 35t66.5 93t22.5 127q0 83 -40.5 125t-112.5 42q-64 0 -108 -35t-66.5 -92.5t-22.5 -127.5
q0 -82 40.5 -124.5t112.5 -42.5zM390 553q-6 -13 -17 -8.5t-7 17.5l67 176q7 18 20 20t21 -7.5t0 -24.5zM281 553q-6 -13 -17 -8.5t-7 17.5l67 176q7 18 20 20t21 -7.5t0 -24.5z" />
    <glyph glyph-name="OE" unicode="&#x152;" horiz-adv-x="1038" 
d="M400 0q-153 0 -236 75.5t-83 213.5q0 85 22.5 160t70.5 132.5t122.5 90.5t179.5 33h567q21 0 21 -15q0 -13 -7 -18.5t-16 -5.5h-366l-46 -289h344q21 0 21 -15q0 -13 -7 -18.5t-16 -5.5h-349l-47 -299h364q21 0 21 -15q0 -13 -7 -18.5t-16 -5.5h-537zM401 39h132l100 627
h-159q-96 0 -162.5 -30t-107.5 -83t-59.5 -121t-18.5 -143q0 -121 69 -185.5t206 -64.5z" />
    <glyph glyph-name="oe" unicode="&#x153;" horiz-adv-x="906" 
d="M245 -8q-89 0 -141.5 55.5t-52.5 152.5q0 77 28 143.5t82 107.5t132 41q71 0 118 -35t64 -99q30 59 83 96.5t128 37.5q71 0 112.5 -33.5t57 -87t5.5 -112.5q-2 -14 -7 -19.5t-18 -5.5h-352q-11 -91 31.5 -147t128.5 -56q41 0 75.5 10t68.5 36q15 11 24.5 6.5t10.5 -16
t-13 -22.5q-33 -25 -77 -39t-87 -14q-76 0 -126.5 34.5t-69.5 97.5q-28 -58 -79.5 -95t-125.5 -37zM685 454q-61 0 -101 -27t-62.5 -69t-31.5 -87h333q6 51 -6 92.5t-44.5 66t-87.5 24.5zM247 31q64 0 108 35t66.5 93t22.5 127q0 83 -40.5 125t-112.5 42q-64 0 -108 -35
t-66.5 -92.5t-22.5 -127.5q0 -82 40.5 -124.5t112.5 -42.5z" />
    <glyph glyph-name="Racute" unicode="&#x154;" horiz-adv-x="654" 
d="M79 -6q-22 0 -17 25l105 665q3 21 24 21h210q111 0 165.5 -49.5t54.5 -135.5q0 -89 -55 -140.5t-142 -61.5q22 -10 38.5 -31.5t28.5 -52.5l80 -210q11 -30 -14 -30q-15 0 -22 18l-80 209q-19 50 -49 70.5t-89 20.5h-168l-47 -297q-3 -21 -23 -21zM156 351h227
q91 0 142.5 44t51.5 124q0 73 -42 110t-134 37h-195zM427 768q-7 -8 -16 -7t-12.5 8.5t2.5 15.5l112 145q11 14 23.5 12.5t18.5 -11.5t-5 -23z" />
    <glyph glyph-name="racute" unicode="&#x155;" horiz-adv-x="327" 
d="M68 -6q-22 0 -17 25l71 450q3 21 24 21q9 0 14 -6.5t3 -18.5l-10 -60q27 43 73.5 66t97.5 23q30 0 30 -17q0 -10 -5 -14.5t-19 -6.5l-12 -1q-91 -7 -131.5 -54t-52.5 -121l-42 -265q-3 -21 -24 -21zM270 555q-7 -9 -15.5 -8t-12 8t2.5 16l118 175q11 17 24 15.5
t18.5 -12.5t-4.5 -24z" />
    <glyph glyph-name="uni0156" unicode="&#x156;" horiz-adv-x="654" 
d="M79 -6q-22 0 -17 25l105 665q3 21 24 21h210q111 0 165.5 -49.5t54.5 -135.5q0 -89 -55 -140.5t-142 -61.5q22 -10 38.5 -31.5t28.5 -52.5l80 -210q11 -30 -14 -30q-15 0 -22 18l-80 209q-19 50 -49 70.5t-89 20.5h-168l-47 -297q-3 -21 -23 -21zM156 351h227
q91 0 142.5 44t51.5 124q0 73 -42 110t-134 37h-195zM273 -242q-10 -10 -19.5 -7.5t-12 12t7.5 20.5q27 30 33 59q-15 1 -24 11.5t-9 25.5q0 17 10 27.5t26 10.5q36 0 36 -45q0 -31 -13.5 -62t-34.5 -52z" />
    <glyph glyph-name="uni0157" unicode="&#x157;" horiz-adv-x="327" 
d="M68 -6q-22 0 -17 25l71 450q3 21 24 21q9 0 14 -6.5t3 -18.5l-10 -60q27 43 73.5 66t97.5 23q30 0 30 -17q0 -10 -5 -14.5t-19 -6.5l-12 -1q-91 -7 -131.5 -54t-52.5 -121l-42 -265q-3 -21 -24 -21zM37 -242q-10 -10 -19.5 -7.5t-12 12t7.5 20.5q27 30 33 59
q-15 1 -24 11.5t-9 25.5q0 17 10 27.5t26 10.5q36 0 36 -45q0 -31 -13.5 -62t-34.5 -52z" />
    <glyph glyph-name="Rcaron" unicode="&#x158;" horiz-adv-x="654" 
d="M79 -6q-22 0 -17 25l105 665q3 21 24 21h210q111 0 165.5 -49.5t54.5 -135.5q0 -89 -55 -140.5t-142 -61.5q22 -10 38.5 -31.5t28.5 -52.5l80 -210q11 -30 -14 -30q-15 0 -22 18l-80 209q-19 50 -49 70.5t-89 20.5h-168l-47 -297q-3 -21 -23 -21zM156 351h227
q91 0 142.5 44t51.5 124q0 73 -42 110t-134 37h-195zM403 758q-11 0 -18 6t-13 16l-85 140q-6 10 -1 16.5t14 6t16 -10.5l89 -129l125 132q8 8 16.5 7.5t12.5 -7t-4 -16.5l-114 -139q-9 -11 -17.5 -16.5t-20.5 -5.5z" />
    <glyph glyph-name="rcaron" unicode="&#x159;" horiz-adv-x="327" 
d="M68 -6q-22 0 -17 25l71 450q3 21 24 21q9 0 14 -6.5t3 -18.5l-10 -60q27 43 73.5 66t97.5 23q30 0 30 -17q0 -10 -5 -14.5t-19 -6.5l-12 -1q-91 -7 -131.5 -54t-52.5 -121l-42 -265q-3 -21 -24 -21zM248 547q-9 0 -16.5 4.5t-12.5 16.5l-74 170q-5 12 0.5 18t14.5 5
t14 -11l78 -159l117 161q7 9 15.5 9t13 -6.5t-2.5 -17.5l-110 -168q-7 -12 -17.5 -17t-19.5 -5z" />
    <glyph glyph-name="Sacute" unicode="&#x15a;" horiz-adv-x="600" 
d="M295 -8q-71 0 -137.5 17.5t-114.5 59.5q-11 10 -9 21t12 16t23 -5q50 -40 105 -54t123 -14q90 0 146.5 39.5t56.5 109.5q0 47 -33 81t-119 53l-99 24q-67 16 -108 54.5t-41 117.5q0 60 33.5 105.5t90 70.5t125.5 25q62 0 124 -19.5t104 -62.5q11 -10 8.5 -22t-12.5 -16.5
t-23 6.5q-42 40 -94.5 56.5t-108.5 16.5q-57 0 -103 -20t-73 -55.5t-27 -84.5q0 -62 29 -90t85 -42l99 -24q99 -22 143 -65t44 -105t-33 -105.5t-89 -66t-127 -22.5zM393 768q-7 -8 -16 -7t-12.5 8.5t2.5 15.5l112 145q11 14 23.5 12.5t18.5 -11.5t-5 -23z" />
    <glyph glyph-name="sacute" unicode="&#x15b;" horiz-adv-x="475" 
d="M220 -8q-49 0 -91.5 13t-72.5 35q-11 9 -10 20.5t11 17t24 -5.5q31 -22 66.5 -31.5t75.5 -9.5q60 0 95.5 25t35.5 72q0 30 -19.5 50t-54.5 29l-97 26q-45 12 -72 43t-27 74q0 63 50.5 102.5t130.5 39.5q44 0 84 -14t65 -37q12 -11 10.5 -22.5t-11 -15.5t-22.5 7
q-50 43 -127 43q-61 0 -98.5 -27.5t-37.5 -74.5q0 -29 17.5 -50t53.5 -31l97 -26q47 -13 74.5 -41t27.5 -72q0 -64 -49 -101.5t-129 -37.5zM298 552q-7 -9 -15.5 -8t-12 8t2.5 16l118 175q11 17 24 15.5t18.5 -12.5t-4.5 -24z" />
    <glyph glyph-name="Scircumflex" unicode="&#x15c;" horiz-adv-x="600" 
d="M295 -8q-71 0 -137.5 17.5t-114.5 59.5q-11 10 -9 21t12 16t23 -5q50 -40 105 -54t123 -14q90 0 146.5 39.5t56.5 109.5q0 47 -33 81t-119 53l-99 24q-67 16 -108 54.5t-41 117.5q0 60 33.5 105.5t90 70.5t125.5 25q62 0 124 -19.5t104 -62.5q11 -10 8.5 -22t-12.5 -16.5
t-23 6.5q-42 40 -94.5 56.5t-108.5 16.5q-57 0 -103 -20t-73 -55.5t-27 -84.5q0 -62 29 -90t85 -42l99 -24q99 -22 143 -65t44 -105t-33 -105.5t-89 -66t-127 -22.5zM254 765q-7 -8 -16 -7.5t-12.5 7.5t4.5 16l114 139q9 11 17.5 16.5t20.5 5.5q11 0 17.5 -5.5t13.5 -16.5
l85 -140q6 -10 1 -16.5t-14.5 -6t-16.5 10.5l-90 129z" />
    <glyph glyph-name="scircumflex" unicode="&#x15d;" horiz-adv-x="475" 
d="M220 -8q-49 0 -91.5 13t-72.5 35q-11 9 -10 20.5t11 17t24 -5.5q31 -22 66.5 -31.5t75.5 -9.5q60 0 95.5 25t35.5 72q0 30 -19.5 50t-54.5 29l-97 26q-45 12 -72 43t-27 74q0 63 50.5 102.5t130.5 39.5q44 0 84 -14t65 -37q12 -11 10.5 -22.5t-11 -15.5t-22.5 7
q-50 43 -127 43q-61 0 -98.5 -27.5t-37.5 -74.5q0 -29 17.5 -50t53.5 -31l97 -26q47 -13 74.5 -41t27.5 -72q0 -64 -49 -101.5t-129 -37.5zM403 565q5 -10 -1 -16t-15 -5t-13 9l-77 157l-115 -158q-6 -8 -15 -8.5t-13.5 6t2.5 17.5l113 173q8 11 15.5 14.5t16.5 3.5
q18 0 26 -18z" />
    <glyph glyph-name="Scedilla" unicode="&#x15e;" horiz-adv-x="600" 
d="M295 -8q-71 0 -137.5 17.5t-114.5 59.5q-11 10 -9 21t12 16t23 -5q50 -40 105 -54t123 -14q90 0 146.5 39.5t56.5 109.5q0 47 -33 81t-119 53l-99 24q-67 16 -108 54.5t-41 117.5q0 60 33.5 105.5t90 70.5t125.5 25q62 0 124 -19.5t104 -62.5q11 -10 8.5 -22t-12.5 -16.5
t-23 6.5q-42 40 -94.5 56.5t-108.5 16.5q-57 0 -103 -20t-73 -55.5t-27 -84.5q0 -62 29 -90t85 -42l99 -24q99 -22 143 -65t44 -105t-33 -105.5t-89 -66t-127 -22.5zM268 -190q-17 0 -34 3t-31 9q-11 5 -12 15.5t6 17.5t19 1q23 -10 59 -10q28 0 47 11.5t19 33.5
q0 30 -35 30q-8 0 -19 -1.5t-21 -4.5q-15 -5 -21 1q-3 3 -3.5 7t2.5 13l27 84h38l-23 -69q15 3 26 3q29 0 49 -15.5t20 -44.5q0 -37 -32 -60.5t-81 -23.5z" />
    <glyph glyph-name="scedilla" unicode="&#x15f;" horiz-adv-x="475" 
d="M220 -8q-49 0 -91.5 13t-72.5 35q-11 9 -10 20.5t11 17t24 -5.5q31 -22 66.5 -31.5t75.5 -9.5q60 0 95.5 25t35.5 72q0 30 -19.5 50t-54.5 29l-97 26q-45 12 -72 43t-27 74q0 63 50.5 102.5t130.5 39.5q44 0 84 -14t65 -37q12 -11 10.5 -22.5t-11 -15.5t-22.5 7
q-50 43 -127 43q-61 0 -98.5 -27.5t-37.5 -74.5q0 -29 17.5 -50t53.5 -31l97 -26q47 -13 74.5 -41t27.5 -72q0 -64 -49 -101.5t-129 -37.5zM189 -190q-17 0 -34 3t-31 9q-11 5 -12 15.5t6 17.5t19 1q23 -10 59 -10q28 0 47 11.5t19 33.5q0 30 -35 30q-8 0 -19 -1.5t-21 -4.5
q-15 -5 -21 1q-3 3 -3.5 7t2.5 13l27 84h38l-23 -69q15 3 26 3q29 0 49 -15.5t20 -44.5q0 -37 -32 -60.5t-81 -23.5z" />
    <glyph glyph-name="Scaron" unicode="&#x160;" horiz-adv-x="600" 
d="M295 -8q-71 0 -137.5 17.5t-114.5 59.5q-11 10 -9 21t12 16t23 -5q50 -40 105 -54t123 -14q90 0 146.5 39.5t56.5 109.5q0 47 -33 81t-119 53l-99 24q-67 16 -108 54.5t-41 117.5q0 60 33.5 105.5t90 70.5t125.5 25q62 0 124 -19.5t104 -62.5q11 -10 8.5 -22t-12.5 -16.5
t-23 6.5q-42 40 -94.5 56.5t-108.5 16.5q-57 0 -103 -20t-73 -55.5t-27 -84.5q0 -62 29 -90t85 -42l99 -24q99 -22 143 -65t44 -105t-33 -105.5t-89 -66t-127 -22.5zM369 758q-11 0 -18 6t-13 16l-85 140q-6 10 -1 16.5t14 6t16 -10.5l89 -129l125 132q8 8 16.5 7.5t12.5 -7
t-4 -16.5l-114 -139q-9 -11 -17.5 -16.5t-20.5 -5.5z" />
    <glyph glyph-name="scaron" unicode="&#x161;" horiz-adv-x="475" 
d="M220 -8q-49 0 -91.5 13t-72.5 35q-11 9 -10 20.5t11 17t24 -5.5q31 -22 66.5 -31.5t75.5 -9.5q60 0 95.5 25t35.5 72q0 30 -19.5 50t-54.5 29l-97 26q-45 12 -72 43t-27 74q0 63 50.5 102.5t130.5 39.5q44 0 84 -14t65 -37q12 -11 10.5 -22.5t-11 -15.5t-22.5 7
q-50 43 -127 43q-61 0 -98.5 -27.5t-37.5 -74.5q0 -29 17.5 -50t53.5 -31l97 -26q47 -13 74.5 -41t27.5 -72q0 -64 -49 -101.5t-129 -37.5zM276 544q-9 0 -16.5 4.5t-12.5 16.5l-74 170q-5 12 0.5 18t14.5 5t14 -11l78 -159l117 161q7 9 15.5 9t13 -6.5t-2.5 -17.5
l-110 -168q-7 -12 -17.5 -17t-19.5 -5z" />
    <glyph glyph-name="uni0162" unicode="&#x162;" horiz-adv-x="586" 
d="M254 -6q-22 0 -17 25l102 647h-250q-22 0 -22 17q0 22 24 22h546q22 0 22 -16q0 -23 -24 -23h-254l-103 -651q-3 -21 -24 -21zM236 -190q-17 0 -34 3t-31 9q-11 5 -12 15.5t6 17.5t19 1q23 -10 59 -10q28 0 47 11.5t19 33.5q0 30 -35 30q-8 0 -19 -1.5t-21 -4.5
q-15 -5 -21 1q-3 3 -3.5 7t2.5 13l27 84h38l-23 -69q15 3 26 3q29 0 49 -15.5t20 -44.5q0 -37 -32 -60.5t-81 -23.5z" />
    <glyph glyph-name="uni0163" unicode="&#x163;" horiz-adv-x="320" 
d="M220 -8q-73 0 -108 43t-23 118l47 295h-78q-22 0 -22 15q0 21 24 21h81l22 136q3 21 24 21q22 0 17 -25l-21 -132h140q22 0 22 -15q0 -21 -24 -21h-144l-45 -286q-11 -70 12.5 -100.5t78.5 -30.5q24 0 37 4.5t20 4.5q13 0 13 -15q0 -18 -13 -23q-10 -4 -27.5 -7t-32.5 -3
zM154 -190q-17 0 -34 3t-31 9q-11 5 -12 15.5t6 17.5t19 1q23 -10 59 -10q28 0 47 11.5t19 33.5q0 30 -35 30q-8 0 -19 -1.5t-21 -4.5q-15 -5 -21 1q-3 3 -3.5 7t2.5 13l27 84h38l-23 -69q15 3 26 3q29 0 49 -15.5t20 -44.5q0 -37 -32 -60.5t-81 -23.5z" />
    <glyph glyph-name="Tcaron" unicode="&#x164;" horiz-adv-x="586" 
d="M254 -6q-22 0 -17 25l102 647h-250q-22 0 -22 17q0 22 24 22h546q22 0 22 -16q0 -23 -24 -23h-254l-103 -651q-3 -21 -24 -21zM374 758q-11 0 -18 6t-13 16l-85 140q-6 10 -1 16.5t14 6t16 -10.5l89 -129l125 132q8 8 16.5 7.5t12.5 -7t-4 -16.5l-114 -139
q-9 -11 -17.5 -16.5t-20.5 -5.5z" />
    <glyph glyph-name="tcaron" unicode="&#x165;" horiz-adv-x="320" 
d="M220 -8q-73 0 -108 43t-23 118l47 295h-78q-22 0 -22 15q0 21 24 21h81l22 136q3 21 24 21q22 0 17 -25l-21 -132h140q22 0 22 -15q0 -21 -24 -21h-144l-45 -286q-11 -70 12.5 -100.5t78.5 -30.5q24 0 37 4.5t20 4.5q13 0 13 -15q0 -18 -13 -23q-10 -4 -27.5 -7t-32.5 -3
zM282.377 534.513q-14.6465 0 -11.7168 14.4004l24.4102 141.304q3.90625 20.7002 26.3643 20.7002q26.3643 0 18.5527 -25.2002l-41.0107 -137.704q-3.90625 -13.5 -16.5996 -13.5z" />
    <glyph glyph-name="Tbar" unicode="&#x166;" horiz-adv-x="586" 
d="M254 -6q-22 0 -17 25l102 647h-250q-22 0 -22 17q0 22 24 22h546q22 0 22 -16q0 -23 -24 -23h-254l-103 -651q-3 -21 -24 -21zM159 340q-21 0 -21 16q0 21 23 21h302q21 0 21 -15q0 -22 -23 -22h-302z" />
    <glyph glyph-name="tbar" unicode="&#x167;" horiz-adv-x="320" 
d="M220 -8q-73 0 -108 43t-23 118l47 295h-78q-22 0 -22 15q0 21 24 21h81l22 136q3 21 24 21q22 0 17 -25l-21 -132h140q22 0 22 -15q0 -21 -24 -21h-144l-45 -286q-11 -70 12.5 -100.5t78.5 -30.5q24 0 37 4.5t20 4.5q13 0 13 -15q0 -18 -13 -23q-10 -4 -27.5 -7t-32.5 -3
zM47 253q-21 0 -21 15q0 21 23 21h213q21 0 21 -15q0 -21 -23 -21h-213z" />
    <glyph glyph-name="Utilde" unicode="&#x168;" horiz-adv-x="720" 
d="M330 -8q-132 0 -193.5 74.5t-38.5 221.5l64 402q3 21 24 21q22 0 17 -25l-64 -404q-20 -126 29 -187.5t162 -61.5t177 56t84 181l67 420q3 21 24 21q22 0 17 -25l-67 -425q-21 -135 -95.5 -202t-206.5 -67zM262 790q-18 2 -13 20q27 105 111 105q27 0 50.5 -13t45 -29.5
t41.5 -29.5t40 -13q54 0 76 75q5 15 19 14q18 -2 13 -20q-27 -105 -111 -105q-27 0 -50.5 13t-45 29.5t-41.5 29.5t-40 13q-53 0 -76 -75q-5 -15 -19 -14z" />
    <glyph glyph-name="utilde" unicode="&#x169;" horiz-adv-x="545" 
d="M219 -8q-79 0 -119.5 48.5t-24.5 148.5l44 280q3 21 24 21q23 0 18 -25l-44 -277q-25 -157 103 -157q83 0 132 52t62 137l39 249q3 21 24 21t18 -22l-72 -453q-3 -21 -23 -21q-22 0 -17 25l11 68q-27 -45 -72.5 -70t-102.5 -25zM170 594q-17 2 -12 19q12 51 38 78.5
t63 27.5q24 0 41 -13t31 -29.5t28.5 -29.5t32.5 -13q24 0 41 19.5t27 54.5q5 17 20 15q17 -2 12 -19q-12 -51 -38 -78.5t-62 -27.5q-24 0 -41.5 13t-31.5 29.5t-28.5 29.5t-32.5 13q-24 0 -41 -19.5t-27 -54.5q-5 -17 -20 -15z" />
    <glyph glyph-name="Umacron" unicode="&#x16a;" horiz-adv-x="720" 
d="M330 -8q-132 0 -193.5 74.5t-38.5 221.5l64 402q3 21 24 21q22 0 17 -25l-64 -404q-20 -126 29 -187.5t162 -61.5t177 56t84 181l67 420q3 21 24 21q22 0 17 -25l-67 -425q-21 -135 -95.5 -202t-206.5 -67zM315 822q-21 0 -21 16q0 22 23 22h278q21 0 21 -16
q0 -22 -23 -22h-278z" />
    <glyph glyph-name="umacron" unicode="&#x16b;" horiz-adv-x="545" 
d="M219 -8q-79 0 -119.5 48.5t-24.5 148.5l44 280q3 21 24 21q23 0 18 -25l-44 -277q-25 -157 103 -157q83 0 132 52t62 137l39 249q3 21 24 21t18 -22l-72 -453q-3 -21 -23 -21q-22 0 -17 25l11 68q-27 -45 -72.5 -70t-102.5 -25zM209 634q-21 0 -21 16q0 22 23 22h248
q21 0 21 -16q0 -22 -23 -22h-248z" />
    <glyph glyph-name="Ubreve" unicode="&#x16c;" horiz-adv-x="720" 
d="M330 -8q-132 0 -193.5 74.5t-38.5 221.5l64 402q3 21 24 21q22 0 17 -25l-64 -404q-20 -126 29 -187.5t162 -61.5t177 56t84 181l67 420q3 21 24 21q22 0 17 -25l-67 -425q-21 -135 -95.5 -202t-206.5 -67zM446 760q-61 0 -101.5 42t-41.5 115q0 16 16 18q17 2 17 -17
q0 -58 31.5 -90t81.5 -32q51 0 86.5 32.5t46.5 91.5q3 17 19 15q18 -2 13 -24q-16 -71 -62 -111t-106 -40z" />
    <glyph glyph-name="ubreve" unicode="&#x16d;" horiz-adv-x="545" 
d="M219 -8q-79 0 -119.5 48.5t-24.5 148.5l44 280q3 21 24 21q23 0 18 -25l-44 -277q-25 -157 103 -157q83 0 132 52t62 137l39 249q3 21 24 21t18 -22l-72 -453q-3 -21 -23 -21q-22 0 -17 25l11 68q-27 -45 -72.5 -70t-102.5 -25zM326 548q-60 0 -95.5 46t-35.5 128
q0 17 15 18q18 2 18 -17q0 -67 26.5 -103t72.5 -36q47 0 78 36.5t44 104.5q3 17 18 15q18 -2 13 -26q-16 -79 -55.5 -122.5t-98.5 -43.5z" />
    <glyph glyph-name="Uring" unicode="&#x16e;" horiz-adv-x="720" 
d="M330 -8q-132 0 -193.5 74.5t-38.5 221.5l64 402q3 21 24 21q22 0 17 -25l-64 -404q-20 -126 29 -187.5t162 -61.5t177 56t84 181l67 420q3 21 24 21q22 0 17 -25l-67 -425q-21 -135 -95.5 -202t-206.5 -67zM460 760q-47 0 -79.5 32t-32.5 78t32.5 78t79.5 32t79.5 -32
t32.5 -78t-32.5 -78t-79.5 -32zM460 792q35 0 56.5 22.5t21.5 55.5t-21.5 55.5t-56.5 22.5q-34 0 -56 -22.5t-22 -55.5t22 -55.5t56 -22.5z" />
    <glyph glyph-name="uring" unicode="&#x16f;" horiz-adv-x="545" 
d="M219 -8q-79 0 -119.5 48.5t-24.5 148.5l44 280q3 21 24 21q23 0 18 -25l-44 -277q-25 -157 103 -157q83 0 132 52t62 137l39 249q3 21 24 21t18 -22l-72 -453q-3 -21 -23 -21q-22 0 -17 25l11 68q-27 -45 -72.5 -70t-102.5 -25zM335 548q-47 0 -79.5 32t-32.5 78t32.5 78
t79.5 32t79.5 -32t32.5 -78t-32.5 -78t-79.5 -32zM335 580q35 0 56.5 22.5t21.5 55.5t-21.5 55.5t-56.5 22.5q-34 0 -56 -22.5t-22 -55.5t22 -55.5t56 -22.5z" />
    <glyph glyph-name="Uhungarumlaut" unicode="&#x170;" horiz-adv-x="720" 
d="M330 -8q-132 0 -193.5 74.5t-38.5 221.5l64 402q3 21 24 21q22 0 17 -25l-64 -404q-20 -126 29 -187.5t162 -61.5t177 56t84 181l67 420q3 21 24 21q22 0 17 -25l-67 -425q-21 -135 -95.5 -202t-206.5 -67zM402 765q-8 -11 -17.5 -5t-2.5 17l89 151q9 15 21.5 14.5
t19 -10t-3.5 -23.5zM511 765q-8 -11 -17.5 -5t-2.5 17l88 151q9 15 21.5 14.5t19 -10t-3.5 -23.5z" />
    <glyph glyph-name="uhungarumlaut" unicode="&#x171;" horiz-adv-x="545" 
d="M219 -8q-79 0 -119.5 48.5t-24.5 148.5l44 280q3 21 24 21q23 0 18 -25l-44 -277q-25 -157 103 -157q83 0 132 52t62 137l39 249q3 21 24 21t18 -22l-72 -453q-3 -21 -23 -21q-22 0 -17 25l11 68q-27 -45 -72.5 -70t-102.5 -25zM387 554q-6 -13 -17 -8.5t-7 17.5l67 176
q7 18 20 20t21 -7.5t0 -24.5zM278 554q-6 -13 -17 -8.5t-7 17.5l67 176q7 18 20 20t21 -7.5t0 -24.5z" />
    <glyph glyph-name="Uogonek" unicode="&#x172;" horiz-adv-x="720" 
d="M330 -8q-132 0 -193.5 74.5t-38.5 221.5l64 402q3 21 24 21q22 0 17 -25l-64 -404q-20 -126 29 -187.5t162 -61.5t177 56t84 181l67 420q3 21 24 21q22 0 17 -25l-67 -425q-21 -135 -95.5 -202t-206.5 -67zM354 -190q-43 0 -66 24.5t-23 62.5q0 44 28.5 79.5t72.5 54.5
l18 -31q-40 -16 -60 -43t-20 -56q0 -25 13.5 -40t41.5 -15q18 0 39 7q12 4 17 -3.5t4 -17t-9 -12.5q-13 -5 -29 -7.5t-27 -2.5z" />
    <glyph glyph-name="uogonek" unicode="&#x173;" horiz-adv-x="545" 
d="M448 -180q-13 -5 -29 -7.5t-27 -2.5q-43 0 -66 24.5t-23 62.5q0 40 22 71t58 52l11 67q-27 -45 -72.5 -70t-102.5 -25q-79 0 -119.5 48.5t-24.5 148.5l44 280q3 21 24 21q23 0 18 -25l-44 -277q-25 -157 103 -157q83 0 132 52t62 137l39 249q3 21 24 21q22 0 17 -25
l-71 -450q-3 -15 -15 -21q-66 -34 -66 -93q0 -25 13.5 -40t41.5 -15q18 0 39 7q12 4 17 -3.5t4 -17t-9 -12.5z" />
    <glyph glyph-name="Wcircumflex" unicode="&#x174;" horiz-adv-x="1091" 
d="M263 -6q-19 0 -24 25l-124 665q-5 27 20 27q8 0 13.5 -4.5t7.5 -16.5l116 -626l316 627q10 20 27 20q18 0 23 -26l117 -627l320 637q7 16 23 16q14 0 18 -9t-2 -21l-337 -667q-10 -20 -29 -20q-20 0 -25 25l-116 623l-316 -628q-10 -20 -28 -20zM511 765q-7 -8 -16 -7.5
t-12.5 7.5t4.5 16l114 139q9 11 17.5 16.5t20.5 5.5q11 0 17.5 -5.5t13.5 -16.5l85 -140q6 -10 1 -16.5t-14.5 -6t-16.5 10.5l-90 129z" />
    <glyph glyph-name="wcircumflex" unicode="&#x175;" horiz-adv-x="830" 
d="M196 -6q-10 0 -18.5 6.5t-10.5 19.5l-83 434q-3 16 1.5 26t17.5 10q11 0 15 -5.5t6 -16.5l77 -419l217 420q11 21 33 21q11 0 19.5 -6t10.5 -20l79 -416l217 426q9 16 23 16t17.5 -9.5t-2.5 -21.5l-227 -444q-10 -21 -31 -21q-10 0 -18.5 6.5t-11.5 19.5l-81 414
l-218 -419q-10 -21 -32 -21zM586 565q5 -10 -1 -16t-15 -5t-13 9l-77 157l-115 -158q-6 -8 -15 -8.5t-13.5 6t2.5 17.5l113 173q8 11 15.5 14.5t16.5 3.5q18 0 26 -18z" />
    <glyph glyph-name="Ycircumflex" unicode="&#x176;" horiz-adv-x="577" 
d="M249 -6q-21 0 -18 24l51 324l-194 336q-8 14 -4 23.5t17 9.5q9 0 13.5 -4t8.5 -12l183 -316l288 320q11 12 23 12q11 0 16.5 -10t-6.5 -23l-303 -335l-52 -329q-3 -20 -23 -20zM249 765q-7 -8 -16 -7.5t-12.5 7.5t4.5 16l114 139q9 11 17.5 16.5t20.5 5.5q11 0 17.5 -5.5
t13.5 -16.5l85 -140q6 -10 1 -16.5t-14.5 -6t-16.5 10.5l-90 129z" />
    <glyph glyph-name="ycircumflex" unicode="&#x177;" horiz-adv-x="504" 
d="M115 -186q-13 0 -16.5 10.5t4.5 24.5l86 148l-122 461q-4 14 1.5 23t18.5 9q10 0 14 -4.5t7 -15.5l108 -426l249 430q9 16 23 16t19 -10.5t-3 -24.5l-366 -624q-9 -17 -23 -17zM415 565q5 -10 -1 -16t-15 -5t-13 9l-77 157l-115 -158q-6 -8 -15 -8.5t-13.5 6t2.5 17.5
l113 173q8 11 15.5 14.5t16.5 3.5q18 0 26 -18z" />
    <glyph glyph-name="Ydieresis" unicode="&#x178;" horiz-adv-x="577" 
d="M249 -6q-21 0 -18 24l51 324l-194 336q-8 14 -4 23.5t17 9.5q9 0 13.5 -4t8.5 -12l183 -316l288 320q11 12 23 12q11 0 16.5 -10t-6.5 -23l-303 -335l-52 -329q-3 -20 -23 -20zM455 817q-29 0 -29 27q0 39 38 39q29 0 29 -27q0 -39 -38 -39zM294 817q-29 0 -29 27
q0 39 38 39q29 0 29 -27q0 -39 -38 -39z" />
    <glyph glyph-name="Zacute" unicode="&#x179;" horiz-adv-x="575" 
d="M34 0q-15 0 -19 13t9 29l523 624h-413q-20 0 -20 16q0 13 7.5 18t15.5 5h451q18 0 21 -12.5t-11 -29.5l-524 -624h428q21 0 21 -15q0 -13 -7 -18.5t-16 -5.5h-466zM396 768q-7 -8 -16 -7t-12.5 8.5t2.5 15.5l112 145q11 14 23.5 12.5t18.5 -11.5t-5 -23z" />
    <glyph glyph-name="zacute" unicode="&#x17a;" horiz-adv-x="454" 
d="M42 0q-12 0 -17.5 10t4.5 21l360 418h-280q-19 0 -19 15q0 20 21 20h317q14 0 18.5 -10.5t-8.5 -24.5l-357 -414h291q19 0 19 -14q0 -21 -21 -21h-328zM299 552q-7 -9 -15.5 -8t-12 8t2.5 16l118 175q11 17 24 15.5t18.5 -12.5t-4.5 -24z" />
    <glyph glyph-name="Zdotaccent" unicode="&#x17b;" horiz-adv-x="575" 
d="M34 0q-15 0 -19 13t9 29l523 624h-413q-20 0 -20 16q0 13 7.5 18t15.5 5h451q18 0 21 -12.5t-11 -29.5l-524 -624h428q21 0 21 -15q0 -13 -7 -18.5t-16 -5.5h-466zM382 815q-30 0 -30 28q0 20 11 30.5t30 10.5q30 0 30 -28q0 -19 -11 -30t-30 -11z" />
    <glyph glyph-name="zdotaccent" unicode="&#x17c;" horiz-adv-x="454" 
d="M42 0q-12 0 -17.5 10t4.5 21l360 418h-280q-19 0 -19 15q0 20 21 20h317q14 0 18.5 -10.5t-8.5 -24.5l-357 -414h291q19 0 19 -14q0 -21 -21 -21h-328zM290 616q-30 0 -30 28q0 20 11 30.5t30 10.5q30 0 30 -28q0 -19 -11 -30t-30 -11z" />
    <glyph glyph-name="Zcaron" unicode="&#x17d;" horiz-adv-x="575" 
d="M34 0q-15 0 -19 13t9 29l523 624h-413q-20 0 -20 16q0 13 7.5 18t15.5 5h451q18 0 21 -12.5t-11 -29.5l-524 -624h428q21 0 21 -15q0 -13 -7 -18.5t-16 -5.5h-466zM372 758q-11 0 -18 6t-13 16l-85 140q-6 10 -1 16.5t14 6t16 -10.5l89 -129l125 132q8 8 16.5 7.5
t12.5 -7t-4 -16.5l-114 -139q-9 -11 -17.5 -16.5t-20.5 -5.5z" />
    <glyph glyph-name="zcaron" unicode="&#x17e;" horiz-adv-x="454" 
d="M42 0q-12 0 -17.5 10t4.5 21l360 418h-280q-19 0 -19 15q0 20 21 20h317q14 0 18.5 -10.5t-8.5 -24.5l-357 -414h291q19 0 19 -14q0 -21 -21 -21h-328zM277 544q-9 0 -16.5 4.5t-12.5 16.5l-74 170q-5 12 0.5 18t14.5 5t14 -11l78 -159l117 161q7 9 15.5 9t13 -6.5
t-2.5 -17.5l-110 -168q-7 -12 -17.5 -17t-19.5 -5z" />
    <glyph glyph-name="uni0181" unicode="&#x181;" horiz-adv-x="767" 
d="M187 0q-28 0 -23 27l101 639h-39q-61 0 -94 -26t-44 -92l-4 -25q-3 -23 -23 -23q-21 0 -16 27l4 24q13 77 53.5 115.5t130.5 38.5h285q104 0 156 -43.5t52 -120.5q0 -72 -40 -120.5t-109 -65.5q52 -16 82 -55t30 -93q0 -103 -62 -155t-180 -52h-260zM261 376h227
q89 0 141.5 42.5t52.5 121.5q0 126 -167 126h-208zM208 39h243q194 0 194 167q0 65 -42.5 98t-122.5 33h-225z" />
    <glyph glyph-name="uni018A" unicode="&#x18a;" horiz-adv-x="826" 
d="M186 0q-28 0 -23 27l102 639h-38q-61 0 -94.5 -26t-44.5 -92l-4 -25q-3 -23 -23 -23q-21 0 -16 27l4 24q13 77 53.5 115.5t130.5 38.5h228q153 0 236 -75.5t83 -213.5q0 -85 -22.5 -160t-70.5 -132.5t-122.5 -90.5t-179.5 -33h-199zM207 39h180q96 0 162.5 30t107.5 83
t59.5 121t18.5 143q0 122 -69 186t-206 64h-154z" />
    <glyph glyph-name="uni018F" unicode="&#x18f;" horiz-adv-x="751" 
d="M352 -8q-81 0 -137.5 30t-88.5 81t-42.5 115t-0.5 131q4 27 25 27h550q1 20 1 40q0 77 -31 134.5t-88 89.5t-135 32q-76 0 -132.5 -18t-102.5 -58q-13 -11 -23 -6.5t-11.5 16.5t10.5 23q48 44 116 64t150 20q87 0 152.5 -38.5t102.5 -105.5t37 -153q0 -127 -42 -222.5
t-120.5 -148.5t-189.5 -53zM358 33q86 0 148 39t99.5 107.5t48.5 157.5h-529q-9 -84 10.5 -153t73.5 -110t149 -41z" />
    <glyph glyph-name="florin" unicode="&#x192;" horiz-adv-x="600" 
d="M0 -188q-23 0 -23 16q0 10 6.5 15.5t16.5 5.5h30q50 0 83 25.5t58 91.5l179 482h-105q-23 0 -23 16q0 10 7 15t16 5h118l31 83q28 74 69.5 110t121.5 36h18q11 0 17 -5t6 -12q0 -10 -6.5 -16t-16.5 -6h-28q-51 0 -83.5 -24t-57.5 -92l-28 -74h106q23 0 23 -16
q0 -10 -7 -15t-16 -5h-119l-183 -491q-29 -79 -71 -112t-119 -33h-20z" />
    <glyph glyph-name="Ohorn" unicode="&#x1a0;" horiz-adv-x="751" 
d="M357 -8q-126 0 -200.5 76t-74.5 221q0 89 22 166t66 135t109 90.5t150 32.5q126 0 200.5 -76t74.5 -221q0 -89 -22 -166t-66 -135t-108.5 -90.5t-150.5 -32.5zM359 33q98 0 164.5 50.5t101 137.5t34.5 195q0 130 -61.5 193t-171.5 63q-97 0 -163.5 -50.5t-101 -137
t-34.5 -195.5q0 -130 61.5 -193t170.5 -63zM516 667l-47 42q29 -2 52 -3t45 -1q51 0 78.5 16.5t40 44t16.5 58.5q3 19 22 19q21 0 18 -20q-11 -76 -50.5 -116t-118.5 -40h-56z" />
    <glyph glyph-name="ohorn" unicode="&#x1a1;" horiz-adv-x="538" 
d="M245 -8q-89 0 -141.5 55.5t-52.5 152.5q0 77 28 143.5t82 107.5t132 41q89 0 141.5 -55t52.5 -153q0 -77 -28 -143.5t-81.5 -107.5t-132.5 -41zM247 31q64 0 108 35t66.5 93t22.5 127q0 83 -40.5 125t-112.5 42q-64 0 -108 -35t-66.5 -92.5t-22.5 -127.5
q0 -82 40.5 -124.5t112.5 -42.5zM366 446l-14 13l4 25q45 0 71 11.5t39 30t19 39t10 38.5q4 19 21 19q22 0 19 -22q-9 -69 -49 -110t-120 -44z" />
    <glyph glyph-name="Uhorn" unicode="&#x1af;" horiz-adv-x="720" 
d="M330 -8q-132 0 -193.5 74.5t-38.5 221.5l64 402q3 21 24 21q22 0 17 -25l-64 -404q-20 -126 29 -187.5t162 -61.5t177 56t84 181l67 420q3 21 24 21q22 0 17 -25l-67 -425q-21 -135 -95.5 -202t-206.5 -67zM669 667l-13 13l4 25q50 1 78 15.5t41.5 40t18.5 57.5
q3 19 22 19q21 0 18 -20q-10 -70 -54 -108.5t-115 -41.5z" />
    <glyph glyph-name="uhorn" unicode="&#x1b0;" horiz-adv-x="545" 
d="M219 -8q-79 0 -119.5 48.5t-24.5 148.5l44 280q3 21 24 21q23 0 18 -25l-44 -277q-25 -157 103 -157q83 0 132 52t62 137l38 244q3 20 24 22q44 3 67.5 17t35.5 39.5t19 60.5q4 19 21 19q22 0 19 -22q-8 -64 -43 -104t-104 -48l-68 -433q-3 -21 -23 -21q-22 0 -17 25
l11 68q-27 -45 -72.5 -70t-102.5 -25z" />
    <glyph glyph-name="uni01B3" unicode="&#x1b3;" horiz-adv-x="607" 
d="M248 -6q-22 0 -17 27l51 321l-197 340q-6 11 -1 20t17 9q13 0 22 -16l183 -316l237 265q34 38 62 53.5t65 15.5q21 0 34.5 -4.5t13.5 -16.5q0 -8 -10.5 -12.5t-12.5 -6.5q5 0 3 0h-0.5h-2.5q-5 1 -15 2t-14 1q-25 0 -44 -11.5t-45 -40.5l-253 -281l-51 -326
q-4 -23 -25 -23z" />
    <glyph glyph-name="uni01B4" unicode="&#x1b4;" horiz-adv-x="534" 
d="M116 -186q-13 0 -17 10.5t4 24.5l86 148l-122 458q-4 14 2 24.5t19 10.5q10 0 13.5 -4.5t6.5 -15.5l108 -426l207 358q27 47 59 68.5t80 21.5q29 0 40.5 -5.5t11.5 -16.5q0 -9 -6.5 -13.5t-15.5 -4.5q-4 0 -14 1t-18 1q-33 0 -55.5 -18t-50.5 -65l-315 -540
q-9 -17 -23 -17z" />
    <glyph glyph-name="uni01C4" unicode="&#x1c4;" horiz-adv-x="1285" 
d="M85 0q-28 0 -23 27l104 655q3 23 27 23h167q153 0 236 -75.5t83 -213.5q0 -85 -22.5 -160t-70.5 -132.5t-122.5 -90.5t-179.5 -33h-199zM106 39h180q96 0 162.5 30t107.5 83t59.5 121t18.5 143q0 122 -69 186t-206 64h-153zM744 0q-15 0 -19 13t9 29l523 624h-413
q-20 0 -20 16q0 13 7.5 18t15.5 5h451q18 0 21 -12.5t-11 -29.5l-524 -624h428q21 0 21 -15q0 -13 -7 -18.5t-16 -5.5h-466zM1082 758q-11 0 -18 6t-13 16l-85 140q-6 10 -1 16.5t14 6t16 -10.5l89 -129l125 132q8 8 16.5 7.5t12.5 -7t-4 -16.5l-114 -139
q-9 -11 -17.5 -16.5t-20.5 -5.5z" />
    <glyph glyph-name="uni01C5" unicode="&#x1c5;" horiz-adv-x="1179" 
d="M85 0q-28 0 -23 27l104 655q3 23 27 23h167q153 0 236 -75.5t83 -213.5q0 -85 -22.5 -160t-70.5 -132.5t-122.5 -90.5t-179.5 -33h-199zM106 39h180q96 0 162.5 30t107.5 83t59.5 121t18.5 143q0 122 -69 186t-206 64h-153zM767 0q-12 0 -17.5 10t4.5 21l360 418h-280
q-19 0 -19 15q0 20 21 20h317q14 0 18.5 -10.5t-8.5 -24.5l-357 -414h291q19 0 19 -14q0 -21 -21 -21h-328zM1002 544q-9 0 -16.5 4.5t-12.5 16.5l-74 170q-5 12 0.5 18t14.5 5t14 -11l78 -159l117 161q7 9 15.5 9t13 -6.5t-2.5 -17.5l-110 -168q-7 -12 -17.5 -17t-19.5 -5z
" />
    <glyph glyph-name="uni01C6" unicode="&#x1c6;" horiz-adv-x="1022" 
d="M241 -8q-85 0 -137.5 55.5t-52.5 150.5q0 78 27.5 145t81.5 108t133 41q57 0 103 -28t66 -87l50 313q3 21 24 21q22 0 17 -25l-106 -671q-3 -21 -24 -21q-22 0 -17 25l10 66q-27 -43 -72 -68t-103 -25zM247 31q64 0 108 35t66.5 93t22.5 127q0 83 -40.5 125t-112.5 42
q-64 0 -108 -35t-66.5 -92.5t-22.5 -127.5q0 -82 40.5 -124.5t112.5 -42.5zM610 0q-12 0 -17.5 10t4.5 21l360 418h-280q-19 0 -19 15q0 20 21 20h317q14 0 18.5 -10.5t-8.5 -24.5l-357 -414h291q19 0 19 -14q0 -21 -21 -21h-328zM845 544q-9 0 -16.5 4.5t-12.5 16.5
l-74 170q-5 12 0.5 18t14.5 5t14 -11l78 -159l117 161q7 9 15.5 9t13 -6.5t-2.5 -17.5l-110 -168q-7 -12 -17.5 -17t-19.5 -5z" />
    <glyph glyph-name="uni01C7" unicode="&#x1c7;" horiz-adv-x="864" 
d="M82 0q-23 0 -20 24l106 667q3 20 23 20q21 0 18 -24l-102 -648h357q21 0 21 -15q0 -13 -7 -18.5t-16 -5.5h-380zM544 -6q-26 -3 -26 19q0 18 22 20l33 3q122 11 144 151l80 503q3 21 24 21q22 0 17 -25l-81 -509q-13 -82 -57.5 -127t-124.5 -53z" />
    <glyph glyph-name="uni01C8" unicode="&#x1c8;" horiz-adv-x="742" 
d="M82 0q-23 0 -20 24l106 667q3 20 23 20q21 0 18 -24l-102 -648h357q21 0 21 -15q0 -13 -7 -18.5t-16 -5.5h-380zM694 616q-30 0 -30 28q0 20 11 30.5t30 10.5q30 0 30 -28q0 -19 -11 -30t-30 -11zM427 -191q-14 0 -18.5 9.5t-0.5 19t17 9.5q61 0 99 31t49 100l78 491
q3 21 24 21q22 0 17 -25l-78 -491q-13 -84 -62 -124.5t-125 -40.5z" />
    <glyph glyph-name="uni01C9" unicode="&#x1c9;" horiz-adv-x="490" 
d="M177 -8q-62 0 -91 38t-17 113l87 547q3 21 24 21q22 0 17 -25l-86 -543q-10 -61 8.5 -86.5t65.5 -25.5q16 0 24.5 2t12.5 2q11 0 11 -15q0 -20 -24 -25q-7 -1 -16.5 -2t-15.5 -1zM442 616q-30 0 -30 28q0 20 11 30.5t30 10.5q30 0 30 -28q0 -19 -11 -30t-30 -11z
M175 -191q-14 0 -18.5 9.5t-0.5 19t17 9.5q61 0 99 31t49 100l78 491q3 21 24 21q22 0 17 -25l-78 -491q-13 -84 -62 -124.5t-125 -40.5z" />
    <glyph glyph-name="uni01CA" unicode="&#x1ca;" horiz-adv-x="1029" 
d="M77 -6q-19 0 -16 24l107 673q3 20 21 20q8 0 12.5 -3.5t8.5 -11.5l359 -629l99 624q3 20 23 20q18 0 15 -24l-107 -673q-3 -20 -19 -20q-8 0 -12.5 4t-9.5 11l-360 631l-99 -626q-3 -20 -22 -20zM709 -6q-26 -3 -26 19q0 18 22 20l33 3q122 11 144 151l80 503q3 21 24 21
q22 0 17 -25l-81 -509q-13 -82 -57.5 -127t-124.5 -53z" />
    <glyph glyph-name="uni01CB" unicode="&#x1cb;" horiz-adv-x="947" 
d="M77 -6q-19 0 -16 24l107 673q3 20 21 20q8 0 12.5 -3.5t8.5 -11.5l359 -629l99 624q3 20 23 20q18 0 15 -24l-107 -673q-3 -20 -19 -20q-8 0 -12.5 4t-9.5 11l-360 631l-99 -626q-3 -20 -22 -20zM899 616q-30 0 -30 28q0 20 11 30.5t30 10.5q30 0 30 -28q0 -19 -11 -30
t-30 -11zM632 -191q-14 0 -18.5 9.5t-0.5 19t17 9.5q61 0 99 31t49 100l78 491q3 21 24 21q22 0 17 -25l-78 -491q-13 -84 -62 -124.5t-125 -40.5z" />
    <glyph glyph-name="uni01CC" unicode="&#x1cc;" horiz-adv-x="768" 
d="M68 -6q-10 0 -14.5 7.5t-2.5 19.5l71 448q3 21 24 21t16 -25l-11 -69q28 45 73.5 70.5t106.5 25.5q81 0 122 -48.5t25 -148.5l-45 -282q-3 -19 -24 -19q-22 0 -17 25l44 277q25 157 -106 157q-86 0 -135.5 -51.5t-63.5 -137.5l-39 -249q-3 -21 -24 -21zM720 616
q-30 0 -30 28q0 20 11 30.5t30 10.5q30 0 30 -28q0 -19 -11 -30t-30 -11zM453 -191q-14 0 -18.5 9.5t-0.5 19t17 9.5q61 0 99 31t49 100l78 491q3 21 24 21q22 0 17 -25l-78 -491q-13 -84 -62 -124.5t-125 -40.5z" />
    <glyph glyph-name="uni01CD" unicode="&#x1cd;" horiz-adv-x="716" 
d="M29 -6q-12 0 -18 9.5t2 23.5l394 669q8 15 26 15q17 0 22 -16l180 -666q5 -19 0 -27t-15 -8q-19 0 -24 22l-48 179h-387l-109 -185q-9 -16 -23 -16zM425 648l-241 -414h353l-110 414h-2zM442 758q-11 0 -18 6t-13 16l-85 140q-6 10 -1 16.5t14 6t16 -10.5l89 -129
l125 132q8 8 16.5 7.5t12.5 -7t-4 -16.5l-114 -139q-9 -11 -17.5 -16.5t-20.5 -5.5z" />
    <glyph glyph-name="uni01CE" unicode="&#x1ce;" horiz-adv-x="514" 
d="M205 -8q-40 0 -76 17.5t-58 49.5t-22 75q0 76 65 108.5t210 32.5h71l6 40q11 68 -15.5 103t-96.5 35q-40 0 -75.5 -8t-67.5 -31q-14 -10 -24 -4.5t-10.5 17.5t14.5 21q35 23 78 33.5t87 10.5q88 0 126 -50t24 -140l-46 -287q-3 -21 -23 -21t-17 25l9 61
q-25 -45 -69 -66.5t-90 -21.5zM208 30q40 0 76.5 19t62.5 55t34 87l8 47h-49q-93 0 -146 -9.5t-75.5 -32t-22.5 -60.5q0 -52 34.5 -79t77.5 -27zM308 544q-9 0 -16.5 4.5t-12.5 16.5l-74 170q-5 12 0.5 18t14.5 5t14 -11l78 -159l117 161q7 9 15.5 9t13 -6.5t-2.5 -17.5
l-110 -168q-7 -12 -17.5 -17t-19.5 -5z" />
    <glyph glyph-name="uni01D4" unicode="&#x1d4;" horiz-adv-x="545" 
d="M219 -8q-79 0 -119.5 48.5t-24.5 148.5l44 280q3 21 24 21q23 0 18 -25l-44 -277q-25 -157 103 -157q83 0 132 52t62 137l39 249q3 21 24 21t18 -22l-72 -453q-3 -21 -23 -21q-22 0 -17 25l11 68q-27 -45 -72.5 -70t-102.5 -25zM315 545q-9 0 -16.5 4.5t-12.5 16.5
l-74 170q-5 12 0.5 18t14.5 5t14 -11l78 -159l117 161q7 9 15.5 9t13 -6.5t-2.5 -17.5l-110 -168q-7 -12 -17.5 -17t-19.5 -5z" />
    <glyph glyph-name="uni01E5" unicode="&#x1e5;" horiz-adv-x="570" 
d="M242 -188q-58 0 -105 18t-87 47q-9 7 -6.5 18t12 17t20.5 -3q38 -28 75.5 -43t88.5 -15q52 0 89.5 21.5t57.5 64.5h-104q-19 0 -19 16q0 11 7 15.5t14 4.5h115q2 6 3.5 13t2.5 14l22 137q-27 -49 -74 -77.5t-111 -28.5q-57 0 -100 24.5t-67 66.5t-24 96q0 51 15.5 100
t46.5 88t76 62.5t105 23.5q58 0 104 -28t66 -87l15 92q3 21 23 21q22 0 17 -25l-73 -463q-1 -9 -2.5 -16.5t-3.5 -12.5h57q19 0 19 -16q0 -11 -6.5 -15.5t-14.5 -4.5h-65q-46 -125 -189 -125zM249 70q65 0 109 34t66.5 88t22.5 114q0 68 -40.5 107.5t-113.5 39.5
q-64 0 -108.5 -34t-67 -87.5t-22.5 -113.5q0 -68 40.5 -108t113.5 -40z" />
    <glyph glyph-name="Gcaron" unicode="&#x1e6;" horiz-adv-x="718" 
d="M384 -8q-145 0 -223.5 76t-78.5 221q0 128 43 223.5t122 148t186 52.5q68 0 126.5 -21t95.5 -62q11 -12 8.5 -24.5t-13 -16.5t-23.5 9q-37 39 -86 56.5t-111 17.5q-93 0 -161 -46.5t-105 -132.5t-37 -204q0 -130 65.5 -193t193.5 -63q52 0 94 8.5t79 21.5l41 253h-175
q-22 0 -22 17q0 22 24 22h194q26 0 21 -25l-44 -280q-3 -18 -15 -23q-36 -16 -90 -25.5t-109 -9.5zM442 758q-11 0 -18 6t-13 16l-85 140q-6 10 -1 16.5t14 6t16 -10.5l89 -129l125 132q8 8 16.5 7.5t12.5 -7t-4 -16.5l-114 -139q-9 -11 -17.5 -16.5t-20.5 -5.5z" />
    <glyph glyph-name="gcaron" unicode="&#x1e7;" horiz-adv-x="570" 
d="M241 -188q-57 0 -104.5 18t-87.5 47q-9 7 -6.5 18t11.5 17t21 -3q38 -28 75.5 -43t88.5 -15q68 0 111 36.5t55 112.5l17 110q-27 -46 -73 -72.5t-107 -26.5q-57 0 -100 24.5t-67 69t-24 103.5q0 55 15.5 106t46.5 91t76 63.5t105 23.5q57 0 103 -27.5t67 -85.5l14 90
q3 21 24 21q22 0 17 -25l-73 -463q-16 -97 -66.5 -143.5t-138.5 -46.5zM248 50q65 0 109 34.5t66.5 90.5t22.5 121q0 75 -40.5 116t-113.5 41q-64 0 -108.5 -34.5t-67 -90t-22.5 -120.5q0 -76 40.5 -117t113.5 -41zM334 544q-9 0 -16.5 4.5t-12.5 16.5l-74 170q-5 12 0.5 18
t14.5 5t14 -11l78 -159l117 161q7 9 15.5 9t13 -6.5t-2.5 -17.5l-110 -168q-7 -12 -17.5 -17t-19.5 -5z" />
    <glyph glyph-name="uni01E9" unicode="&#x1e9;" horiz-adv-x="468" 
d="M67 -6q-22 0 -17 25l106 671q3 21 24 21q22 0 17 -25l-67 -426h2l279 220q13 10 25 10q11 0 15.5 -11t-9.5 -22l-267 -212l226 -218q11 -10 7 -21.5t-16 -11.5q-14 0 -30 16l-234 227h-2l-35 -222q-3 -21 -24 -21zM359 758q-11 0 -18 6t-13 16l-85 140q-6 10 -1 16.5
t14 6t16 -10.5l89 -129l125 132q8 8 16.5 7.5t12.5 -7t-4 -16.5l-114 -139q-9 -11 -17.5 -16.5t-20.5 -5.5z" />
    <glyph glyph-name="uni01EA" unicode="&#x1ea;" horiz-adv-x="751" 
d="M357 -8q-126 0 -200.5 76t-74.5 221q0 89 22 166t66 135t109 90.5t150 32.5q126 0 200.5 -76t74.5 -221q0 -89 -22 -166t-66 -135t-108.5 -90.5t-150.5 -32.5zM359 33q98 0 164.5 50.5t101 137.5t34.5 195q0 130 -61.5 193t-171.5 63q-97 0 -163.5 -50.5t-101 -137
t-34.5 -195.5q0 -130 61.5 -193t170.5 -63zM371 -190q-43 0 -66 24.5t-23 62.5q0 44 28.5 79.5t72.5 54.5l18 -31q-40 -16 -60 -43t-20 -56q0 -25 13.5 -40t41.5 -15q18 0 39 7q12 4 17 -3.5t4 -17t-9 -12.5q-13 -5 -29 -7.5t-27 -2.5z" />
    <glyph glyph-name="uni01EB" unicode="&#x1eb;" horiz-adv-x="538" 
d="M245 -8q-89 0 -141.5 55.5t-52.5 152.5q0 77 28 143.5t82 107.5t132 41q89 0 141.5 -55t52.5 -153q0 -77 -28 -143.5t-81.5 -107.5t-132.5 -41zM247 31q64 0 108 35t66.5 93t22.5 127q0 83 -40.5 125t-112.5 42q-64 0 -108 -35t-66.5 -92.5t-22.5 -127.5
q0 -82 40.5 -124.5t112.5 -42.5zM272 -190q-43 0 -66 24.5t-23 62.5q0 44 28.5 79.5t72.5 54.5l18 -31q-40 -16 -60 -43t-20 -56q0 -25 13.5 -40t41.5 -15q18 0 39 7q12 4 17 -3.5t4 -17t-9 -12.5q-13 -5 -29 -7.5t-27 -2.5z" />
    <glyph glyph-name="uni01EF" unicode="&#x1ef;" horiz-adv-x="476" 
d="M178 -188q-51 0 -103.5 15t-97.5 48q-11 9 -10 20t11 16t23 -5q41 -31 84.5 -43t92.5 -12q91 0 137 50t46 135q0 56 -36.5 93t-104.5 37h-95q-11 0 -13.5 9t5.5 16l263 256h-296q-24 0 -21 19q3 18 23 18h344q14 0 17 -10.5t-11 -23.5l-253 -246h41q58 0 98 -23t61 -61.5
t21 -85.5q0 -66 -27.5 -116t-78 -78t-120.5 -28zM269 544q-9 0 -16.5 4.5t-12.5 16.5l-74 170q-5 12 0.5 18t14.5 5t14 -11l78 -159l117 161q7 9 15.5 9t13 -6.5t-2.5 -17.5l-110 -168q-7 -12 -17.5 -17t-19.5 -5z" />
    <glyph glyph-name="Aringacute" unicode="&#x1fa;" horiz-adv-x="716" 
d="M29 -6q-12 0 -18 9.5t2 23.5l394 669q8 15 26 15q17 0 22 -16l180 -666q5 -19 0 -27t-15 -8q-19 0 -24 22l-48 179h-387l-109 -185q-9 -16 -23 -16zM425 648l-241 -414h353l-110 414h-2zM443 760q-47 0 -79.5 32t-32.5 78t32.5 78t79.5 32q38 0 68 -22l78 73
q11 11 21.5 6.5t14 -15t-7.5 -19.5l-82 -69q20 -28 20 -64q0 -46 -32.5 -78t-79.5 -32zM443 792q35 0 56.5 22.5t21.5 55.5t-21.5 55.5t-56.5 22.5q-34 0 -56 -22.5t-22 -55.5t22 -55.5t56 -22.5z" />
    <glyph glyph-name="aringacute" unicode="&#x1fb;" horiz-adv-x="514" 
d="M205 -8q-40 0 -76 17.5t-58 49.5t-22 75q0 76 65 108.5t210 32.5h71l6 40q11 68 -15.5 103t-96.5 35q-40 0 -75.5 -8t-67.5 -31q-14 -10 -24 -4.5t-10.5 17.5t14.5 21q35 23 78 33.5t87 10.5q88 0 126 -50t24 -140l-46 -287q-3 -21 -23 -21t-17 25l9 61
q-25 -45 -69 -66.5t-90 -21.5zM208 30q40 0 76.5 19t62.5 55t34 87l8 47h-49q-93 0 -146 -9.5t-75.5 -32t-22.5 -60.5q0 -52 34.5 -79t77.5 -27zM326 547q-47 0 -79.5 32t-32.5 78t32.5 78t79.5 32q38 0 68 -22l76 71q13 12 24 8t14 -14.5t-9 -20.5l-81 -68q20 -28 20 -64
q0 -46 -32.5 -78t-79.5 -32zM326 579q35 0 56.5 22.5t21.5 55.5t-21.5 55.5t-56.5 22.5q-34 0 -56 -22.5t-22 -55.5t22 -55.5t56 -22.5z" />
    <glyph glyph-name="AEacute" unicode="&#x1fc;" horiz-adv-x="971" 
d="M-5 -6q-14 0 -18 10t5 21l503 667q9 13 27 13h465q21 0 21 -15q0 -13 -7 -18.5t-16 -5.5h-436l15 -289h351q21 0 21 -15q0 -13 -7 -18.5t-16 -5.5h-347l15 -299h301q21 0 21 -15q0 -24 -24 -24h-314q-20 0 -22 21l-8 174h-366l-138 -184q-13 -17 -26 -17zM499 648
l-310 -414h334l-22 414h-2zM576 768q-7 -8 -16 -7t-12.5 8.5t2.5 15.5l112 145q11 14 23.5 12.5t18.5 -11.5t-5 -23z" />
    <glyph glyph-name="aeacute" unicode="&#x1fd;" horiz-adv-x="857" 
d="M205 -8q-40 0 -76 17.5t-58 49.5t-22 75q0 76 65 108t210 32h75l5 31q24 148 -115 148q-40 0 -75.5 -8t-67.5 -31q-14 -10 -24 -4.5t-10.5 17.5t14.5 21q35 23 78 33.5t87 10.5q124 0 151 -99q32 45 80.5 72t112.5 27q72 0 113 -33t56.5 -85.5t7.5 -111.5l-1 -8
q-2 -17 -23 -17h-358q-13 -92 30.5 -149t132.5 -57q42 0 77 10t69 36q15 11 24.5 6.5t10.5 -16t-13 -22.5q-33 -25 -77.5 -39t-88.5 -14q-74 0 -124.5 32t-71.5 90q-29 -63 -81 -92.5t-113 -29.5zM634 454q-61 0 -102 -26.5t-64 -68t-32 -85.5h339q5 50 -7.5 91t-45 65
t-88.5 24zM208 30q40 0 77 17t64 50.5t35 84.5l9 55h-53q-93 0 -146 -9.5t-75.5 -31.5t-22.5 -60q0 -52 34.5 -79t77.5 -27zM474 552q-7 -9 -15.5 -8t-12 8t2.5 16l118 175q11 17 24 15.5t18.5 -12.5t-4.5 -24z" />
    <glyph glyph-name="Oslashacute" unicode="&#x1fe;" horiz-adv-x="751" 
d="M357 -8q-126 0 -200.5 76t-74.5 221q0 89 22 166t66 135t109 90.5t150 32.5q126 0 200.5 -76t74.5 -221q0 -89 -22 -166t-66 -135t-108.5 -90.5t-150.5 -32.5zM359 33q98 0 164.5 50.5t101 137.5t34.5 195q0 130 -61.5 193t-171.5 63q-97 0 -163.5 -50.5t-101 -137
t-34.5 -195.5q0 -130 61.5 -193t170.5 -63zM145 -13q-8 -10 -18.5 -8.5t-15 10.5t3.5 20l50 68l17 22l392 530l16 22l51 67q8 11 18.5 9t15.5 -10.5t-4 -20.5l-51 -68l-16 -22l-392 -530l-17 -22zM472 768q-7 -8 -16 -7t-12.5 8.5t2.5 15.5l112 145q11 14 23.5 12.5
t18.5 -11.5t-5 -23z" />
    <glyph glyph-name="oslashacute" unicode="&#x1ff;" horiz-adv-x="538" 
d="M102 -19q-7 -10 -17 -8.5t-15 10.5t3 20l31 43q-53 56 -53 154q0 77 28 143.5t81.5 107.5t132.5 41q66 0 113 -31l31 42q8 11 17.5 9t14.5 -11t-3 -20l-32 -44q53 -55 53 -153q0 -77 -28 -143.5t-81.5 -107.5t-132.5 -41q-66 0 -113 31zM94 198q0 -75 35 -118l254 348
q-37 25 -92 25q-64 0 -108 -35t-66.5 -92.5t-22.5 -127.5zM247 31q64 0 108 35t66.5 93t22.5 127q0 75 -34 118l-254 -349q36 -24 91 -24zM340 552q-7 -9 -15.5 -8t-12 8t2.5 16l118 175q11 17 24 15.5t18.5 -12.5t-4.5 -24z" />
    <glyph glyph-name="uni0200" unicode="&#x200;" horiz-adv-x="716" 
d="M29 -6q-12 0 -18 9.5t2 23.5l394 669q8 15 26 15q17 0 22 -16l180 -666q5 -19 0 -27t-15 -8q-19 0 -24 22l-48 179h-387l-109 -185q-9 -16 -23 -16zM425 648l-241 -414h353l-110 414h-2zM485 765l-81 143q-8 15 -0.5 25t20.5 9.5t20 -17.5l63 -149q5 -12 -5.5 -16.5
t-16.5 5.5zM376 765l-81 143q-8 15 -0.5 25t20.5 9.5t20 -17.5l63 -149q5 -12 -5.5 -16.5t-16.5 5.5z" />
    <glyph glyph-name="uni0201" unicode="&#x201;" horiz-adv-x="514" 
d="M205 -8q-40 0 -76 17.5t-58 49.5t-22 75q0 76 65 108.5t210 32.5h71l6 40q11 68 -15.5 103t-96.5 35q-40 0 -75.5 -8t-67.5 -31q-14 -10 -24 -4.5t-10.5 17.5t14.5 21q35 23 78 33.5t87 10.5q88 0 126 -50t24 -140l-46 -287q-3 -21 -23 -21t-17 25l9 61
q-25 -45 -69 -66.5t-90 -21.5zM208 30q40 0 76.5 19t62.5 55t34 87l8 47h-49q-93 0 -146 -9.5t-75.5 -32t-22.5 -60.5q0 -52 34.5 -79t77.5 -27zM349 556l-53 173q-5 17 5 25t22.5 4t16.5 -23l36 -175q2 -13 -10 -15.5t-17 11.5zM240 556l-53 173q-5 17 5 25t22.5 4
t16.5 -23l36 -175q2 -13 -10 -15.5t-17 11.5z" />
    <glyph glyph-name="uni0202" unicode="&#x202;" horiz-adv-x="716" 
d="M29 -6q-12 0 -18 9.5t2 23.5l394 669q8 15 26 15q17 0 22 -16l180 -666q5 -19 0 -27t-15 -8q-19 0 -24 22l-48 179h-387l-109 -185q-9 -16 -23 -16zM425 648l-241 -414h353l-110 414h-2zM296 756q-18 2 -13 24q15 71 61.5 111t106.5 40q62 0 102.5 -41.5t40.5 -115.5
q0 -16 -16 -18q-17 -2 -17 17q0 58 -31.5 90t-81.5 32q-51 0 -86.5 -32.5t-46.5 -91.5q-3 -17 -19 -15z" />
    <glyph glyph-name="uni0203" unicode="&#x203;" horiz-adv-x="514" 
d="M205 -8q-40 0 -76 17.5t-58 49.5t-22 75q0 76 65 108.5t210 32.5h71l6 40q11 68 -15.5 103t-96.5 35q-40 0 -75.5 -8t-67.5 -31q-14 -10 -24 -4.5t-10.5 17.5t14.5 21q35 23 78 33.5t87 10.5q88 0 126 -50t24 -140l-46 -287q-3 -21 -23 -21t-17 25l9 61
q-25 -45 -69 -66.5t-90 -21.5zM208 30q40 0 76.5 19t62.5 55t34 87l8 47h-49q-93 0 -146 -9.5t-75.5 -32t-22.5 -60.5q0 -52 34.5 -79t77.5 -27zM176 546q-18 2 -13 26q16 79 56 122.5t98 43.5q60 0 95.5 -46t35.5 -128q0 -16 -15 -18q-18 -2 -18 17q0 67 -26 103t-73 36
q-46 0 -77.5 -36.5t-44.5 -104.5q-3 -17 -18 -15z" />
    <glyph glyph-name="uni0204" unicode="&#x204;" horiz-adv-x="570" 
d="M85 0q-28 0 -23 27l104 655q4 23 27 23h383q21 0 21 -15q0 -13 -7 -18.5t-16 -5.5h-368l-46 -289h344q21 0 21 -15q0 -13 -7 -18.5t-16 -5.5h-349l-47 -299h364q21 0 21 -15q0 -13 -7 -18.5t-16 -5.5h-383zM447 765l-81 143q-8 15 -0.5 25t20.5 9.5t20 -17.5l63 -149
q5 -12 -5.5 -16.5t-16.5 5.5zM338 765l-81 143q-8 15 -0.5 25t20.5 9.5t20 -17.5l63 -149q5 -12 -5.5 -16.5t-16.5 5.5z" />
    <glyph glyph-name="uni0205" unicode="&#x205;" horiz-adv-x="523" 
d="M261 -8q-98 0 -154 55.5t-56 152.5q0 77 29 143.5t85 107.5t136 41q72 0 113.5 -33.5t57 -87t6.5 -112.5q-2 -14 -7 -19.5t-18 -5.5h-358q-11 -91 32.5 -147t131.5 -56q42 0 77 10.5t69 35.5q15 11 24.5 6.5t10.5 -16t-13 -22.5q-33 -25 -77.5 -39t-88.5 -14zM300 454
q-62 0 -103 -27t-64 -69t-32 -87h339q6 51 -6 92.5t-45 66t-89 24.5zM354 556l-53 173q-5 17 5 25t22.5 4t16.5 -23l36 -175q2 -13 -10 -15.5t-17 11.5zM245 556l-53 173q-5 17 5 25t22.5 4t16.5 -23l36 -175q2 -13 -10 -15.5t-17 11.5z" />
    <glyph glyph-name="uni0206" unicode="&#x206;" horiz-adv-x="570" 
d="M85 0q-28 0 -23 27l104 655q4 23 27 23h383q21 0 21 -15q0 -13 -7 -18.5t-16 -5.5h-368l-46 -289h344q21 0 21 -15q0 -13 -7 -18.5t-16 -5.5h-349l-47 -299h364q21 0 21 -15q0 -13 -7 -18.5t-16 -5.5h-383zM258 756q-18 2 -13 24q15 71 61.5 111t106.5 40
q62 0 102.5 -41.5t40.5 -115.5q0 -16 -16 -18q-17 -2 -17 17q0 58 -31.5 90t-81.5 32q-51 0 -86.5 -32.5t-46.5 -91.5q-3 -17 -19 -15z" />
    <glyph glyph-name="uni0207" unicode="&#x207;" horiz-adv-x="523" 
d="M261 -8q-98 0 -154 55.5t-56 152.5q0 77 29 143.5t85 107.5t136 41q72 0 113.5 -33.5t57 -87t6.5 -112.5q-2 -14 -7 -19.5t-18 -5.5h-358q-11 -91 32.5 -147t131.5 -56q42 0 77 10.5t69 35.5q15 11 24.5 6.5t10.5 -16t-13 -22.5q-33 -25 -77.5 -39t-88.5 -14zM300 454
q-62 0 -103 -27t-64 -69t-32 -87h339q6 51 -6 92.5t-45 66t-89 24.5zM181 546q-18 2 -13 26q16 79 56 122.5t98 43.5q60 0 95.5 -46t35.5 -128q0 -16 -15 -18q-18 -2 -18 17q0 67 -26 103t-73 36q-46 0 -77.5 -36.5t-44.5 -104.5q-3 -17 -18 -15z" />
    <glyph glyph-name="uni0208" unicode="&#x208;" horiz-adv-x="234" 
d="M79 -6q-23 0 -18 26l106 669q3 22 23 22q23 0 18 -26l-106 -669q-3 -22 -23 -22zM242 765l-81 143q-8 15 -0.5 25t20.5 9.5t20 -17.5l63 -149q5 -12 -5.5 -16.5t-16.5 5.5zM133 765l-81 143q-8 15 -0.5 25t20.5 9.5t20 -17.5l63 -149q5 -12 -5.5 -16.5t-16.5 5.5z" />
    <glyph glyph-name="uni0209" unicode="&#x209;" horiz-adv-x="212" 
d="M67 -6q-22 0 -17 25l71 450q3 21 24 21q22 0 17 -25l-71 -450q-3 -21 -24 -21zM195 556l-53 173q-5 17 5 25t22.5 4t16.5 -23l36 -175q2 -13 -10 -15.5t-17 11.5zM86 556l-53 173q-5 17 5 25t22.5 4t16.5 -23l36 -175q2 -13 -10 -15.5t-17 11.5z" />
    <glyph glyph-name="uni020A" unicode="&#x20a;" horiz-adv-x="234" 
d="M79 -6q-23 0 -18 26l106 669q3 22 23 22q23 0 18 -26l-106 -669q-3 -22 -23 -22zM53 756q-18 2 -13 24q15 71 61.5 111t106.5 40q62 0 102.5 -41.5t40.5 -115.5q0 -16 -16 -18q-17 -2 -17 17q0 58 -31.5 90t-81.5 32q-51 0 -86.5 -32.5t-46.5 -91.5q-3 -17 -19 -15z" />
    <glyph glyph-name="uni020B" unicode="&#x20b;" horiz-adv-x="212" 
d="M67 -6q-22 0 -17 25l71 450q3 21 24 21q22 0 17 -25l-71 -450q-3 -21 -24 -21zM22 546q-18 2 -13 26q16 79 56 122.5t98 43.5q60 0 95.5 -46t35.5 -128q0 -16 -15 -18q-18 -2 -18 17q0 67 -26 103t-73 36q-46 0 -77.5 -36.5t-44.5 -104.5q-3 -17 -18 -15z" />
    <glyph glyph-name="uni020C" unicode="&#x20c;" horiz-adv-x="751" 
d="M357 -8q-126 0 -200.5 76t-74.5 221q0 89 22 166t66 135t109 90.5t150 32.5q126 0 200.5 -76t74.5 -221q0 -89 -22 -166t-66 -135t-108.5 -90.5t-150.5 -32.5zM359 33q98 0 164.5 50.5t101 137.5t34.5 195q0 130 -61.5 193t-171.5 63q-97 0 -163.5 -50.5t-101 -137
t-34.5 -195.5q0 -130 61.5 -193t170.5 -63zM491 765l-81 143q-8 15 -0.5 25t20.5 9.5t20 -17.5l63 -149q5 -12 -5.5 -16.5t-16.5 5.5zM382 765l-81 143q-8 15 -0.5 25t20.5 9.5t20 -17.5l63 -149q5 -12 -5.5 -16.5t-16.5 5.5z" />
    <glyph glyph-name="uni020D" unicode="&#x20d;" horiz-adv-x="538" 
d="M245 -8q-89 0 -141.5 55.5t-52.5 152.5q0 77 28 143.5t82 107.5t132 41q89 0 141.5 -55t52.5 -153q0 -77 -28 -143.5t-81.5 -107.5t-132.5 -41zM247 31q64 0 108 35t66.5 93t22.5 127q0 83 -40.5 125t-112.5 42q-64 0 -108 -35t-66.5 -92.5t-22.5 -127.5
q0 -82 40.5 -124.5t112.5 -42.5zM359 556l-53 173q-5 17 5 25t22.5 4t16.5 -23l36 -175q2 -13 -10 -15.5t-17 11.5zM250 556l-53 173q-5 17 5 25t22.5 4t16.5 -23l36 -175q2 -13 -10 -15.5t-17 11.5z" />
    <glyph glyph-name="uni020E" unicode="&#x20e;" horiz-adv-x="751" 
d="M357 -8q-126 0 -200.5 76t-74.5 221q0 89 22 166t66 135t109 90.5t150 32.5q126 0 200.5 -76t74.5 -221q0 -89 -22 -166t-66 -135t-108.5 -90.5t-150.5 -32.5zM359 33q98 0 164.5 50.5t101 137.5t34.5 195q0 130 -61.5 193t-171.5 63q-97 0 -163.5 -50.5t-101 -137
t-34.5 -195.5q0 -130 61.5 -193t170.5 -63zM302 756q-18 2 -13 24q15 71 61.5 111t106.5 40q62 0 102.5 -41.5t40.5 -115.5q0 -16 -16 -18q-17 -2 -17 17q0 58 -31.5 90t-81.5 32q-51 0 -86.5 -32.5t-46.5 -91.5q-3 -17 -19 -15z" />
    <glyph glyph-name="uni020F" unicode="&#x20f;" horiz-adv-x="538" 
d="M245 -8q-89 0 -141.5 55.5t-52.5 152.5q0 77 28 143.5t82 107.5t132 41q89 0 141.5 -55t52.5 -153q0 -77 -28 -143.5t-81.5 -107.5t-132.5 -41zM247 31q64 0 108 35t66.5 93t22.5 127q0 83 -40.5 125t-112.5 42q-64 0 -108 -35t-66.5 -92.5t-22.5 -127.5
q0 -82 40.5 -124.5t112.5 -42.5zM186 546q-18 2 -13 26q16 79 56 122.5t98 43.5q60 0 95.5 -46t35.5 -128q0 -16 -15 -18q-18 -2 -18 17q0 67 -26 103t-73 36q-46 0 -77.5 -36.5t-44.5 -104.5q-3 -17 -18 -15z" />
    <glyph glyph-name="uni0210" unicode="&#x210;" horiz-adv-x="654" 
d="M79 -6q-22 0 -17 25l105 665q3 21 24 21h210q111 0 165.5 -49.5t54.5 -135.5q0 -89 -55 -140.5t-142 -61.5q22 -10 38.5 -31.5t28.5 -52.5l80 -210q11 -30 -14 -30q-15 0 -22 18l-80 209q-19 50 -49 70.5t-89 20.5h-168l-47 -297q-3 -21 -23 -21zM156 351h227
q91 0 142.5 44t51.5 124q0 73 -42 110t-134 37h-195zM446 765l-81 143q-8 15 -0.5 25t20.5 9.5t20 -17.5l63 -149q5 -12 -5.5 -16.5t-16.5 5.5zM337 765l-81 143q-8 15 -0.5 25t20.5 9.5t20 -17.5l63 -149q5 -12 -5.5 -16.5t-16.5 5.5z" />
    <glyph glyph-name="uni0211" unicode="&#x211;" horiz-adv-x="327" 
d="M68 -6q-22 0 -17 25l71 450q3 21 24 21q9 0 14 -6.5t3 -18.5l-10 -60q27 43 73.5 66t97.5 23q30 0 30 -17q0 -10 -5 -14.5t-19 -6.5l-12 -1q-91 -7 -131.5 -54t-52.5 -121l-42 -265q-3 -21 -24 -21zM289 559l-53 173q-5 17 5 25t22.5 4t16.5 -23l36 -175q2 -13 -10 -15.5
t-17 11.5zM180 559l-53 173q-5 17 5 25t22.5 4t16.5 -23l36 -175q2 -13 -10 -15.5t-17 11.5z" />
    <glyph glyph-name="uni0212" unicode="&#x212;" horiz-adv-x="654" 
d="M79 -6q-22 0 -17 25l105 665q3 21 24 21h210q111 0 165.5 -49.5t54.5 -135.5q0 -89 -55 -140.5t-142 -61.5q22 -10 38.5 -31.5t28.5 -52.5l80 -210q11 -30 -14 -30q-15 0 -22 18l-80 209q-19 50 -49 70.5t-89 20.5h-168l-47 -297q-3 -21 -23 -21zM156 351h227
q91 0 142.5 44t51.5 124q0 73 -42 110t-134 37h-195zM257 756q-18 2 -13 24q15 71 61.5 111t106.5 40q62 0 102.5 -41.5t40.5 -115.5q0 -16 -16 -18q-17 -2 -17 17q0 58 -31.5 90t-81.5 32q-51 0 -86.5 -32.5t-46.5 -91.5q-3 -17 -19 -15z" />
    <glyph glyph-name="uni0213" unicode="&#x213;" horiz-adv-x="327" 
d="M68 -6q-22 0 -17 25l71 450q3 21 24 21q9 0 14 -6.5t3 -18.5l-10 -60q27 43 73.5 66t97.5 23q30 0 30 -17q0 -10 -5 -14.5t-19 -6.5l-12 -1q-91 -7 -131.5 -54t-52.5 -121l-42 -265q-3 -21 -24 -21zM116 549q-18 2 -13 26q16 79 56 122.5t98 43.5q60 0 95.5 -46
t35.5 -128q0 -16 -15 -18q-18 -2 -18 17q0 67 -26 103t-73 36q-46 0 -77.5 -36.5t-44.5 -104.5q-3 -17 -18 -15z" />
    <glyph glyph-name="uni0214" unicode="&#x214;" horiz-adv-x="720" 
d="M330 -8q-132 0 -193.5 74.5t-38.5 221.5l64 402q3 21 24 21q22 0 17 -25l-64 -404q-20 -126 29 -187.5t162 -61.5t177 56t84 181l67 420q3 21 24 21q22 0 17 -25l-67 -425q-21 -135 -95.5 -202t-206.5 -67zM484 765l-81 143q-8 15 -0.5 25t20.5 9.5t20 -17.5l63 -149
q5 -12 -5.5 -16.5t-16.5 5.5zM375 765l-81 143q-8 15 -0.5 25t20.5 9.5t20 -17.5l63 -149q5 -12 -5.5 -16.5t-16.5 5.5z" />
    <glyph glyph-name="uni0215" unicode="&#x215;" horiz-adv-x="545" 
d="M219 -8q-79 0 -119.5 48.5t-24.5 148.5l44 280q3 21 24 21q23 0 18 -25l-44 -277q-25 -157 103 -157q83 0 132 52t62 137l39 249q3 21 24 21t18 -22l-72 -453q-3 -21 -23 -21q-22 0 -17 25l11 68q-27 -45 -72.5 -70t-102.5 -25zM356 557l-53 173q-5 17 5 25t22.5 4
t16.5 -23l36 -175q2 -13 -10 -15.5t-17 11.5zM247 557l-53 173q-5 17 5 25t22.5 4t16.5 -23l36 -175q2 -13 -10 -15.5t-17 11.5z" />
    <glyph glyph-name="uni0216" unicode="&#x216;" horiz-adv-x="720" 
d="M330 -8q-132 0 -193.5 74.5t-38.5 221.5l64 402q3 21 24 21q22 0 17 -25l-64 -404q-20 -126 29 -187.5t162 -61.5t177 56t84 181l67 420q3 21 24 21q22 0 17 -25l-67 -425q-21 -135 -95.5 -202t-206.5 -67zM295 756q-18 2 -13 24q15 71 61.5 111t106.5 40
q62 0 102.5 -41.5t40.5 -115.5q0 -16 -16 -18q-17 -2 -17 17q0 58 -31.5 90t-81.5 32q-51 0 -86.5 -32.5t-46.5 -91.5q-3 -17 -19 -15z" />
    <glyph glyph-name="uni0217" unicode="&#x217;" horiz-adv-x="545" 
d="M219 -8q-79 0 -119.5 48.5t-24.5 148.5l44 280q3 21 24 21q23 0 18 -25l-44 -277q-25 -157 103 -157q83 0 132 52t62 137l39 249q3 21 24 21t18 -22l-72 -453q-3 -21 -23 -21q-22 0 -17 25l11 68q-27 -45 -72.5 -70t-102.5 -25zM183 547q-18 2 -13 26q16 79 56 122.5
t98 43.5q60 0 95.5 -46t35.5 -128q0 -16 -15 -18q-18 -2 -18 17q0 67 -26 103t-73 36q-46 0 -77.5 -36.5t-44.5 -104.5q-3 -17 -18 -15z" />
    <glyph glyph-name="uni0218" unicode="&#x218;" horiz-adv-x="600" 
d="M295 -8q-71 0 -137.5 17.5t-114.5 59.5q-11 10 -9 21t12 16t23 -5q50 -40 105 -54t123 -14q90 0 146.5 39.5t56.5 109.5q0 47 -33 81t-119 53l-99 24q-67 16 -108 54.5t-41 117.5q0 60 33.5 105.5t90 70.5t125.5 25q62 0 124 -19.5t104 -62.5q11 -10 8.5 -22t-12.5 -16.5
t-23 6.5q-42 40 -94.5 56.5t-108.5 16.5q-57 0 -103 -20t-73 -55.5t-27 -84.5q0 -62 29 -90t85 -42l99 -24q99 -22 143 -65t44 -105t-33 -105.5t-89 -66t-127 -22.5zM254 -242q-10 -10 -19.5 -7.5t-12 12t7.5 20.5q27 30 33 59q-15 1 -24 11.5t-9 25.5q0 17 10 27.5t26 10.5
q36 0 36 -45q0 -31 -13.5 -62t-34.5 -52z" />
    <glyph glyph-name="uni0219" unicode="&#x219;" horiz-adv-x="475" 
d="M220 -8q-49 0 -91.5 13t-72.5 35q-11 9 -10 20.5t11 17t24 -5.5q31 -22 66.5 -31.5t75.5 -9.5q60 0 95.5 25t35.5 72q0 30 -19.5 50t-54.5 29l-97 26q-45 12 -72 43t-27 74q0 63 50.5 102.5t130.5 39.5q44 0 84 -14t65 -37q12 -11 10.5 -22.5t-11 -15.5t-22.5 7
q-50 43 -127 43q-61 0 -98.5 -27.5t-37.5 -74.5q0 -29 17.5 -50t53.5 -31l97 -26q47 -13 74.5 -41t27.5 -72q0 -64 -49 -101.5t-129 -37.5zM175 -242q-10 -10 -19.5 -7.5t-12 12t7.5 20.5q27 30 33 59q-15 1 -24 11.5t-9 25.5q0 17 10 27.5t26 10.5q36 0 36 -45
q0 -31 -13.5 -62t-34.5 -52z" />
    <glyph glyph-name="uni021A" unicode="&#x21a;" horiz-adv-x="586" 
d="M254 -6q-22 0 -17 25l102 647h-250q-22 0 -22 17q0 22 24 22h546q22 0 22 -16q0 -23 -24 -23h-254l-103 -651q-3 -21 -24 -21zM222 -242q-10 -10 -19.5 -7.5t-12 12t7.5 20.5q27 30 33 59q-15 1 -24 11.5t-9 25.5q0 17 10 27.5t26 10.5q36 0 36 -45q0 -31 -13.5 -62
t-34.5 -52z" />
    <glyph glyph-name="uni021B" unicode="&#x21b;" horiz-adv-x="320" 
d="M220 -8q-73 0 -108 43t-23 118l47 295h-78q-22 0 -22 15q0 21 24 21h81l22 136q3 21 24 21q22 0 17 -25l-21 -132h140q22 0 22 -15q0 -21 -24 -21h-144l-45 -286q-11 -70 12.5 -100.5t78.5 -30.5q24 0 37 4.5t20 4.5q13 0 13 -15q0 -18 -13 -23q-10 -4 -27.5 -7t-32.5 -3
zM140 -242q-10 -10 -19.5 -7.5t-12 12t7.5 20.5q27 30 33 59q-15 1 -24 11.5t-9 25.5q0 17 10 27.5t26 10.5q36 0 36 -45q0 -31 -13.5 -62t-34.5 -52z" />
    <glyph glyph-name="uni021F" unicode="&#x21f;" horiz-adv-x="553" 
d="M67 -6q-22 0 -17 25l106 671q3 21 24 21q22 0 17 -25l-46 -290q28 45 73.5 70.5t106.5 25.5q81 0 122 -48.5t25 -148.5l-44 -280q-3 -21 -25 -21t-17 25l44 277q25 157 -106 157q-86 0 -135.5 -51.5t-63.5 -137.5l-39 -249q-3 -21 -25 -21zM359 758q-11 0 -18 6t-13 16
l-85 140q-6 10 -1 16.5t14 6t16 -10.5l89 -129l125 132q8 8 16.5 7.5t12.5 -7t-4 -16.5l-114 -139q-9 -11 -17.5 -16.5t-20.5 -5.5z" />
    <glyph glyph-name="uni0226" unicode="&#x226;" horiz-adv-x="716" 
d="M29 -6q-12 0 -18 9.5t2 23.5l394 669q8 15 26 15q17 0 22 -16l180 -666q5 -19 0 -27t-15 -8q-19 0 -24 22l-48 179h-387l-109 -185q-9 -16 -23 -16zM425 648l-241 -414h353l-110 414h-2zM452 815q-30 0 -30 28q0 20 11 30.5t30 10.5q30 0 30 -28q0 -19 -11 -30t-30 -11z
" />
    <glyph glyph-name="uni0227" unicode="&#x227;" horiz-adv-x="514" 
d="M205 -8q-40 0 -76 17.5t-58 49.5t-22 75q0 76 65 108.5t210 32.5h71l6 40q11 68 -15.5 103t-96.5 35q-40 0 -75.5 -8t-67.5 -31q-14 -10 -24 -4.5t-10.5 17.5t14.5 21q35 23 78 33.5t87 10.5q88 0 126 -50t24 -140l-46 -287q-3 -21 -23 -21t-17 25l9 61
q-25 -45 -69 -66.5t-90 -21.5zM208 30q40 0 76.5 19t62.5 55t34 87l8 47h-49q-93 0 -146 -9.5t-75.5 -32t-22.5 -60.5q0 -52 34.5 -79t77.5 -27zM321 616q-30 0 -30 28q0 20 11 30.5t30 10.5q30 0 30 -28q0 -19 -11 -30t-30 -11z" />
    <glyph glyph-name="uni0228" unicode="&#x228;" horiz-adv-x="570" 
d="M85 0q-28 0 -23 27l104 655q4 23 27 23h383q21 0 21 -15q0 -13 -7 -18.5t-16 -5.5h-368l-46 -289h344q21 0 21 -15q0 -13 -7 -18.5t-16 -5.5h-349l-47 -299h364q21 0 21 -15q0 -13 -7 -18.5t-16 -5.5h-383zM271 -190q-17 0 -34 3t-31 9q-11 5 -12 15.5t6 17.5t19 1
q23 -10 59 -10q28 0 47 11.5t19 33.5q0 30 -35 30q-8 0 -19 -1.5t-21 -4.5q-15 -5 -21 1q-3 3 -3.5 7t2.5 13l27 84h38l-23 -69q15 3 26 3q29 0 49 -15.5t20 -44.5q0 -37 -32 -60.5t-81 -23.5z" />
    <glyph glyph-name="uni022A" unicode="&#x22a;" horiz-adv-x="751" 
d="M357 -8q-126 0 -200.5 76t-74.5 221q0 89 22 166t66 135t109 90.5t150 32.5q126 0 200.5 -76t74.5 -221q0 -89 -22 -166t-66 -135t-108.5 -90.5t-150.5 -32.5zM359 33q98 0 164.5 50.5t101 137.5t34.5 195q0 130 -61.5 193t-171.5 63q-97 0 -163.5 -50.5t-101 -137
t-34.5 -195.5q0 -130 61.5 -193t170.5 -63zM356 927q-21 0 -21 16q0 22 23 22h242q21 0 21 -16q0 -22 -23 -22h-242zM376 803q-29 0 -29 27q0 39 38 39q29 0 29 -27q0 -39 -38 -39zM537 803q-29 0 -29 27q0 39 38 39q29 0 29 -27q0 -39 -38 -39z" />
    <glyph glyph-name="uni022B" unicode="&#x22b;" horiz-adv-x="538" 
d="M245 -8q-89 0 -141.5 55.5t-52.5 152.5q0 77 28 143.5t82 107.5t132 41q89 0 141.5 -55t52.5 -153q0 -77 -28 -143.5t-81.5 -107.5t-132.5 -41zM247 31q64 0 108 35t66.5 93t22.5 127q0 83 -40.5 125t-112.5 42q-64 0 -108 -35t-66.5 -92.5t-22.5 -127.5
q0 -82 40.5 -124.5t112.5 -42.5zM226 706q-21 0 -21 16q0 22 23 22h242q21 0 21 -16q0 -22 -23 -22h-242zM246 582q-29 0 -29 27q0 39 38 39q29 0 29 -27q0 -39 -38 -39zM407 582q-29 0 -29 27q0 39 38 39q29 0 29 -27q0 -39 -38 -39z" />
    <glyph glyph-name="uni022C" unicode="&#x22c;" horiz-adv-x="751" 
d="M357 -8q-126 0 -200.5 76t-74.5 221q0 89 22 166t66 135t109 90.5t150 32.5q126 0 200.5 -76t74.5 -221q0 -89 -22 -166t-66 -135t-108.5 -90.5t-150.5 -32.5zM359 33q98 0 164.5 50.5t101 137.5t34.5 195q0 130 -61.5 193t-171.5 63q-97 0 -163.5 -50.5t-101 -137
t-34.5 -195.5q0 -130 61.5 -193t170.5 -63zM356 927q-21 0 -21 16q0 22 23 22h242q21 0 21 -16q0 -22 -23 -22h-242zM322 764q-18 2 -12 23q23 77 86 77q28 0 48 -15t38.5 -30t39.5 -15q20 0 31.5 11t19.5 36q6 18 22 17q17 -2 11 -23q-23 -77 -85 -77q-28 0 -48.5 15
t-39 30t-39.5 15q-19 0 -31 -11t-20 -36q-6 -18 -21 -17z" />
    <glyph glyph-name="uni022D" unicode="&#x22d;" horiz-adv-x="538" 
d="M245 -8q-89 0 -141.5 55.5t-52.5 152.5q0 77 28 143.5t82 107.5t132 41q89 0 141.5 -55t52.5 -153q0 -77 -28 -143.5t-81.5 -107.5t-132.5 -41zM247 31q64 0 108 35t66.5 93t22.5 127q0 83 -40.5 125t-112.5 42q-64 0 -108 -35t-66.5 -92.5t-22.5 -127.5
q0 -82 40.5 -124.5t112.5 -42.5zM226 706q-21 0 -21 16q0 22 23 22h242q21 0 21 -16q0 -22 -23 -22h-242zM192 543q-18 2 -12 23q20 77 83 77q28 0 49 -15t40 -30t40 -15q37 0 51 47q6 18 22 17q17 -2 11 -23q-20 -77 -82 -77q-28 0 -49.5 15t-40.5 30t-40 15q-37 0 -51 -47
q-6 -18 -21 -17z" />
    <glyph glyph-name="uni0230" unicode="&#x230;" horiz-adv-x="751" 
d="M357 -8q-126 0 -200.5 76t-74.5 221q0 89 22 166t66 135t109 90.5t150 32.5q126 0 200.5 -76t74.5 -221q0 -89 -22 -166t-66 -135t-108.5 -90.5t-150.5 -32.5zM359 33q98 0 164.5 50.5t101 137.5t34.5 195q0 130 -61.5 193t-171.5 63q-97 0 -163.5 -50.5t-101 -137
t-34.5 -195.5q0 -130 61.5 -193t170.5 -63zM356 927q-21 0 -21 16q0 22 23 22h242q21 0 21 -16q0 -22 -23 -22h-242zM457 803q-29 0 -29 27q0 39 38 39q29 0 29 -27q0 -39 -38 -39z" />
    <glyph glyph-name="uni0231" unicode="&#x231;" horiz-adv-x="538" 
d="M245 -8q-89 0 -141.5 55.5t-52.5 152.5q0 77 28 143.5t82 107.5t132 41q89 0 141.5 -55t52.5 -153q0 -77 -28 -143.5t-81.5 -107.5t-132.5 -41zM247 31q64 0 108 35t66.5 93t22.5 127q0 83 -40.5 125t-112.5 42q-64 0 -108 -35t-66.5 -92.5t-22.5 -127.5
q0 -82 40.5 -124.5t112.5 -42.5zM226 706q-21 0 -21 16q0 22 23 22h242q21 0 21 -16q0 -22 -23 -22h-242zM327 582q-29 0 -29 27q0 39 38 39q29 0 29 -27q0 -39 -38 -39z" />
    <glyph glyph-name="uni0232" unicode="&#x232;" horiz-adv-x="577" 
d="M249 -6q-21 0 -18 24l51 324l-194 336q-8 14 -4 23.5t17 9.5q9 0 13.5 -4t8.5 -12l183 -316l288 320q11 12 23 12q11 0 16.5 -10t-6.5 -23l-303 -335l-52 -329q-3 -20 -23 -20zM238 822q-21 0 -21 16q0 22 23 22h278q21 0 21 -16q0 -22 -23 -22h-278z" />
    <glyph glyph-name="uni0233" unicode="&#x233;" horiz-adv-x="504" 
d="M115 -186q-13 0 -16.5 10.5t4.5 24.5l86 148l-122 461q-4 14 1.5 23t18.5 9q10 0 14 -4.5t7 -15.5l108 -426l249 430q9 16 23 16t19 -10.5t-3 -24.5l-366 -624q-9 -17 -23 -17zM182 633q-21 0 -21 16q0 22 23 22h248q21 0 21 -16q0 -22 -23 -22h-248z" />
    <glyph glyph-name="uni0237" unicode="&#x237;" horiz-adv-x="215" 
d="M-100 -191q-14 0 -18.5 9.5t-0.5 19t17 9.5q61 0 99 31t49 100l78 491q3 21 24 21q22 0 17 -25l-78 -491q-13 -84 -62 -124.5t-125 -40.5z" />
    <glyph glyph-name="uni0253" unicode="&#x253;" horiz-adv-x="568" 
d="M275 -8q-57 0 -103 28t-66 87l-15 -92q-3 -21 -23 -21q-23 0 -18 25l87 548q12 76 51.5 111t109.5 35q28 0 39.5 -5.5t11.5 -16.5q0 -9 -6.5 -13.5t-15.5 -4.5q-4 0 -14 1t-18 1q-48 0 -78 -27t-38 -82l-26 -165q28 43 72 67t102 24q86 0 138 -55.5t52 -150.5
q0 -78 -27.5 -145t-81.5 -108t-133 -41zM277 31q64 0 108 35t66.5 93t22.5 127q0 83 -40.5 125t-112.5 42q-64 0 -108 -35t-66.5 -92.5t-22.5 -127.5q0 -82 40.5 -124.5t112.5 -42.5z" />
    <glyph glyph-name="uni0257" unicode="&#x257;" horiz-adv-x="568" 
d="M241 -8q-85 0 -137.5 55.5t-52.5 150.5q0 78 27.5 145t81.5 108t133 41q57 0 103 -28t66 -87l30 190q12 76 51.5 111t108.5 35q28 0 39.5 -5.5t11.5 -16.5q0 -9 -6.5 -13.5t-15.5 -4.5q-4 0 -14 1t-18 1q-97 0 -115 -109l-87 -551q-3 -21 -24 -21q-22 0 -17 25l10 66
q-27 -43 -72 -68t-103 -25zM247 31q64 0 108 35t66.5 93t22.5 127q0 83 -40.5 125t-112.5 42q-64 0 -108 -35t-66.5 -92.5t-22.5 -127.5q0 -82 40.5 -124.5t112.5 -42.5z" />
    <glyph glyph-name="uni0259" unicode="&#x259;" horiz-adv-x="523" 
d="M222 -8q-73 0 -115 35t-56.5 90t-4.5 115q3 18 24 18h358q11 91 -32.5 147t-131.5 56q-42 0 -79.5 -11.5t-68.5 -37.5q-13 -11 -23 -7t-11.5 15t8.5 21q31 29 79.5 44t92.5 15q98 0 154 -55t56 -153q0 -77 -29 -143.5t-85 -107.5t-136 -41zM223 30q62 0 103 27t64 69
t32 87h-339q-6 -51 6 -92.5t45 -66t89 -24.5z" />
    <glyph glyph-name="uni0292" unicode="&#x292;" horiz-adv-x="476" 
d="M178 -188q-51 0 -103.5 15t-97.5 48q-11 9 -10 20t11 16t23 -5q41 -31 84.5 -43t92.5 -12q91 0 137 50t46 135q0 56 -36.5 93t-104.5 37h-95q-11 0 -13.5 9t5.5 16l263 256h-296q-24 0 -21 19q3 18 23 18h344q14 0 17 -10.5t-11 -23.5l-253 -246h41q58 0 98 -23t61 -61.5
t21 -85.5q0 -66 -27.5 -116t-78 -78t-120.5 -28z" />
    <glyph glyph-name="uni02B9" unicode="&#x2b9;" horiz-adv-x="202" 
d="M133 434q-6 0 -10 4.5t-3 15.5l26 234q1 9 7.5 16t19.5 7q28 0 23 -28l-46 -230q-3 -19 -17 -19z" />
    <glyph glyph-name="uni02BA" unicode="&#x2ba;" horiz-adv-x="342" 
d="M133 434q-6 0 -10 4.5t-3 15.5l26 234q1 9 7.5 16t19.5 7q28 0 23 -28l-46 -230q-3 -19 -17 -19zM273 434q-6 0 -10 4.5t-3 15.5l26 234q1 9 7.5 16t19.5 7q28 0 23 -28l-46 -230q-3 -19 -17 -19z" />
    <glyph glyph-name="uni02BB" unicode="&#x2bb;" horiz-adv-x="500" 
d="M309 567q-36 0 -36 45q0 32 13.5 62.5t34.5 51.5q11 11 20 8t11.5 -12.5t-7.5 -20.5q-27 -30 -33 -59q15 -1 24 -11.5t9 -25.5q0 -16 -10 -27t-26 -11z" />
    <glyph glyph-name="uni02BC" unicode="&#x2bc;" horiz-adv-x="300" 
d="M213 587q-10 -10 -19.5 -7.5t-12 12t7.5 20.5q27 30 33 59q-15 1 -24 11.5t-9 25.5q0 17 10 27.5t26 10.5q36 0 36 -45q0 -31 -13.5 -62t-34.5 -52z" />
    <glyph glyph-name="uni02BE" unicode="&#x2be;" horiz-adv-x="500" 
d="M320 557q-13 -2 -19.5 3t-5.5 14q2 9 8.5 12.5t17.5 6.5q23 6 37 23.5t14 40.5q0 35 -31 49q-11 5 -16.5 9t-4.5 12q2 9 9 13.5t18 1.5q32 -8 48.5 -31t16.5 -52q0 -38 -26 -66.5t-66 -35.5z" />
    <glyph glyph-name="uni02BF" unicode="&#x2bf;" horiz-adv-x="500" 
d="M282 559q-31 8 -48 31t-17 52q0 38 26 66.5t66 35.5q14 2 20.5 -3t4.5 -14q-1 -9 -8 -12.5t-18 -6.5q-23 -6 -37 -23.5t-14 -40.5q0 -35 31 -49q11 -5 17 -9t4 -12q-1 -9 -8.5 -13.5t-18.5 -1.5z" />
    <glyph glyph-name="circumflex" unicode="&#x2c6;" horiz-adv-x="500" 
d="M423 565q5 -10 -1 -16t-15 -5t-13 9l-77 157l-115 -158q-6 -8 -15 -8.5t-13.5 6t2.5 17.5l113 173q8 11 15.5 14.5t16.5 3.5q18 0 26 -18z" />
    <glyph glyph-name="caron" unicode="&#x2c7;" horiz-adv-x="500" 
d="M296 544q-9 0 -16.5 4.5t-12.5 16.5l-74 170q-5 12 0.5 18t14.5 5t14 -11l78 -159l117 161q7 9 15.5 9t13 -6.5t-2.5 -17.5l-110 -168q-7 -12 -17.5 -17t-19.5 -5z" />
    <glyph glyph-name="uni02C8" unicode="&#x2c8;" horiz-adv-x="500" 
d="M305 590q-22 0 -17 25l26 164q3 21 24 21q22 0 17 -25l-26 -164q-3 -21 -24 -21z" />
    <glyph glyph-name="uni02C9" unicode="&#x2c9;" horiz-adv-x="500" 
d="M190 633q-21 0 -21 16q0 22 23 22h248q21 0 21 -16q0 -22 -23 -22h-248z" />
    <glyph glyph-name="uni02CA" unicode="&#x2ca;" horiz-adv-x="500" 
d="M318 552q-6 -9 -14.5 -8t-13 8t1.5 16l106 175q10 17 22.5 15.5t19 -12.5t-2.5 -24z" />
    <glyph glyph-name="uni02CB" unicode="&#x2cb;" horiz-adv-x="500" 
d="M275 553l-120 172q-10 14 -3 23.5t20.5 9.5t21.5 -14l107 -174q7 -10 2.5 -18t-13 -8.5t-15.5 9.5z" />
    <glyph glyph-name="uni02CC" unicode="&#x2cc;" horiz-adv-x="500" 
d="M168 -276q-22 0 -17 25l26 164q3 21 24 21q22 0 17 -25l-26 -164q-3 -21 -24 -21z" />
    <glyph glyph-name="breve" unicode="&#x2d8;" horiz-adv-x="500" 
d="M307 547q-60 0 -95.5 46t-35.5 128q0 17 15 18q18 2 18 -17q0 -67 26.5 -103t72.5 -36q47 0 78 36.5t44 104.5q3 17 18 15q18 -2 13 -26q-16 -79 -55.5 -122.5t-98.5 -43.5z" />
    <glyph glyph-name="dotaccent" unicode="&#x2d9;" horiz-adv-x="500" 
d="M309 616q-30 0 -30 28q0 20 11 30.5t30 10.5q30 0 30 -28q0 -19 -11 -30t-30 -11z" />
    <glyph glyph-name="ring" unicode="&#x2da;" horiz-adv-x="500" 
d="M316 547q-47 0 -79.5 32t-32.5 78t32.5 78t79.5 32t79.5 -32t32.5 -78t-32.5 -78t-79.5 -32zM316 579q35 0 56.5 22.5t21.5 55.5t-21.5 55.5t-56.5 22.5q-34 0 -56 -22.5t-22 -55.5t22 -55.5t56 -22.5z" />
    <glyph glyph-name="ogonek" unicode="&#x2db;" horiz-adv-x="500" 
d="M181 -190q-43 0 -66 24.5t-23 62.5q0 44 28.5 79.5t72.5 54.5l18 -31q-40 -16 -60 -43t-20 -56q0 -25 13.5 -40t41.5 -15q18 0 39 7q12 4 17 -3.5t4 -17t-9 -12.5q-13 -5 -29 -7.5t-27 -2.5z" />
    <glyph glyph-name="tilde" unicode="&#x2dc;" horiz-adv-x="500" 
d="M151 593q-17 2 -12 19q12 51 38 78.5t63 27.5q24 0 41 -13t31 -29.5t28.5 -29.5t32.5 -13q24 0 41 19.5t27 54.5q5 17 20 15q17 -2 12 -19q-12 -51 -38 -78.5t-62 -27.5q-24 0 -41.5 13t-31.5 29.5t-28.5 29.5t-32.5 13q-24 0 -41 -19.5t-27 -54.5q-5 -17 -20 -15z" />
    <glyph glyph-name="hungarumlaut" unicode="&#x2dd;" horiz-adv-x="500" 
d="M368 553q-6 -13 -17 -8.5t-7 17.5l67 176q7 18 20 20t21 -7.5t0 -24.5zM259 553q-6 -13 -17 -8.5t-7 17.5l67 176q7 18 20 20t21 -7.5t0 -24.5z" />
    <glyph glyph-name="gravecomb" unicode="&#x300;" 
d="M-13 553l-120 172q-10 14 -3 23.5t20.5 9.5t21.5 -14l107 -174q7 -10 2.5 -18t-13 -8.5t-15.5 9.5z" />
    <glyph glyph-name="acutecomb" unicode="&#x301;" 
d="M30 552q-7 -9 -15.5 -8t-12 8t2.5 16l118 175q11 17 24 15.5t18.5 -12.5t-4.5 -24z" />
    <glyph glyph-name="uni0302" unicode="&#x302;" 
d="M135 565q5 -10 -1 -16t-15 -5t-13 9l-77 157l-115 -158q-6 -8 -15 -8.5t-13.5 6t2.5 17.5l113 173q8 11 15.5 14.5t16.5 3.5q18 0 26 -18z" />
    <glyph glyph-name="tildecomb" unicode="&#x303;" 
d="M-137 593q-17 2 -12 19q12 51 38 78.5t63 27.5q24 0 41 -13t31 -29.5t28.5 -29.5t32.5 -13q24 0 41 19.5t27 54.5q5 17 20 15q17 -2 12 -19q-12 -51 -38 -78.5t-62 -27.5q-24 0 -41.5 13t-31.5 29.5t-28.5 29.5t-32.5 13q-24 0 -41 -19.5t-27 -54.5q-5 -17 -20 -15z" />
    <glyph glyph-name="uni0304" unicode="&#x304;" 
d="M-98 633q-21 0 -21 16q0 22 23 22h248q21 0 21 -16q0 -22 -23 -22h-248z" />
    <glyph glyph-name="uni0306" unicode="&#x306;" 
d="M19 547q-60 0 -95.5 46t-35.5 128q0 17 15 18q18 2 18 -17q0 -67 26.5 -103t72.5 -36q47 0 78 36.5t44 104.5q3 17 18 15q18 -2 13 -26q-16 -79 -55.5 -122.5t-98.5 -43.5z" />
    <glyph glyph-name="uni0307" unicode="&#x307;" 
d="M21 616q-30 0 -30 28q0 20 11 30.5t30 10.5q30 0 30 -28q0 -19 -11 -30t-30 -11z" />
    <glyph glyph-name="uni0308" unicode="&#x308;" 
d="M102 617q-29 0 -29 27q0 39 38 39q29 0 29 -27q0 -39 -38 -39zM-59 617q-29 0 -29 27q0 39 38 39q29 0 29 -27q0 -39 -38 -39z" />
    <glyph glyph-name="hookabovecomb" unicode="&#x309;" 
d="M4 543q-18 0 -15 21q4 26 16.5 43t27 30t25 25t10.5 28q0 28 -49 28q-28 0 -52 -10q-20 -9 -24 7q-3 17 12 24q16 8 33 11.5t38 3.5q40 0 61.5 -15.5t21.5 -41.5t-11 -42t-26.5 -28.5t-28.5 -27.5t-18 -39q-3 -17 -21 -17z" />
    <glyph glyph-name="uni030A" unicode="&#x30a;" 
d="M28 547q-47 0 -79.5 32t-32.5 78t32.5 78t79.5 32t79.5 -32t32.5 -78t-32.5 -78t-79.5 -32zM28 579q35 0 56.5 22.5t21.5 55.5t-21.5 55.5t-56.5 22.5q-34 0 -56 -22.5t-22 -55.5t22 -55.5t56 -22.5z" />
    <glyph glyph-name="uni030B" unicode="&#x30b;" 
d="M80 553q-6 -13 -17 -8.5t-7 17.5l67 176q7 18 20 20t21 -7.5t0 -24.5zM-29 553q-6 -13 -17 -8.5t-7 17.5l67 176q7 18 20 20t21 -7.5t0 -24.5z" />
    <glyph glyph-name="uni030C" unicode="&#x30c;" 
d="M8 544q-9 0 -16.5 4.5t-12.5 16.5l-74 170q-5 12 0.5 18t14.5 5t14 -11l78 -159l117 161q7 9 15.5 9t13 -6.5t-2.5 -17.5l-110 -168q-7 -12 -17.5 -17t-19.5 -5z" />
    <glyph glyph-name="uni030F" unicode="&#x30f;" 
d="M49 556l-53 173q-5 17 5 25t22.5 4t16.5 -23l36 -175q2 -13 -10 -15.5t-17 11.5zM-60 556l-53 173q-5 17 5 25t22.5 4t16.5 -23l36 -175q2 -13 -10 -15.5t-17 11.5z" />
    <glyph glyph-name="uni0311" unicode="&#x311;" 
d="M-124 546q-18 2 -13 26q16 79 56 122.5t98 43.5q60 0 95.5 -46t35.5 -128q0 -16 -15 -18q-18 -2 -18 17q0 67 -26 103t-73 36q-46 0 -77.5 -36.5t-44.5 -104.5q-3 -17 -18 -15z" />
    <glyph glyph-name="uni0312" unicode="&#x312;" 
d="M21 567q-36 0 -36 45q0 32 13.5 62.5t34.5 51.5q11 11 20 8t11.5 -12.5t-7.5 -20.5q-27 -30 -33 -59q15 -1 24 -11.5t9 -25.5q0 -16 -10 -27t-26 -11z" />
    <glyph glyph-name="uni031B" unicode="&#x31b;" 
d="M10 446l-14 13l4 25q45 0 71 11.5t39 30t19 39t10 38.5q4 19 21 19q22 0 19 -22q-9 -69 -49 -110t-120 -44z" />
    <glyph glyph-name="dotbelowcomb" unicode="&#x323;" 
d="M-28 -175q-30 0 -30 28q0 20 11 30.5t30 10.5q30 0 30 -28q0 -19 -11 -30t-30 -11z" />
    <glyph glyph-name="uni0324" unicode="&#x324;" 
d="M54 -174q-29 0 -29 27q0 39 38 39q29 0 29 -27q0 -39 -38 -39zM-107 -174q-29 0 -29 27q0 39 38 39q29 0 29 -27q0 -39 -38 -39z" />
    <glyph glyph-name="uni0326" unicode="&#x326;" 
d="M-32 -242q-10 -10 -19.5 -7.5t-12 12t7.5 20.5q27 30 33 59q-15 1 -24 11.5t-9 25.5q0 17 10 27.5t26 10.5q36 0 36 -45q0 -31 -13.5 -62t-34.5 -52z" />
    <glyph glyph-name="uni0327" unicode="&#x327;" 
d="M-18 -190q-17 0 -34 3t-31 9q-11 5 -12 15.5t6 17.5t19 1q23 -10 59 -10q28 0 47 11.5t19 33.5q0 30 -35 30q-8 0 -19 -1.5t-21 -4.5q-15 -5 -21 1q-3 3 -3.5 7t2.5 13l27 84h38l-23 -69q15 3 26 3q29 0 49 -15.5t20 -44.5q0 -37 -32 -60.5t-81 -23.5z" />
    <glyph glyph-name="uni0328" unicode="&#x328;" 
d="M-30 -190q-43 0 -66 24.5t-23 62.5q0 44 28.5 79.5t72.5 54.5l18 -31q-40 -16 -60 -43t-20 -56q0 -25 13.5 -40t41.5 -15q18 0 39 7q12 4 17 -3.5t4 -17t-9 -12.5q-13 -5 -29 -7.5t-27 -2.5z" />
    <glyph glyph-name="uni032E" unicode="&#x32e;" 
d="M-21 -215q-60 0 -96.5 35.5t-36.5 97.5q0 21 15 22q16 2 17 -20q3 -47 29.5 -73t72.5 -26q48 0 79 27t40 77q3 17 20 15t12 -23q-14 -62 -53 -97t-99 -35z" />
    <glyph glyph-name="uni0331" unicode="&#x331;" 
d="M-145 -148q-21 0 -21 16q0 22 23 22h248q21 0 21 -16q0 -22 -23 -22h-248z" />
    <glyph glyph-name="uni0335" unicode="&#x335;" 
d="M-152 522q-21 0 -21 15q0 21 23 21h302q21 0 21 -15q0 -21 -23 -21h-302z" />
    <glyph glyph-name="uni0337" unicode="&#x337;" 
d="M-96 289q-12 -6 -21 1t-8.5 18t14.5 17l210 99q13 6 22 -1t9 -17.5t-14 -17.5z" />
    <glyph glyph-name="uni0338" unicode="&#x338;" 
d="M-167 -16q-7 -10 -17 -8.5t-15 10.5t3 20l364 500q8 11 17.5 9t14.5 -11t-3 -20z" />
    <glyph glyph-name="uni0394" unicode="&#x394;" horiz-adv-x="716" 
d="M34 0q-13 0 -18.5 11.5t5.5 30.5l381 647q9 16 28 16q22 0 26 -20l174 -642q11 -43 -22 -43h-574zM423 647l-357 -608h524l-165 608h-2z" />
    <glyph glyph-name="Sigma" unicode="&#x3a3;" horiz-adv-x="600" 
d="M13 -180q-16 0 -19 14t9 29l339 404l-211 393q-9 17 -1.5 31t20.5 14h449q22 0 22 -16q0 -23 -24 -23h-423l201 -373q11 -19 9 -30t-17 -29l-317 -375h415q22 0 22 -17q0 -22 -24 -22h-450z" />
    <glyph glyph-name="uni03A9" unicode="&#x3a9;" horiz-adv-x="760" 
d="M25 0q-22 0 -22 16q0 22 24 22h205q-153 142 -153 313q0 106 42.5 187.5t123.5 128t195 46.5q86 0 151 -36.5t101 -100t36 -144.5q0 -134 -69.5 -233.5t-185.5 -160.5h190q22 0 22 -16q0 -22 -24 -22h-234q-24 0 -24 19q0 8 5.5 14t14.5 11q77 42 135.5 99.5t91.5 130
t33 158.5q0 70 -30 124t-85.5 85t-130.5 31q-101 0 -171 -41.5t-106 -113.5t-36 -164q0 -80 36.5 -157t112.5 -148q6 -6 9 -11t3 -13q0 -13 -7.5 -18.5t-18.5 -5.5h-234z" />
    <glyph glyph-name="uni03BC" unicode="&#x3bc;" horiz-adv-x="545" 
d="M36 -186q-22 0 -17 25l100 630q3 21 24 21q23 0 18 -25l-44 -277q-25 -157 103 -157q83 0 132 52t62 137l39 249q3 21 24 21q22 0 17 -25l-71 -450q-3 -21 -23 -21q-22 0 -17 25l11 68q-27 -45 -72.5 -70t-102.5 -25q-92 0 -128 62l-31 -219q-3 -21 -24 -21z" />
    <glyph glyph-name="pi" unicode="&#x3c0;" horiz-adv-x="560" 
d="M22 -6q-12 0 -18 7.5t0 19.5q44 87 78.5 197t54.5 230h-75q-22 0 -22 15q0 21 24 21h465q22 0 22 -15q0 -21 -24 -21h-106l-45 -287q-10 -64 9.5 -94.5t75.5 -30.5q14 0 22.5 1t13.5 1q15 0 15 -15q0 -14 -14.5 -20t-47.5 -6q-70 0 -99 45.5t-17 119.5l45 286h-200
q-46 -261 -134 -438q-7 -16 -23 -16z" />
    <glyph glyph-name="uni0400" unicode="&#x400;" horiz-adv-x="570" 
d="M85 0q-28 0 -23 27l104 655q4 23 27 23h383q21 0 21 -15q0 -13 -7 -18.5t-16 -5.5h-368l-46 -289h344q21 0 21 -15q0 -13 -7 -18.5t-16 -5.5h-349l-47 -299h364q21 0 21 -15q0 -13 -7 -18.5t-16 -5.5h-383zM384 769l-99 138q-10 14 -3 24t20 11.5t22 -13.5l88 -143
q6 -9 1 -16.5t-13.5 -8.5t-15.5 8z" />
    <glyph glyph-name="uni0401" unicode="&#x401;" horiz-adv-x="570" 
d="M85 0q-28 0 -23 27l104 655q4 23 27 23h383q21 0 21 -15q0 -13 -7 -18.5t-16 -5.5h-368l-46 -289h344q21 0 21 -15q0 -13 -7 -18.5t-16 -5.5h-349l-47 -299h364q21 0 21 -15q0 -13 -7 -18.5t-16 -5.5h-383zM495 817q-29 0 -29 27q0 39 38 39q29 0 29 -27q0 -39 -38 -39z
M334 817q-29 0 -29 27q0 39 38 39q29 0 29 -27q0 -39 -38 -39z" />
    <glyph glyph-name="uni0402" unicode="&#x402;" horiz-adv-x="817" 
d="M505 -188q-56 0 -96 16q-12 4 -13.5 15t6 19t21.5 2q17 -6 37 -9.5t44 -3.5q145 0 176 191l16 98q21 128 -23.5 188t-151.5 60q-52 0 -99.5 -10.5t-92.5 -36.5l-52 -326q-3 -21 -24 -21q-22 0 -17 25l103 647h-250q-22 0 -22 17q0 22 24 22h546q22 0 22 -16
q0 -23 -24 -23h-254l-44 -279q38 21 85 31.5t99 10.5q127 0 183 -71.5t34 -211.5l-16 -103q-36 -231 -217 -231z" />
    <glyph glyph-name="uni0403" unicode="&#x403;" horiz-adv-x="527" 
d="M79 -6q-23 0 -18 26l105 662q4 23 27 23h380q22 0 22 -16q0 -23 -24 -23h-365l-103 -650q-3 -22 -24 -22zM380 768q-7 -8 -16 -7t-12.5 8.5t2.5 15.5l112 145q11 14 23.5 12.5t18.5 -11.5t-5 -23z" />
    <glyph glyph-name="uni0404" unicode="&#x404;" horiz-adv-x="667" 
d="M373 -8q-87 0 -152.5 33.5t-101.5 102.5t-36 177q0 87 24.5 161.5t70.5 129.5t110.5 86t144.5 31q138 0 222 -87q11 -10 7.5 -22t-14.5 -15.5t-24 8.5q-39 40 -87 57.5t-107 17.5q-81 0 -143.5 -37t-102 -103.5t-51.5 -154.5h364q26 0 23 -19q-3 -20 -25 -20h-366
q-4 -94 18.5 -162.5t78.5 -105.5t150 -37q50 0 97 16.5t94 60.5q13 12 23.5 7t13 -16.5t-9.5 -22.5q-91 -86 -221 -86z" />
    <glyph glyph-name="uni0405" unicode="&#x405;" horiz-adv-x="600" 
d="M295 -8q-71 0 -137.5 17.5t-114.5 59.5q-11 10 -9 21t12 16t23 -5q50 -40 105 -54t123 -14q90 0 146.5 39.5t56.5 109.5q0 47 -33 81t-119 53l-99 24q-67 16 -108 54.5t-41 117.5q0 60 33.5 105.5t90 70.5t125.5 25q62 0 124 -19.5t104 -62.5q11 -10 8.5 -22t-12.5 -16.5
t-23 6.5q-42 40 -94.5 56.5t-108.5 16.5q-57 0 -103 -20t-73 -55.5t-27 -84.5q0 -62 29 -90t85 -42l99 -24q99 -22 143 -65t44 -105t-33 -105.5t-89 -66t-127 -22.5z" />
    <glyph glyph-name="uni0406" unicode="&#x406;" horiz-adv-x="234" 
d="M79 -6q-23 0 -18 26l106 669q3 22 23 22q23 0 18 -26l-106 -669q-3 -22 -23 -22z" />
    <glyph glyph-name="uni0407" unicode="&#x407;" horiz-adv-x="234" 
d="M79 -6q-23 0 -18 26l106 669q3 22 23 22q23 0 18 -26l-106 -669q-3 -22 -23 -22zM290 817q-29 0 -29 27q0 39 38 39q29 0 29 -27q0 -39 -38 -39zM129 817q-29 0 -29 27q0 39 38 39q29 0 29 -27q0 -39 -38 -39z" />
    <glyph glyph-name="uni0408" unicode="&#x408;" horiz-adv-x="297" 
d="M-23 -6q-26 -3 -26 19q0 18 22 20l33 3q122 11 144 151l80 503q3 21 24 21q22 0 17 -25l-81 -509q-13 -82 -57.5 -127t-124.5 -53z" />
    <glyph glyph-name="uni0409" unicode="&#x409;" horiz-adv-x="1126" 
d="M562 0q-28 0 -23 27l101 639h-337l-32 -201q-18 -113 -42 -192t-54.5 -132t-69.5 -87.5t-87 -58.5q-22 -11 -29 10q-6 18 14 28q37 18 70.5 45.5t63 75t54 125.5t42.5 196l32 207q3 23 27 23h369q28 0 23 -27l-48 -299h220q103 0 155.5 -46t52.5 -124q0 -104 -62 -156.5
t-180 -52.5h-260zM583 39h243q194 0 194 169q0 65 -42.5 98.5t-122.5 33.5h-225z" />
    <glyph glyph-name="uni040A" unicode="&#x40a;" horiz-adv-x="1165" 
d="M78 -6q-22 0 -17 26l107 669q3 22 24 22q22 0 17 -26l-49 -308h474l50 312q3 22 24 22q22 0 17 -26l-49 -306h219q103 0 155.5 -46t52.5 -124q0 -104 -62 -156.5t-180 -52.5h-260q-28 0 -23 27l50 311h-474l-51 -322q-3 -22 -25 -22zM622 39h243q194 0 194 169
q0 65 -42.5 98.5t-122.5 33.5h-224z" />
    <glyph glyph-name="uni040B" unicode="&#x40b;" horiz-adv-x="833" 
d="M253 -6q-22 0 -17 25l103 647h-250q-22 0 -22 17q0 22 24 22h546q22 0 22 -16q0 -23 -24 -23h-254l-44 -279q39 21 91.5 31.5t104.5 10.5q131 0 188 -71.5t34 -211.5l-21 -131q-3 -21 -24 -21q-20 0 -17 25l20 121q21 128 -24 188t-156 60q-52 0 -105 -10.5t-99 -36.5
l-52 -326q-3 -21 -24 -21z" />
    <glyph glyph-name="uni040C" unicode="&#x40c;" horiz-adv-x="611" 
d="M78 -6q-22 0 -17 25l107 673q3 19 24 19q22 0 17 -25l-49 -308h142l270 322q10 11 21.5 10t16.5 -10.5t-7 -24.5l-256 -304q45 -12 78.5 -45t51.5 -87l72 -218q5 -14 -3.5 -21t-20 -4.5t-16.5 16.5l-64 198q-22 70 -60.5 99.5t-97.5 29.5h-133l-51 -320q-5 -25 -25 -25z
M421 768q-7 -8 -16 -7t-12.5 8.5t2.5 15.5l112 145q11 14 23.5 12.5t18.5 -11.5t-5 -23z" />
    <glyph glyph-name="uni040D" unicode="&#x40d;" horiz-adv-x="732" 
d="M76 -8q-19 0 -16 19l108 680q3 20 23 20q18 0 15 -24l-97 -611l559 622q12 13 23 13q18 0 15 -21l-107 -676q-3 -20 -22 -20t-16 24l97 613l-561 -626q-7 -7 -10.5 -10t-10.5 -3zM427 769l-99 138q-10 14 -3 24t20 11.5t22 -13.5l88 -143q6 -9 1 -16.5t-13.5 -8.5
t-15.5 8z" />
    <glyph glyph-name="uni040E" unicode="&#x40e;" horiz-adv-x="628" 
d="M202 -6q-10 0 -16 9t3 22l126 188l-222 471q-5 11 0.5 19t16.5 8q9 0 14 -4.5t9 -14.5l208 -442l303 449q5 7 11 9.5t11 2.5q11 0 16.5 -9t-3.5 -22l-455 -674q-4 -7 -10.5 -9.5t-11.5 -2.5zM382 760q-49 0 -96 24.5t-70 82.5q-9 21 8 29q16 7 27 -16q20 -42 51 -63
t80 -21q53 0 90 21t71 73q9 13 23 7q17 -7 3 -30q-37 -63 -87 -85t-100 -22z" />
    <glyph glyph-name="uni040F" unicode="&#x40f;" horiz-adv-x="746" 
d="M310 -156q-19 0 -16 25l21 131h-231q-27 0 -22 27l105 662q3 22 24 22q23 0 18 -26l-102 -646h469l103 650q3 22 24 22q22 0 17 -26l-105 -662q-4 -23 -27 -23h-233l-22 -135q-3 -21 -23 -21z" />
    <glyph glyph-name="uni0410" unicode="&#x410;" horiz-adv-x="716" 
d="M29 -6q-12 0 -18 9.5t2 23.5l394 669q8 15 26 15q17 0 22 -16l180 -666q5 -19 0 -27t-15 -8q-19 0 -24 22l-48 179h-387l-109 -185q-9 -16 -23 -16zM425 648l-241 -414h353l-110 414h-2z" />
    <glyph glyph-name="uni0411" unicode="&#x411;" horiz-adv-x="649" 
d="M85 0q-28 0 -23 27l104 655q4 23 27 23h380q22 0 22 -16q0 -23 -24 -23h-365l-46 -287h219q103 0 155.5 -46t52.5 -124q0 -104 -62 -156.5t-180 -52.5h-260zM106 39h243q194 0 194 169q0 65 -42.5 98.5t-122.5 33.5h-224z" />
    <glyph glyph-name="uni0412" unicode="&#x412;" horiz-adv-x="666" 
d="M85 0q-28 0 -23 27l104 655q3 23 27 23h224q104 0 156 -43.5t52 -120.5q0 -72 -40 -120.5t-109 -65.5q52 -16 82 -55t30 -93q0 -103 -62 -155t-180 -52h-261zM160 376h227q89 0 141.5 42.5t52.5 121.5q0 126 -167 126h-208zM107 39h243q194 0 194 167q0 65 -42.5 98
t-122.5 33h-225z" />
    <glyph glyph-name="uni0413" unicode="&#x413;" horiz-adv-x="527" 
d="M79 -6q-23 0 -18 26l105 662q4 23 27 23h380q22 0 22 -16q0 -23 -24 -23h-365l-103 -650q-3 -22 -24 -22z" />
    <glyph glyph-name="uni0414" unicode="&#x414;" horiz-adv-x="760" 
d="M-24 -156q-19 0 -16 25l23 147q3 23 27 23h45q67 66 112 184.5t74 301.5l25 157q3 23 27 23h390q28 0 23 -27l-101 -639h73q28 0 23 -27l-24 -147q-3 -21 -23 -21q-19 0 -16 25l21 131h-638l-22 -135q-3 -21 -23 -21zM107 39h456l99 627h-358l-22 -141
q-28 -181 -70.5 -300.5t-104.5 -185.5z" />
    <glyph glyph-name="uni0415" unicode="&#x415;" horiz-adv-x="570" 
d="M85 0q-28 0 -23 27l104 655q4 23 27 23h383q21 0 21 -15q0 -13 -7 -18.5t-16 -5.5h-368l-46 -289h344q21 0 21 -15q0 -13 -7 -18.5t-16 -5.5h-349l-47 -299h364q21 0 21 -15q0 -13 -7 -18.5t-16 -5.5h-383z" />
    <glyph glyph-name="uni0416" unicode="&#x416;" horiz-adv-x="928" 
d="M424 -6q-20 0 -17 25l51 320h-102q-61 0 -106.5 -30t-89.5 -99l-130 -203q-8 -12 -20 -12.5t-18 8.5t4 24l136 212q74 117 172 134l-162 310q-7 13 0 20.5t18.5 7.5t17.5 -13l167 -320h119l50 312q3 21 24 21q20 0 17 -25l-49 -308h113l270 322q9 12 21 10.5t17 -11
t-7 -24.5l-256 -304q45 -12 78.5 -45t51.5 -87l72 -218q5 -14 -3.5 -21t-20 -4.5t-16.5 16.5l-64 198q-22 70 -60.5 99.5t-97.5 29.5h-104l-52 -324q-3 -21 -24 -21z" />
    <glyph glyph-name="uni0417" unicode="&#x417;" horiz-adv-x="645" 
d="M306 -8q-84 0 -148 19.5t-117 62.5q-12 10 -10.5 22.5t12 17.5t24.5 -6q54 -43 112 -59t132 -16q57 0 105 16t77 53.5t29 101.5q0 66 -42 99.5t-122 33.5h-152q-25 0 -22 20q3 19 24 19h157q89 0 141.5 43t52.5 124q0 46 -24 74t-64 41.5t-89 13.5q-62 0 -121 -18
t-109 -56q-15 -11 -25 -6t-11 17t10 21q55 41 122 62t134 21q60 0 110 -18t80.5 -55t30.5 -95q0 -75 -40 -124t-109 -66q52 -16 82 -55.5t30 -96.5q0 -76 -35.5 -122.5t-94.5 -67.5t-130 -21z" />
    <glyph glyph-name="uni0418" unicode="&#x418;" horiz-adv-x="732" 
d="M76 -8q-19 0 -16 19l108 680q3 20 23 20q18 0 15 -24l-97 -611l559 622q12 13 23 13q18 0 15 -21l-107 -676q-3 -20 -22 -20t-16 24l97 613l-561 -626q-7 -7 -10.5 -10t-10.5 -3z" />
    <glyph glyph-name="uni0419" unicode="&#x419;" horiz-adv-x="732" 
d="M76 -8q-19 0 -16 19l108 680q3 20 23 20q18 0 15 -24l-97 -611l559 622q12 13 23 13q18 0 15 -21l-107 -676q-3 -20 -22 -20t-16 24l97 613l-561 -626q-7 -7 -10.5 -10t-10.5 -3zM443 760q-49 0 -96 24.5t-70 82.5q-9 21 8 29q16 7 27 -16q20 -42 51 -63t80 -21
q53 0 90 21t71 73q9 13 23 7q17 -7 3 -30q-37 -63 -87 -85t-100 -22z" />
    <glyph glyph-name="uni041A" unicode="&#x41a;" horiz-adv-x="611" 
d="M78 -6q-22 0 -17 25l107 673q3 19 24 19q22 0 17 -25l-49 -308h142l270 322q10 11 21.5 10t16.5 -10.5t-7 -24.5l-256 -304q45 -12 78.5 -45t51.5 -87l72 -218q5 -14 -3.5 -21t-20 -4.5t-16.5 16.5l-64 198q-22 70 -60.5 99.5t-97.5 29.5h-133l-51 -320q-5 -25 -25 -25z
" />
    <glyph glyph-name="uni041B" unicode="&#x41b;" horiz-adv-x="731" 
d="M574 -6q-22 0 -17 26l102 646h-357l-32 -201q-18 -113 -42 -192t-54.5 -132t-69.5 -87.5t-87 -58.5q-22 -11 -29 10q-6 18 14 28q37 18 70.5 45.5t62.5 75t53.5 125.5t43.5 196l32 204q3 26 27 26h389q28 0 23 -27l-105 -662q-3 -22 -24 -22z" />
    <glyph glyph-name="uni041C" unicode="&#x41c;" horiz-adv-x="844" 
d="M82 0q-21 0 -18 23l106 668q3 20 21 20q15 0 21 -18l195 -540l371 544q9 14 23 14q19 0 16 -24l-106 -668q-3 -19 -20 -19q-21 0 -18 23l94 594l-342 -500q-9 -13 -22 -13q-16 0 -22 18l-183 506l-96 -609q-3 -19 -20 -19z" />
    <glyph glyph-name="uni041D" unicode="&#x41d;" horiz-adv-x="751" 
d="M78 -6q-22 0 -17 26l106 669q3 22 23 22q23 0 18 -26l-48 -308h474l50 312q3 22 23 22q23 0 18 -26l-106 -669q-3 -22 -23 -22q-23 0 -18 26l50 318h-474l-52 -322q-3 -22 -24 -22z" />
    <glyph glyph-name="uni041E" unicode="&#x41e;" horiz-adv-x="751" 
d="M357 -8q-126 0 -200.5 76t-74.5 221q0 89 22 166t66 135t109 90.5t150 32.5q126 0 200.5 -76t74.5 -221q0 -89 -22 -166t-66 -135t-108.5 -90.5t-150.5 -32.5zM359 33q98 0 164.5 50.5t101 137.5t34.5 195q0 130 -61.5 193t-171.5 63q-97 0 -163.5 -50.5t-101 -137
t-34.5 -195.5q0 -130 61.5 -193t170.5 -63z" />
    <glyph glyph-name="uni041F" unicode="&#x41f;" horiz-adv-x="746" 
d="M78 -6q-22 0 -17 26l105 662q4 23 27 23h503q28 0 23 -27l-105 -662q-3 -22 -24 -22q-22 0 -17 26l102 646h-469l-104 -650q-3 -22 -24 -22z" />
    <glyph glyph-name="uni0420" unicode="&#x420;" horiz-adv-x="616" 
d="M81 -6q-23 0 -20 24l106 667q3 20 23 20h217q100 0 157 -45.5t57 -138.5q0 -101 -64.5 -162.5t-186.5 -61.5h-223l-45 -283q-3 -20 -21 -20zM154 336h220q99 0 151 47t52 137q0 76 -43.5 111t-126.5 35h-201z" />
    <glyph glyph-name="uni0421" unicode="&#x421;" horiz-adv-x="667" 
d="M373 -8q-87 0 -152.5 33.5t-101.5 102.5t-36 177q0 87 24.5 161.5t70.5 129.5t110.5 86t144.5 31q67 0 123 -22t96 -62q11 -10 7.5 -22t-14 -16.5t-22.5 7.5q-39 39 -86 56.5t-107 17.5q-92 0 -160 -47.5t-105 -130.5t-37 -190q0 -97 30.5 -157t86 -87t131.5 -27
q54 0 99.5 17t88.5 57q12 11 22.5 6.5t13.5 -16t-9 -22.5q-48 -43 -100.5 -63t-117.5 -20z" />
    <glyph glyph-name="uni0422" unicode="&#x422;" horiz-adv-x="586" 
d="M254 -6q-22 0 -17 25l102 647h-250q-22 0 -22 17q0 22 24 22h546q22 0 22 -16q0 -23 -24 -23h-254l-103 -651q-3 -21 -24 -21z" />
    <glyph glyph-name="uni0423" unicode="&#x423;" horiz-adv-x="628" 
d="M202 -6q-10 0 -16 9t3 22l126 188l-222 471q-5 11 0.5 19t16.5 8q9 0 14 -4.5t9 -14.5l208 -442l303 449q5 7 11 9.5t11 2.5q11 0 16.5 -9t-3.5 -22l-455 -674q-4 -7 -10.5 -9.5t-11.5 -2.5z" />
    <glyph glyph-name="uni0424" unicode="&#x424;" horiz-adv-x="810" 
d="M362 -26q-22 0 -17 25l10 58q-81 3 -142.5 35.5t-96 90t-34.5 134.5q0 64 24.5 124.5t70 109.5t110 78t143.5 29h19l10 58q3 20 23 20q9 0 14.5 -5.5t3.5 -18.5l-9 -54q81 -3 143 -35.5t96.5 -90t34.5 -134.5q0 -64 -24.5 -124.5t-70 -109.5t-109.5 -78t-144 -29h-20
l-10 -59q-4 -24 -25 -24zM127 316q0 -102 64 -159t169 -61l83 523h-16q-69 0 -124 -25.5t-94.5 -68.5t-60.5 -97.5t-21 -111.5zM720 399q0 103 -64.5 160t-170.5 60l-83 -523h18q69 0 124 25.5t94.5 68.5t60.5 97.5t21 111.5z" />
    <glyph glyph-name="uni0425" unicode="&#x425;" horiz-adv-x="631" 
d="M21 -6q-10 0 -16 10t5 23l301 337l-181 314q-8 14 -3.5 23.5t17.5 9.5q9 0 13.5 -4t8.5 -12l173 -301l269 305q11 12 24 12q11 0 16.5 -10t-5.5 -23l-282 -318l192 -333q8 -14 3.5 -23.5t-17.5 -9.5q-9 0 -13 4.5t-9 11.5l-185 319l-288 -323q-10 -12 -23 -12z" />
    <glyph glyph-name="uni0426" unicode="&#x426;" horiz-adv-x="773" 
d="M667 -156q-19 0 -16 25l21 131h-587q-28 0 -23 27l106 662q3 22 24 22q22 0 17 -26l-102 -646h469l103 650q3 22 24 22q22 0 17 -26l-102 -646h73q28 0 23 -27l-24 -147q-3 -21 -23 -21z" />
    <glyph glyph-name="uni0427" unicode="&#x427;" horiz-adv-x="657" 
d="M500 -6q-20 0 -17 25l47 299q-39 -21 -91.5 -31.5t-104.5 -10.5q-130 0 -187 71.5t-35 211.5l21 131q3 21 24 21q22 0 17 -25l-20 -121q-21 -127 24 -187.5t156 -60.5q52 0 105 10.5t99 36.5l52 326q3 21 24 21q20 0 17 -25l-107 -671q-3 -21 -24 -21z" />
    <glyph glyph-name="uni0428" unicode="&#x428;" horiz-adv-x="1038" 
d="M85 0q-27 0 -22 27l105 662q3 22 24 22q22 0 17 -26l-102 -646h360l103 650q3 22 24 22q22 0 17 -26l-102 -646h359l103 650q3 22 24 22q22 0 17 -26l-105 -662q-4 -23 -27 -23h-795z" />
    <glyph glyph-name="uni0429" unicode="&#x429;" horiz-adv-x="1064" 
d="M958 -156q-19 0 -16 25l21 131h-878q-27 0 -22 27l105 662q3 22 24 22q22 0 17 -26l-102 -646h360l103 650q3 22 24 22q22 0 17 -26l-102 -646h360l103 650q3 22 24 22q22 0 17 -26l-102 -646h71q28 0 23 -27l-24 -147q-3 -21 -23 -21z" />
    <glyph glyph-name="uni042A" unicode="&#x42a;" horiz-adv-x="776" 
d="M212 0q-28 0 -23 27l102 639h-197q-24 0 -21 20q3 19 23 19h216q13 0 18.5 -8t3.5 -21l-47 -297h218q103 0 155.5 -46t52.5 -124q0 -104 -62 -156.5t-180 -52.5h-259zM233 39h242q194 0 194 169q0 65 -42.5 98.5t-122.5 33.5h-223z" />
    <glyph glyph-name="uni042B" unicode="&#x42b;" horiz-adv-x="813" 
d="M85 0q-28 0 -23 27l105 662q3 22 24 22q10 0 14.5 -8t2.5 -20l-48 -304h191q103 0 155.5 -46t52.5 -124q0 -104 -62 -156.5t-180 -52.5h-232zM656 -6q-22 0 -17 26l106 669q3 22 24 22q22 0 17 -26l-106 -669q-3 -22 -24 -22zM106 39h215q194 0 194 169q0 65 -42.5 98.5
t-122.5 33.5h-196z" />
    <glyph glyph-name="uni042C" unicode="&#x42c;" horiz-adv-x="649" 
d="M85 0q-28 0 -23 27l105 662q3 22 24 22q10 0 14.5 -7.5t2.5 -19.5l-48 -305h219q103 0 155.5 -46t52.5 -124q0 -104 -62 -156.5t-180 -52.5h-260zM106 39h243q194 0 194 169q0 65 -42.5 98.5t-122.5 33.5h-224z" />
    <glyph glyph-name="uni042D" unicode="&#x42d;" horiz-adv-x="667" 
d="M268 -8q-137 0 -221 87q-10 11 -7 22.5t14.5 15.5t23.5 -9q39 -39 86.5 -57t106.5 -18q84 0 147.5 38.5t103 107.5t49.5 159h-365q-26 0 -23 19q3 20 25 20h365q4 88 -17.5 154.5t-75 103.5t-144.5 37q-54 0 -103 -16.5t-98 -60.5q-12 -11 -22.5 -6.5t-13 16.5t8.5 22
q48 44 104.5 65t126.5 21q85 0 147.5 -33t97.5 -102.5t35 -177.5q0 -87 -24.5 -161.5t-70.5 -129.5t-110.5 -86t-145.5 -31z" />
    <glyph glyph-name="uni042E" unicode="&#x42e;" horiz-adv-x="984" 
d="M590 -8q-99 0 -162.5 44t-91.5 122t-19 180h-163l-51 -322q-3 -22 -24 -22q-22 0 -17 26l106 669q3 22 23 22q23 0 18 -26l-49 -308h161q13 97 55.5 173t114.5 119.5t171 43.5q126 0 200.5 -76t74.5 -221q0 -89 -22 -166t-66 -135t-108.5 -90.5t-150.5 -32.5zM592 33
q98 0 164.5 50.5t101 137.5t34.5 195q0 130 -61.5 193t-171.5 63q-97 0 -163.5 -50.5t-101 -137t-34.5 -195.5q0 -130 61.5 -193t170.5 -63z" />
    <glyph glyph-name="uni042F" unicode="&#x42f;" horiz-adv-x="654" 
d="M497 -6q-22 0 -17 25l47 293h-147q-39 0 -67.5 -7t-51.5 -25.5t-47 -53.5l-153 -222q-8 -12 -19 -10.5t-16.5 11t2.5 21.5l150 216q23 34 43 53.5t44 26.5q-76 15 -113.5 61.5t-37.5 117.5q0 68 32.5 113t88.5 68t127 23h242q28 0 23 -27l-106 -665q-3 -19 -24 -19z
M334 351h199l50 315h-231q-91 0 -142.5 -44t-51.5 -124q0 -73 42.5 -110t133.5 -37z" />
    <glyph glyph-name="uni0430" unicode="&#x430;" horiz-adv-x="520" 
d="M208 -8q-40 0 -76 17.5t-58 49.5t-22 75q0 76 65 108.5t210 32.5h71l6 40q11 68 -15.5 103t-96.5 35q-40 0 -75.5 -8t-67.5 -31q-14 -10 -24 -4.5t-10.5 17.5t14.5 21q35 23 78 33.5t87 10.5q88 0 126 -50t24 -140l-46 -287q-3 -21 -23 -21t-17 25l9 61
q-25 -45 -69 -66.5t-90 -21.5zM211 30q40 0 76.5 19t62.5 55t34 87l8 47h-49q-93 0 -146 -9.5t-75.5 -32t-22.5 -60.5q0 -52 34.5 -79t77.5 -27z" />
    <glyph glyph-name="uni0431" unicode="&#x431;" horiz-adv-x="544" 
d="M248 -8q-71 0 -117.5 35.5t-65 96.5t-6.5 138l12 77q16 98 41.5 161.5t72.5 102.5t128 62l165 48q22 6 28 -11q6 -21 -16 -28l-185 -52q-85 -24 -125 -83t-57 -140q30 43 77 68t100 25q86 0 138 -55t52 -153q0 -77 -28 -143.5t-81.5 -107.5t-132.5 -41zM250 31
q64 0 108 35t66.5 93t22.5 127q0 83 -40.5 125t-112.5 42q-64 0 -108 -34t-66.5 -87.5t-22.5 -113.5q0 -97 40.5 -142t112.5 -45z" />
    <glyph glyph-name="uni0432" unicode="&#x432;" horiz-adv-x="528" 
d="M77 0q-28 0 -23 27l69 434q4 23 27 23h182q71 0 107.5 -28.5t36.5 -79.5q0 -53 -27.5 -85t-71.5 -44q35 -10 57.5 -36.5t22.5 -66.5q0 -70 -46 -107t-144 -37h-190zM134 264h176q56 0 89.5 28.5t33.5 80.5q0 36 -25.5 55.5t-73.5 19.5h-171zM98 36h179q73 0 105 27.5
t32 79.5q0 42 -27 63.5t-77 21.5h-182z" />
    <glyph glyph-name="uni0433" unicode="&#x433;" horiz-adv-x="415" 
d="M70 -6q-22 0 -17 27l70 440q4 23 27 23h272q21 0 21 -15q0 -22 -23 -22h-257l-68 -430q-4 -23 -25 -23z" />
    <glyph glyph-name="uni0434" unicode="&#x434;" horiz-adv-x="569" 
d="M-14 -136q-18 0 -15 24l19 125q3 23 27 23h24q48 47 77 121t46 179l19 125q3 23 27 23h262q28 0 23 -27l-67 -421h47q28 0 23 -27l-20 -125q-3 -20 -22 -20q-18 0 -15 24l17 112h-432l-18 -116q-3 -20 -22 -20zM91 36h295l65 412h-229l-17 -112q-14 -94 -43.5 -175
t-70.5 -125z" />
    <glyph glyph-name="uni0435" unicode="&#x435;" horiz-adv-x="529" 
d="M264 -8q-98 0 -154 55.5t-56 152.5q0 77 29 143.5t85 107.5t136 41q72 0 113.5 -33.5t57 -87t6.5 -112.5q-2 -14 -7 -19.5t-18 -5.5h-358q-11 -91 32.5 -147t131.5 -56q42 0 77 10.5t69 35.5q15 11 24.5 6.5t10.5 -16t-13 -22.5q-33 -25 -77.5 -39t-88.5 -14zM303 454
q-62 0 -103 -27t-64 -69t-32 -87h339q6 51 -6 92.5t-45 66t-89 24.5z" />
    <glyph glyph-name="uni0436" unicode="&#x436;" horiz-adv-x="748" 
d="M335 -6q-21 0 -18 24l34 215h-70q-33 0 -56.5 -7t-44 -25t-46.5 -51l-115 -147q-8 -11 -18.5 -8.5t-15 11.5t3.5 19l102 131q30 39 51 60.5t38.5 31.5t36.5 15l-129 197q-7 12 -1.5 21t16 10t18.5 -12l138 -210h98l32 201q3 20 23 20q21 0 18 -24l-31 -197h92l207 213
q10 10 20.5 7.5t14 -12t-6.5 -20.5l-189 -195q32 -11 53 -37t41 -69l62 -134q6 -13 -1 -20.5t-18 -7t-17 12.5l-67 143q-23 50 -49.5 66.5t-70.5 16.5h-77l-35 -219q-3 -20 -23 -20z" />
    <glyph glyph-name="uni0437" unicode="&#x437;" horiz-adv-x="477" 
d="M194 -8q-52 0 -98.5 14t-75.5 41q-10 10 -8 22t12 17t23 -7q29 -26 67 -37t81 -11q77 0 122 25t45 87q0 38 -27.5 61.5t-78.5 23.5h-83q-21 0 -21 15q0 21 23 21h79q55 0 91.5 29t36.5 80q0 37 -30.5 58.5t-88.5 21.5q-44 0 -86 -11t-81 -37q-15 -10 -25 -4.5t-10.5 17.5
t11.5 20q41 28 91.5 41t100.5 13q77 0 119 -32t42 -84q0 -51 -28 -83.5t-71 -45.5q37 -10 58.5 -38.5t21.5 -64.5q0 -82 -58.5 -117t-153.5 -35z" />
    <glyph glyph-name="uni0438" unicode="&#x438;" horiz-adv-x="566" 
d="M69 -6q-20 0 -17 19l73 457q3 20 22 20t16 -24l-63 -399l371 409q5 6 11 10t16 4q19 0 16 -19l-73 -457q-3 -20 -21 -20q-20 0 -17 24l63 399l-371 -409q-5 -6 -11 -10t-15 -4z" />
    <glyph glyph-name="uni0439" unicode="&#x439;" horiz-adv-x="566" 
d="M69 -6q-20 0 -17 19l73 457q3 20 22 20t16 -24l-63 -399l371 409q5 6 11 10t16 4q19 0 16 -19l-73 -457q-3 -20 -21 -20q-20 0 -17 24l63 399l-371 -409q-5 -6 -11 -10t-15 -4zM333 547q-43 0 -86 24.5t-63 82.5q-8 24 9 30t26 -20q15 -42 45 -61.5t70 -19.5
q46 0 77 21.5t58 67.5q11 19 26 12q17 -8 2 -35q-31 -57 -74 -79.5t-90 -22.5z" />
    <glyph glyph-name="uni043A" unicode="&#x43a;" horiz-adv-x="497" 
d="M71 -6q-21 0 -18 24l72 452q3 20 23 20q21 0 18 -24l-31 -197h105l207 213q10 10 20.5 7.5t14 -12t-6.5 -20.5l-189 -195q25 -9 48.5 -33t45.5 -73l62 -134q6 -13 -1 -20.5t-18 -7t-17 12.5l-66 143q-23 50 -49.5 66.5t-70.5 16.5h-91l-35 -219q-3 -20 -23 -20z" />
    <glyph glyph-name="uni043B" unicode="&#x43b;" horiz-adv-x="554" 
d="M406 -6q-21 0 -18 24l68 430h-234l-10 -66q-15 -97 -31.5 -163t-39 -109t-52 -69t-69.5 -44q-13 -6 -21.5 1t-8 17.5t13.5 16.5q35 15 60 39t44.5 63.5t34.5 100t28 148.5l12 78q3 23 27 23h267q28 0 23 -27l-71 -443q-3 -20 -23 -20z" />
    <glyph glyph-name="uni043C" unicode="&#x43c;" horiz-adv-x="636" 
d="M69 -6q-19 0 -16 24l72 454q2 8 5.5 13t12.5 5q16 0 22 -16l135 -348l245 351q5 6 9.5 9.5t13.5 3.5q19 0 16 -20l-73 -456q-3 -20 -22 -20q-18 0 -15 24l59 377l-221 -311q-7 -11 -18 -11q-12 0 -17 14l-125 315l-62 -388q-3 -20 -21 -20z" />
    <glyph glyph-name="uni043D" unicode="&#x43d;" horiz-adv-x="568" 
d="M70 -6q-20 0 -17 24l72 452q3 20 23 20q21 0 18 -24l-31 -197h307l32 201q3 20 23 20q21 0 18 -24l-72 -452q-3 -20 -23 -20q-21 0 -18 24l34 214h-307l-35 -218q-3 -20 -24 -20z" />
    <glyph glyph-name="uni043E" unicode="&#x43e;" horiz-adv-x="544" 
d="M248 -8q-89 0 -141.5 55.5t-52.5 152.5q0 77 28 143.5t82 107.5t132 41q89 0 141.5 -55t52.5 -153q0 -77 -28 -143.5t-81.5 -107.5t-132.5 -41zM250 31q64 0 108 35t66.5 93t22.5 127q0 83 -40.5 125t-112.5 42q-64 0 -108 -35t-66.5 -92.5t-22.5 -127.5
q0 -82 40.5 -124.5t112.5 -42.5z" />
    <glyph glyph-name="uni043F" unicode="&#x43f;" horiz-adv-x="565" 
d="M70 -6q-20 0 -17 24l70 443q4 23 27 23h337q28 0 23 -27l-70 -443q-3 -20 -23 -20q-21 0 -18 24l68 430h-304l-69 -434q-3 -20 -24 -20z" />
    <glyph glyph-name="uni0440" unicode="&#x440;" horiz-adv-x="574" 
d="M41 -186q-22 0 -17 25l100 630q3 21 24 21q22 0 17 -25l-10 -66q27 43 72 68t103 25q86 0 138 -55.5t52 -150.5q0 -78 -27.5 -145t-81.5 -108t-133 -41q-57 0 -103 28t-66 87l-44 -272q-3 -21 -24 -21zM280 31q64 0 108 35t66.5 93t22.5 127q0 83 -40.5 125t-112.5 42
q-64 0 -108 -35t-66.5 -92.5t-22.5 -127.5q0 -82 40.5 -124.5t112.5 -42.5z" />
    <glyph glyph-name="uni0441" unicode="&#x441;" horiz-adv-x="461" 
d="M251 -8q-100 0 -148 58.5t-48 151.5q0 53 14 104.5t43.5 93.5t76 67t111.5 25q39 0 75.5 -12t61.5 -32q16 -12 16 -25t-8.5 -18t-21.5 5q-52 43 -125 43q-53 0 -91 -21.5t-62 -58t-35.5 -81t-11.5 -90.5q0 -78 36.5 -124.5t118.5 -46.5q28 0 58.5 9.5t57.5 30.5
q13 10 22 5t11 -16t-9 -20q-28 -23 -66.5 -35.5t-75.5 -12.5z" />
    <glyph glyph-name="uni0442" unicode="&#x442;" horiz-adv-x="418" 
d="M169 -6q-20 0 -17 24l68 429h-167q-21 0 -21 16q0 21 23 21h380q21 0 21 -15q0 -22 -23 -22h-171l-69 -433q-3 -20 -24 -20z" />
    <glyph glyph-name="uni0443" unicode="&#x443;" horiz-adv-x="510" 
d="M118 -186q-13 0 -16.5 10.5t4.5 24.5l86 148l-122 461q-4 14 1.5 23t18.5 9q10 0 14 -4.5t7 -15.5l108 -426l249 430q9 16 23 16t19 -10.5t-3 -24.5l-366 -624q-9 -17 -23 -17z" />
    <glyph glyph-name="uni0444" unicode="&#x444;" horiz-adv-x="756" 
d="M322 -186q-22 0 -17 25l38 240q-22 -46 -54 -66.5t-76 -20.5q-68 0 -113 55.5t-45 152.5q0 77 23 143.5t66.5 107.5t103.5 41q44 0 76 -23.5t47 -67.5l46 290q3 20 24 20t17 -25l-45 -281q22 46 54 66.5t76 20.5q68 0 113 -55t45 -153q0 -77 -23 -143.5t-66 -107.5
t-104 -41q-44 0 -76 23.5t-47 66.5l-39 -248q-3 -20 -24 -20zM508 30q49 0 82.5 35t51 94t17.5 129q0 46 -14 83.5t-40 60.5t-62 23q-56 0 -89 -35t-47 -93.5t-14 -128.5q0 -82 31.5 -125t83.5 -43zM213 29q56 0 89 35t47 93.5t14 128.5q0 83 -31 125.5t-84 42.5
q-48 0 -82 -35t-51.5 -93.5t-17.5 -129.5q0 -45 14 -83t40 -61t62 -23z" />
    <glyph glyph-name="uni0445" unicode="&#x445;" horiz-adv-x="512" 
d="M29 -6q-13 0 -17 10t3 18l218 228l-132 205q-11 17 -4 26t15 9q14 0 23 -15l127 -198l187 201q6 6 11 9t13 3q14 0 18 -10t-4 -18l-203 -216l140 -217q11 -17 3.5 -26t-15.5 -9q-14 0 -23 15l-134 210l-202 -213q-12 -12 -24 -12z" />
    <glyph glyph-name="uni0446" unicode="&#x446;" horiz-adv-x="575" 
d="M462 -136q-19 0 -16 23l18 113h-387q-28 0 -23 27l70 442q3 21 25 21t17 -25l-68 -429h294l69 433q3 21 24 21q22 0 17 -25l-68 -429h47q28 0 23 -27l-20 -126q-3 -19 -22 -19z" />
    <glyph glyph-name="uni0447" unicode="&#x447;" horiz-adv-x="532" 
d="M383 -6q-22 0 -17 25l31 195q-32 -20 -66.5 -30.5t-76.5 -10.5q-97 0 -140 48.5t-28 142.5l17 105q3 21 24 21q20 0 17 -25l-16 -100q-13 -79 18 -116t109 -37q44 0 78.5 10t70.5 33l34 214q3 21 24 21q22 0 17 -25l-72 -450q-3 -21 -24 -21z" />
    <glyph glyph-name="uni0448" unicode="&#x448;" horiz-adv-x="770" 
d="M77 0q-28 0 -23 27l70 442q3 21 25 21t17 -25l-68 -429h234l69 433q3 21 24 21q22 0 17 -25l-68 -429h233l69 433q3 21 24 21q20 0 17 -25l-70 -442q-4 -23 -27 -23h-543z" />
    <glyph glyph-name="uni0449" unicode="&#x449;" horiz-adv-x="790" 
d="M677 -136q-19 0 -16 23l18 113h-603q-28 0 -23 27l71 442q3 21 24 21q20 0 17 -25l-68 -429h234l69 433q3 21 24 21q20 0 17 -25l-68 -429h234l69 433q3 21 24 21q22 0 17 -25l-68 -429h47q28 0 23 -27l-20 -126q-3 -19 -22 -19z" />
    <glyph glyph-name="uni044A" unicode="&#x44a;" horiz-adv-x="598" 
d="M151 0q-28 0 -23 27l67 420h-143q-23 0 -20 19q3 18 22 18h162q28 0 23 -27l-25 -157h160q79 0 121 -37.5t42 -103.5q0 -73 -49 -116t-140 -43h-197zM172 36h174q74 0 110.5 32t36.5 90q0 56 -32.5 81t-92.5 25h-160z" />
    <glyph glyph-name="uni044B" unicode="&#x44b;" horiz-adv-x="689" 
d="M77 0q-28 0 -23 27l71 442q3 21 24 21q22 0 17 -25l-26 -165h159q79 0 121 -37.5t42 -103.5q0 -73 -49 -116t-140 -43h-196zM541 -6q-22 0 -17 25l71 450q3 21 24 21q22 0 17 -25l-71 -450q-3 -21 -24 -21zM98 36h173q74 0 110.5 32t36.5 90q0 56 -32.5 81t-92.5 25h-159
z" />
    <glyph glyph-name="uni044C" unicode="&#x44c;" horiz-adv-x="523" 
d="M77 0q-28 0 -23 27l71 442q3 21 24 21q22 0 17 -25l-26 -165h159q79 0 121 -37.5t42 -103.5q0 -73 -49 -116t-140 -43h-196zM98 36h173q74 0 110.5 32t36.5 90q0 56 -32.5 81t-92.5 25h-159z" />
    <glyph glyph-name="uni044D" unicode="&#x44d;" horiz-adv-x="471" 
d="M171 -8q-44 0 -85.5 14.5t-68.5 40.5q-11 11 -9 21.5t11.5 14t22.5 -7.5q49 -44 131 -44q61 0 102 28t64 73.5t30 97.5h-241q-21 0 -21 15q0 21 23 21h243q3 84 -32.5 135.5t-122.5 51.5q-31 0 -63 -10t-61 -31q-15 -11 -24.5 -5.5t-10 17t9.5 18.5q67 50 154 50
q98 0 145.5 -58.5t47.5 -151.5q0 -53 -14 -104.5t-43.5 -93.5t-76 -67t-111.5 -25z" />
    <glyph glyph-name="uni044E" unicode="&#x44e;" horiz-adv-x="727" 
d="M431 -8q-69 0 -114 31.5t-65 86t-14 123.5h-110l-35 -219q-3 -20 -23 -20t-17 24l72 452q3 20 23 20t17 -24l-31 -197h109q11 62 41.5 112.5t79.5 80.5t115 30q89 0 141.5 -55t52.5 -153q0 -77 -28 -143.5t-81.5 -107.5t-132.5 -41zM433 31q64 0 108 35t66.5 93t22.5 127
q0 83 -40.5 125t-112.5 42q-64 0 -108 -35t-66.5 -92.5t-22.5 -127.5q0 -82 40.5 -124.5t112.5 -42.5z" />
    <glyph glyph-name="uni044F" unicode="&#x44f;" horiz-adv-x="520" 
d="M373 -6q-21 0 -18 24l29 182h-92q-49 0 -85.5 -23t-61.5 -59l-78 -112q-9 -13 -21 -12t-17.5 11.5t3.5 22.5l74 106q40 56 92 71q-53 8 -83 42.5t-30 88.5q0 62 46 105t131 43h182q28 0 23 -27l-71 -443q-3 -20 -23 -20zM243 237h147l33 211h-159q-68 0 -102 -30t-34 -83
q0 -51 30 -74.5t85 -23.5z" />
    </font>
</defs>
</svg>
