<?xml version="1.0" standalone="no"?>
<!DOCTYPE svg PUBLIC "-//W3C//DTD SVG 1.1//EN" "http://www.w3.org/Graphics/SVG/1.1/DTD/svg11.dtd" >
<svg xmlns="http://www.w3.org/2000/svg" xmlns:xlink="http://www.w3.org/1999/xlink" version="1.1">
<metadata>
Created by FontForge 20170731 at Tue Nov 24 12:50:54 2020
 By Aleksey,,,
Copyright 2014 The Nunito Project Authors (https://github.com/googlefonts/nunito)
</metadata>
<defs>
<font id="Nunito-SemiBold" horiz-adv-x="0" >
  <font-face 
    font-family="Nunito SemiBold"
    font-weight="600"
    font-stretch="normal"
    units-per-em="1000"
    panose-1="0 0 0 0 0 0 0 0 0 0"
    ascent="800"
    descent="-200"
    x-height="488"
    cap-height="705"
    bbox="-251.333 -277 1318 1050"
    underline-thickness="39"
    underline-position="-141"
    unicode-range="U+000D-FB02"
  />
<missing-glyph horiz-adv-x="500" 
d="M50 -180v885h400v-885h-400zM100 -130h300v785h-300v-785z" />
    <glyph glyph-name="fi" unicode="fi" horiz-adv-x="582" 
d="M463 597q-61 0 -61 57t61 57t61 -57t-61 -57zM151 -7q-51 0 -51 51v366h-56q-41 0 -41 39t41 39h56v9q0 97 48 148t141 60l30 2q23 3 34 -8t12 -26.5t-7 -27.5t-23 -14l-27 -2q-56 -4 -81.5 -33t-25.5 -85v-23h260q51 0 51 -54v-385q0 -55 -51 -55q-50 0 -50 55v361h-210
v-366q0 -51 -50 -51z" />
    <glyph glyph-name="fl" unicode="fl" horiz-adv-x="654" 
d="M151 -7q-51 0 -51 51v366h-56q-41 0 -41 39t41 39h56v9q0 99 49 149.5t143 59.5l31 2q21 2 31.5 -8.5t10.5 -26t-8 -27.5t-24 -14l-19 -1q-59 -4 -86 -33t-27 -87v-23h97q42 0 42 -39t-42 -39h-97v-366q0 -51 -50 -51zM575 -9q-78 0 -117.5 45t-39.5 132v493q0 51 50 51
q51 0 51 -51v-487q0 -99 80 -99q9 0 16 1t14 1q12 1 17 -6.5t5 -30.5q0 -41 -38 -47q-10 -1 -19.5 -1.5t-18.5 -0.5z" />
    <glyph glyph-name=".notdef" horiz-adv-x="500" 
d="M50 -180v885h400v-885h-400zM100 -130h300v785h-300v-785z" />
    <glyph glyph-name=".null" 
 />
    <glyph glyph-name="nonmarkingreturn" horiz-adv-x="333" 
 />
    <glyph glyph-name="NULL" 
 />
    <glyph glyph-name="NULL" 
 />
    <glyph glyph-name="CR" unicode="&#xd;" horiz-adv-x="264" 
 />
    <glyph glyph-name="space" unicode=" " horiz-adv-x="264" 
 />
    <glyph glyph-name="exclam" unicode="!" horiz-adv-x="237" 
d="M120 190q-33 0 -35 38l-24 418q-2 30 13.5 48t45.5 18q29 0 44 -18t12 -48l-24 -418q-2 -38 -32 -38zM120 -4q-30 0 -47.5 18t-17.5 46t17.5 45.5t47.5 17.5q29 0 46 -17.5t17 -45.5t-17 -46t-46 -18z" />
    <glyph glyph-name="quotedbl" unicode="&#x22;" horiz-adv-x="417" 
d="M116 415q-14 0 -25 10t-13 29l-16 199q-3 25 13 42t41 17t40.5 -16.5t12.5 -42.5l-16 -199q-1 -19 -11.5 -29t-25.5 -10zM302 415q-14 0 -25 10t-13 29l-16 199q-3 25 13 42t41 17t40.5 -16.5t12.5 -42.5l-16 -199q-1 -19 -11.5 -29t-25.5 -10z" />
    <glyph glyph-name="numbersign" unicode="#" horiz-adv-x="600" 
d="M123 -7q-20 0 -27 12t-3 32l26 140h-42q-41 0 -41 35q0 34 41 34h55l44 221h-79q-41 0 -41 35q0 34 41 34h91l28 140q7 36 43 36q37 0 29 -44l-26 -132h144l28 140q7 36 43 36q37 0 29 -44l-26 -132h43q41 0 41 -34q0 -35 -41 -35h-56l-43 -221h79q41 0 41 -34
q0 -35 -41 -35h-91l-30 -148q-7 -36 -42 -36q-18 0 -26 11.5t-4 32.5l28 140h-144l-29 -148q-7 -36 -42 -36zM207 246h143l43 221h-143z" />
    <glyph glyph-name="dollar" unicode="$" horiz-adv-x="600" 
d="M310 -122q-18 0 -29.5 12t-11.5 29v76q-63 4 -114 20.5t-86 40.5q-18 11 -22.5 29.5t3 34.5t23 22t36.5 -7q31 -20 77.5 -36t113.5 -16q81 0 118.5 30.5t37.5 77.5q0 39 -27 62.5t-91 37.5l-103 22q-180 39 -180 187q0 57 26.5 101t74.5 72t113 35v78q0 17 11.5 29
t29.5 12q17 0 29 -12t12 -29v-78q43 -4 89.5 -21t80.5 -46q15 -13 17 -29t-6 -29.5t-24 -17.5t-37 9q-32 22 -70.5 35t-91.5 13q-70 0 -111 -33t-41 -86q0 -40 25 -64.5t84 -37.5l105 -22q97 -21 142.5 -65.5t45.5 -116.5q0 -83 -58 -135.5t-150 -63.5v-79q0 -17 -11.5 -29
t-29.5 -12z" />
    <glyph glyph-name="percent" unicode="%" horiz-adv-x="937" 
d="M313 3q-11 -19 -26.5 -22t-29 4.5t-18.5 23t6 34.5l378 657q11 19 26.5 22.5t29 -4.5t18.5 -23t-6 -34zM224 283q-82 0 -128 57.5t-46 158.5t46.5 158t127.5 57t127.5 -57t46.5 -158t-46 -158.5t-128 -57.5zM224 354q42 0 65.5 36t23.5 109t-23.5 109t-65.5 36t-65.5 -36
t-23.5 -109q0 -74 23.5 -109.5t65.5 -35.5zM713 -9q-81 0 -127 57t-46 159q0 100 46 157.5t127 57.5q82 0 128 -57.5t46 -157.5q0 -102 -46 -159t-128 -57zM713 61q42 0 65.5 36t23.5 110q0 72 -23.5 108t-65.5 36t-65.5 -35.5t-23.5 -108.5q0 -74 23.5 -110t65.5 -36z" />
    <glyph glyph-name="ampersand" unicode="&#x26;" horiz-adv-x="708" 
d="M293 -9q-109 0 -171 50t-62 133q0 68 37 118t108 94l12 7q-43 45 -60.5 82.5t-17.5 77.5q0 72 50 116.5t133 44.5q75 0 121 -40t46 -108q0 -52 -30.5 -96.5t-105.5 -91.5l151 -166q34 69 44 171q6 42 45 42q45 0 40 -47q-6 -68 -24 -125t-45 -102l87 -92
q23 -23 11.5 -44.5t-40.5 -21.5q-18 0 -29.5 6.5t-24.5 20.5l-58 63q-42 -44 -98 -68t-119 -24zM322 640q-40 0 -64.5 -23.5t-24.5 -61.5q0 -29 13.5 -53t50.5 -66q58 36 82 64t24 62q0 37 -22.5 57.5t-58.5 20.5zM298 72q94 0 155 69l-181 193l-6 -4q-58 -37 -82 -69.5
t-24 -78.5q0 -52 35.5 -81t102.5 -29z" />
    <glyph glyph-name="quotesingle" unicode="'" horiz-adv-x="231" 
d="M116 415q-14 0 -25 10t-13 29l-16 199q-3 25 13 42t41 17t40.5 -16.5t12.5 -42.5l-16 -199q-1 -19 -11.5 -29t-25.5 -10z" />
    <glyph glyph-name="parenleft" unicode="(" horiz-adv-x="336" 
d="M213 -166q-59 100 -85.5 209t-26.5 220t27 219.5t85 209.5q9 15 24 19t29 -2t20.5 -21t-1.5 -38q-39 -98 -57.5 -192.5t-18.5 -194.5t19.5 -194t56.5 -193q8 -23 1.5 -38t-20.5 -21t-29 -2t-24 19z" />
    <glyph glyph-name="parenright" unicode=")" horiz-adv-x="336" 
d="M123 -166q-9 -15 -24 -19t-29.5 2t-21 21t2.5 38q39 98 57.5 192.5t18.5 194.5t-20 194t-56 193q-8 23 -1.5 38t20.5 21t29 2t24 -19q58 -100 85 -209t27 -220t-27.5 -220.5t-84.5 -208.5z" />
    <glyph glyph-name="asterisk" unicode="*" horiz-adv-x="452" 
d="M127 363q-32 20 -9 56l54 83l-97 -4q-20 -2 -32 7.5t-12 26.5t12 26t32 8l97 -5l-53 84q-23 37 9 55q14 9 28.5 2.5t23.5 -25.5l46 -91l46 91q9 19 23.5 25.5t29.5 -2.5q31 -19 7 -56l-53 -83l97 5q21 1 33 -8t12 -26q0 -18 -12 -27t-33 -7l-97 4l53 -83
q11 -17 9.5 -31.5t-16.5 -23.5q-16 -9 -30.5 -2.5t-22.5 24.5l-46 92l-47 -92q-9 -18 -23 -25t-29 2z" />
    <glyph glyph-name="plus" unicode="+" horiz-adv-x="600" 
d="M300 33q-38 0 -38 39v178h-175q-38 0 -38 37t38 37h175v173q0 38 38 38t38 -38v-173h175q38 0 38 -37t-38 -37h-175v-178q0 -39 -38 -39z" />
    <glyph glyph-name="comma" unicode="," horiz-adv-x="237" 
d="M131 -101q-15 -18 -31.5 -16t-22.5 16.5t10 35.5q12 15 18.5 30.5t9.5 30.5q-27 2 -43.5 19.5t-16.5 44.5q0 28 17 45.5t46 17.5q30 0 47.5 -20.5t17.5 -58.5q0 -33 -10.5 -70t-41.5 -75z" />
    <glyph glyph-name="hyphen" unicode="-" horiz-adv-x="429" 
d="M105 226q-18 0 -30 12t-12 29q0 18 12 29.5t30 11.5h220q17 0 29 -11.5t12 -29.5q0 -17 -12 -29t-29 -12h-220z" />
    <glyph glyph-name="period" unicode="." horiz-adv-x="237" 
d="M120 -4q-30 0 -47.5 18t-17.5 46t17.5 45.5t47.5 17.5q29 0 46 -17.5t17 -45.5t-17 -46t-46 -18z" />
    <glyph glyph-name="slash" unicode="/" horiz-adv-x="297" 
d="M70 -32q-7 -20 -21.5 -26.5t-30 -2t-24 18t-2.5 34.5l235 728q6 20 21 26.5t30.5 2t24 -18t2.5 -33.5z" />
    <glyph glyph-name="zero" unicode="0" horiz-adv-x="600" 
d="M300 -9q-123 0 -187.5 93.5t-64.5 268.5q0 178 64.5 269.5t187.5 91.5q124 0 188 -91.5t64 -268.5q0 -176 -64.5 -269.5t-187.5 -93.5zM300 77q76 0 113 67.5t37 209.5q0 143 -36.5 208.5t-113.5 65.5q-76 0 -113 -66t-37 -208t37 -209.5t113 -67.5z" />
    <glyph glyph-name="one" unicode="1" horiz-adv-x="600" 
d="M155 0q-45 0 -45 44q0 43 45 43h122v499l-94 -60q-19 -12 -35.5 -6.5t-25 20.5t-5 32.5t22.5 29.5l138 87q17 10 32.5 16.5t29.5 6.5q17 0 28.5 -10t11.5 -31v-584h112q46 0 46 -43q0 -44 -46 -44h-337z" />
    <glyph glyph-name="two" unicode="2" horiz-adv-x="600" 
d="M131 0q-51 0 -51 47q0 25 27 54l213 228q49 52 70.5 95.5t21.5 87.5q0 114 -134 114q-40 0 -77.5 -12t-73.5 -39q-18 -13 -33.5 -8.5t-24 19.5t-6 32.5t20.5 30.5q41 31 95 48t110 17q109 0 167.5 -50t58.5 -143q0 -63 -30.5 -123t-95.5 -128l-175 -183h291q46 0 46 -43
q0 -44 -46 -44h-374z" />
    <glyph glyph-name="three" unicode="3" horiz-adv-x="600" 
d="M289 -9q-56 0 -114.5 15t-100.5 47q-20 13 -24 31t4 32.5t25 19.5t38 -8q43 -26 84 -37.5t85 -11.5q72 0 109.5 31t37.5 89t-37.5 86t-108.5 28h-68q-47 0 -47 44q0 43 47 43h58q63 0 99.5 32t36.5 88q0 51 -34 78.5t-97 27.5q-42 0 -78 -11t-75 -39q-19 -12 -35 -7.5
t-24.5 19t-5.5 32t22 30.5q42 31 94.5 47.5t109.5 16.5q106 0 165 -48.5t59 -134.5q0 -58 -29.5 -102t-81.5 -64q63 -16 97 -61.5t34 -111.5q0 -93 -65.5 -147t-179.5 -54z" />
    <glyph glyph-name="four" unicode="4" horiz-adv-x="600" 
d="M416 -7q-24 0 -38 13.5t-14 37.5v99h-268q-25 0 -40 11t-15 33q0 14 7 29t23 39l291 423q11 17 25 25.5t32 8.5q21 0 34.5 -12.5t13.5 -38.5v-431h63q47 0 47 -43q0 -44 -47 -44h-63v-99q0 -51 -51 -51zM364 230v314l-215 -314h215z" />
    <glyph glyph-name="five" unicode="5" horiz-adv-x="600" 
d="M311 -9q-56 0 -111.5 15.5t-101.5 48.5q-19 12 -22.5 30t5 32.5t25 20t36.5 -7.5q77 -51 167 -51q69 0 108 37.5t39 98.5q0 63 -37 103t-103 40q-38 0 -71.5 -13.5t-62.5 -44.5q-8 -8 -19.5 -14.5t-24.5 -6.5q-43 0 -43 41v339q0 46 46 46h335q46 0 46 -43q0 -44 -46 -44
h-280v-223q56 49 142 49q67 0 116 -28t76 -78.5t27 -117.5q0 -68 -30 -119.5t-85 -80.5t-131 -29z" />
    <glyph glyph-name="six" unicode="6" horiz-adv-x="600" 
d="M325 -9q-128 0 -197.5 91t-69.5 255q0 181 78 279t216 98q44 0 91.5 -15.5t86.5 -46.5q16 -11 18 -28.5t-6 -32t-23.5 -19.5t-34.5 8q-34 25 -67.5 35.5t-66.5 10.5q-93 0 -142.5 -67.5t-49.5 -201.5v-40q20 61 69.5 95.5t114.5 34.5q62 0 109.5 -29t74.5 -79.5
t27 -115.5q0 -68 -29 -120.5t-80.5 -82t-118.5 -29.5zM319 75q61 0 99 40t38 104t-38 104t-99 40t-99 -40t-38 -104t38 -104t99 -40z" />
    <glyph glyph-name="seven" unicode="7" horiz-adv-x="600" 
d="M170 -7q-28 0 -40.5 19t1.5 48l292 558h-323q-46 0 -46 43q0 44 46 44h393q22 0 35.5 -11.5t13.5 -32.5q0 -18 -4.5 -31t-12.5 -29l-297 -574q-17 -34 -58 -34z" />
    <glyph glyph-name="eight" unicode="8" horiz-adv-x="600" 
d="M300 -9q-121 0 -188.5 52t-67.5 145q0 65 34.5 110.5t90.5 62.5q-50 21 -79 64.5t-29 100.5q0 88 65 138t174 50q110 0 175 -50t65 -138q0 -57 -29.5 -101t-79.5 -64q57 -17 91 -62.5t34 -110.5q0 -93 -67.5 -145t-188.5 -52zM300 398q67 0 104.5 31.5t37.5 86.5
q0 54 -37.5 85t-104.5 31t-104 -31t-37 -85q0 -55 37 -86.5t104 -31.5zM300 73q159 0 159 122q0 121 -159 121q-78 0 -118.5 -30t-40.5 -91q0 -122 159 -122z" />
    <glyph glyph-name="nine" unicode="9" horiz-adv-x="600" 
d="M248 -9q-44 0 -91.5 16t-86.5 46q-16 12 -18 29t6 31.5t23.5 19.5t34.5 -7q34 -25 67.5 -36t66.5 -11q93 0 142.5 67.5t49.5 201.5v40q-20 -61 -69.5 -95.5t-114.5 -34.5q-62 0 -109.5 29t-74.5 79.5t-27 115.5q0 68 29 120.5t80.5 82t118.5 29.5q128 0 197.5 -91
t69.5 -255q0 -181 -78 -279t-216 -98zM282 343q61 0 99 40t38 104t-38 104t-99 40t-99 -40t-38 -104t38 -104t99 -40z" />
    <glyph glyph-name="colon" unicode=":" horiz-adv-x="237" 
d="M120 365q-30 0 -47.5 18t-17.5 45q0 29 17.5 46.5t47.5 17.5q29 0 46 -17.5t17 -46.5q0 -27 -17 -45t-46 -18zM120 -4q-30 0 -47.5 18t-17.5 46t17.5 45.5t47.5 17.5q29 0 46 -17.5t17 -45.5t-17 -46t-46 -18z" />
    <glyph glyph-name="semicolon" unicode=";" horiz-adv-x="237" 
d="M120 365q-30 0 -47.5 18t-17.5 45q0 29 17.5 46.5t47.5 17.5q29 0 46 -17.5t17 -46.5q0 -27 -17 -45t-46 -18zM131 -101q-15 -18 -31.5 -16t-22.5 16.5t10 35.5q12 15 18.5 30.5t9.5 30.5q-27 2 -43.5 19.5t-16.5 44.5q0 28 17 45.5t46 17.5q30 0 47.5 -20.5t17.5 -58.5
q0 -33 -10.5 -70t-41.5 -75z" />
    <glyph glyph-name="less" unicode="&#x3c;" horiz-adv-x="600" 
d="M506 51l-414 182q-39 16 -39 55q0 37 39 53l414 183q18 8 31 1t18 -21t0.5 -28t-22.5 -22l-384 -167l384 -167q18 -8 22.5 -22t-0.5 -28t-18 -20.5t-31 1.5z" />
    <glyph glyph-name="equal" unicode="=" horiz-adv-x="600" 
d="M87 350q-38 0 -38 37t38 37h426q38 0 38 -37t-38 -37h-426zM87 151q-38 0 -38 37q0 36 38 36h426q38 0 38 -36q0 -37 -38 -37h-426z" />
    <glyph glyph-name="greater" unicode="&#x3e;" horiz-adv-x="600" 
d="M95 51q-18 -8 -31 -1.5t-18.5 20.5t-0.5 28t22 22l385 167l-385 167q-17 8 -22 22t0.5 28t18.5 21t31 -1l414 -183q39 -16 39 -53q0 -39 -39 -55z" />
    <glyph glyph-name="question" unicode="?" horiz-adv-x="450" 
d="M215 191q-33 0 -33 38q0 49 18.5 91.5t63.5 94.5q35 40 49 68.5t14 60.5q0 38 -27 60t-76 22q-43 0 -79 -12.5t-70 -35.5q-23 -14 -40.5 -10t-25 18.5t-3 33t26.5 33.5q40 29 93 45t104 16q90 0 145 -44.5t55 -116.5q0 -47 -20.5 -87.5t-71.5 -90.5q-47 -47 -66 -81.5
t-23 -73.5q-3 -29 -34 -29zM214 -4q-30 0 -47.5 18t-17.5 46t17.5 45.5t47.5 17.5q29 0 46 -17.5t17 -45.5t-17 -46t-46 -18z" />
    <glyph glyph-name="at" unicode="@" horiz-adv-x="948" 
d="M485 -164q-127 0 -223.5 53.5t-150 151.5t-53.5 230q0 99 32 180.5t90.5 140.5t140 90.5t179.5 31.5q117 0 204.5 -46t136.5 -129.5t49 -195.5q0 -86 -24 -150t-67 -99t-101 -35q-49 0 -80 23t-39 65q-28 -44 -66.5 -66t-81.5 -22q-79 0 -122.5 49t-43.5 135
q0 73 28 130.5t77 90.5t111 33q92 0 124 -75l6 32q6 37 44 37q19 0 28.5 -11t5.5 -32l-37 -211q-6 -29 -6 -51q0 -64 57 -64q54 0 87 61t33 160q0 94 -39.5 162.5t-112.5 105.5t-172 37q-110 0 -192.5 -46.5t-128.5 -131.5t-46 -199q0 -115 43 -198t122.5 -127t187.5 -44
q71 0 127.5 18t99.5 52q15 12 28.5 9.5t21 -13t5.5 -25t-17 -25.5q-46 -38 -113.5 -60t-151.5 -22zM444 126q41 0 73.5 25.5t51 70t18.5 101.5q0 106 -95 106q-42 0 -74.5 -24t-51 -65.5t-18.5 -95.5q0 -57 25 -87.5t71 -30.5z" />
    <glyph glyph-name="A" unicode="A" horiz-adv-x="736" 
d="M78 -7q-30 0 -41.5 19.5t1.5 47.5l271 608q10 23 25 33.5t35 10.5q18 0 33.5 -10.5t25.5 -33.5l271 -608q13 -29 2.5 -48t-39.5 -19q-22 0 -35 11t-23 34l-58 134h-357l-57 -134q-10 -24 -22 -34.5t-32 -10.5zM367 590l-141 -334h285l-142 334h-2z" />
    <glyph glyph-name="B" unicode="B" horiz-adv-x="682" 
d="M138 0q-56 0 -56 56v593q0 56 56 56h238q110 0 170.5 -48.5t60.5 -135.5q0 -57 -30 -98t-82 -60q61 -16 95 -59t34 -109q0 -94 -62.5 -144.5t-173.5 -50.5h-250zM182 397h178q146 0 146 114t-146 114h-178v-228zM182 80h194q147 0 147 119q0 118 -147 118h-194v-237z" />
    <glyph glyph-name="C" unicode="C" horiz-adv-x="676" 
d="M398 -9q-107 0 -183 44t-116.5 125.5t-40.5 192.5t40.5 192t116.5 125t183 44q59 0 113.5 -16t94.5 -46q22 -14 25.5 -33.5t-6 -35t-27.5 -20.5t-40 10q-34 25 -73.5 37t-83.5 12q-114 0 -174 -70t-60 -199t60 -199.5t174 -70.5q44 0 84.5 12t76.5 38q22 14 39 9.5
t26 -19.5t6 -33.5t-21 -31.5q-42 -33 -97.5 -50t-116.5 -17z" />
    <glyph glyph-name="D" unicode="D" horiz-adv-x="751" 
d="M138 0q-56 0 -56 56v593q0 56 56 56h193q174 0 268.5 -91t94.5 -261t-94.5 -261.5t-268.5 -91.5h-193zM186 87h139q261 0 261 266q0 265 -261 265h-139v-531z" />
    <glyph glyph-name="E" unicode="E" horiz-adv-x="589" 
d="M138 0q-56 0 -56 56v593q0 56 56 56h365q43 0 43 -41q0 -43 -43 -43h-321v-221h299q43 0 43 -42t-43 -42h-299v-232h321q43 0 43 -42t-43 -42h-365z" />
    <glyph glyph-name="F" unicode="F" horiz-adv-x="554" 
d="M137 -7q-55 0 -55 55v601q0 56 56 56h356q43 0 43 -41q0 -43 -43 -43h-308v-225h288q43 0 43 -41q0 -43 -43 -43h-288v-264q0 -55 -49 -55z" />
    <glyph glyph-name="G" unicode="G" horiz-adv-x="731" 
d="M412 -9q-115 0 -194 43.5t-119.5 124.5t-40.5 193q0 111 41 192.5t119 125.5t187 44q60 0 117.5 -15.5t106.5 -50.5q17 -12 19.5 -29.5t-6 -33t-24.5 -21t-36 6.5q-39 27 -82 39.5t-95 12.5q-117 0 -178 -70.5t-61 -200.5q0 -133 62.5 -202t187.5 -69q76 0 151 25v189
h-129q-43 0 -43 40q0 38 43 38h173q43 0 43 -43v-252q0 -38 -28 -49q-43 -17 -101 -27.5t-113 -10.5z" />
    <glyph glyph-name="H" unicode="H" horiz-adv-x="767" 
d="M134 -7q-52 0 -52 53v613q0 53 52 53t52 -53v-258h395v258q0 53 52 53q51 0 51 -53v-613q0 -53 -51 -53q-52 0 -52 53v268h-395v-268q0 -53 -52 -53z" />
    <glyph glyph-name="I" unicode="I" horiz-adv-x="268" 
d="M134 -7q-52 0 -52 53v613q0 53 52 53t52 -53v-613q0 -53 -52 -53z" />
    <glyph glyph-name="J" unicode="J" horiz-adv-x="338" 
d="M36 -6q-23 -2 -36 11.5t-13 33.5q0 15 9.5 27t27.5 13l31 2q98 8 98 112v467q0 52 51 52q52 0 52 -52v-467q0 -91 -47.5 -141t-138.5 -56z" />
    <glyph glyph-name="K" unicode="K" horiz-adv-x="643" 
d="M134 -7q-52 0 -52 53v614q0 52 52 52t52 -52v-272h2l307 297q28 27 59 27q23 0 33.5 -11.5t8.5 -28t-17 -30.5l-292 -278l307 -295q18 -18 19 -35.5t-11 -29t-34 -11.5q-20 0 -32.5 8t-27.5 23l-320 305h-2v-283q0 -53 -52 -53z" />
    <glyph glyph-name="L" unicode="L" horiz-adv-x="552" 
d="M135 0q-53 0 -53 53v603q0 53 52 53t52 -53v-567h310q46 0 46 -44q0 -45 -46 -45h-361z" />
    <glyph glyph-name="M" unicode="M" horiz-adv-x="861" 
d="M132 -7q-48 0 -48 49v621q0 49 48 49q21 0 32.5 -8t21.5 -26l246 -460l246 460q10 18 21.5 26t31.5 8q46 0 46 -49v-621q0 -49 -46 -49q-47 0 -47 49v474l-210 -387q-8 -15 -17 -22t-25 -7q-17 0 -26.5 7.5t-17.5 21.5l-210 386v-473q0 -49 -46 -49z" />
    <glyph glyph-name="N" unicode="N" horiz-adv-x="743" 
d="M131 -7q-49 0 -49 50v617q0 25 12.5 38.5t33.5 13.5q18 0 28 -6.5t22 -23.5l387 -510v491q0 49 48 49t48 -49v-621q0 -23 -11.5 -36t-30.5 -13t-30 7t-24 24l-387 511v-492q0 -50 -47 -50z" />
    <glyph glyph-name="O" unicode="O" horiz-adv-x="775" 
d="M388 -9q-101 0 -175 44.5t-114.5 126t-40.5 191.5q0 111 40.5 192t114.5 125t175 44q100 0 174.5 -44t115 -125t40.5 -191q0 -111 -40.5 -192.5t-115 -126t-174.5 -44.5zM388 81q105 0 163.5 71.5t58.5 200.5t-58 200t-164 71q-105 0 -163.5 -71t-58.5 -200t58.5 -200.5
t163.5 -71.5z" />
    <glyph glyph-name="P" unicode="P" horiz-adv-x="642" 
d="M134 -7q-52 0 -52 53v606q0 53 53 53h239q114 0 176 -56.5t62 -158.5q0 -103 -62 -159.5t-176 -56.5h-188v-228q0 -53 -52 -53zM186 357h173q152 0 152 133q0 132 -152 132h-173v-265z" />
    <glyph glyph-name="Q" unicode="Q" horiz-adv-x="775" 
d="M643 -124q15 -22 9 -40t-23.5 -26.5t-37.5 -4t-34 26.5l-66 107q-32 52 -104 52v0q-100 0 -174 44.5t-114.5 126t-40.5 191.5q0 111 40.5 192t114.5 125t175 44q100 0 174.5 -44t115 -125t40.5 -191q0 -125 -51.5 -212.5t-141.5 -125.5q22 -7 39 -23.5t34 -44.5zM388 81
q105 0 163.5 71.5t58.5 200.5t-58 200t-164 71q-105 0 -163.5 -71t-58.5 -200t58.5 -200.5t163.5 -71.5z" />
    <glyph glyph-name="R" unicode="R" horiz-adv-x="677" 
d="M134 -7q-52 0 -52 53v606q0 53 53 53h239q114 0 176 -54.5t62 -152.5q0 -79 -42 -129.5t-119 -67.5q48 -16 81 -77l86 -160q15 -27 6 -49t-41 -22q-22 0 -36 9t-24 29l-105 194q-21 39 -48.5 52.5t-70.5 13.5h-113v-245q0 -53 -52 -53zM186 369h171q154 0 154 127
q0 126 -154 126h-171v-253z" />
    <glyph glyph-name="S" unicode="S" horiz-adv-x="622" 
d="M317 -9q-69 0 -132.5 16t-110.5 48q-19 13 -23 31.5t3.5 34t23 21.5t35.5 -7q45 -29 95 -42.5t109 -13.5q85 0 125.5 30.5t40.5 79.5q0 40 -29 63.5t-97 37.5l-107 22q-95 20 -141.5 66t-46.5 124q0 63 33.5 111t93.5 74.5t138 26.5q62 0 116.5 -16t97.5 -49
q17 -12 20 -29t-5 -31.5t-24 -19.5t-37 8q-39 26 -80 37.5t-89 11.5q-74 0 -117.5 -33t-43.5 -88q0 -42 27 -67t90 -38l106 -22q100 -21 149 -64.5t49 -117.5q0 -62 -33 -108t-93 -71.5t-143 -25.5z" />
    <glyph glyph-name="T" unicode="T" horiz-adv-x="611" 
d="M306 -7q-52 0 -52 53v572h-212q-45 0 -45 44q0 43 45 43h527q46 0 46 -43q0 -44 -46 -44h-212v-572q0 -53 -51 -53z" />
    <glyph glyph-name="U" unicode="U" horiz-adv-x="733" 
d="M367 -9q-141 0 -215.5 74.5t-74.5 218.5v376q0 52 52 52t52 -52v-374q0 -205 186 -205t186 205v374q0 52 51 52t51 -52v-376q0 -144 -73 -218.5t-215 -74.5z" />
    <glyph glyph-name="V" unicode="V" horiz-adv-x="700" 
d="M350 -7q-42 0 -60 42l-269 609q-13 31 1.5 49.5t41.5 18.5q23 0 35 -10t20 -30l233 -541l232 542q9 19 21.5 29t34.5 10q26 0 38.5 -19t-0.5 -49l-268 -609q-9 -22 -23 -32t-37 -10z" />
    <glyph glyph-name="W" unicode="W" horiz-adv-x="1107" 
d="M319 -7q-42 0 -58 45l-215 613q-9 26 3.5 43.5t41.5 17.5q22 0 34.5 -10t19.5 -32l177 -520l181 518q17 44 53 44q20 0 31.5 -11t20.5 -34l179 -523l181 526q7 21 19.5 31.5t33.5 10.5q26 0 38.5 -17.5t2.5 -43.5l-216 -614q-9 -22 -22 -33t-35 -11q-23 0 -36 11t-21 34
l-178 510l-180 -511q-8 -22 -20.5 -33t-34.5 -11z" />
    <glyph glyph-name="X" unicode="X" horiz-adv-x="660" 
d="M88 -7q-30 0 -43 22.5t6 48.5l221 296l-208 279q-21 27 -8 50t43 23t54 -33l178 -243l176 243q24 33 55 33q30 0 43 -22.5t-8 -50.5l-208 -279l220 -296q19 -26 6.5 -48.5t-43.5 -22.5q-30 0 -55 33l-187 256l-186 -256q-25 -33 -56 -33z" />
    <glyph glyph-name="Y" unicode="Y" horiz-adv-x="606" 
d="M303 -7q-52 0 -52 54v282l-224 312q-16 23 -5.5 47t42.5 24t55 -33l186 -259l186 259q13 18 25 25.5t30 7.5q31 0 41 -22.5t-9 -49.5l-224 -312v-281q0 -54 -51 -54z" />
    <glyph glyph-name="Z" unicode="Z" horiz-adv-x="596" 
d="M95 0q-39 0 -49 30.5t18 68.5l374 519h-351q-47 0 -47 44q0 43 47 43h425q40 0 50 -30t-18 -69l-375 -519h366q47 0 47 -43q0 -44 -47 -44h-440z" />
    <glyph glyph-name="bracketleft" unicode="[" horiz-adv-x="333" 
d="M151 -180q-18 0 -30.5 12t-12.5 31v799q0 19 12.5 31t30.5 12h140q18 0 29 -11t11 -28q0 -16 -11 -27.5t-29 -11.5h-82v-729h82q18 0 29 -11.5t11 -27.5q0 -17 -11 -28t-29 -11h-140z" />
    <glyph glyph-name="backslash" unicode="\" horiz-adv-x="297" 
d="M227 -32l-235 729q-6 20 2.5 33.5t23.5 18t30 -2t22 -26.5l235 -728q6 -21 -2.5 -34.5t-24 -18t-30.5 2t-21 26.5z" />
    <glyph glyph-name="bracketright" unicode="]" horiz-adv-x="333" 
d="M42 -180q-18 0 -29 11t-11 28q0 16 11 27.5t29 11.5h82v729h-82q-18 0 -29 11.5t-11 27.5q0 17 11 28t29 11h140q18 0 30.5 -12t12.5 -31v-799q0 -19 -12.5 -31t-30.5 -12h-140z" />
    <glyph glyph-name="asciicircum" unicode="^" horiz-adv-x="600" 
d="M98 133q-25 0 -33 15t1 37l184 417q14 33 50 33q35 0 50 -33l184 -417q9 -22 1 -37t-33 -15q-14 0 -23 7t-17 24l-162 372l-162 -372q-8 -18 -16.5 -24.5t-23.5 -6.5z" />
    <glyph glyph-name="underscore" unicode="_" horiz-adv-x="500" 
d="M47 -63q-15 0 -24.5 9t-9.5 22t9.5 22.5t24.5 9.5h407q14 0 23.5 -9.5t9.5 -22.5t-9.5 -22t-23.5 -9h-407z" />
    <glyph glyph-name="grave" unicode="`" horiz-adv-x="500" 
d="M212 558l-100 149q-11 17 -5.5 32.5t21 24t32.5 5.5t27 -23l80 -157q9 -18 -1 -31t-27 -14.5t-27 14.5z" />
    <glyph glyph-name="a" unicode="a" horiz-adv-x="537" 
d="M227 -9q-51 0 -91 20t-63.5 54t-23.5 77q0 54 27.5 85t91 45t171.5 14h34v26q0 57 -24 82t-79 25q-32 0 -66.5 -8t-71.5 -27q-21 -10 -34.5 -3t-18.5 22t1 31t25 24q44 20 87 29.5t81 9.5q100 0 148 -47.5t48 -148.5v-257q0 -51 -47 -51q-48 0 -48 51v37q-18 -42 -56 -66
t-91 -24zM247 63q54 0 90 38t36 96v27h-33q-73 0 -114.5 -7t-59 -23.5t-17.5 -45.5q0 -38 26 -61.5t72 -23.5z" />
    <glyph glyph-name="b" unicode="b" horiz-adv-x="591" 
d="M333 -9q-55 0 -98 24.5t-65 66.5v-38q0 -51 -49 -51q-50 0 -50 51v617q0 51 50 51q51 0 51 -51v-252q22 40 64.5 64t96.5 24q65 0 113.5 -31t75 -87.5t26.5 -134.5t-26.5 -135t-75 -87.5t-113.5 -30.5zM308 69q63 0 100.5 45t37.5 130t-37.5 129.5t-100.5 44.5
t-100.5 -44.5t-37.5 -129.5t37.5 -130t100.5 -45z" />
    <glyph glyph-name="c" unicode="c" horiz-adv-x="467" 
d="M286 -9q-75 0 -129.5 31.5t-84.5 89t-30 135.5q0 116 66 183t178 67q35 0 73.5 -10.5t71.5 -34.5q16 -10 18.5 -25.5t-5 -29t-21.5 -18t-32 5.5q-24 17 -49 24.5t-48 7.5q-71 0 -109.5 -44.5t-38.5 -126.5t38.5 -128.5t109.5 -46.5q23 0 47.5 7t49.5 24q18 10 31.5 5
t20 -18.5t4 -29t-18.5 -25.5q-32 -23 -69.5 -33t-72.5 -10z" />
    <glyph glyph-name="d" unicode="d" horiz-adv-x="591" 
d="M257 -9q-64 0 -112.5 30.5t-75.5 87.5t-27 135t27 134.5t75 87.5t113 31q55 0 98 -24t64 -65v253q0 51 50 51q51 0 51 -51v-617q0 -51 -50 -51t-50 51v38q-22 -42 -65 -66.5t-98 -24.5zM283 69q62 0 100 45t38 130t-38 129.5t-100 44.5q-63 0 -101 -44.5t-38 -129.5
t38 -130t101 -45z" />
    <glyph glyph-name="e" unicode="e" horiz-adv-x="537" 
d="M300 -9q-120 0 -189 67.5t-69 184.5q0 75 30.5 132.5t84.5 89.5t124 32q101 0 159 -64.5t58 -177.5q0 -34 -40 -34h-318q11 -152 161 -152q30 0 63 7.5t64 27.5q21 12 36.5 8.5t22.5 -17t2.5 -30t-23.5 -28.5q-34 -23 -79.5 -34.5t-86.5 -11.5zM285 426q-63 0 -100 -39
t-45 -104h273q-3 68 -36 105.5t-92 37.5z" />
    <glyph glyph-name="f" unicode="f" horiz-adv-x="347" 
d="M151 -7q-51 0 -51 51v366h-56q-41 0 -41 39t41 39h56v9q0 99 49 149.5t143 59.5l31 2q21 2 31.5 -8.5t10.5 -26t-8 -27.5t-24 -14l-19 -1q-59 -4 -86 -33t-27 -87v-23h97q42 0 42 -39t-42 -39h-97v-366q0 -51 -50 -51z" />
    <glyph glyph-name="g" unicode="g" horiz-adv-x="594" 
d="M292 -189q-54 0 -104.5 11t-91.5 36q-18 10 -22 25t3.5 29t21 20.5t29.5 -2.5q44 -24 83.5 -32.5t73.5 -8.5q140 0 140 140v77q-21 -44 -65.5 -69t-99.5 -25q-66 0 -115 30.5t-76 85t-27 127.5q0 72 27 126.5t76 85t115 30.5q55 0 98.5 -24.5t64.5 -66.5v38q0 51 50 51
t50 -51v-403q0 -115 -59 -172.5t-172 -57.5zM284 91q64 0 102 44t38 120t-38 119.5t-102 43.5t-102 -43.5t-38 -119.5t38 -120t102 -44z" />
    <glyph glyph-name="h" unicode="h" horiz-adv-x="576" 
d="M121 -7q-50 0 -50 51v617q0 51 50 51q51 0 51 -51v-249q25 42 67.5 63.5t95.5 21.5q173 0 173 -196v-257q0 -51 -50 -51q-51 0 -51 51v251q0 63 -24.5 92t-76.5 29q-61 0 -97.5 -38.5t-36.5 -101.5v-232q0 -51 -51 -51z" />
    <glyph glyph-name="i" unicode="i" horiz-adv-x="243" 
d="M121 597q-30 0 -46.5 15t-16.5 42q0 57 63 57t63 -57t-63 -57zM121 -6q-50 0 -50 55v390q0 54 50 54q51 0 51 -54v-390q0 -55 -51 -55z" />
    <glyph glyph-name="j" unicode="j" horiz-adv-x="246" 
d="M125 597q-30 0 -46.5 15t-16.5 42q0 57 63 57q62 0 62 -57t-62 -57zM-7 -190q-23 -1 -35 9.5t-13.5 25.5t6.5 27t26 14q50 3 73.5 27t23.5 76v455q0 51 51 51q50 0 50 -51v-447q0 -94 -45.5 -138t-136.5 -49z" />
    <glyph glyph-name="k" unicode="k" horiz-adv-x="516" 
d="M121 -7q-50 0 -50 51v617q0 51 50 51q51 0 51 -51v-386h2l187 186q16 16 29 25t34 9q31 0 40.5 -23t-12.5 -46l-175 -173l193 -191q16 -16 15 -32t-13 -26.5t-30 -10.5q-23 0 -36.5 9t-31.5 27l-200 194h-2v-179q0 -51 -51 -51z" />
    <glyph glyph-name="l" unicode="l" horiz-adv-x="306" 
d="M228 -9q-78 0 -117.5 45t-39.5 132v493q0 51 50 51q51 0 51 -51v-487q0 -99 80 -99q9 0 16 1t14 1q12 1 17 -6.5t5 -30.5q0 -41 -38 -47q-10 -1 -19.5 -1.5t-18.5 -0.5z" />
    <glyph glyph-name="m" unicode="m" horiz-adv-x="866" 
d="M123 -7q-50 0 -50 51v400q0 51 49 51t49 -51v-35q22 42 61 65t91 23q112 0 145 -98q23 46 66 72t98 26q164 0 164 -196v-257q0 -51 -51 -51q-50 0 -50 51v252q0 62 -21.5 91t-70.5 29q-55 0 -87 -38.5t-32 -104.5v-229q0 -51 -50 -51q-51 0 -51 51v252q0 62 -21 91
t-70 29q-55 0 -86.5 -38.5t-31.5 -104.5v-229q0 -51 -51 -51z" />
    <glyph glyph-name="n" unicode="n" horiz-adv-x="576" 
d="M121 -7q-50 0 -50 51v400q0 51 49 51t49 -51v-37q25 44 68.5 67t97.5 23q173 0 173 -196v-257q0 -51 -50 -51q-51 0 -51 51v251q0 63 -24.5 92t-76.5 29q-61 0 -97.5 -38.5t-36.5 -101.5v-232q0 -51 -51 -51z" />
    <glyph glyph-name="o" unicode="o" horiz-adv-x="565" 
d="M283 -9q-74 0 -128 31t-83.5 87.5t-29.5 134.5t29.5 134.5t83.5 87.5t128 31q72 0 126 -31t84 -87.5t30 -134.5t-30 -134.5t-84 -87.5t-126 -31zM283 69q62 0 100 45t38 130t-38 129.5t-100 44.5q-63 0 -101 -44.5t-38 -129.5t38 -130t101 -45z" />
    <glyph glyph-name="p" unicode="p" horiz-adv-x="591" 
d="M121 -187q-50 0 -50 51v580q0 51 49 51q50 0 50 -51v-38q22 42 65 66.5t98 24.5q65 0 113.5 -31t75 -87.5t26.5 -134.5t-26.5 -135t-75 -87.5t-113.5 -30.5q-54 0 -96.5 23.5t-64.5 64.5v-215q0 -51 -51 -51zM308 69q63 0 100.5 45t37.5 130t-37.5 129.5t-100.5 44.5
t-100.5 -44.5t-37.5 -129.5t37.5 -130t100.5 -45z" />
    <glyph glyph-name="q" unicode="q" horiz-adv-x="591" 
d="M469 -187q-50 0 -50 51v216q-21 -41 -64 -65t-98 -24q-65 0 -113 30.5t-75 87.5t-27 135t27 134.5t75.5 87.5t112.5 31q55 0 98 -24.5t65 -66.5v38q0 51 50 51t50 -51v-580q0 -51 -51 -51zM283 69q62 0 100 45t38 130t-38 129.5t-100 44.5q-63 0 -101 -44.5t-38 -129.5
t38 -130t101 -45z" />
    <glyph glyph-name="r" unicode="r" horiz-adv-x="373" 
d="M122 -7q-51 0 -51 51v400q0 51 49 51t49 -51v-43q20 45 60.5 69t98.5 28q37 3 40 -40q4 -44 -43 -48l-19 -2q-133 -13 -133 -137v-227q0 -51 -51 -51z" />
    <glyph glyph-name="s" unicode="s" horiz-adv-x="484" 
d="M242 -9q-44 0 -91 10t-85 34q-17 10 -21 25t2 28t19.5 18.5t30.5 -3.5q39 -21 75 -30t71 -9q53 0 80 19t27 51q0 26 -18 40.5t-54 22.5l-95 19q-126 26 -126 130q0 69 55 110t144 41q90 0 155 -44q16 -10 19 -24.5t-4 -27t-20.5 -17.5t-31.5 4q-30 18 -60 26.5t-58 8.5
q-52 0 -79 -19.5t-27 -52.5q0 -50 66 -64l95 -19q65 -13 98.5 -44t33.5 -84q0 -70 -55 -109.5t-146 -39.5z" />
    <glyph glyph-name="t" unicode="t" horiz-adv-x="365" 
d="M279 -9q-92 0 -137 47t-45 136v236h-60q-42 0 -42 39t42 39h60v103q0 51 51 51q50 0 50 -51v-103h117q42 0 42 -39t-42 -39h-117v-228q0 -53 22.5 -80t73.5 -27q18 0 31 3.5t23 4.5q11 0 18 -7.5t7 -28.5q0 -16 -5.5 -28.5t-19.5 -16.5q-12 -5 -32.5 -8t-36.5 -3z" />
    <glyph glyph-name="u" unicode="u" horiz-adv-x="569" 
d="M245 -9q-177 0 -177 197v256q0 51 50 51q51 0 51 -51v-257q0 -59 24 -87t76 -28q57 0 92.5 38t35.5 102v232q0 51 51 51q50 0 50 -51v-400q0 -51 -49 -51t-49 51v34q-24 -43 -64 -65t-91 -22z" />
    <glyph glyph-name="v" unicode="v" horiz-adv-x="520" 
d="M260 -7q-42 0 -62 45l-167 388q-12 27 -1 48t45 21q18 0 29.5 -9t20.5 -31l137 -338l140 338q9 22 20.5 31t32.5 9q27 0 37 -21t-1 -47l-169 -389q-19 -45 -62 -45z" />
    <glyph glyph-name="w" unicode="w" horiz-adv-x="846" 
d="M249 -7q-44 0 -61 44l-147 389q-12 30 0.5 49.5t42.5 19.5q18 0 29 -8.5t20 -32.5l119 -336l124 340q14 37 50 37q37 0 50 -37l122 -342l122 340q8 23 20.5 31t28.5 8q30 0 38.5 -21t-1.5 -48l-147 -389q-18 -44 -60 -44q-45 0 -61 44l-115 312l-114 -312
q-16 -44 -60 -44z" />
    <glyph glyph-name="x" unicode="x" horiz-adv-x="534" 
d="M88 -6q-27 0 -38.5 22t10.5 50l150 186l-139 172q-23 27 -11 49t38 22q19 0 31.5 -6.5t23.5 -21.5l115 -146l116 146q11 15 23 21.5t31 6.5q26 0 38 -22t-11 -50l-139 -172l150 -185q22 -27 10.5 -49.5t-38.5 -22.5q-33 0 -55 28l-126 158l-125 -158q-11 -14 -23 -21
t-31 -7z" />
    <glyph glyph-name="y" unicode="y" horiz-adv-x="520" 
d="M186 -187q-28 0 -38.5 20.5t1.5 47.5l59 132l-178 413q-12 27 -0.5 48t45.5 21q18 0 29.5 -9t20.5 -31l137 -338l139 338q9 23 21 31.5t33 8.5q27 0 37 -21t-1 -47l-250 -575q-10 -23 -22.5 -31t-32.5 -8z" />
    <glyph glyph-name="z" unicode="z" horiz-adv-x="468" 
d="M90 0q-22 0 -32.5 13t-9 32t17.5 37l252 328h-234q-39 0 -39 39t39 39h302q25 0 37 -13t10.5 -31.5t-16.5 -36.5l-255 -330h246q40 0 40 -38q0 -39 -40 -39h-318z" />
    <glyph glyph-name="braceleft" unicode="{" horiz-adv-x="370" 
d="M254 -180q-52 0 -80.5 28.5t-28.5 82.5v212q0 41 -16 59.5t-56 20.5q-16 0 -25 11.5t-9 28.5q0 16 9 27.5t25 12.5q40 1 56 20t16 59v212q0 54 28.5 82.5t80.5 28.5h71q18 0 30.5 -11t12.5 -28q0 -16 -10.5 -27.5t-26.5 -11.5h-44q-41 0 -41 -44v-212q0 -41 -21.5 -71
t-53.5 -38q32 -7 53.5 -37t21.5 -71v-212q0 -44 41 -44h44q16 0 26.5 -11.5t10.5 -27.5q0 -17 -12.5 -28t-30.5 -11h-71z" />
    <glyph glyph-name="bar" unicode="|" horiz-adv-x="275" 
d="M138 -188q-51 0 -51 51v798q0 51 51 51q50 0 50 -51v-798q0 -51 -50 -51z" />
    <glyph glyph-name="braceright" unicode="}" horiz-adv-x="370" 
d="M45 -180q-18 0 -30.5 11t-12.5 28q0 16 10.5 27.5t26.5 11.5h44q41 0 41 44v212q0 41 21.5 71.5t53.5 37.5q-32 7 -53.5 37t-21.5 71v212q0 44 -41 44h-44q-16 0 -26.5 11.5t-10.5 27.5q0 17 12.5 28t30.5 11h70q53 0 81.5 -28.5t28.5 -82.5v-212q0 -40 16 -59t55 -20
q17 -1 26 -12.5t9 -28.5q0 -16 -9 -27.5t-26 -11.5q-39 -1 -55 -20t-16 -60v-212q0 -54 -28.5 -82.5t-81.5 -28.5h-70z" />
    <glyph glyph-name="asciitilde" unicode="~" horiz-adv-x="600" 
d="M412 213q-25 0 -53.5 9.5t-67.5 31.5q-39 21 -60.5 28.5t-36.5 7.5q-20 0 -37.5 -8t-32.5 -32q-13 -20 -30.5 -17.5t-27 18.5t2.5 36q21 37 51.5 55.5t67.5 18.5q25 0 53 -9t67 -29q35 -19 58 -29t40 -10q20 0 38 8.5t33 32.5q13 20 30.5 17t27 -18.5t-2.5 -35.5
q-21 -37 -52 -56t-68 -19z" />
    <glyph glyph-name="uni00A0" unicode="&#xa0;" horiz-adv-x="264" 
 />
    <glyph glyph-name="exclamdown" unicode="&#xa1;" horiz-adv-x="237" 
d="M120 365q-30 0 -47.5 18t-17.5 45q0 29 17.5 46.5t47.5 17.5q29 0 46 -17.5t17 -46.5q0 -27 -17 -45t-46 -18zM120 -187q-30 0 -45.5 18t-13.5 48l24 382q4 38 35 38t33 -38l23 -382q2 -30 -12.5 -48t-43.5 -18z" />
    <glyph glyph-name="cent" unicode="&#xa2;" horiz-adv-x="600" 
d="M320 -122q-18 0 -30 12t-12 30v77q-87 16 -139 83t-52 164q0 63 23.5 114t66.5 85t101 45v85q0 18 12 30t30 12q17 0 29 -12t12 -30v-81q34 -3 67.5 -14t58.5 -28q16 -11 18.5 -26.5t-4.5 -29t-21.5 -18t-32.5 6.5q-47 30 -106 30q-70 0 -110.5 -46.5t-40.5 -120.5
q0 -77 40 -123.5t110 -46.5q26 0 53.5 7t53.5 23q21 12 35 7t20 -19t2 -30t-20 -26q-24 -17 -57 -28.5t-66 -15.5v-74q0 -18 -11.5 -30t-29.5 -12z" />
    <glyph glyph-name="sterling" unicode="&#xa3;" horiz-adv-x="600" 
d="M82 0q-18 0 -30.5 12.5t-12.5 30.5q0 19 12.5 31t30.5 12h56v231h-61q-16 0 -27 10.5t-11 26.5t11 26t27 10h61v114q0 97 56 153.5t169 56.5q51 0 102.5 -16t85.5 -43q17 -14 19 -31.5t-7 -30.5t-25.5 -16.5t-34.5 9.5q-32 23 -66.5 33t-71.5 10q-124 0 -124 -121v-118
h142q16 0 27.5 -10t11.5 -26t-11.5 -26.5t-27.5 -10.5h-142v-231h279q19 0 31.5 -12t12.5 -31q0 -18 -12.5 -30.5t-31.5 -12.5h-438z" />
    <glyph glyph-name="currency" unicode="&#xa4;" horiz-adv-x="600" 
d="M50 -11q-11 10 -11 23.5t11 23.5l57 59q-23 31 -36 69.5t-13 80.5t12.5 80.5t36.5 70.5l-57 59q-23 23 0 46q9 11 22.5 10.5t24.5 -11.5l57 -58q30 24 67.5 37.5t78.5 13.5q40 0 77 -13t67 -36l55 56q11 11 25 11.5t24 -9.5q11 -11 11 -25t-11 -25l-56 -57
q48 -66 48 -150q0 -42 -12.5 -80.5t-36.5 -70.5l57 -58q10 -10 10.5 -23.5t-10.5 -23.5q-9 -10 -23 -10t-24 11l-56 58q-30 -24 -67 -37.5t-78 -13.5q-42 0 -79.5 13.5t-67.5 36.5l-57 -57q-10 -11 -23 -11.5t-23 10.5zM299 81q43 0 77.5 22t55.5 59.5t21 82.5q0 46 -21 83
t-55.5 59.5t-77.5 21.5q-42 0 -77 -22t-56 -59t-21 -83q0 -45 20.5 -82.5t55.5 -59.5t78 -22z" />
    <glyph glyph-name="yen" unicode="&#xa5;" horiz-adv-x="600" 
d="M300 -7q-52 0 -52 54v121h-145q-40 0 -40 36q0 37 40 37h145v81h-145q-40 0 -40 36q0 37 40 37h107l-177 249q-16 22 -4.5 45t40.5 23q30 0 51 -31l180 -260l180 259q22 32 52 32t41 -22t-7 -48l-175 -247h106q40 0 40 -37q0 -36 -40 -36h-145v-81h145q40 0 40 -37
q0 -36 -40 -36h-145v-121q0 -54 -52 -54z" />
    <glyph glyph-name="brokenbar" unicode="&#xa6;" horiz-adv-x="275" 
d="M138 365q-51 0 -51 51v245q0 51 51 51q50 0 50 -51v-245q0 -51 -50 -51zM138 -187q-51 0 -51 51v245q0 52 51 52q50 0 50 -52v-245q0 -51 -50 -51z" />
    <glyph glyph-name="section" unicode="&#xa7;" horiz-adv-x="556" 
d="M255 -189q-54 0 -100.5 11t-80.5 33q-16 10 -18.5 24.5t4 28t20 19t30.5 -4.5q30 -17 69 -27t76 -10q56 0 90 26t34 75q0 34 -18 58.5t-65 46.5l-118 54q-78 36 -108.5 77t-30.5 96q0 38 16.5 73t45.5 60q-10 15 -16 35t-6 46q0 57 28.5 97.5t77.5 62.5t113 22
q106 0 177 -45q15 -10 18 -25t-3.5 -28.5t-20 -18.5t-31.5 5q-29 17 -66.5 27.5t-74.5 10.5q-52 0 -86 -26t-34 -75q0 -34 18 -58.5t66 -46.5l117 -54q78 -37 109 -77.5t31 -95.5q0 -39 -17 -73.5t-46 -60.5q10 -14 16 -34.5t6 -46.5q0 -56 -28.5 -97t-78.5 -62.5
t-115 -21.5zM130 334q0 -34 21.5 -61t76.5 -53l101 -47q25 -11 44 -24t32 -26q22 30 22 67q0 34 -21.5 61.5t-77.5 53.5l-101 46q-25 12 -43.5 25t-32.5 25q-21 -29 -21 -67z" />
    <glyph glyph-name="dieresis" unicode="&#xa8;" horiz-adv-x="500" 
d="M341 600q-54 0 -54 54q0 52 54 52q53 0 53 -52q0 -54 -53 -54zM160 600q-54 0 -54 54q0 25 14.5 38.5t39.5 13.5q54 0 54 -52q0 -54 -54 -54z" />
    <glyph glyph-name="copyright" unicode="&#xa9;" horiz-adv-x="815" 
d="M408 -9q-77 0 -143 27.5t-115.5 76.5t-76.5 115t-27 143t27 142.5t76.5 115t115.5 76.5t143 27t142.5 -27t115 -76.5t76.5 -115t27 -142.5t-27 -143t-76.5 -115t-115 -76.5t-142.5 -27.5zM408 39q67 0 123.5 23.5t98.5 66.5t65.5 100t23.5 124q0 89 -40.5 160t-111 112
t-159.5 41q-67 0 -123.5 -23.5t-99 -66t-66 -99.5t-23.5 -124t23.5 -124t66 -100t99 -66.5t123.5 -23.5zM423 137q-98 0 -155 59.5t-57 158.5t57 156t155 57q32 0 65 -9.5t60 -27.5q15 -8 18 -22t-3 -26t-18 -17t-28 5q-22 14 -44.5 20t-43.5 6q-61 0 -95.5 -37t-34.5 -106
q0 -68 34.5 -107t95.5 -39q22 0 44 6t45 20q21 12 34.5 1t14 -29.5t-17.5 -30.5q-27 -18 -60.5 -28t-65.5 -10z" />
    <glyph glyph-name="ordfeminine" unicode="&#xaa;" horiz-adv-x="332" 
d="M136 409q-49 0 -80 26.5t-31 66.5q0 46 41.5 66t116.5 20h48v14q0 60 -69 60q-19 0 -39 -4t-42 -13q-20 -6 -30 4t-7.5 24.5t20.5 21.5q25 11 51 15t51 4q132 0 132 -115v-157q0 -33 -32 -33q-15 0 -23.5 9.5t-8.5 24.5v27h-2q-17 -31 -39.5 -46t-56.5 -15zM152 458
q34 0 56.5 23t22.5 63v4h-45q-93 0 -93 -45q0 -19 14 -32t45 -13z" />
    <glyph glyph-name="guillemotleft" unicode="&#xab;" horiz-adv-x="465" 
d="M196 86q-14 -6 -28 -2t-21 17l-81 131q-20 33 0 67l79 130q8 14 22 18t28 -2q15 -7 20.5 -23t-3.5 -34l-59 -122l59 -123q9 -18 4.5 -34t-20.5 -23zM389 86q-14 -6 -28 -2t-21 17l-81 131q-20 33 0 67l79 130q8 14 22 18t28 -2q15 -7 20.5 -23t-3.5 -34l-59 -122l59 -123
q9 -18 4.5 -34t-20.5 -23z" />
    <glyph glyph-name="logicalnot" unicode="&#xac;" horiz-adv-x="600" 
d="M506 137q-39 0 -39 40v175h-380q-38 0 -38 37q0 36 38 36h418q39 0 39 -39v-209q0 -40 -38 -40z" />
    <glyph glyph-name="uni00AD" unicode="&#xad;" horiz-adv-x="429" 
d="M105 226q-18 0 -30 12t-12 29q0 18 12 29.5t30 11.5h220q17 0 29 -11.5t12 -29.5q0 -17 -12 -29t-29 -12h-220z" />
    <glyph glyph-name="registered" unicode="&#xae;" horiz-adv-x="815" 
d="M408 -9q-77 0 -143 27.5t-115.5 76.5t-76.5 115t-27 143t27 142.5t76.5 115t115.5 76.5t143 27t142.5 -27t115 -76.5t76.5 -115t27 -142.5t-27 -143t-76.5 -115t-115 -76.5t-142.5 -27.5zM408 39q67 0 123.5 23.5t98.5 66.5t65.5 100t23.5 124q0 89 -40.5 160t-111 112
t-159.5 41q-67 0 -123.5 -23.5t-99 -66t-66 -99.5t-23.5 -124t23.5 -124t66 -100t99 -66.5t123.5 -23.5zM299 136q-40 0 -40 42v339q0 47 48 47h129q69 0 106 -33.5t37 -89.5q0 -46 -23.5 -74.5t-65.5 -38.5q16 -6 28 -20t21 -41l29 -80q9 -25 -3.5 -38t-33.5 -13
q-15 0 -24 8.5t-14 23.5l-35 102q-8 23 -25 31t-41 8h-53v-131q0 -42 -40 -42zM338 371h87q77 0 77 66t-77 66h-87v-132z" />
    <glyph glyph-name="macron" unicode="&#xaf;" horiz-adv-x="500" 
d="M128 621q-34 0 -34 32t34 32h245q33 0 33 -32t-33 -32h-245z" />
    <glyph glyph-name="degree" unicode="&#xb0;" horiz-adv-x="375" 
d="M188 413q-44 0 -78.5 20t-54.5 54t-20 77q0 42 20 76.5t54.5 54t78.5 19.5q43 0 77 -19.5t54 -53.5t20 -77t-20 -77.5t-54 -54t-77 -19.5zM188 475q37 0 60.5 25t23.5 64q0 38 -23.5 63t-60.5 25q-38 0 -62 -25t-24 -63q0 -39 24 -64t62 -25z" />
    <glyph glyph-name="plusminus" unicode="&#xb1;" horiz-adv-x="600" 
d="M300 125q-38 0 -38 40v129h-175q-38 0 -38 38q0 36 38 36h175v130q0 40 38 40t38 -40v-130h175q38 0 38 -36q0 -38 -38 -38h-175v-129q0 -40 -38 -40zM87 0q-38 0 -38 37t38 37h426q38 0 38 -37t-38 -37h-426z" />
    <glyph glyph-name="uni00B2" unicode="&#xb2;" horiz-adv-x="380" 
d="M88 282q-17 0 -28 10t-11 26q0 14 5.5 24t15.5 21l112 118q26 29 38 52t12 47q0 59 -65 59q-41 0 -79 -25q-16 -10 -28.5 -6t-19 15.5t-3.5 25t19 23.5q25 18 59.5 27.5t68.5 9.5q63 0 100 -32t37 -87q0 -33 -16 -65t-51 -69l-99 -104h155q36 0 36 -35t-36 -35h-222z" />
    <glyph glyph-name="uni00B3" unicode="&#xb3;" horiz-adv-x="380" 
d="M186 278q-81 0 -133 36q-20 14 -19.5 33t15.5 28.5t38 -3.5q20 -13 43 -19t47 -6q34 0 55.5 15t21.5 46q0 29 -20.5 40.5t-55.5 11.5h-47q-38 0 -38 36q0 35 38 35h35q36 0 56 13t20 42q0 24 -18 38.5t-52 14.5q-42 0 -80 -23q-24 -14 -39.5 -4t-16.5 28.5t20 31.5
q56 37 129 37q64 0 101.5 -30t37.5 -80q0 -36 -19 -61.5t-48 -37.5q36 -9 57.5 -35t21.5 -67q0 -57 -43 -88.5t-107 -31.5z" />
    <glyph glyph-name="acute" unicode="&#xb4;" horiz-adv-x="500" 
d="M289 558q-10 -16 -27 -14.5t-27.5 14.5t-1.5 31l81 157q10 20 26.5 23t32 -5.5t21.5 -24t-6 -32.5z" />
    <glyph glyph-name="uni00B5" unicode="&#xb5;" horiz-adv-x="600" 
d="M136 -187q-50 0 -50 51v580q0 51 50 51q51 0 51 -51v-256q0 -59 24 -86.5t76 -27.5q56 0 92 37.5t36 101.5v231q0 51 50 51q51 0 51 -51v-400q0 -51 -49 -51q-24 0 -37 12.5t-13 31.5v50q-17 -47 -53 -71.5t-80 -24.5q-34 0 -61 10.5t-44 38.5l6 -175q2 -52 -49 -52z" />
    <glyph glyph-name="paragraph" unicode="&#xb6;" horiz-adv-x="604" 
d="M284 -187q-38 0 -38 39v445q-62 0 -108 26t-71.5 72t-25.5 107q0 60 25.5 105.5t72 71.5t109.5 26h224q51 0 51 -50v-803q0 -39 -39 -39q-38 0 -38 39v779h-123v-779q0 -39 -39 -39z" />
    <glyph glyph-name="periodcentered" unicode="&#xb7;" horiz-adv-x="237" 
d="M120 204q-30 0 -47.5 17.5t-17.5 45.5t17.5 45.5t47.5 17.5q29 0 46 -17.5t17 -45.5t-17 -45.5t-46 -17.5z" />
    <glyph glyph-name="cedilla" unicode="&#xb8;" horiz-adv-x="500" 
d="M252 -194q-19 0 -39 3t-36 9q-18 7 -20 21.5t8 25t28 3.5q22 -8 53 -8q27 0 42 8.5t15 24.5q0 26 -38 26q-8 0 -15.5 -0.5t-16.5 -3.5q-15 -4 -23 2t-5 25l12 78h58l-10 -61q8 1 15 1q39 0 63 -18.5t24 -51.5q0 -37 -32 -60.5t-83 -23.5z" />
    <glyph glyph-name="uni00B9" unicode="&#xb9;" horiz-adv-x="380" 
d="M109 282q-36 0 -36 35t36 35h65v258l-47 -28q-18 -10 -32 -5.5t-20.5 16.5t-3 26.5t20.5 24.5l82 49q12 7 23 11t23 4q36 0 36 -38v-318h47q37 0 37 -35t-37 -35h-194z" />
    <glyph glyph-name="ordmasculine" unicode="&#xba;" horiz-adv-x="345" 
d="M173 410q-66 0 -109 41.5t-43 111.5q0 69 43 110t109 41q65 0 108 -41t43 -110q0 -70 -43 -111.5t-108 -41.5zM173 464q37 0 59.5 25.5t22.5 73.5t-22.5 73t-59.5 25q-38 0 -60.5 -24.5t-22.5 -73.5t22.5 -74t60.5 -25z" />
    <glyph glyph-name="guillemotright" unicode="&#xbb;" horiz-adv-x="465" 
d="M76 86q-15 7 -20 23t4 34l60 123l-60 122q-9 18 -3.5 34t21.5 23q14 6 28 2t22 -18l78 -130q20 -34 0 -67l-80 -131q-7 -13 -21 -17t-29 2zM269 86q-15 7 -20 23t4 34l60 123l-60 122q-9 18 -3.5 34t21.5 23q14 6 28 2t22 -18l78 -130q20 -34 0 -67l-80 -131
q-7 -13 -21 -17t-29 2z" />
    <glyph glyph-name="onequarter" unicode="&#xbc;" horiz-adv-x="902" 
d="M109 282q-36 0 -36 35t36 35h65v258l-47 -28q-18 -10 -32 -5.5t-20.5 16.5t-3 26.5t20.5 24.5l82 49q12 7 23 11t23 4q36 0 36 -38v-318h47q37 0 37 -35t-37 -35h-194zM320 4q-11 -18 -26 -21t-28 5t-18 22.5t6 32.5l380 658q11 18 26 21t28 -5t17.5 -22.5t-5.5 -32.5z
M784 -4q-42 0 -42 39v43h-151q-20 0 -31 11t-11 26q0 12 5.5 22.5t15.5 24.5l162 237q5 7 17 17.5t33 10.5q42 0 42 -44v-235h29q14 0 24 -8.5t10 -25.5q0 -20 -10 -28t-24 -8h-29v-43q0 -39 -40 -39zM742 148v158l-108 -158h108z" />
    <glyph glyph-name="onehalf" unicode="&#xbd;" horiz-adv-x="948" 
d="M109 282q-36 0 -36 35t36 35h65v258l-47 -28q-18 -10 -32 -5.5t-20.5 16.5t-3 26.5t20.5 24.5l82 49q12 7 23 11t23 4q36 0 36 -38v-318h47q37 0 37 -35t-37 -35h-194zM320 4q-11 -18 -26 -21t-28 5t-18 22.5t6 32.5l380 658q11 18 26 21t28 -5t17.5 -22.5t-5.5 -32.5z
M656 0q-17 0 -28 10t-11 26q0 14 5.5 24t15.5 21l112 118q26 29 38 52t12 47q0 59 -65 59q-41 0 -79 -25q-16 -10 -28.5 -6t-19 15.5t-3.5 25t19 23.5q25 18 59.5 27.5t68.5 9.5q63 0 100 -32t37 -87q0 -33 -16 -65t-51 -69l-99 -104h155q36 0 36 -35t-36 -35h-222z" />
    <glyph glyph-name="threequarters" unicode="&#xbe;" horiz-adv-x="902" 
d="M186 278q-81 0 -133 36q-20 14 -19.5 33t15.5 28.5t38 -3.5q20 -13 43 -19t47 -6q34 0 55.5 15t21.5 46q0 29 -20.5 40.5t-55.5 11.5h-47q-38 0 -38 36q0 35 38 35h35q36 0 56 13t20 42q0 24 -18 38.5t-52 14.5q-42 0 -80 -23q-24 -14 -39.5 -4t-16.5 28.5t20 31.5
q56 37 129 37q64 0 101.5 -30t37.5 -80q0 -36 -19 -61.5t-48 -37.5q36 -9 57.5 -35t21.5 -67q0 -57 -43 -88.5t-107 -31.5zM320 4q-11 -18 -26 -21t-28 5t-18 22.5t6 32.5l380 658q11 18 26 21t28 -5t17.5 -22.5t-5.5 -32.5zM784 -4q-42 0 -42 39v43h-151q-20 0 -31 11
t-11 26q0 12 5.5 22.5t15.5 24.5l162 237q5 7 17 17.5t33 10.5q42 0 42 -44v-235h29q14 0 24 -8.5t10 -25.5q0 -20 -10 -28t-24 -8h-29v-43q0 -39 -40 -39zM742 148v158l-108 -158h108z" />
    <glyph glyph-name="questiondown" unicode="&#xbf;" horiz-adv-x="450" 
d="M237 365q-30 0 -47 17.5t-17 45.5t17 46t47 18q29 0 46.5 -18t17.5 -46t-17.5 -45.5t-46.5 -17.5zM221 -189q-90 0 -145 42t-55 110q0 42 19.5 80t71.5 85q48 43 66.5 75t23.5 65q2 13 10 21t23 8q33 0 33 -38q0 -41 -17 -80.5t-64 -86.5q-37 -36 -50 -61.5t-13 -52.5
q0 -36 27 -57.5t75 -21.5q82 0 151 45q23 14 40.5 9.5t25.5 -19.5t3 -33.5t-27 -31.5q-41 -27 -91 -42.5t-107 -15.5z" />
    <glyph glyph-name="Agrave" unicode="&#xc0;" horiz-adv-x="736" 
d="M78 -7q-30 0 -41.5 19.5t1.5 47.5l271 608q10 23 25 33.5t35 10.5q18 0 33.5 -10.5t25.5 -33.5l271 -608q13 -29 2.5 -48t-39.5 -19q-22 0 -35 11t-23 34l-58 134h-357l-57 -134q-10 -24 -22 -34.5t-32 -10.5zM367 590l-141 -334h285l-142 334h-2zM327 770l-100 115
q-14 15 -10 30t18 24.5t30.5 8.5t29.5 -19l84 -123q11 -16 2.5 -30t-24.5 -17.5t-30 11.5z" />
    <glyph glyph-name="Aacute" unicode="&#xc1;" horiz-adv-x="736" 
d="M78 -7q-30 0 -41.5 19.5t1.5 47.5l271 608q10 23 25 33.5t35 10.5q18 0 33.5 -10.5t25.5 -33.5l271 -608q13 -29 2.5 -48t-39.5 -19q-22 0 -35 11t-23 34l-58 134h-357l-57 -134q-10 -24 -22 -34.5t-32 -10.5zM367 590l-141 -334h285l-142 334h-2zM411 770
q-13 -15 -29.5 -11.5t-24.5 17.5t3 30l84 123q12 18 29 19t31 -8.5t17.5 -24.5t-9.5 -30z" />
    <glyph glyph-name="Acircumflex" unicode="&#xc2;" horiz-adv-x="736" 
d="M78 -7q-30 0 -41.5 19.5t1.5 47.5l271 608q10 23 25 33.5t35 10.5q18 0 33.5 -10.5t25.5 -33.5l271 -608q13 -29 2.5 -48t-39.5 -19q-22 0 -35 11t-23 34l-58 134h-357l-57 -134q-10 -24 -22 -34.5t-32 -10.5zM367 590l-141 -334h285l-142 334h-2zM278 770
q-14 -15 -30.5 -12.5t-24.5 15.5t4 29l81 113q23 33 61 33t62 -33l80 -113q12 -16 4 -29t-24.5 -15.5t-30.5 12.5l-91 107z" />
    <glyph glyph-name="Atilde" unicode="&#xc3;" horiz-adv-x="736" 
d="M78 -7q-30 0 -41.5 19.5t1.5 47.5l271 608q10 23 25 33.5t35 10.5q18 0 33.5 -10.5t25.5 -33.5l271 -608q13 -29 2.5 -48t-39.5 -19q-22 0 -35 11t-23 34l-58 134h-357l-57 -134q-10 -24 -22 -34.5t-32 -10.5zM367 590l-141 -334h285l-142 334h-2zM183 775q-13 0 -21 8.5
t-5 24.5q11 54 43.5 83.5t79.5 29.5q27 0 51.5 -10.5t46.5 -24.5t42.5 -25t40.5 -11q26 0 42.5 15t21.5 40q7 24 30 23q13 -1 21 -9.5t5 -23.5q-11 -54 -43 -84t-79 -30q-28 0 -52 11t-46.5 25t-43 25t-40.5 11q-26 0 -42.5 -15.5t-21.5 -39.5q-7 -24 -30 -23z" />
    <glyph glyph-name="Adieresis" unicode="&#xc4;" horiz-adv-x="736" 
d="M78 -7q-30 0 -41.5 19.5t1.5 47.5l271 608q10 23 25 33.5t35 10.5q18 0 33.5 -10.5t25.5 -33.5l271 -608q13 -29 2.5 -48t-39.5 -19q-22 0 -35 11t-23 34l-58 134h-357l-57 -134q-10 -24 -22 -34.5t-32 -10.5zM367 590l-141 -334h285l-142 334h-2zM460 795q-54 0 -54 54
q0 52 54 52q53 0 53 -52q0 -54 -53 -54zM279 795q-54 0 -54 54q0 25 14.5 38.5t39.5 13.5q54 0 54 -52q0 -54 -54 -54z" />
    <glyph glyph-name="Aring" unicode="&#xc5;" horiz-adv-x="736" 
d="M78 -7q-30 0 -41.5 19.5t1.5 47.5l271 608q10 23 25 33.5t35 10.5q18 0 33.5 -10.5t25.5 -33.5l271 -608q13 -29 2.5 -48t-39.5 -19q-22 0 -35 11t-23 34l-58 134h-357l-57 -134q-10 -24 -22 -34.5t-32 -10.5zM367 590l-141 -334h285l-142 334h-2zM369 756q-52 0 -87 35
t-35 85t35 84t87 34t87 -34t35 -84t-35 -85t-87 -35zM369 806q30 0 49.5 20t19.5 50q0 29 -19.5 48.5t-49.5 19.5t-49.5 -19.5t-19.5 -48.5q0 -30 19.5 -50t49.5 -20z" />
    <glyph glyph-name="AE" unicode="&#xc6;" horiz-adv-x="987" 
d="M47 -7q-34 0 -43 20t7 45l379 617q17 30 53 30h455q45 0 45 -41q0 -43 -45 -43h-378l48 -221h310q44 0 44 -42t-44 -42h-292l50 -232h262q45 0 45 -42t-45 -42h-297q-40 0 -49 39l-28 133h-336l-88 -146q-9 -17 -21 -25t-32 -8zM433 587l-196 -331h269l-71 331h-2z" />
    <glyph glyph-name="Ccedilla" unicode="&#xc7;" horiz-adv-x="676" 
d="M398 -9q-107 0 -183 44t-116.5 125.5t-40.5 192.5t40.5 192t116.5 125t183 44q59 0 113.5 -16t94.5 -46q22 -14 25.5 -33.5t-6 -35t-27.5 -20.5t-40 10q-34 25 -73.5 37t-83.5 12q-114 0 -174 -70t-60 -199t60 -199.5t174 -70.5q44 0 84.5 12t76.5 38q22 14 39 9.5
t26 -19.5t6 -33.5t-21 -31.5q-42 -33 -97.5 -50t-116.5 -17zM390 -194q-19 0 -39 3t-36 9q-18 7 -20 21.5t8 25t28 3.5q22 -8 53 -8q27 0 42 8.5t15 24.5q0 26 -38 26q-8 0 -15.5 -0.5t-16.5 -3.5q-15 -4 -23 2t-5 25l12 78h58l-10 -61q8 1 15 1q39 0 63 -18.5t24 -51.5
q0 -37 -32 -60.5t-83 -23.5z" />
    <glyph glyph-name="Egrave" unicode="&#xc8;" horiz-adv-x="589" 
d="M138 0q-56 0 -56 56v593q0 56 56 56h365q43 0 43 -41q0 -43 -43 -43h-321v-221h299q43 0 43 -42t-43 -42h-299v-232h321q43 0 43 -42t-43 -42h-365zM284 770l-100 115q-14 15 -10 30t18 24.5t30.5 8.5t29.5 -19l84 -123q11 -16 2.5 -30t-24.5 -17.5t-30 11.5z" />
    <glyph glyph-name="Eacute" unicode="&#xc9;" horiz-adv-x="589" 
d="M138 0q-56 0 -56 56v593q0 56 56 56h365q43 0 43 -41q0 -43 -43 -43h-321v-221h299q43 0 43 -42t-43 -42h-299v-232h321q43 0 43 -42t-43 -42h-365zM368 770q-13 -15 -29.5 -11.5t-24.5 17.5t3 30l84 123q12 18 29 19t31 -8.5t17.5 -24.5t-9.5 -30z" />
    <glyph glyph-name="Ecircumflex" unicode="&#xca;" horiz-adv-x="589" 
d="M138 0q-56 0 -56 56v593q0 56 56 56h365q43 0 43 -41q0 -43 -43 -43h-321v-221h299q43 0 43 -42t-43 -42h-299v-232h321q43 0 43 -42t-43 -42h-365zM235 770q-14 -15 -30.5 -12.5t-24.5 15.5t4 29l81 113q23 33 61 33t62 -33l80 -113q12 -16 4 -29t-24.5 -15.5
t-30.5 12.5l-91 107z" />
    <glyph glyph-name="Edieresis" unicode="&#xcb;" horiz-adv-x="589" 
d="M138 0q-56 0 -56 56v593q0 56 56 56h365q43 0 43 -41q0 -43 -43 -43h-321v-221h299q43 0 43 -42t-43 -42h-299v-232h321q43 0 43 -42t-43 -42h-365zM417 795q-54 0 -54 54q0 52 54 52q53 0 53 -52q0 -54 -53 -54zM236 795q-54 0 -54 54q0 25 14.5 38.5t39.5 13.5
q54 0 54 -52q0 -54 -54 -54z" />
    <glyph glyph-name="Igrave" unicode="&#xcc;" horiz-adv-x="268" 
d="M134 -7q-52 0 -52 53v613q0 53 52 53t52 -53v-613q0 -53 -52 -53zM92 770l-100 115q-14 15 -10 30t18 24.5t30.5 8.5t29.5 -19l84 -123q11 -16 2.5 -30t-24.5 -17.5t-30 11.5z" />
    <glyph glyph-name="Iacute" unicode="&#xcd;" horiz-adv-x="268" 
d="M134 -7q-52 0 -52 53v613q0 53 52 53t52 -53v-613q0 -53 -52 -53zM176 770q-13 -15 -29.5 -11.5t-24.5 17.5t3 30l84 123q12 18 29 19t31 -8.5t17.5 -24.5t-9.5 -30z" />
    <glyph glyph-name="Icircumflex" unicode="&#xce;" horiz-adv-x="268" 
d="M134 -7q-52 0 -52 53v613q0 53 52 53t52 -53v-613q0 -53 -52 -53zM43 770q-14 -15 -30.5 -12.5t-24.5 15.5t4 29l81 113q23 33 61 33t62 -33l80 -113q12 -16 4 -29t-24.5 -15.5t-30.5 12.5l-91 107z" />
    <glyph glyph-name="Idieresis" unicode="&#xcf;" horiz-adv-x="268" 
d="M134 -7q-52 0 -52 53v613q0 53 52 53t52 -53v-613q0 -53 -52 -53zM225 795q-54 0 -54 54q0 52 54 52q53 0 53 -52q0 -54 -53 -54zM44 795q-54 0 -54 54q0 25 14.5 38.5t39.5 13.5q54 0 54 -52q0 -54 -54 -54z" />
    <glyph glyph-name="Eth" unicode="&#xd0;" horiz-adv-x="751" 
d="M138 0q-56 0 -56 56v593q0 56 56 56h193q174 0 268.5 -91t94.5 -261t-94.5 -261.5t-268.5 -91.5h-193zM186 87h139q261 0 261 266q0 265 -261 265h-139v-531zM28 319q-40 0 -40 39q0 38 40 38h319q40 0 40 -38q0 -39 -40 -39h-319z" />
    <glyph glyph-name="Ntilde" unicode="&#xd1;" horiz-adv-x="743" 
d="M131 -7q-49 0 -49 50v617q0 25 12.5 38.5t33.5 13.5q18 0 28 -6.5t22 -23.5l387 -510v491q0 49 48 49t48 -49v-621q0 -23 -11.5 -36t-30.5 -13t-30 7t-24 24l-387 511v-492q0 -50 -47 -50zM186 775q-13 0 -21 8.5t-5 24.5q11 54 43.5 83.5t79.5 29.5q27 0 51.5 -10.5
t46.5 -24.5t42.5 -25t40.5 -11q26 0 42.5 15t21.5 40q7 24 30 23q13 -1 21 -9.5t5 -23.5q-11 -54 -43 -84t-79 -30q-28 0 -52 11t-46.5 25t-43 25t-40.5 11q-26 0 -42.5 -15.5t-21.5 -39.5q-7 -24 -30 -23z" />
    <glyph glyph-name="Ograve" unicode="&#xd2;" horiz-adv-x="775" 
d="M388 -9q-101 0 -175 44.5t-114.5 126t-40.5 191.5q0 111 40.5 192t114.5 125t175 44q100 0 174.5 -44t115 -125t40.5 -191q0 -111 -40.5 -192.5t-115 -126t-174.5 -44.5zM388 81q105 0 163.5 71.5t58.5 200.5t-58 200t-164 71q-105 0 -163.5 -71t-58.5 -200t58.5 -200.5
t163.5 -71.5zM345 770l-100 115q-14 15 -10 30t18 24.5t30.5 8.5t29.5 -19l84 -123q11 -16 2.5 -30t-24.5 -17.5t-30 11.5z" />
    <glyph glyph-name="Oacute" unicode="&#xd3;" horiz-adv-x="775" 
d="M388 -9q-101 0 -175 44.5t-114.5 126t-40.5 191.5q0 111 40.5 192t114.5 125t175 44q100 0 174.5 -44t115 -125t40.5 -191q0 -111 -40.5 -192.5t-115 -126t-174.5 -44.5zM388 81q105 0 163.5 71.5t58.5 200.5t-58 200t-164 71q-105 0 -163.5 -71t-58.5 -200t58.5 -200.5
t163.5 -71.5zM429 770q-13 -15 -29.5 -11.5t-24.5 17.5t3 30l84 123q12 18 29 19t31 -8.5t17.5 -24.5t-9.5 -30z" />
    <glyph glyph-name="Ocircumflex" unicode="&#xd4;" horiz-adv-x="775" 
d="M388 -9q-101 0 -175 44.5t-114.5 126t-40.5 191.5q0 111 40.5 192t114.5 125t175 44q100 0 174.5 -44t115 -125t40.5 -191q0 -111 -40.5 -192.5t-115 -126t-174.5 -44.5zM388 81q105 0 163.5 71.5t58.5 200.5t-58 200t-164 71q-105 0 -163.5 -71t-58.5 -200t58.5 -200.5
t163.5 -71.5zM296 770q-14 -15 -30.5 -12.5t-24.5 15.5t4 29l81 113q23 33 61 33t62 -33l80 -113q12 -16 4 -29t-24.5 -15.5t-30.5 12.5l-91 107z" />
    <glyph glyph-name="Otilde" unicode="&#xd5;" horiz-adv-x="775" 
d="M388 -9q-101 0 -175 44.5t-114.5 126t-40.5 191.5q0 111 40.5 192t114.5 125t175 44q100 0 174.5 -44t115 -125t40.5 -191q0 -111 -40.5 -192.5t-115 -126t-174.5 -44.5zM388 81q105 0 163.5 71.5t58.5 200.5t-58 200t-164 71q-105 0 -163.5 -71t-58.5 -200t58.5 -200.5
t163.5 -71.5zM201 775q-13 0 -21 8.5t-5 24.5q11 54 43.5 83.5t79.5 29.5q27 0 51.5 -10.5t46.5 -24.5t42.5 -25t40.5 -11q26 0 42.5 15t21.5 40q7 24 30 23q13 -1 21 -9.5t5 -23.5q-11 -54 -43 -84t-79 -30q-28 0 -52 11t-46.5 25t-43 25t-40.5 11q-26 0 -42.5 -15.5
t-21.5 -39.5q-7 -24 -30 -23z" />
    <glyph glyph-name="Odieresis" unicode="&#xd6;" horiz-adv-x="775" 
d="M388 -9q-101 0 -175 44.5t-114.5 126t-40.5 191.5q0 111 40.5 192t114.5 125t175 44q100 0 174.5 -44t115 -125t40.5 -191q0 -111 -40.5 -192.5t-115 -126t-174.5 -44.5zM388 81q105 0 163.5 71.5t58.5 200.5t-58 200t-164 71q-105 0 -163.5 -71t-58.5 -200t58.5 -200.5
t163.5 -71.5zM478 795q-54 0 -54 54q0 52 54 52q53 0 53 -52q0 -54 -53 -54zM297 795q-54 0 -54 54q0 25 14.5 38.5t39.5 13.5q54 0 54 -52q0 -54 -54 -54z" />
    <glyph glyph-name="multiply" unicode="&#xd7;" horiz-adv-x="600" 
d="M140 73q-13 -13 -28 -12t-25 11t-11 24.5t13 28.5l159 160l-162 162q-14 14 -13 29t11.5 25t25.5 11t29 -13l161 -161l161 161q14 14 29 13t25.5 -11.5t11.5 -25.5t-13 -28l-162 -162l159 -160q14 -14 13 -28.5t-11 -24.5t-24.5 -11t-28.5 12l-160 160z" />
    <glyph glyph-name="Oslash" unicode="&#xd8;" horiz-adv-x="775" 
d="M388 -9q-101 0 -175 44.5t-114.5 126t-40.5 191.5q0 111 40.5 192t114.5 125t175 44q100 0 174.5 -44t115 -125t40.5 -191q0 -111 -40.5 -192.5t-115 -126t-174.5 -44.5zM388 81q105 0 163.5 71.5t58.5 200.5t-58 200t-164 71q-105 0 -163.5 -71t-58.5 -200t58.5 -200.5
t163.5 -71.5zM213 -27q-10 -18 -26 -20.5t-29.5 5.5t-19 23.5t5.5 33.5l43 73l30 49l280 481l23 40l43 74q10 17 25.5 20t29.5 -5t19 -23t-6 -34l-43 -73l-29 -49l-281 -480l-22 -41z" />
    <glyph glyph-name="Ugrave" unicode="&#xd9;" horiz-adv-x="733" 
d="M367 -9q-141 0 -215.5 74.5t-74.5 218.5v376q0 52 52 52t52 -52v-374q0 -205 186 -205t186 205v374q0 52 51 52t51 -52v-376q0 -144 -73 -218.5t-215 -74.5zM325 770l-100 115q-14 15 -10 30t18 24.5t30.5 8.5t29.5 -19l84 -123q11 -16 2.5 -30t-24.5 -17.5t-30 11.5z
" />
    <glyph glyph-name="Uacute" unicode="&#xda;" horiz-adv-x="733" 
d="M367 -9q-141 0 -215.5 74.5t-74.5 218.5v376q0 52 52 52t52 -52v-374q0 -205 186 -205t186 205v374q0 52 51 52t51 -52v-376q0 -144 -73 -218.5t-215 -74.5zM409 770q-13 -15 -29.5 -11.5t-24.5 17.5t3 30l84 123q12 18 29 19t31 -8.5t17.5 -24.5t-9.5 -30z" />
    <glyph glyph-name="Ucircumflex" unicode="&#xdb;" horiz-adv-x="733" 
d="M367 -9q-141 0 -215.5 74.5t-74.5 218.5v376q0 52 52 52t52 -52v-374q0 -205 186 -205t186 205v374q0 52 51 52t51 -52v-376q0 -144 -73 -218.5t-215 -74.5zM276 770q-14 -15 -30.5 -12.5t-24.5 15.5t4 29l81 113q23 33 61 33t62 -33l80 -113q12 -16 4 -29t-24.5 -15.5
t-30.5 12.5l-91 107z" />
    <glyph glyph-name="Udieresis" unicode="&#xdc;" horiz-adv-x="733" 
d="M367 -9q-141 0 -215.5 74.5t-74.5 218.5v376q0 52 52 52t52 -52v-374q0 -205 186 -205t186 205v374q0 52 51 52t51 -52v-376q0 -144 -73 -218.5t-215 -74.5zM458 795q-54 0 -54 54q0 52 54 52q53 0 53 -52q0 -54 -53 -54zM277 795q-54 0 -54 54q0 25 14.5 38.5t39.5 13.5
q54 0 54 -52q0 -54 -54 -54z" />
    <glyph glyph-name="Yacute" unicode="&#xdd;" horiz-adv-x="606" 
d="M303 -7q-52 0 -52 54v282l-224 312q-16 23 -5.5 47t42.5 24t55 -33l186 -259l186 259q13 18 25 25.5t30 7.5q31 0 41 -22.5t-9 -49.5l-224 -312v-281q0 -54 -51 -54zM345 770q-13 -15 -29.5 -11.5t-24.5 17.5t3 30l84 123q12 18 29 19t31 -8.5t17.5 -24.5t-9.5 -30z" />
    <glyph glyph-name="Thorn" unicode="&#xde;" horiz-adv-x="644" 
d="M134 -4q-52 0 -52 53v607q0 53 53 53q25 0 38 -13t13 -35v-79h189q115 0 176.5 -56.5t61.5 -159.5q0 -102 -61.5 -159t-176.5 -57h-189v-101q0 -53 -52 -53zM186 233h175q152 0 152 133t-152 133h-175v-266z" />
    <glyph glyph-name="germandbls" unicode="&#xdf;" horiz-adv-x="632" 
d="M418 -9q-43 0 -87 11.5t-80 34.5q-17 11 -20 26.5t3.5 29t20.5 18.5t31 -5q33 -20 69 -28.5t64 -8.5q44 0 68.5 18t24.5 50q0 27 -22 44.5t-79 34.5q-80 25 -112 57.5t-32 80.5q0 31 16 60.5t60 68.5q29 26 40.5 46.5t11.5 43.5q0 30 -21.5 47.5t-62.5 17.5
q-68 0 -103.5 -40t-35.5 -114v-440q0 -51 -51 -51q-50 0 -50 51v427q0 116 62.5 179.5t177.5 63.5q85 0 132.5 -36t47.5 -97q0 -36 -16.5 -66.5t-55.5 -65.5q-34 -30 -45.5 -47.5t-11.5 -36.5q0 -24 22 -41.5t81 -35.5q76 -23 108.5 -58t32.5 -88q0 -68 -51.5 -109.5
t-136.5 -41.5z" />
    <glyph glyph-name="agrave" unicode="&#xe0;" horiz-adv-x="537" 
d="M227 -9q-51 0 -91 20t-63.5 54t-23.5 77q0 54 27.5 85t91 45t171.5 14h34v26q0 57 -24 82t-79 25q-32 0 -66.5 -8t-71.5 -27q-21 -10 -34.5 -3t-18.5 22t1 31t25 24q44 20 87 29.5t81 9.5q100 0 148 -47.5t48 -148.5v-257q0 -51 -47 -51q-48 0 -48 51v37q-18 -42 -56 -66
t-91 -24zM247 63q54 0 90 38t36 96v27h-33q-73 0 -114.5 -7t-59 -23.5t-17.5 -45.5q0 -38 26 -61.5t72 -23.5zM237 558l-100 149q-11 17 -5.5 32.5t21 24t32.5 5.5t27 -23l80 -157q9 -18 -1 -31t-27 -14.5t-27 14.5z" />
    <glyph glyph-name="aacute" unicode="&#xe1;" horiz-adv-x="537" 
d="M227 -9q-51 0 -91 20t-63.5 54t-23.5 77q0 54 27.5 85t91 45t171.5 14h34v26q0 57 -24 82t-79 25q-32 0 -66.5 -8t-71.5 -27q-21 -10 -34.5 -3t-18.5 22t1 31t25 24q44 20 87 29.5t81 9.5q100 0 148 -47.5t48 -148.5v-257q0 -51 -47 -51q-48 0 -48 51v37q-18 -42 -56 -66
t-91 -24zM247 63q54 0 90 38t36 96v27h-33q-73 0 -114.5 -7t-59 -23.5t-17.5 -45.5q0 -38 26 -61.5t72 -23.5zM314 558q-10 -16 -27 -14.5t-27.5 14.5t-1.5 31l81 157q10 20 26.5 23t32 -5.5t21.5 -24t-6 -32.5z" />
    <glyph glyph-name="acircumflex" unicode="&#xe2;" horiz-adv-x="537" 
d="M227 -9q-51 0 -91 20t-63.5 54t-23.5 77q0 54 27.5 85t91 45t171.5 14h34v26q0 57 -24 82t-79 25q-32 0 -66.5 -8t-71.5 -27q-21 -10 -34.5 -3t-18.5 22t1 31t25 24q44 20 87 29.5t81 9.5q100 0 148 -47.5t48 -148.5v-257q0 -51 -47 -51q-48 0 -48 51v37q-18 -42 -56 -66
t-91 -24zM247 63q54 0 90 38t36 96v27h-33q-73 0 -114.5 -7t-59 -23.5t-17.5 -45.5q0 -38 26 -61.5t72 -23.5zM412 589q9 -18 -0.5 -31t-25.5 -14.5t-26 14.5l-85 135l-85 -135q-10 -16 -26 -14.5t-25.5 14.5t-0.5 31l79 143q20 37 58 37q39 0 59 -37z" />
    <glyph glyph-name="atilde" unicode="&#xe3;" horiz-adv-x="537" 
d="M227 -9q-51 0 -91 20t-63.5 54t-23.5 77q0 54 27.5 85t91 45t171.5 14h34v26q0 57 -24 82t-79 25q-32 0 -66.5 -8t-71.5 -27q-21 -10 -34.5 -3t-18.5 22t1 31t25 24q44 20 87 29.5t81 9.5q100 0 148 -47.5t48 -148.5v-257q0 -51 -47 -51q-48 0 -48 51v37q-18 -42 -56 -66
t-91 -24zM247 63q54 0 90 38t36 96v27h-33q-73 0 -114.5 -7t-59 -23.5t-17.5 -45.5q0 -38 26 -61.5t72 -23.5zM115 584q-12 1 -19 9t-4 24q8 44 34 79t76 35q24 0 43 -11t35 -25t32 -25t35 -11q22 0 37.5 16t20.5 42q4 21 30 20q12 0 19 -8t4 -25q-8 -44 -34 -78.5
t-76 -34.5q-24 0 -43 10.5t-35.5 24.5t-32.5 25t-34 11q-22 0 -37.5 -15.5t-20.5 -42.5q-4 -21 -30 -20z" />
    <glyph glyph-name="adieresis" unicode="&#xe4;" horiz-adv-x="537" 
d="M227 -9q-51 0 -91 20t-63.5 54t-23.5 77q0 54 27.5 85t91 45t171.5 14h34v26q0 57 -24 82t-79 25q-32 0 -66.5 -8t-71.5 -27q-21 -10 -34.5 -3t-18.5 22t1 31t25 24q44 20 87 29.5t81 9.5q100 0 148 -47.5t48 -148.5v-257q0 -51 -47 -51q-48 0 -48 51v37q-18 -42 -56 -66
t-91 -24zM247 63q54 0 90 38t36 96v27h-33q-73 0 -114.5 -7t-59 -23.5t-17.5 -45.5q0 -38 26 -61.5t72 -23.5zM366 600q-54 0 -54 54q0 52 54 52q53 0 53 -52q0 -54 -53 -54zM185 600q-54 0 -54 54q0 25 14.5 38.5t39.5 13.5q54 0 54 -52q0 -54 -54 -54z" />
    <glyph glyph-name="aring" unicode="&#xe5;" horiz-adv-x="537" 
d="M227 -9q-51 0 -91 20t-63.5 54t-23.5 77q0 54 27.5 85t91 45t171.5 14h34v26q0 57 -24 82t-79 25q-32 0 -66.5 -8t-71.5 -27q-21 -10 -34.5 -3t-18.5 22t1 31t25 24q44 20 87 29.5t81 9.5q100 0 148 -47.5t48 -148.5v-257q0 -51 -47 -51q-48 0 -48 51v37q-18 -42 -56 -66
t-91 -24zM247 63q54 0 90 38t36 96v27h-33q-73 0 -114.5 -7t-59 -23.5t-17.5 -45.5q0 -38 26 -61.5t72 -23.5zM275 546q-52 0 -87 35t-35 85t35 84t87 34t87 -34t35 -84t-35 -85t-87 -35zM275 596q30 0 49.5 20t19.5 50q0 29 -19.5 48.5t-49.5 19.5t-49.5 -19.5t-19.5 -48.5
q0 -30 19.5 -50t49.5 -20z" />
    <glyph glyph-name="ae" unicode="&#xe6;" horiz-adv-x="863" 
d="M235 -9q-55 0 -97 20t-65.5 54t-23.5 77q0 54 28 85t92 44.5t172 13.5h33v26q0 57 -24.5 82.5t-77.5 25.5q-33 0 -67.5 -8t-72.5 -27q-20 -10 -33.5 -3t-18.5 22t1 31t25 24q44 20 87 29.5t81 9.5q124 0 165 -85q28 42 74 63.5t98 21.5q99 0 156.5 -64t57.5 -177v-3
q0 -30 -41 -30h-311q10 -154 156 -154q28 0 62 8t65 27q21 12 36.5 8.5t22 -17t2.5 -30t-23 -28.5q-34 -22 -79 -34t-86 -12q-75 0 -130.5 29t-83.5 87q-20 -55 -67 -85.5t-113 -30.5zM612 426q-59 0 -95.5 -37t-43.5 -104h266q-3 67 -35.5 104t-91.5 37zM248 63q56 0 91 39
t35 100v21h-34q-73 0 -114.5 -6.5t-59 -23t-17.5 -45.5q0 -38 26 -61.5t73 -23.5z" />
    <glyph glyph-name="ccedilla" unicode="&#xe7;" horiz-adv-x="467" 
d="M286 -9q-75 0 -129.5 31.5t-84.5 89t-30 135.5q0 116 66 183t178 67q35 0 73.5 -10.5t71.5 -34.5q16 -10 18.5 -25.5t-5 -29t-21.5 -18t-32 5.5q-24 17 -49 24.5t-48 7.5q-71 0 -109.5 -44.5t-38.5 -126.5t38.5 -128.5t109.5 -46.5q23 0 47.5 7t49.5 24q18 10 31.5 5
t20 -18.5t4 -29t-18.5 -25.5q-32 -23 -69.5 -33t-72.5 -10zM283 -194q-19 0 -39 3t-36 9q-18 7 -20 21.5t8 25t28 3.5q22 -8 53 -8q27 0 42 8.5t15 24.5q0 26 -38 26q-8 0 -15.5 -0.5t-16.5 -3.5q-15 -4 -23 2t-5 25l12 78h58l-10 -61q8 1 15 1q39 0 63 -18.5t24 -51.5
q0 -37 -32 -60.5t-83 -23.5z" />
    <glyph glyph-name="egrave" unicode="&#xe8;" horiz-adv-x="537" 
d="M300 -9q-120 0 -189 67.5t-69 184.5q0 75 30.5 132.5t84.5 89.5t124 32q101 0 159 -64.5t58 -177.5q0 -34 -40 -34h-318q11 -152 161 -152q30 0 63 7.5t64 27.5q21 12 36.5 8.5t22.5 -17t2.5 -30t-23.5 -28.5q-34 -23 -79.5 -34.5t-86.5 -11.5zM285 426q-63 0 -100 -39
t-45 -104h273q-3 68 -36 105.5t-92 37.5zM244 558l-100 149q-11 17 -5.5 32.5t21 24t32.5 5.5t27 -23l80 -157q9 -18 -1 -31t-27 -14.5t-27 14.5z" />
    <glyph glyph-name="eacute" unicode="&#xe9;" horiz-adv-x="537" 
d="M300 -9q-120 0 -189 67.5t-69 184.5q0 75 30.5 132.5t84.5 89.5t124 32q101 0 159 -64.5t58 -177.5q0 -34 -40 -34h-318q11 -152 161 -152q30 0 63 7.5t64 27.5q21 12 36.5 8.5t22.5 -17t2.5 -30t-23.5 -28.5q-34 -23 -79.5 -34.5t-86.5 -11.5zM285 426q-63 0 -100 -39
t-45 -104h273q-3 68 -36 105.5t-92 37.5zM321 558q-10 -16 -27 -14.5t-27.5 14.5t-1.5 31l81 157q10 20 26.5 23t32 -5.5t21.5 -24t-6 -32.5z" />
    <glyph glyph-name="ecircumflex" unicode="&#xea;" horiz-adv-x="537" 
d="M300 -9q-120 0 -189 67.5t-69 184.5q0 75 30.5 132.5t84.5 89.5t124 32q101 0 159 -64.5t58 -177.5q0 -34 -40 -34h-318q11 -152 161 -152q30 0 63 7.5t64 27.5q21 12 36.5 8.5t22.5 -17t2.5 -30t-23.5 -28.5q-34 -23 -79.5 -34.5t-86.5 -11.5zM285 426q-63 0 -100 -39
t-45 -104h273q-3 68 -36 105.5t-92 37.5zM419 589q9 -18 -0.5 -31t-25.5 -14.5t-26 14.5l-85 135l-85 -135q-10 -16 -26 -14.5t-25.5 14.5t-0.5 31l79 143q20 37 58 37q39 0 59 -37z" />
    <glyph glyph-name="edieresis" unicode="&#xeb;" horiz-adv-x="537" 
d="M300 -9q-120 0 -189 67.5t-69 184.5q0 75 30.5 132.5t84.5 89.5t124 32q101 0 159 -64.5t58 -177.5q0 -34 -40 -34h-318q11 -152 161 -152q30 0 63 7.5t64 27.5q21 12 36.5 8.5t22.5 -17t2.5 -30t-23.5 -28.5q-34 -23 -79.5 -34.5t-86.5 -11.5zM285 426q-63 0 -100 -39
t-45 -104h273q-3 68 -36 105.5t-92 37.5zM373 600q-54 0 -54 54q0 52 54 52q53 0 53 -52q0 -54 -53 -54zM192 600q-54 0 -54 54q0 25 14.5 38.5t39.5 13.5q54 0 54 -52q0 -54 -54 -54z" />
    <glyph glyph-name="igrave" unicode="&#xec;" horiz-adv-x="243" 
d="M121 -6q-50 0 -50 55v390q0 54 50 54q51 0 51 -54v-390q0 -55 -51 -55zM83 558l-100 149q-11 17 -5.5 32.5t21 24t32.5 5.5t27 -23l80 -157q9 -18 -1 -31t-27 -14.5t-27 14.5z" />
    <glyph glyph-name="iacute" unicode="&#xed;" horiz-adv-x="243" 
d="M121 -6q-50 0 -50 55v390q0 54 50 54q51 0 51 -54v-390q0 -55 -51 -55zM160 558q-10 -16 -27 -14.5t-27.5 14.5t-1.5 31l81 157q10 20 26.5 23t32 -5.5t21.5 -24t-6 -32.5z" />
    <glyph glyph-name="icircumflex" unicode="&#xee;" horiz-adv-x="243" 
d="M121 -6q-50 0 -50 55v390q0 54 50 54q51 0 51 -54v-390q0 -55 -51 -55zM258 589q9 -18 -0.5 -31t-25.5 -14.5t-26 14.5l-85 135l-85 -135q-10 -16 -26 -14.5t-25.5 14.5t-0.5 31l79 143q20 37 58 37q39 0 59 -37z" />
    <glyph glyph-name="idieresis" unicode="&#xef;" horiz-adv-x="243" 
d="M121 -6q-50 0 -50 55v390q0 54 50 54q51 0 51 -54v-390q0 -55 -51 -55zM212 600q-54 0 -54 54q0 52 54 52q53 0 53 -52q0 -54 -53 -54zM31 600q-54 0 -54 54q0 25 14.5 38.5t39.5 13.5q54 0 54 -52q0 -54 -54 -54z" />
    <glyph glyph-name="eth" unicode="&#xf0;" horiz-adv-x="569" 
d="M279 -9q-71 0 -124 29t-83 81t-30 121t29 120.5t81 80t121 28.5q49 0 87.5 -16.5t63.5 -51.5q-13 62 -46 110t-78 80l-136 -60q-18 -9 -32 -4t-19.5 17t0 25.5t25.5 22.5l92 40q-16 8 -32.5 14t-33.5 11q-20 6 -27.5 19t-4 26t16.5 20.5t35 2.5q38 -10 70.5 -23.5
t62.5 -30.5l109 49q18 8 32 3t19.5 -16.5t1 -25t-23.5 -21.5l-74 -33q70 -58 108 -140t38 -183q0 -142 -64 -218.5t-184 -76.5zM282 70q64 0 101 41t37 111t-36.5 110.5t-101.5 40.5q-64 0 -101 -40.5t-37 -110.5q0 -71 36.5 -111.5t101.5 -40.5z" />
    <glyph glyph-name="ntilde" unicode="&#xf1;" horiz-adv-x="576" 
d="M121 -7q-50 0 -50 51v400q0 51 49 51t49 -51v-37q25 44 68.5 67t97.5 23q173 0 173 -196v-257q0 -51 -50 -51q-51 0 -51 51v251q0 63 -24.5 92t-76.5 29q-61 0 -97.5 -38.5t-36.5 -101.5v-232q0 -51 -51 -51zM129 584q-12 1 -19 9t-4 24q8 44 34 79t76 35q24 0 43 -11
t35 -25t32 -25t35 -11q22 0 37.5 16t20.5 42q4 21 30 20q12 0 19 -8t4 -25q-8 -44 -34 -78.5t-76 -34.5q-24 0 -43 10.5t-35.5 24.5t-32.5 25t-34 11q-22 0 -37.5 -15.5t-20.5 -42.5q-4 -21 -30 -20z" />
    <glyph glyph-name="ograve" unicode="&#xf2;" horiz-adv-x="565" 
d="M283 -9q-74 0 -128 31t-83.5 87.5t-29.5 134.5t29.5 134.5t83.5 87.5t128 31q72 0 126 -31t84 -87.5t30 -134.5t-30 -134.5t-84 -87.5t-126 -31zM283 69q62 0 100 45t38 130t-38 129.5t-100 44.5q-63 0 -101 -44.5t-38 -129.5t38 -130t101 -45zM245 558l-100 149
q-11 17 -5.5 32.5t21 24t32.5 5.5t27 -23l80 -157q9 -18 -1 -31t-27 -14.5t-27 14.5z" />
    <glyph glyph-name="oacute" unicode="&#xf3;" horiz-adv-x="565" 
d="M283 -9q-74 0 -128 31t-83.5 87.5t-29.5 134.5t29.5 134.5t83.5 87.5t128 31q72 0 126 -31t84 -87.5t30 -134.5t-30 -134.5t-84 -87.5t-126 -31zM283 69q62 0 100 45t38 130t-38 129.5t-100 44.5q-63 0 -101 -44.5t-38 -129.5t38 -130t101 -45zM322 558
q-10 -16 -27 -14.5t-27.5 14.5t-1.5 31l81 157q10 20 26.5 23t32 -5.5t21.5 -24t-6 -32.5z" />
    <glyph glyph-name="ocircumflex" unicode="&#xf4;" horiz-adv-x="565" 
d="M283 -9q-74 0 -128 31t-83.5 87.5t-29.5 134.5t29.5 134.5t83.5 87.5t128 31q72 0 126 -31t84 -87.5t30 -134.5t-30 -134.5t-84 -87.5t-126 -31zM283 69q62 0 100 45t38 130t-38 129.5t-100 44.5q-63 0 -101 -44.5t-38 -129.5t38 -130t101 -45zM420 589q9 -18 -0.5 -31
t-25.5 -14.5t-26 14.5l-85 135l-85 -135q-10 -16 -26 -14.5t-25.5 14.5t-0.5 31l79 143q20 37 58 37q39 0 59 -37z" />
    <glyph glyph-name="otilde" unicode="&#xf5;" horiz-adv-x="565" 
d="M283 -9q-74 0 -128 31t-83.5 87.5t-29.5 134.5t29.5 134.5t83.5 87.5t128 31q72 0 126 -31t84 -87.5t30 -134.5t-30 -134.5t-84 -87.5t-126 -31zM283 69q62 0 100 45t38 130t-38 129.5t-100 44.5q-63 0 -101 -44.5t-38 -129.5t38 -130t101 -45zM123 584q-12 1 -19 9
t-4 24q8 44 34 79t76 35q24 0 43 -11t35 -25t32 -25t35 -11q22 0 37.5 16t20.5 42q4 21 30 20q12 0 19 -8t4 -25q-8 -44 -34 -78.5t-76 -34.5q-24 0 -43 10.5t-35.5 24.5t-32.5 25t-34 11q-22 0 -37.5 -15.5t-20.5 -42.5q-4 -21 -30 -20z" />
    <glyph glyph-name="odieresis" unicode="&#xf6;" horiz-adv-x="565" 
d="M283 -9q-74 0 -128 31t-83.5 87.5t-29.5 134.5t29.5 134.5t83.5 87.5t128 31q72 0 126 -31t84 -87.5t30 -134.5t-30 -134.5t-84 -87.5t-126 -31zM283 69q62 0 100 45t38 130t-38 129.5t-100 44.5q-63 0 -101 -44.5t-38 -129.5t38 -130t101 -45zM374 600q-54 0 -54 54
q0 52 54 52q53 0 53 -52q0 -54 -53 -54zM193 600q-54 0 -54 54q0 25 14.5 38.5t39.5 13.5q54 0 54 -52q0 -54 -54 -54z" />
    <glyph glyph-name="divide" unicode="&#xf7;" horiz-adv-x="600" 
d="M294 436q-49 0 -49 49t49 49t49 -49t-49 -49zM87 250q-38 0 -38 37t38 37h426q38 0 38 -37t-38 -37h-426zM294 40q-49 0 -49 49t49 49t49 -49t-49 -49z" />
    <glyph glyph-name="oslash" unicode="&#xf8;" horiz-adv-x="565" 
d="M161 -32q-9 -14 -22 -16.5t-24.5 4.5t-15.5 19.5t6 28.5l21 38q-40 32 -62 84t-22 118q0 78 29.5 134.5t83.5 87.5t128 31q54 0 98 -18l24 41q8 14 21 16t24.5 -5t16 -19.5t-4.5 -27.5l-23 -39q40 -33 62 -84t22 -117q0 -78 -30 -134.5t-84 -87.5t-126 -31q-55 0 -99 17z
M144 244q0 -75 31 -120l164 283q-25 11 -56 11q-63 0 -101 -44.5t-38 -129.5zM283 69q62 0 100 45t38 130q0 74 -30 119l-165 -283q25 -11 57 -11z" />
    <glyph glyph-name="ugrave" unicode="&#xf9;" horiz-adv-x="569" 
d="M245 -9q-177 0 -177 197v256q0 51 50 51q51 0 51 -51v-257q0 -59 24 -87t76 -28q57 0 92.5 38t35.5 102v232q0 51 51 51q50 0 50 -51v-400q0 -51 -49 -51t-49 51v34q-24 -43 -64 -65t-91 -22zM246 559l-100 149q-11 17 -5.5 32.5t21 24t32.5 5.5t27 -23l80 -157
q9 -18 -1 -31t-27 -14.5t-27 14.5z" />
    <glyph glyph-name="uacute" unicode="&#xfa;" horiz-adv-x="569" 
d="M245 -9q-177 0 -177 197v256q0 51 50 51q51 0 51 -51v-257q0 -59 24 -87t76 -28q57 0 92.5 38t35.5 102v232q0 51 51 51q50 0 50 -51v-400q0 -51 -49 -51t-49 51v34q-24 -43 -64 -65t-91 -22zM323 559q-10 -16 -27 -14.5t-27.5 14.5t-1.5 31l81 157q10 20 26.5 23
t32 -5.5t21.5 -24t-6 -32.5z" />
    <glyph glyph-name="ucircumflex" unicode="&#xfb;" horiz-adv-x="569" 
d="M245 -9q-177 0 -177 197v256q0 51 50 51q51 0 51 -51v-257q0 -59 24 -87t76 -28q57 0 92.5 38t35.5 102v232q0 51 51 51q50 0 50 -51v-400q0 -51 -49 -51t-49 51v34q-24 -43 -64 -65t-91 -22zM421 590q9 -18 -0.5 -31t-25.5 -14.5t-26 14.5l-85 135l-85 -135
q-10 -16 -26 -14.5t-25.5 14.5t-0.5 31l79 143q20 37 58 37q39 0 59 -37z" />
    <glyph glyph-name="udieresis" unicode="&#xfc;" horiz-adv-x="569" 
d="M245 -9q-177 0 -177 197v256q0 51 50 51q51 0 51 -51v-257q0 -59 24 -87t76 -28q57 0 92.5 38t35.5 102v232q0 51 51 51q50 0 50 -51v-400q0 -51 -49 -51t-49 51v34q-24 -43 -64 -65t-91 -22zM375 601q-54 0 -54 54q0 52 54 52q53 0 53 -52q0 -54 -53 -54zM194 601
q-54 0 -54 54q0 25 14.5 38.5t39.5 13.5q54 0 54 -52q0 -54 -54 -54z" />
    <glyph glyph-name="yacute" unicode="&#xfd;" horiz-adv-x="520" 
d="M186 -187q-28 0 -38.5 20.5t1.5 47.5l59 132l-178 413q-12 27 -0.5 48t45.5 21q18 0 29.5 -9t20.5 -31l137 -338l139 338q9 23 21 31.5t33 8.5q27 0 37 -21t-1 -47l-250 -575q-10 -23 -22.5 -31t-32.5 -8zM300 558q-10 -16 -27 -14.5t-27.5 14.5t-1.5 31l81 157
q10 20 26.5 23t32 -5.5t21.5 -24t-6 -32.5z" />
    <glyph glyph-name="thorn" unicode="&#xfe;" horiz-adv-x="591" 
d="M121 -187q-50 0 -50 51v797q0 51 50 51q51 0 51 -51v-252q22 40 64.5 64t96.5 24q65 0 113.5 -31t75 -87.5t26.5 -134.5t-26.5 -135t-75 -87.5t-113.5 -30.5q-54 0 -96.5 23.5t-64.5 64.5v-215q0 -51 -51 -51zM308 69q63 0 100.5 45t37.5 130t-37.5 129.5t-100.5 44.5
t-100.5 -44.5t-37.5 -129.5t37.5 -130t100.5 -45z" />
    <glyph glyph-name="ydieresis" unicode="&#xff;" horiz-adv-x="520" 
d="M186 -187q-28 0 -38.5 20.5t1.5 47.5l59 132l-178 413q-12 27 -0.5 48t45.5 21q18 0 29.5 -9t20.5 -31l137 -338l139 338q9 23 21 31.5t33 8.5q27 0 37 -21t-1 -47l-250 -575q-10 -23 -22.5 -31t-32.5 -8zM352 600q-54 0 -54 54q0 52 54 52q53 0 53 -52q0 -54 -53 -54z
M171 600q-54 0 -54 54q0 25 14.5 38.5t39.5 13.5q54 0 54 -52q0 -54 -54 -54z" />
    <glyph glyph-name="Amacron" unicode="&#x100;" horiz-adv-x="736" 
d="M78 -7q-30 0 -41.5 19.5t1.5 47.5l271 608q10 23 25 33.5t35 10.5q18 0 33.5 -10.5t25.5 -33.5l271 -608q13 -29 2.5 -48t-39.5 -19q-22 0 -35 11t-23 34l-58 134h-357l-57 -134q-10 -24 -22 -34.5t-32 -10.5zM367 590l-141 -334h285l-142 334h-2zM232 811q-34 0 -34 31
q0 32 34 32h275q33 0 33 -32q0 -31 -33 -31h-275z" />
    <glyph glyph-name="amacron" unicode="&#x101;" horiz-adv-x="537" 
d="M227 -9q-51 0 -91 20t-63.5 54t-23.5 77q0 54 27.5 85t91 45t171.5 14h34v26q0 57 -24 82t-79 25q-32 0 -66.5 -8t-71.5 -27q-21 -10 -34.5 -3t-18.5 22t1 31t25 24q44 20 87 29.5t81 9.5q100 0 148 -47.5t48 -148.5v-257q0 -51 -47 -51q-48 0 -48 51v37q-18 -42 -56 -66
t-91 -24zM247 63q54 0 90 38t36 96v27h-33q-73 0 -114.5 -7t-59 -23.5t-17.5 -45.5q0 -38 26 -61.5t72 -23.5zM153 621q-34 0 -34 32t34 32h245q33 0 33 -32t-33 -32h-245z" />
    <glyph glyph-name="Abreve" unicode="&#x102;" horiz-adv-x="736" 
d="M78 -7q-30 0 -41.5 19.5t1.5 47.5l271 608q10 23 25 33.5t35 10.5q18 0 33.5 -10.5t25.5 -33.5l271 -608q13 -29 2.5 -48t-39.5 -19q-22 0 -35 11t-23 34l-58 134h-357l-57 -134q-10 -24 -22 -34.5t-32 -10.5zM367 590l-141 -334h285l-142 334h-2zM369 760
q-62 0 -108.5 35t-62.5 104q-4 17 4.5 27.5t20.5 11.5q16 2 24.5 -6.5t11.5 -19.5q10 -48 41.5 -68t68.5 -20t68.5 20t41.5 68q3 11 11.5 19.5t24.5 6.5q12 -1 20.5 -11.5t4.5 -27.5q-16 -69 -62.5 -104t-108.5 -35z" />
    <glyph glyph-name="abreve" unicode="&#x103;" horiz-adv-x="537" 
d="M227 -9q-51 0 -91 20t-63.5 54t-23.5 77q0 54 27.5 85t91 45t171.5 14h34v26q0 57 -24 82t-79 25q-32 0 -66.5 -8t-71.5 -27q-21 -10 -34.5 -3t-18.5 22t1 31t25 24q44 20 87 29.5t81 9.5q100 0 148 -47.5t48 -148.5v-257q0 -51 -47 -51q-48 0 -48 51v37q-18 -42 -56 -66
t-91 -24zM247 63q54 0 90 38t36 96v27h-33q-73 0 -114.5 -7t-59 -23.5t-17.5 -45.5q0 -38 26 -61.5t72 -23.5zM275 550q-67 0 -107 44.5t-50 116.5q-3 17 5.5 27.5t21.5 10.5q29 1 34 -30q8 -52 33.5 -78.5t62.5 -26.5t63 26.5t33 78.5q5 31 34 30q13 0 21.5 -10.5
t5.5 -27.5q-9 -72 -49.5 -116.5t-107.5 -44.5z" />
    <glyph glyph-name="Aogonek" unicode="&#x104;" horiz-adv-x="736" 
d="M678 -194q-52 0 -81.5 27.5t-29.5 73.5q0 30 14 56.5t39 47.5q-5 5 -8.5 12l-7.5 15l-58 134h-357l-57 -134q-10 -24 -22 -34.5t-32 -10.5q-30 0 -41.5 19.5t0.5 47.5l272 608q10 23 25 33.5t35 10.5q18 0 33.5 -10.5t25.5 -33.5l271 -608q9 -21 6.5 -37.5t-16.5 -23.5
q-18 -10 -36.5 -31.5t-18.5 -49.5q0 -27 16.5 -40.5t40.5 -13.5q16 0 33 5q21 6 29.5 -5t5 -26.5t-20.5 -22.5q-15 -5 -30.5 -7t-29.5 -2zM367 590l-141 -334h285l-142 334h-2z" />
    <glyph glyph-name="aogonek" unicode="&#x105;" horiz-adv-x="537" 
d="M425 -194q-52 0 -81.5 27.5t-29.5 73.5q0 32 17 62t48 51q-5 10 -5 25v36q-18 -42 -56 -66t-91 -24q-51 0 -91 20t-63.5 54t-23.5 77q0 54 27.5 85t91 45t171.5 14h34v26q0 57 -24 82t-79 25q-32 0 -66.5 -8t-71.5 -27q-21 -10 -34.5 -3t-18.5 22t1 31t25 24
q44 20 87 29.5t81 9.5q100 0 148 -47.5t48 -148.5v-257q0 -21 -8.5 -33t-23.5 -18q-22 -10 -39 -29.5t-17 -45.5q0 -27 16.5 -40.5t40.5 -13.5q16 0 33 5q21 6 29.5 -5t5 -26.5t-20.5 -22.5q-15 -5 -30.5 -7t-29.5 -2zM247 63q54 0 90 38t36 96v27h-33q-73 0 -114.5 -7
t-59 -23.5t-17.5 -45.5q0 -38 26 -61.5t72 -23.5z" />
    <glyph glyph-name="Cacute" unicode="&#x106;" horiz-adv-x="676" 
d="M398 -9q-107 0 -183 44t-116.5 125.5t-40.5 192.5t40.5 192t116.5 125t183 44q59 0 113.5 -16t94.5 -46q22 -14 25.5 -33.5t-6 -35t-27.5 -20.5t-40 10q-34 25 -73.5 37t-83.5 12q-114 0 -174 -70t-60 -199t60 -199.5t174 -70.5q44 0 84.5 12t76.5 38q22 14 39 9.5
t26 -19.5t6 -33.5t-21 -31.5q-42 -33 -97.5 -50t-116.5 -17zM431 770q-13 -15 -29.5 -11.5t-24.5 17.5t3 30l84 123q12 18 29 19t31 -8.5t17.5 -24.5t-9.5 -30z" />
    <glyph glyph-name="cacute" unicode="&#x107;" horiz-adv-x="467" 
d="M286 -9q-75 0 -129.5 31.5t-84.5 89t-30 135.5q0 116 66 183t178 67q35 0 73.5 -10.5t71.5 -34.5q16 -10 18.5 -25.5t-5 -29t-21.5 -18t-32 5.5q-24 17 -49 24.5t-48 7.5q-71 0 -109.5 -44.5t-38.5 -126.5t38.5 -128.5t109.5 -46.5q23 0 47.5 7t49.5 24q18 10 31.5 5
t20 -18.5t4 -29t-18.5 -25.5q-32 -23 -69.5 -33t-72.5 -10zM320 558q-10 -16 -27 -14.5t-27.5 14.5t-1.5 31l81 157q10 20 26.5 23t32 -5.5t21.5 -24t-6 -32.5z" />
    <glyph glyph-name="Ccircumflex" unicode="&#x108;" horiz-adv-x="676" 
d="M398 -9q-107 0 -183 44t-116.5 125.5t-40.5 192.5t40.5 192t116.5 125t183 44q59 0 113.5 -16t94.5 -46q22 -14 25.5 -33.5t-6 -35t-27.5 -20.5t-40 10q-34 25 -73.5 37t-83.5 12q-114 0 -174 -70t-60 -199t60 -199.5t174 -70.5q44 0 84.5 12t76.5 38q22 14 39 9.5
t26 -19.5t6 -33.5t-21 -31.5q-42 -33 -97.5 -50t-116.5 -17zM298 770q-14 -15 -30.5 -12.5t-24.5 15.5t4 29l81 113q23 33 61 33t62 -33l80 -113q12 -16 4 -29t-24.5 -15.5t-30.5 12.5l-91 107z" />
    <glyph glyph-name="ccircumflex" unicode="&#x109;" horiz-adv-x="467" 
d="M286 -9q-75 0 -129.5 31.5t-84.5 89t-30 135.5q0 116 66 183t178 67q35 0 73.5 -10.5t71.5 -34.5q16 -10 18.5 -25.5t-5 -29t-21.5 -18t-32 5.5q-24 17 -49 24.5t-48 7.5q-71 0 -109.5 -44.5t-38.5 -126.5t38.5 -128.5t109.5 -46.5q23 0 47.5 7t49.5 24q18 10 31.5 5
t20 -18.5t4 -29t-18.5 -25.5q-32 -23 -69.5 -33t-72.5 -10zM418 589q9 -18 -0.5 -31t-25.5 -14.5t-26 14.5l-85 135l-85 -135q-10 -16 -26 -14.5t-25.5 14.5t-0.5 31l79 143q20 37 58 37q39 0 59 -37z" />
    <glyph glyph-name="Cdotaccent" unicode="&#x10a;" horiz-adv-x="676" 
d="M398 -9q-107 0 -183 44t-116.5 125.5t-40.5 192.5t40.5 192t116.5 125t183 44q59 0 113.5 -16t94.5 -46q22 -14 25.5 -33.5t-6 -35t-27.5 -20.5t-40 10q-34 25 -73.5 37t-83.5 12q-114 0 -174 -70t-60 -199t60 -199.5t174 -70.5q44 0 84.5 12t76.5 38q22 14 39 9.5
t26 -19.5t6 -33.5t-21 -31.5q-42 -33 -97.5 -50t-116.5 -17zM389 797q-56 0 -56 54t56 54t56 -54t-56 -54z" />
    <glyph glyph-name="cdotaccent" unicode="&#x10b;" horiz-adv-x="467" 
d="M286 -9q-75 0 -129.5 31.5t-84.5 89t-30 135.5q0 116 66 183t178 67q35 0 73.5 -10.5t71.5 -34.5q16 -10 18.5 -25.5t-5 -29t-21.5 -18t-32 5.5q-24 17 -49 24.5t-48 7.5q-71 0 -109.5 -44.5t-38.5 -126.5t38.5 -128.5t109.5 -46.5q23 0 47.5 7t49.5 24q18 10 31.5 5
t20 -18.5t4 -29t-18.5 -25.5q-32 -23 -69.5 -33t-72.5 -10zM281 600q-56 0 -56 55q0 53 56 53q57 0 57 -53q0 -55 -57 -55z" />
    <glyph glyph-name="Ccaron" unicode="&#x10c;" horiz-adv-x="676" 
d="M398 -9q-107 0 -183 44t-116.5 125.5t-40.5 192.5t40.5 192t116.5 125t183 44q59 0 113.5 -16t94.5 -46q22 -14 25.5 -33.5t-6 -35t-27.5 -20.5t-40 10q-34 25 -73.5 37t-83.5 12q-114 0 -174 -70t-60 -199t60 -199.5t174 -70.5q44 0 84.5 12t76.5 38q22 14 39 9.5
t26 -19.5t6 -33.5t-21 -31.5q-42 -33 -97.5 -50t-116.5 -17zM389 755q-38 0 -61 33l-81 113q-12 17 -3.5 30t25 15.5t29.5 -13.5l91 -108l91 108q14 16 30.5 13.5t24.5 -15.5t-4 -30l-80 -113q-23 -33 -62 -33z" />
    <glyph glyph-name="ccaron" unicode="&#x10d;" horiz-adv-x="467" 
d="M286 -9q-75 0 -129.5 31.5t-84.5 89t-30 135.5q0 116 66 183t178 67q35 0 73.5 -10.5t71.5 -34.5q16 -10 18.5 -25.5t-5 -29t-21.5 -18t-32 5.5q-24 17 -49 24.5t-48 7.5q-71 0 -109.5 -44.5t-38.5 -126.5t38.5 -128.5t109.5 -46.5q23 0 47.5 7t49.5 24q18 10 31.5 5
t20 -18.5t4 -29t-18.5 -25.5q-32 -23 -69.5 -33t-72.5 -10zM281 537q-38 0 -58 39l-79 143q-9 18 0.5 30.5t25.5 14.5t26 -14l85 -136l85 136q10 16 26 14t25.5 -14.5t0.5 -30.5l-78 -143q-21 -39 -59 -39z" />
    <glyph glyph-name="Dcaron" unicode="&#x10e;" horiz-adv-x="751" 
d="M138 0q-56 0 -56 56v593q0 56 56 56h193q174 0 268.5 -91t94.5 -261t-94.5 -261.5t-268.5 -91.5h-193zM186 87h139q261 0 261 266q0 265 -261 265h-139v-531zM374 755q-38 0 -61 33l-81 113q-12 17 -3.5 30t25 15.5t29.5 -13.5l91 -108l91 108q14 16 30.5 13.5
t24.5 -15.5t-4 -30l-80 -113q-23 -33 -62 -33z" />
    <glyph glyph-name="dcaron" unicode="&#x10f;" horiz-adv-x="591" 
d="M257 -9q-64 0 -112.5 30.5t-75.5 87.5t-27 135t27 134.5t75 87.5t113 31q55 0 98 -24t64 -65v253q0 51 50 51q51 0 51 -51v-617q0 -51 -50 -51t-50 51v38q-22 -42 -65 -66.5t-98 -24.5zM283 69q62 0 100 45t38 130t-38 129.5t-100 44.5q-63 0 -101 -44.5t-38 -129.5
t38 -130t101 -45zM589 508q-25 0 -25 26v141q0 37 37 37q38 0 33 -38l-19 -141q-3 -25 -26 -25z" />
    <glyph glyph-name="Dcroat" unicode="&#x110;" horiz-adv-x="751" 
d="M138 0q-56 0 -56 56v593q0 56 56 56h193q174 0 268.5 -91t94.5 -261t-94.5 -261.5t-268.5 -91.5h-193zM186 87h139q261 0 261 266q0 265 -261 265h-139v-531zM28 319q-40 0 -40 39q0 38 40 38h319q40 0 40 -38q0 -39 -40 -39h-319z" />
    <glyph glyph-name="dcroat" unicode="&#x111;" horiz-adv-x="591" 
d="M258 -9q-64 0 -112.5 30.5t-75.5 87.5t-27 135t26.5 134.5t75 87.5t113.5 31q55 0 97.5 -24t64.5 -65v141h-157q-39 0 -39 37q0 36 39 36h157v46q0 20 13 32t37 12t37.5 -12t13.5 -32v-46h55q39 0 39 -36q0 -37 -39 -37h-55v-505q0 -51 -50 -51q-51 0 -51 51v38
q-21 -42 -63.5 -66.5t-98.5 -24.5zM283 69q63 0 100.5 45t37.5 130t-37.5 129.5t-100.5 44.5t-100.5 -44.5t-37.5 -129.5t37.5 -130t100.5 -45z" />
    <glyph glyph-name="Emacron" unicode="&#x112;" horiz-adv-x="589" 
d="M138 0q-56 0 -56 56v593q0 56 56 56h365q43 0 43 -41q0 -43 -43 -43h-321v-221h299q43 0 43 -42t-43 -42h-299v-232h321q43 0 43 -42t-43 -42h-365zM189 811q-34 0 -34 31q0 32 34 32h275q33 0 33 -32q0 -31 -33 -31h-275z" />
    <glyph glyph-name="emacron" unicode="&#x113;" horiz-adv-x="537" 
d="M300 -9q-120 0 -189 67.5t-69 184.5q0 75 30.5 132.5t84.5 89.5t124 32q101 0 159 -64.5t58 -177.5q0 -34 -40 -34h-318q11 -152 161 -152q30 0 63 7.5t64 27.5q21 12 36.5 8.5t22.5 -17t2.5 -30t-23.5 -28.5q-34 -23 -79.5 -34.5t-86.5 -11.5zM285 426q-63 0 -100 -39
t-45 -104h273q-3 68 -36 105.5t-92 37.5zM160 621q-34 0 -34 32t34 32h245q33 0 33 -32t-33 -32h-245z" />
    <glyph glyph-name="Ebreve" unicode="&#x114;" horiz-adv-x="589" 
d="M138 0q-56 0 -56 56v593q0 56 56 56h365q43 0 43 -41q0 -43 -43 -43h-321v-221h299q43 0 43 -42t-43 -42h-299v-232h321q43 0 43 -42t-43 -42h-365zM326 760q-62 0 -108.5 35t-62.5 104q-4 17 4.5 27.5t20.5 11.5q16 2 24.5 -6.5t11.5 -19.5q10 -48 41.5 -68t68.5 -20
t68.5 20t41.5 68q3 11 11.5 19.5t24.5 6.5q12 -1 20.5 -11.5t4.5 -27.5q-16 -69 -62.5 -104t-108.5 -35z" />
    <glyph glyph-name="ebreve" unicode="&#x115;" horiz-adv-x="537" 
d="M300 -9q-120 0 -189 67.5t-69 184.5q0 75 30.5 132.5t84.5 89.5t124 32q101 0 159 -64.5t58 -177.5q0 -34 -40 -34h-318q11 -152 161 -152q30 0 63 7.5t64 27.5q21 12 36.5 8.5t22.5 -17t2.5 -30t-23.5 -28.5q-34 -23 -79.5 -34.5t-86.5 -11.5zM285 426q-63 0 -100 -39
t-45 -104h273q-3 68 -36 105.5t-92 37.5zM282 550q-67 0 -107 44.5t-50 116.5q-3 17 5.5 27.5t21.5 10.5q29 1 34 -30q8 -52 33.5 -78.5t62.5 -26.5t63 26.5t33 78.5q5 31 34 30q13 0 21.5 -10.5t5.5 -27.5q-9 -72 -49.5 -116.5t-107.5 -44.5z" />
    <glyph glyph-name="Edotaccent" unicode="&#x116;" horiz-adv-x="589" 
d="M138 0q-56 0 -56 56v593q0 56 56 56h365q43 0 43 -41q0 -43 -43 -43h-321v-221h299q43 0 43 -42t-43 -42h-299v-232h321q43 0 43 -42t-43 -42h-365zM326 797q-56 0 -56 54t56 54t56 -54t-56 -54z" />
    <glyph glyph-name="edotaccent" unicode="&#x117;" horiz-adv-x="537" 
d="M300 -9q-120 0 -189 67.5t-69 184.5q0 75 30.5 132.5t84.5 89.5t124 32q101 0 159 -64.5t58 -177.5q0 -34 -40 -34h-318q11 -152 161 -152q30 0 63 7.5t64 27.5q21 12 36.5 8.5t22.5 -17t2.5 -30t-23.5 -28.5q-34 -23 -79.5 -34.5t-86.5 -11.5zM285 426q-63 0 -100 -39
t-45 -104h273q-3 68 -36 105.5t-92 37.5zM282 600q-56 0 -56 55q0 53 56 53q57 0 57 -53q0 -55 -57 -55z" />
    <glyph glyph-name="Eogonek" unicode="&#x118;" horiz-adv-x="589" 
d="M138 0q-56 0 -56 56v593q0 56 56 56h365q43 0 43 -41q0 -43 -43 -43h-321v-221h299q43 0 43 -42t-43 -42h-299v-232h321q43 0 43 -42t-43 -42h-365zM476 -194q-51 0 -81 27.5t-30 73.5q0 41 26.5 76t72.5 56l32 -39q-24 -10 -43.5 -31.5t-19.5 -50.5q0 -27 16 -40.5
t41 -13.5q16 0 32 5q21 6 30 -5t5 -26.5t-20 -22.5q-15 -5 -31 -7t-30 -2z" />
    <glyph glyph-name="eogonek" unicode="&#x119;" horiz-adv-x="537" 
d="M300 -9q-120 0 -189 67.5t-69 184.5q0 75 30.5 132.5t84.5 89.5t124 32q101 0 159 -64.5t58 -177.5q0 -34 -40 -34h-318q11 -152 161 -152q30 0 63 7.5t64 27.5q21 12 36.5 8.5t22.5 -17t2.5 -30t-23.5 -28.5q-34 -23 -79.5 -34.5t-86.5 -11.5zM285 426q-63 0 -100 -39
t-45 -104h273q-3 68 -36 105.5t-92 37.5zM343 -194q-51 0 -81 27.5t-30 73.5q0 41 26.5 76t72.5 56l32 -39q-24 -10 -43.5 -31.5t-19.5 -50.5q0 -27 16 -40.5t41 -13.5q16 0 32 5q21 6 30 -5t5 -26.5t-20 -22.5q-15 -5 -31 -7t-30 -2z" />
    <glyph glyph-name="Ecaron" unicode="&#x11a;" horiz-adv-x="589" 
d="M138 0q-56 0 -56 56v593q0 56 56 56h365q43 0 43 -41q0 -43 -43 -43h-321v-221h299q43 0 43 -42t-43 -42h-299v-232h321q43 0 43 -42t-43 -42h-365zM326 755q-38 0 -61 33l-81 113q-12 17 -3.5 30t25 15.5t29.5 -13.5l91 -108l91 108q14 16 30.5 13.5t24.5 -15.5t-4 -30
l-80 -113q-23 -33 -62 -33z" />
    <glyph glyph-name="ecaron" unicode="&#x11b;" horiz-adv-x="537" 
d="M300 -9q-120 0 -189 67.5t-69 184.5q0 75 30.5 132.5t84.5 89.5t124 32q101 0 159 -64.5t58 -177.5q0 -34 -40 -34h-318q11 -152 161 -152q30 0 63 7.5t64 27.5q21 12 36.5 8.5t22.5 -17t2.5 -30t-23.5 -28.5q-34 -23 -79.5 -34.5t-86.5 -11.5zM285 426q-63 0 -100 -39
t-45 -104h273q-3 68 -36 105.5t-92 37.5zM282 537q-38 0 -58 39l-79 143q-9 18 0.5 30.5t25.5 14.5t26 -14l85 -136l85 136q10 16 26 14t25.5 -14.5t0.5 -30.5l-78 -143q-21 -39 -59 -39z" />
    <glyph glyph-name="Gcircumflex" unicode="&#x11c;" horiz-adv-x="731" 
d="M412 -9q-115 0 -194 43.5t-119.5 124.5t-40.5 193q0 111 41 192.5t119 125.5t187 44q60 0 117.5 -15.5t106.5 -50.5q17 -12 19.5 -29.5t-6 -33t-24.5 -21t-36 6.5q-39 27 -82 39.5t-95 12.5q-117 0 -178 -70.5t-61 -200.5q0 -133 62.5 -202t187.5 -69q76 0 151 25v189
h-129q-43 0 -43 40q0 38 43 38h173q43 0 43 -43v-252q0 -38 -28 -49q-43 -17 -101 -27.5t-113 -10.5zM305 770q-14 -15 -30.5 -12.5t-24.5 15.5t4 29l81 113q23 33 61 33t62 -33l80 -113q12 -16 4 -29t-24.5 -15.5t-30.5 12.5l-91 107z" />
    <glyph glyph-name="gcircumflex" unicode="&#x11d;" horiz-adv-x="594" 
d="M292 -189q-54 0 -104.5 11t-91.5 36q-18 10 -22 25t3.5 29t21 20.5t29.5 -2.5q44 -24 83.5 -32.5t73.5 -8.5q140 0 140 140v77q-21 -44 -65.5 -69t-99.5 -25q-66 0 -115 30.5t-76 85t-27 127.5q0 72 27 126.5t76 85t115 30.5q55 0 98.5 -24.5t64.5 -66.5v38q0 51 50 51
t50 -51v-403q0 -115 -59 -172.5t-172 -57.5zM284 91q64 0 102 44t38 120t-38 119.5t-102 43.5t-102 -43.5t-38 -119.5t38 -120t102 -44zM436 589q9 -18 -0.5 -31t-25.5 -14.5t-26 14.5l-85 135l-85 -135q-10 -16 -26 -14.5t-25.5 14.5t-0.5 31l79 143q20 37 58 37
q39 0 59 -37z" />
    <glyph glyph-name="Gbreve" unicode="&#x11e;" horiz-adv-x="731" 
d="M412 -9q-115 0 -194 43.5t-119.5 124.5t-40.5 193q0 111 41 192.5t119 125.5t187 44q60 0 117.5 -15.5t106.5 -50.5q17 -12 19.5 -29.5t-6 -33t-24.5 -21t-36 6.5q-39 27 -82 39.5t-95 12.5q-117 0 -178 -70.5t-61 -200.5q0 -133 62.5 -202t187.5 -69q76 0 151 25v189
h-129q-43 0 -43 40q0 38 43 38h173q43 0 43 -43v-252q0 -38 -28 -49q-43 -17 -101 -27.5t-113 -10.5zM396 760q-62 0 -108.5 35t-62.5 104q-4 17 4.5 27.5t20.5 11.5q16 2 24.5 -6.5t11.5 -19.5q10 -48 41.5 -68t68.5 -20t68.5 20t41.5 68q3 11 11.5 19.5t24.5 6.5
q12 -1 20.5 -11.5t4.5 -27.5q-16 -69 -62.5 -104t-108.5 -35z" />
    <glyph glyph-name="gbreve" unicode="&#x11f;" horiz-adv-x="594" 
d="M292 -189q-54 0 -104.5 11t-91.5 36q-18 10 -22 25t3.5 29t21 20.5t29.5 -2.5q44 -24 83.5 -32.5t73.5 -8.5q140 0 140 140v77q-21 -44 -65.5 -69t-99.5 -25q-66 0 -115 30.5t-76 85t-27 127.5q0 72 27 126.5t76 85t115 30.5q55 0 98.5 -24.5t64.5 -66.5v38q0 51 50 51
t50 -51v-403q0 -115 -59 -172.5t-172 -57.5zM284 91q64 0 102 44t38 120t-38 119.5t-102 43.5t-102 -43.5t-38 -119.5t38 -120t102 -44zM299 550q-67 0 -107 44.5t-50 116.5q-3 17 5.5 27.5t21.5 10.5q29 1 34 -30q8 -52 33.5 -78.5t62.5 -26.5t63 26.5t33 78.5q5 31 34 30
q13 0 21.5 -10.5t5.5 -27.5q-9 -72 -49.5 -116.5t-107.5 -44.5z" />
    <glyph glyph-name="Gdotaccent" unicode="&#x120;" horiz-adv-x="731" 
d="M412 -9q-115 0 -194 43.5t-119.5 124.5t-40.5 193q0 111 41 192.5t119 125.5t187 44q60 0 117.5 -15.5t106.5 -50.5q17 -12 19.5 -29.5t-6 -33t-24.5 -21t-36 6.5q-39 27 -82 39.5t-95 12.5q-117 0 -178 -70.5t-61 -200.5q0 -133 62.5 -202t187.5 -69q76 0 151 25v189
h-129q-43 0 -43 40q0 38 43 38h173q43 0 43 -43v-252q0 -38 -28 -49q-43 -17 -101 -27.5t-113 -10.5zM396 797q-56 0 -56 54t56 54t56 -54t-56 -54z" />
    <glyph glyph-name="gdotaccent" unicode="&#x121;" horiz-adv-x="594" 
d="M292 -189q-54 0 -104.5 11t-91.5 36q-18 10 -22 25t3.5 29t21 20.5t29.5 -2.5q44 -24 83.5 -32.5t73.5 -8.5q140 0 140 140v77q-21 -44 -65.5 -69t-99.5 -25q-66 0 -115 30.5t-76 85t-27 127.5q0 72 27 126.5t76 85t115 30.5q55 0 98.5 -24.5t64.5 -66.5v38q0 51 50 51
t50 -51v-403q0 -115 -59 -172.5t-172 -57.5zM284 91q64 0 102 44t38 120t-38 119.5t-102 43.5t-102 -43.5t-38 -119.5t38 -120t102 -44zM299 600q-56 0 -56 55q0 53 56 53q57 0 57 -53q0 -55 -57 -55z" />
    <glyph glyph-name="uni0122" unicode="&#x122;" horiz-adv-x="731" 
d="M412 -9q-115 0 -194 43.5t-119.5 124.5t-40.5 193q0 111 41 192.5t119 125.5t187 44q60 0 117.5 -15.5t106.5 -50.5q17 -12 19.5 -29.5t-6 -33t-24.5 -21t-36 6.5q-39 27 -82 39.5t-95 12.5q-117 0 -178 -70.5t-61 -200.5q0 -133 62.5 -202t187.5 -69q76 0 151 25v189
h-129q-43 0 -43 40q0 38 43 38h173q43 0 43 -43v-252q0 -38 -28 -49q-43 -17 -101 -27.5t-113 -10.5zM422 -255q-12 -14 -26.5 -12.5t-20.5 13.5t6 30q15 21 20 47q-57 3 -57 53q0 25 15.5 38.5t42.5 13.5q59 0 59 -63q0 -29 -9.5 -62t-29.5 -58z" />
    <glyph glyph-name="uni0123" unicode="&#x123;" horiz-adv-x="594" 
d="M292 -189q-54 0 -104.5 11t-91.5 36q-18 10 -22 25t3.5 29t21 20.5t29.5 -2.5q44 -24 83.5 -32.5t73.5 -8.5q140 0 140 140v77q-21 -44 -65.5 -69t-99.5 -25q-66 0 -115 30.5t-76 85t-27 127.5q0 72 27 126.5t76 85t115 30.5q55 0 98.5 -24.5t64.5 -66.5v38q0 51 50 51
t50 -51v-403q0 -115 -59 -172.5t-172 -57.5zM284 91q64 0 102 44t38 120t-38 119.5t-102 43.5t-102 -43.5t-38 -119.5t38 -120t102 -44zM300 561q-59 0 -59 63q0 29 9.5 62t29.5 57q12 15 26.5 13.5t20.5 -13.5t-6 -30q-15 -21 -20 -47q57 -3 57 -53q0 -25 -15.5 -38.5
t-42.5 -13.5z" />
    <glyph glyph-name="Hcircumflex" unicode="&#x124;" horiz-adv-x="767" 
d="M134 -7q-52 0 -52 53v613q0 53 52 53t52 -53v-258h395v258q0 53 52 53q51 0 51 -53v-613q0 -53 -51 -53q-52 0 -52 53v268h-395v-268q0 -53 -52 -53zM292 770q-14 -15 -30.5 -12.5t-24.5 15.5t4 29l81 113q23 33 61 33t62 -33l80 -113q12 -16 4 -29t-24.5 -15.5
t-30.5 12.5l-91 107z" />
    <glyph glyph-name="hcircumflex" unicode="&#x125;" horiz-adv-x="576" 
d="M121 -7q-50 0 -50 51v617q0 51 50 51q51 0 51 -51v-249q25 42 67.5 63.5t95.5 21.5q173 0 173 -196v-257q0 -51 -50 -51q-51 0 -51 51v251q0 63 -24.5 92t-76.5 29q-61 0 -97.5 -38.5t-36.5 -101.5v-232q0 -51 -51 -51zM198 770q-14 -15 -30.5 -12.5t-24.5 15.5t4 29
l81 113q23 33 61 33t62 -33l80 -113q12 -16 4 -29t-24.5 -15.5t-30.5 12.5l-91 107z" />
    <glyph glyph-name="Hbar" unicode="&#x126;" horiz-adv-x="807" 
d="M155 -7q-53 0 -53 53v470h-54q-41 0 -41 39q0 38 41 38h54v66q0 53 53 53q51 0 51 -53v-66h395v66q0 53 52 53t52 -53v-66h54q41 0 41 -38q0 -39 -41 -39h-54v-470q0 -53 -52 -53t-52 53v261h-395v-261q0 -53 -51 -53zM206 394h395v122h-395v-122z" />
    <glyph glyph-name="hbar" unicode="&#x127;" horiz-adv-x="576" 
d="M121 -7q-50 0 -50 51v505h-53q-39 0 -39 37q0 36 39 36h53v43q0 47 50 47q24 0 37.5 -12.5t13.5 -34.5v-43h153q40 0 40 -36q0 -37 -40 -37h-153v-137q25 42 67.5 63.5t95.5 21.5q173 0 173 -196v-257q0 -51 -50 -51q-51 0 -51 51v251q0 63 -24.5 92t-76.5 29
q-61 0 -97.5 -38.5t-36.5 -101.5v-232q0 -51 -51 -51z" />
    <glyph glyph-name="Itilde" unicode="&#x128;" horiz-adv-x="268" 
d="M134 -7q-52 0 -52 53v613q0 53 52 53t52 -53v-613q0 -53 -52 -53zM-52 775q-13 0 -21 8.5t-5 24.5q11 54 43.5 83.5t79.5 29.5q27 0 51.5 -10.5t46.5 -24.5t42.5 -25t40.5 -11q26 0 42.5 15t21.5 40q7 24 30 23q13 -1 21 -9.5t5 -23.5q-11 -54 -43 -84t-79 -30
q-28 0 -52 11t-46.5 25t-43 25t-40.5 11q-26 0 -42.5 -15.5t-21.5 -39.5q-7 -24 -30 -23z" />
    <glyph glyph-name="itilde" unicode="&#x129;" horiz-adv-x="243" 
d="M121 -6q-50 0 -50 55v390q0 54 50 54q51 0 51 -54v-390q0 -55 -51 -55zM-39 584q-12 1 -19 9t-4 24q8 44 34 79t76 35q24 0 43 -11t35 -25t32 -25t35 -11q22 0 37.5 16t20.5 42q4 21 30 20q12 0 19 -8t4 -25q-8 -44 -34 -78.5t-76 -34.5q-24 0 -43 10.5t-35.5 24.5
t-32.5 25t-34 11q-22 0 -37.5 -15.5t-20.5 -42.5q-4 -21 -30 -20z" />
    <glyph glyph-name="Imacron" unicode="&#x12a;" horiz-adv-x="268" 
d="M134 -7q-52 0 -52 53v613q0 53 52 53t52 -53v-613q0 -53 -52 -53zM-3 811q-34 0 -34 31q0 32 34 32h275q33 0 33 -32q0 -31 -33 -31h-275z" />
    <glyph glyph-name="imacron" unicode="&#x12b;" horiz-adv-x="243" 
d="M121 -6q-50 0 -50 55v390q0 54 50 54q51 0 51 -54v-390q0 -55 -51 -55zM-1 621q-34 0 -34 32t34 32h245q33 0 33 -32t-33 -32h-245z" />
    <glyph glyph-name="Ibreve" unicode="&#x12c;" horiz-adv-x="268" 
d="M134 -7q-52 0 -52 53v613q0 53 52 53t52 -53v-613q0 -53 -52 -53zM134 760q-62 0 -108.5 35t-62.5 104q-4 17 4.5 27.5t20.5 11.5q16 2 24.5 -6.5t11.5 -19.5q10 -48 41.5 -68t68.5 -20t68.5 20t41.5 68q3 11 11.5 19.5t24.5 6.5q12 -1 20.5 -11.5t4.5 -27.5
q-16 -69 -62.5 -104t-108.5 -35z" />
    <glyph glyph-name="ibreve" unicode="&#x12d;" horiz-adv-x="243" 
d="M121 -6q-50 0 -50 55v390q0 54 50 54q51 0 51 -54v-390q0 -55 -51 -55zM121 550q-67 0 -107 44.5t-50 116.5q-3 17 5.5 27.5t21.5 10.5q29 1 34 -30q8 -52 33.5 -78.5t62.5 -26.5t63 26.5t33 78.5q5 31 34 30q13 0 21.5 -10.5t5.5 -27.5q-9 -72 -49.5 -116.5
t-107.5 -44.5z" />
    <glyph glyph-name="Iogonek" unicode="&#x12e;" horiz-adv-x="268" 
d="M147 -194q-52 0 -81.5 27.5t-29.5 73.5q0 31 15 59t41 47q-10 13 -10 33v613q0 53 52 53t52 -53v-613q0 -18 -7 -30.5t-18 -17.5q-23 -11 -40.5 -32t-17.5 -48t16.5 -40.5t40.5 -13.5q16 0 33 5q21 6 29.5 -5t5 -26.5t-20.5 -22.5q-15 -5 -30.5 -7t-29.5 -2z" />
    <glyph glyph-name="iogonek" unicode="&#x12f;" horiz-adv-x="243" 
d="M121 597q-30 0 -46.5 15t-16.5 42q0 57 63 57t63 -57t-63 -57zM133 -194q-51 0 -81 27.5t-30 73.5q0 30 15.5 58t42.5 49q-9 14 -9 35v390q0 54 50 54q51 0 51 -54v-390q0 -37 -28 -53q-23 -15 -38.5 -34t-15.5 -44q0 -27 16.5 -40.5t40.5 -13.5q16 0 33 5q21 6 29.5 -5
t5 -26.5t-20.5 -22.5q-15 -5 -30.5 -7t-30.5 -2z" />
    <glyph glyph-name="Idotaccent" unicode="&#x130;" horiz-adv-x="268" 
d="M134 -7q-52 0 -52 53v613q0 53 52 53t52 -53v-613q0 -53 -52 -53zM134 797q-56 0 -56 54t56 54t56 -54t-56 -54z" />
    <glyph glyph-name="dotlessi" unicode="&#x131;" horiz-adv-x="243" 
d="M121 -6q-50 0 -50 55v390q0 54 50 54q51 0 51 -54v-390q0 -55 -51 -55z" />
    <glyph glyph-name="IJ" unicode="&#x132;" horiz-adv-x="606" 
d="M134 -7q-52 0 -52 53v613q0 53 52 53t52 -53v-613q0 -53 -52 -53zM304 -6q-23 -2 -36 11.5t-13 33.5q0 15 9.5 27t27.5 13l31 2q98 8 98 112v467q0 52 51 52q52 0 52 -52v-467q0 -91 -47.5 -141t-138.5 -56z" />
    <glyph glyph-name="Jcircumflex" unicode="&#x134;" horiz-adv-x="338" 
d="M36 -6q-23 -2 -36 11.5t-13 33.5q0 15 9.5 27t27.5 13l31 2q98 8 98 112v467q0 52 51 52q52 0 52 -52v-467q0 -91 -47.5 -141t-138.5 -56zM112 770q-14 -15 -30.5 -12.5t-24.5 15.5t4 29l81 113q23 33 61 33t62 -33l80 -113q12 -16 4 -29t-24.5 -15.5t-30.5 12.5l-91 107
z" />
    <glyph glyph-name="jcircumflex" unicode="&#x135;" horiz-adv-x="246" 
d="M-7 -190q-23 -1 -35 9.5t-13.5 25.5t6.5 27t26 14q50 3 73.5 27t23.5 76v455q0 51 51 51q50 0 50 -51v-447q0 -94 -45.5 -138t-136.5 -49zM262 589q9 -18 -0.5 -31t-25.5 -14.5t-26 14.5l-85 135l-85 -135q-10 -16 -26 -14.5t-25.5 14.5t-0.5 31l79 143q20 37 58 37
q39 0 59 -37z" />
    <glyph glyph-name="uni0136" unicode="&#x136;" horiz-adv-x="643" 
d="M134 -7q-52 0 -52 53v614q0 52 52 52t52 -52v-272h2l307 297q28 27 59 27q23 0 33.5 -11.5t8.5 -28t-17 -30.5l-292 -278l307 -295q18 -18 19 -35.5t-11 -29t-34 -11.5q-20 0 -32.5 8t-27.5 23l-320 305h-2v-283q0 -53 -52 -53zM342 -255q-12 -14 -26.5 -12.5t-20.5 13.5
t6 30q15 21 20 47q-57 3 -57 53q0 25 15.5 38.5t42.5 13.5q59 0 59 -63q0 -29 -9.5 -62t-29.5 -58z" />
    <glyph glyph-name="uni0137" unicode="&#x137;" horiz-adv-x="516" 
d="M121 -7q-50 0 -50 51v617q0 51 50 51q51 0 51 -51v-386h2l187 186q16 16 29 25t34 9q31 0 40.5 -23t-12.5 -46l-175 -173l193 -191q16 -16 15 -32t-13 -26.5t-30 -10.5q-23 0 -36.5 9t-31.5 27l-200 194h-2v-179q0 -51 -51 -51zM277 -255q-12 -14 -26.5 -12.5t-20.5 13.5
t6 30q15 21 20 47q-57 3 -57 53q0 25 15.5 38.5t42.5 13.5q59 0 59 -63q0 -29 -9.5 -62t-29.5 -58z" />
    <glyph glyph-name="kgreenlandic" unicode="&#x138;" horiz-adv-x="516" 
d="M121 -7q-50 0 -50 51v400q0 51 50 51q51 0 51 -51v-169h2l187 186q16 16 28.5 25t33.5 9q31 0 41 -23t-12 -46l-175 -173l193 -191q16 -16 15 -32t-13 -26.5t-30 -10.5q-23 0 -36.5 9t-31.5 27l-200 194h-2v-179q0 -51 -51 -51z" />
    <glyph glyph-name="Lacute" unicode="&#x139;" horiz-adv-x="552" 
d="M135 0q-53 0 -53 53v603q0 53 52 53t52 -53v-567h310q46 0 46 -44q0 -45 -46 -45h-361zM176 770q-13 -15 -29.5 -11.5t-24.5 17.5t3 30l84 123q12 18 29 19t31 -8.5t17.5 -24.5t-9.5 -30z" />
    <glyph glyph-name="lacute" unicode="&#x13a;" horiz-adv-x="306" 
d="M228 -9q-78 0 -117.5 45t-39.5 132v493q0 51 50 51q51 0 51 -51v-487q0 -99 80 -99q9 0 16 1t14 1q12 1 17 -6.5t5 -30.5q0 -41 -38 -47q-10 -1 -19.5 -1.5t-18.5 -0.5zM163 770q-13 -15 -29.5 -11.5t-24.5 17.5t3 30l84 123q12 18 29 19t31 -8.5t17.5 -24.5t-9.5 -30z
" />
    <glyph glyph-name="uni013B" unicode="&#x13b;" horiz-adv-x="552" 
d="M135 0q-53 0 -53 53v603q0 53 52 53t52 -53v-567h310q46 0 46 -44q0 -45 -46 -45h-361zM328 -255q-12 -14 -26.5 -12.5t-20.5 13.5t6 30q15 21 20 47q-57 3 -57 53q0 25 15.5 38.5t42.5 13.5q59 0 59 -63q0 -29 -9.5 -62t-29.5 -58z" />
    <glyph glyph-name="uni013C" unicode="&#x13c;" horiz-adv-x="306" 
d="M228 -9q-78 0 -117.5 45t-39.5 132v493q0 51 50 51q51 0 51 -51v-487q0 -99 80 -99q9 0 16 1t14 1q12 1 17 -6.5t5 -30.5q0 -41 -38 -47q-10 -1 -19.5 -1.5t-18.5 -0.5zM208 -255q-12 -14 -26.5 -12.5t-20.5 13.5t6 30q15 21 20 47q-57 3 -57 53q0 25 15.5 38.5
t42.5 13.5q59 0 59 -63q0 -29 -9.5 -62t-29.5 -58z" />
    <glyph glyph-name="Lcaron" unicode="&#x13d;" horiz-adv-x="552" 
d="M135 0q-53 0 -53 53v603q0 53 52 53t52 -53v-567h310q46 0 46 -44q0 -45 -46 -45h-361zM327 469q-31 0 -31 32v169q0 42 42 42q41 0 38 -43l-16 -169q-3 -31 -33 -31z" />
    <glyph glyph-name="lcaron" unicode="&#x13e;" horiz-adv-x="306" 
d="M228 -9q-78 0 -117.5 45t-39.5 132v493q0 51 50 51q51 0 51 -51v-487q0 -99 80 -99q9 0 16 1t14 1q12 1 17 -6.5t5 -30.5q0 -41 -38 -47q-10 -1 -19.5 -1.5t-18.5 -0.5zM240 508q-25 0 -25 26v141q0 37 37 37q38 0 33 -38l-19 -141q-3 -25 -26 -25z" />
    <glyph glyph-name="Ldot" unicode="&#x13f;" horiz-adv-x="552" 
d="M135 0q-53 0 -53 53v603q0 53 52 53t52 -53v-567h310q46 0 46 -44q0 -45 -46 -45h-361zM413 328q-29 0 -46.5 18t-17.5 45q0 29 17.5 46.5t46.5 17.5t46 -17.5t17 -46.5q0 -27 -17 -45t-46 -18z" />
    <glyph glyph-name="ldot" unicode="&#x140;" horiz-adv-x="354" 
d="M228 -9q-78 0 -117.5 45t-39.5 132v493q0 51 50 51q51 0 51 -51v-487q0 -99 80 -99q9 0 16 1t14 1q12 1 17 -6.5t5 -30.5q0 -41 -38 -47q-10 -1 -19.5 -1.5t-18.5 -0.5zM300 289q-29 0 -46.5 18t-17.5 45q0 29 17.5 46.5t46.5 17.5t46 -17.5t17 -46.5q0 -27 -17 -45
t-46 -18z" />
    <glyph glyph-name="Lslash" unicode="&#x141;" horiz-adv-x="552" 
d="M135 0q-53 0 -53 53v603q0 53 52 53t52 -53v-567h310q46 0 46 -44q0 -45 -46 -45h-361zM37 259q-19 -11 -34.5 -6t-23.5 19t-4.5 30t23.5 28l324 186q19 11 34.5 6t23.5 -19t4 -30.5t-23 -27.5z" />
    <glyph glyph-name="lslash" unicode="&#x142;" horiz-adv-x="306" 
d="M228 -9q-78 0 -117.5 45t-39.5 132v493q0 51 50 51q51 0 51 -51v-487q0 -99 80 -99q9 0 16 1t14 1q12 1 17 -6.5t5 -30.5q0 -41 -38 -47q-10 -1 -19.5 -1.5t-18.5 -0.5zM40 257q-19 -11 -34.5 -6t-23.5 18.5t-4.5 30t22.5 27.5l223 129q19 11 35 6t24 -18.5t4 -29.5
t-23 -27z" />
    <glyph glyph-name="Nacute" unicode="&#x143;" horiz-adv-x="743" 
d="M131 -7q-49 0 -49 50v617q0 25 12.5 38.5t33.5 13.5q18 0 28 -6.5t22 -23.5l387 -510v491q0 49 48 49t48 -49v-621q0 -23 -11.5 -36t-30.5 -13t-30 7t-24 24l-387 511v-492q0 -50 -47 -50zM414 770q-13 -15 -29.5 -11.5t-24.5 17.5t3 30l84 123q12 18 29 19t31 -8.5
t17.5 -24.5t-9.5 -30z" />
    <glyph glyph-name="nacute" unicode="&#x144;" horiz-adv-x="576" 
d="M121 -7q-50 0 -50 51v400q0 51 49 51t49 -51v-37q25 44 68.5 67t97.5 23q173 0 173 -196v-257q0 -51 -50 -51q-51 0 -51 51v251q0 63 -24.5 92t-76.5 29q-61 0 -97.5 -38.5t-36.5 -101.5v-232q0 -51 -51 -51zM328 558q-10 -16 -27 -14.5t-27.5 14.5t-1.5 31l81 157
q10 20 26.5 23t32 -5.5t21.5 -24t-6 -32.5z" />
    <glyph glyph-name="uni0145" unicode="&#x145;" horiz-adv-x="743" 
d="M131 -7q-49 0 -49 50v617q0 25 12.5 38.5t33.5 13.5q18 0 28 -6.5t22 -23.5l387 -510v491q0 49 48 49t48 -49v-621q0 -23 -11.5 -36t-30.5 -13t-30 7t-24 24l-387 511v-492q0 -50 -47 -50zM391 -255q-12 -14 -26.5 -12.5t-20.5 13.5t6 30q15 21 20 47q-57 3 -57 53
q0 25 15.5 38.5t42.5 13.5q59 0 59 -63q0 -29 -9.5 -62t-29.5 -58z" />
    <glyph glyph-name="uni0146" unicode="&#x146;" horiz-adv-x="576" 
d="M121 -7q-50 0 -50 51v400q0 51 49 51t49 -51v-37q25 44 68.5 67t97.5 23q173 0 173 -196v-257q0 -51 -50 -51q-51 0 -51 51v251q0 63 -24.5 92t-76.5 29q-61 0 -97.5 -38.5t-36.5 -101.5v-232q0 -51 -51 -51zM308 -255q-12 -14 -26.5 -12.5t-20.5 13.5t6 30q15 21 20 47
q-57 3 -57 53q0 25 15.5 38.5t42.5 13.5q59 0 59 -63q0 -29 -9.5 -62t-29.5 -58z" />
    <glyph glyph-name="Ncaron" unicode="&#x147;" horiz-adv-x="743" 
d="M131 -7q-49 0 -49 50v617q0 25 12.5 38.5t33.5 13.5q18 0 28 -6.5t22 -23.5l387 -510v491q0 49 48 49t48 -49v-621q0 -23 -11.5 -36t-30.5 -13t-30 7t-24 24l-387 511v-492q0 -50 -47 -50zM372 755q-38 0 -61 33l-81 113q-12 17 -3.5 30t25 15.5t29.5 -13.5l91 -108
l91 108q14 16 30.5 13.5t24.5 -15.5t-4 -30l-80 -113q-23 -33 -62 -33z" />
    <glyph glyph-name="ncaron" unicode="&#x148;" horiz-adv-x="576" 
d="M121 -7q-50 0 -50 51v400q0 51 49 51t49 -51v-37q25 44 68.5 67t97.5 23q173 0 173 -196v-257q0 -51 -50 -51q-51 0 -51 51v251q0 63 -24.5 92t-76.5 29q-61 0 -97.5 -38.5t-36.5 -101.5v-232q0 -51 -51 -51zM289 537q-38 0 -58 39l-79 143q-9 18 0.5 30.5t25.5 14.5
t26 -14l85 -136l85 136q10 16 26 14t25.5 -14.5t0.5 -30.5l-78 -143q-21 -39 -59 -39z" />
    <glyph glyph-name="napostrophe" unicode="&#x149;" horiz-adv-x="576" 
d="M56 584q-12 -15 -26.5 -13.5t-20.5 14t6 30.5q15 21 19 47q-27 1 -41.5 15t-14.5 37q0 25 15 39t43 14q59 0 59 -63q0 -29 -9.5 -62.5t-29.5 -57.5zM121 -7q-50 0 -50 51v400q0 51 49 51t49 -51v-37q25 44 68.5 67t97.5 23q173 0 173 -196v-257q0 -51 -50 -51
q-51 0 -51 51v251q0 63 -24.5 92t-76.5 29q-61 0 -97.5 -38.5t-36.5 -101.5v-232q0 -51 -51 -51z" />
    <glyph glyph-name="Eng" unicode="&#x14a;" horiz-adv-x="743" 
d="M477 -190q-23 -1 -35 9.5t-13 25.5t7.5 27t25.5 14q51 4 77 27t26 76v35l-387 511v-492q0 -50 -47 -50q-49 0 -49 50v617q0 25 12.5 38.5t33.5 13.5q18 0 28 -6.5t22 -23.5l387 -510v491q0 49 48 49t48 -49v-663q0 -99 -47 -142t-137 -48z" />
    <glyph glyph-name="eng" unicode="&#x14b;" horiz-adv-x="576" 
d="M320 -191q-23 -2 -35 8.5t-13 25.5t7.5 27.5t25.5 14.5q53 6 77.5 28.5t24.5 75.5v306q0 63 -24.5 92t-76.5 29q-61 0 -97.5 -38.5t-36.5 -101.5v-232q0 -51 -51 -51q-50 0 -50 51v400q0 51 49 51t49 -51v-37q25 44 68.5 67t97.5 23q173 0 173 -196v-304
q0 -94 -46.5 -138t-141.5 -50z" />
    <glyph glyph-name="Omacron" unicode="&#x14c;" horiz-adv-x="775" 
d="M388 -9q-101 0 -175 44.5t-114.5 126t-40.5 191.5q0 111 40.5 192t114.5 125t175 44q100 0 174.5 -44t115 -125t40.5 -191q0 -111 -40.5 -192.5t-115 -126t-174.5 -44.5zM388 81q105 0 163.5 71.5t58.5 200.5t-58 200t-164 71q-105 0 -163.5 -71t-58.5 -200t58.5 -200.5
t163.5 -71.5zM250 811q-34 0 -34 31q0 32 34 32h275q33 0 33 -32q0 -31 -33 -31h-275z" />
    <glyph glyph-name="omacron" unicode="&#x14d;" horiz-adv-x="565" 
d="M283 -9q-74 0 -128 31t-83.5 87.5t-29.5 134.5t29.5 134.5t83.5 87.5t128 31q72 0 126 -31t84 -87.5t30 -134.5t-30 -134.5t-84 -87.5t-126 -31zM283 69q62 0 100 45t38 130t-38 129.5t-100 44.5q-63 0 -101 -44.5t-38 -129.5t38 -130t101 -45zM161 621q-34 0 -34 32
t34 32h245q33 0 33 -32t-33 -32h-245z" />
    <glyph glyph-name="Obreve" unicode="&#x14e;" horiz-adv-x="775" 
d="M388 -9q-101 0 -175 44.5t-114.5 126t-40.5 191.5q0 111 40.5 192t114.5 125t175 44q100 0 174.5 -44t115 -125t40.5 -191q0 -111 -40.5 -192.5t-115 -126t-174.5 -44.5zM388 81q105 0 163.5 71.5t58.5 200.5t-58 200t-164 71q-105 0 -163.5 -71t-58.5 -200t58.5 -200.5
t163.5 -71.5zM387 760q-62 0 -108.5 35t-62.5 104q-4 17 4.5 27.5t20.5 11.5q16 2 24.5 -6.5t11.5 -19.5q10 -48 41.5 -68t68.5 -20t68.5 20t41.5 68q3 11 11.5 19.5t24.5 6.5q12 -1 20.5 -11.5t4.5 -27.5q-16 -69 -62.5 -104t-108.5 -35z" />
    <glyph glyph-name="obreve" unicode="&#x14f;" horiz-adv-x="565" 
d="M283 -9q-74 0 -128 31t-83.5 87.5t-29.5 134.5t29.5 134.5t83.5 87.5t128 31q72 0 126 -31t84 -87.5t30 -134.5t-30 -134.5t-84 -87.5t-126 -31zM283 69q62 0 100 45t38 130t-38 129.5t-100 44.5q-63 0 -101 -44.5t-38 -129.5t38 -130t101 -45zM283 550q-67 0 -107 44.5
t-50 116.5q-3 17 5.5 27.5t21.5 10.5q29 1 34 -30q8 -52 33.5 -78.5t62.5 -26.5t63 26.5t33 78.5q5 31 34 30q13 0 21.5 -10.5t5.5 -27.5q-9 -72 -49.5 -116.5t-107.5 -44.5z" />
    <glyph glyph-name="Ohungarumlaut" unicode="&#x150;" horiz-adv-x="775" 
d="M388 -9q-101 0 -175 44.5t-114.5 126t-40.5 191.5q0 111 40.5 192t114.5 125t175 44q100 0 174.5 -44t115 -125t40.5 -191q0 -111 -40.5 -192.5t-115 -126t-174.5 -44.5zM388 81q105 0 163.5 71.5t58.5 200.5t-58 200t-164 71q-105 0 -163.5 -71t-58.5 -200t58.5 -200.5
t163.5 -71.5zM487 769q-11 -14 -24.5 -12.5t-20.5 13t1 27.5l69 129q9 18 25 21t29.5 -4.5t17.5 -22t-9 -31.5zM353 771q-11 -15 -25.5 -14t-22.5 12t0 26l64 130q10 18 25.5 21.5t29.5 -4t19 -22t-8 -31.5z" />
    <glyph glyph-name="ohungarumlaut" unicode="&#x151;" horiz-adv-x="565" 
d="M283 -9q-74 0 -128 31t-83.5 87.5t-29.5 134.5t29.5 134.5t83.5 87.5t128 31q72 0 126 -31t84 -87.5t30 -134.5t-30 -134.5t-84 -87.5t-126 -31zM283 69q62 0 100 45t38 130t-38 129.5t-100 44.5q-63 0 -101 -44.5t-38 -129.5t38 -130t101 -45zM381 561q-6 -15 -20.5 -17
t-25 6.5t-6.5 26.5l41 159q6 21 21.5 28.5t31.5 3t24.5 -17.5t0.5 -33zM244 561q-7 -15 -21 -17t-25 6.5t-6 26.5l41 159q6 21 21.5 28.5t31.5 3t24.5 -17.5t-0.5 -33z" />
    <glyph glyph-name="OE" unicode="&#x152;" horiz-adv-x="1051" 
d="M421 0q-174 0 -268.5 91.5t-94.5 261.5t94.5 261t268.5 91h543q44 0 44 -41q0 -43 -44 -43h-320v-221h299q43 0 43 -42t-43 -42h-299v-232h320q44 0 44 -42t-44 -42h-543zM427 87h117v531h-117q-261 0 -261 -265q0 -266 261 -266z" />
    <glyph glyph-name="oe" unicode="&#x153;" horiz-adv-x="912" 
d="M280 -9q-72 0 -125.5 31t-83 87.5t-29.5 134.5t29.5 134.5t83 87.5t125.5 31q65 0 114 -28t77 -80q27 49 76.5 78.5t112.5 29.5q99 0 156.5 -64.5t57.5 -177.5q0 -34 -41 -34h-311q11 -152 155 -152q29 0 62.5 7.5t63.5 27.5q21 12 36.5 8.5t22.5 -17t2.5 -30
t-23.5 -28.5q-34 -22 -78.5 -34t-84.5 -12q-73 0 -127 27.5t-82 79.5q-28 -51 -76.5 -79t-112.5 -28zM660 426q-62 0 -96.5 -39t-41.5 -104h266q-3 68 -35.5 105.5t-92.5 37.5zM283 69q62 0 100 45t38 130t-38 129.5t-100 44.5q-63 0 -101 -44.5t-38 -129.5t38 -130t101 -45
z" />
    <glyph glyph-name="Racute" unicode="&#x154;" horiz-adv-x="677" 
d="M134 -7q-52 0 -52 53v606q0 53 53 53h239q114 0 176 -54.5t62 -152.5q0 -79 -42 -129.5t-119 -67.5q48 -16 81 -77l86 -160q15 -27 6 -49t-41 -22q-22 0 -36 9t-24 29l-105 194q-21 39 -48.5 52.5t-70.5 13.5h-113v-245q0 -53 -52 -53zM186 369h171q154 0 154 127
q0 126 -154 126h-171v-253zM386 770q-13 -15 -29.5 -11.5t-24.5 17.5t3 30l84 123q12 18 29 19t31 -8.5t17.5 -24.5t-9.5 -30z" />
    <glyph glyph-name="racute" unicode="&#x155;" horiz-adv-x="373" 
d="M122 -7q-51 0 -51 51v400q0 51 49 51t49 -51v-43q20 45 60.5 69t98.5 28q37 3 40 -40q4 -44 -43 -48l-19 -2q-133 -13 -133 -137v-227q0 -51 -51 -51zM259 558q-10 -16 -27 -14.5t-27.5 14.5t-1.5 31l81 157q10 20 26.5 23t32 -5.5t21.5 -24t-6 -32.5z" />
    <glyph glyph-name="uni0156" unicode="&#x156;" horiz-adv-x="677" 
d="M134 -7q-52 0 -52 53v606q0 53 53 53h239q114 0 176 -54.5t62 -152.5q0 -79 -42 -129.5t-119 -67.5q48 -16 81 -77l86 -160q15 -27 6 -49t-41 -22q-22 0 -36 9t-24 29l-105 194q-21 39 -48.5 52.5t-70.5 13.5h-113v-245q0 -53 -52 -53zM186 369h171q154 0 154 127
q0 126 -154 126h-171v-253zM364 -255q-12 -14 -26.5 -12.5t-20.5 13.5t6 30q15 21 20 47q-57 3 -57 53q0 25 15.5 38.5t42.5 13.5q59 0 59 -63q0 -29 -9.5 -62t-29.5 -58z" />
    <glyph glyph-name="uni0157" unicode="&#x157;" horiz-adv-x="373" 
d="M122 -7q-51 0 -51 51v400q0 51 49 51t49 -51v-43q20 45 60.5 69t98.5 28q37 3 40 -40q4 -44 -43 -48l-19 -2q-133 -13 -133 -137v-227q0 -51 -51 -51zM141 -255q-12 -14 -26.5 -12.5t-20.5 13.5t6 30q15 21 20 47q-57 3 -57 53q0 25 15.5 38.5t42.5 13.5q59 0 59 -63
q0 -29 -9.5 -62t-29.5 -58z" />
    <glyph glyph-name="Rcaron" unicode="&#x158;" horiz-adv-x="677" 
d="M134 -7q-52 0 -52 53v606q0 53 53 53h239q114 0 176 -54.5t62 -152.5q0 -79 -42 -129.5t-119 -67.5q48 -16 81 -77l86 -160q15 -27 6 -49t-41 -22q-22 0 -36 9t-24 29l-105 194q-21 39 -48.5 52.5t-70.5 13.5h-113v-245q0 -53 -52 -53zM186 369h171q154 0 154 127
q0 126 -154 126h-171v-253zM344 755q-38 0 -61 33l-81 113q-12 17 -3.5 30t25 15.5t29.5 -13.5l91 -108l91 108q14 16 30.5 13.5t24.5 -15.5t-4 -30l-80 -113q-23 -33 -62 -33z" />
    <glyph glyph-name="rcaron" unicode="&#x159;" horiz-adv-x="373" 
d="M122 -7q-51 0 -51 51v400q0 51 49 51t49 -51v-43q20 45 60.5 69t98.5 28q37 3 40 -40q4 -44 -43 -48l-19 -2q-133 -13 -133 -137v-227q0 -51 -51 -51zM220 537q-38 0 -58 39l-79 143q-9 18 0.5 30.5t25.5 14.5t26 -14l85 -136l85 136q10 16 26 14t25.5 -14.5t0.5 -30.5
l-78 -143q-21 -39 -59 -39z" />
    <glyph glyph-name="Sacute" unicode="&#x15a;" horiz-adv-x="622" 
d="M317 -9q-69 0 -132.5 16t-110.5 48q-19 13 -23 31.5t3.5 34t23 21.5t35.5 -7q45 -29 95 -42.5t109 -13.5q85 0 125.5 30.5t40.5 79.5q0 40 -29 63.5t-97 37.5l-107 22q-95 20 -141.5 66t-46.5 124q0 63 33.5 111t93.5 74.5t138 26.5q62 0 116.5 -16t97.5 -49
q17 -12 20 -29t-5 -31.5t-24 -19.5t-37 8q-39 26 -80 37.5t-89 11.5q-74 0 -117.5 -33t-43.5 -88q0 -42 27 -67t90 -38l106 -22q100 -21 149 -64.5t49 -117.5q0 -62 -33 -108t-93 -71.5t-143 -25.5zM361 770q-13 -15 -29.5 -11.5t-24.5 17.5t3 30l84 123q12 18 29 19
t31 -8.5t17.5 -24.5t-9.5 -30z" />
    <glyph glyph-name="sacute" unicode="&#x15b;" horiz-adv-x="484" 
d="M242 -9q-44 0 -91 10t-85 34q-17 10 -21 25t2 28t19.5 18.5t30.5 -3.5q39 -21 75 -30t71 -9q53 0 80 19t27 51q0 26 -18 40.5t-54 22.5l-95 19q-126 26 -126 130q0 69 55 110t144 41q90 0 155 -44q16 -10 19 -24.5t-4 -27t-20.5 -17.5t-31.5 4q-30 18 -60 26.5t-58 8.5
q-52 0 -79 -19.5t-27 -52.5q0 -50 66 -64l95 -19q65 -13 98.5 -44t33.5 -84q0 -70 -55 -109.5t-146 -39.5zM290 558q-10 -16 -27 -14.5t-27.5 14.5t-1.5 31l81 157q10 20 26.5 23t32 -5.5t21.5 -24t-6 -32.5z" />
    <glyph glyph-name="Scircumflex" unicode="&#x15c;" horiz-adv-x="622" 
d="M317 -9q-69 0 -132.5 16t-110.5 48q-19 13 -23 31.5t3.5 34t23 21.5t35.5 -7q45 -29 95 -42.5t109 -13.5q85 0 125.5 30.5t40.5 79.5q0 40 -29 63.5t-97 37.5l-107 22q-95 20 -141.5 66t-46.5 124q0 63 33.5 111t93.5 74.5t138 26.5q62 0 116.5 -16t97.5 -49
q17 -12 20 -29t-5 -31.5t-24 -19.5t-37 8q-39 26 -80 37.5t-89 11.5q-74 0 -117.5 -33t-43.5 -88q0 -42 27 -67t90 -38l106 -22q100 -21 149 -64.5t49 -117.5q0 -62 -33 -108t-93 -71.5t-143 -25.5zM228 770q-14 -15 -30.5 -12.5t-24.5 15.5t4 29l81 113q23 33 61 33t62 -33
l80 -113q12 -16 4 -29t-24.5 -15.5t-30.5 12.5l-91 107z" />
    <glyph glyph-name="scircumflex" unicode="&#x15d;" horiz-adv-x="484" 
d="M242 -9q-44 0 -91 10t-85 34q-17 10 -21 25t2 28t19.5 18.5t30.5 -3.5q39 -21 75 -30t71 -9q53 0 80 19t27 51q0 26 -18 40.5t-54 22.5l-95 19q-126 26 -126 130q0 69 55 110t144 41q90 0 155 -44q16 -10 19 -24.5t-4 -27t-20.5 -17.5t-31.5 4q-30 18 -60 26.5t-58 8.5
q-52 0 -79 -19.5t-27 -52.5q0 -50 66 -64l95 -19q65 -13 98.5 -44t33.5 -84q0 -70 -55 -109.5t-146 -39.5zM388 589q9 -18 -0.5 -31t-25.5 -14.5t-26 14.5l-85 135l-85 -135q-10 -16 -26 -14.5t-25.5 14.5t-0.5 31l79 143q20 37 58 37q39 0 59 -37z" />
    <glyph glyph-name="Scedilla" unicode="&#x15e;" horiz-adv-x="622" 
d="M317 -9q-69 0 -132.5 16t-110.5 48q-19 13 -23 31.5t3.5 34t23 21.5t35.5 -7q45 -29 95 -42.5t109 -13.5q85 0 125.5 30.5t40.5 79.5q0 40 -29 63.5t-97 37.5l-107 22q-95 20 -141.5 66t-46.5 124q0 63 33.5 111t93.5 74.5t138 26.5q62 0 116.5 -16t97.5 -49
q17 -12 20 -29t-5 -31.5t-24 -19.5t-37 8q-39 26 -80 37.5t-89 11.5q-74 0 -117.5 -33t-43.5 -88q0 -42 27 -67t90 -38l106 -22q100 -21 149 -64.5t49 -117.5q0 -62 -33 -108t-93 -71.5t-143 -25.5zM321 -194q-19 0 -39 3t-36 9q-18 7 -20 21.5t8 25t28 3.5q22 -8 53 -8
q27 0 42 8.5t15 24.5q0 26 -38 26q-8 0 -15.5 -0.5t-16.5 -3.5q-15 -4 -23 2t-5 25l12 78h58l-10 -61q8 1 15 1q39 0 63 -18.5t24 -51.5q0 -37 -32 -60.5t-83 -23.5z" />
    <glyph glyph-name="scedilla" unicode="&#x15f;" horiz-adv-x="484" 
d="M242 -9q-44 0 -91 10t-85 34q-17 10 -21 25t2 28t19.5 18.5t30.5 -3.5q39 -21 75 -30t71 -9q53 0 80 19t27 51q0 26 -18 40.5t-54 22.5l-95 19q-126 26 -126 130q0 69 55 110t144 41q90 0 155 -44q16 -10 19 -24.5t-4 -27t-20.5 -17.5t-31.5 4q-30 18 -60 26.5t-58 8.5
q-52 0 -79 -19.5t-27 -52.5q0 -50 66 -64l95 -19q65 -13 98.5 -44t33.5 -84q0 -70 -55 -109.5t-146 -39.5zM244 -194q-19 0 -39 3t-36 9q-18 7 -20 21.5t8 25t28 3.5q22 -8 53 -8q27 0 42 8.5t15 24.5q0 26 -38 26q-8 0 -15.5 -0.5t-16.5 -3.5q-15 -4 -23 2t-5 25l12 78h58
l-10 -61q8 1 15 1q39 0 63 -18.5t24 -51.5q0 -37 -32 -60.5t-83 -23.5z" />
    <glyph glyph-name="Scaron" unicode="&#x160;" horiz-adv-x="622" 
d="M317 -9q-69 0 -132.5 16t-110.5 48q-19 13 -23 31.5t3.5 34t23 21.5t35.5 -7q45 -29 95 -42.5t109 -13.5q85 0 125.5 30.5t40.5 79.5q0 40 -29 63.5t-97 37.5l-107 22q-95 20 -141.5 66t-46.5 124q0 63 33.5 111t93.5 74.5t138 26.5q62 0 116.5 -16t97.5 -49
q17 -12 20 -29t-5 -31.5t-24 -19.5t-37 8q-39 26 -80 37.5t-89 11.5q-74 0 -117.5 -33t-43.5 -88q0 -42 27 -67t90 -38l106 -22q100 -21 149 -64.5t49 -117.5q0 -62 -33 -108t-93 -71.5t-143 -25.5zM319 755q-38 0 -61 33l-81 113q-12 17 -3.5 30t25 15.5t29.5 -13.5
l91 -108l91 108q14 16 30.5 13.5t24.5 -15.5t-4 -30l-80 -113q-23 -33 -62 -33z" />
    <glyph glyph-name="scaron" unicode="&#x161;" horiz-adv-x="484" 
d="M242 -9q-44 0 -91 10t-85 34q-17 10 -21 25t2 28t19.5 18.5t30.5 -3.5q39 -21 75 -30t71 -9q53 0 80 19t27 51q0 26 -18 40.5t-54 22.5l-95 19q-126 26 -126 130q0 69 55 110t144 41q90 0 155 -44q16 -10 19 -24.5t-4 -27t-20.5 -17.5t-31.5 4q-30 18 -60 26.5t-58 8.5
q-52 0 -79 -19.5t-27 -52.5q0 -50 66 -64l95 -19q65 -13 98.5 -44t33.5 -84q0 -70 -55 -109.5t-146 -39.5zM251 537q-38 0 -58 39l-79 143q-9 18 0.5 30.5t25.5 14.5t26 -14l85 -136l85 136q10 16 26 14t25.5 -14.5t0.5 -30.5l-78 -143q-21 -39 -59 -39z" />
    <glyph glyph-name="uni0162" unicode="&#x162;" horiz-adv-x="611" 
d="M306 -7q-52 0 -52 53v572h-212q-45 0 -45 44q0 43 45 43h527q46 0 46 -43q0 -44 -46 -44h-212v-572q0 -53 -51 -53zM308 -194q-19 0 -39 3t-36 9q-18 7 -20 21.5t8 25t28 3.5q22 -8 53 -8q27 0 42 8.5t15 24.5q0 26 -38 26q-8 0 -15.5 -0.5t-16.5 -3.5q-15 -4 -23 2
t-5 25l12 78h58l-10 -61q8 1 15 1q39 0 63 -18.5t24 -51.5q0 -37 -32 -60.5t-83 -23.5z" />
    <glyph glyph-name="uni0163" unicode="&#x163;" horiz-adv-x="365" 
d="M279 -9q-92 0 -137 47t-45 136v236h-60q-42 0 -42 39t42 39h60v103q0 51 51 51q50 0 50 -51v-103h117q42 0 42 -39t-42 -39h-117v-228q0 -53 22.5 -80t73.5 -27q18 0 31 3.5t23 4.5q11 0 18 -7.5t7 -28.5q0 -16 -5.5 -28.5t-19.5 -16.5q-12 -5 -32.5 -8t-36.5 -3z
M224 -194q-19 0 -39 3t-36 9q-18 7 -20 21.5t8 25t28 3.5q22 -8 53 -8q27 0 42 8.5t15 24.5q0 26 -38 26q-8 0 -15.5 -0.5t-16.5 -3.5q-15 -4 -23 2t-5 25l12 78h58l-10 -61q8 1 15 1q39 0 63 -18.5t24 -51.5q0 -37 -32 -60.5t-83 -23.5z" />
    <glyph glyph-name="Tcaron" unicode="&#x164;" horiz-adv-x="611" 
d="M306 -7q-52 0 -52 53v572h-212q-45 0 -45 44q0 43 45 43h527q46 0 46 -43q0 -44 -46 -44h-212v-572q0 -53 -51 -53zM306 755q-38 0 -61 33l-81 113q-12 17 -3.5 30t25 15.5t29.5 -13.5l91 -108l91 108q14 16 30.5 13.5t24.5 -15.5t-4 -30l-80 -113q-23 -33 -62 -33z" />
    <glyph glyph-name="tcaron" unicode="&#x165;" horiz-adv-x="365" 
d="M279 -9q-92 0 -137 47t-45 136v236h-60q-42 0 -42 39t42 39h60v103q0 51 51 51q50 0 50 -51v-103h117q42 0 42 -39t-42 -39h-117v-228q0 -53 22.5 -80t73.5 -27q18 0 31 3.5t23 4.5q11 0 18 -7.5t7 -28.5q0 -16 -5.5 -28.5t-19.5 -16.5q-12 -5 -32.5 -8t-36.5 -3z
M286 524q-25 0 -25 27v124q0 37 37 37q38 0 32 -38l-18 -125q-3 -25 -26 -25z" />
    <glyph glyph-name="Tbar" unicode="&#x166;" horiz-adv-x="611" 
d="M306 -7q-52 0 -52 53v572h-212q-45 0 -45 44q0 43 45 43h527q46 0 46 -43q0 -44 -46 -44h-212v-572q0 -53 -51 -53zM146 319q-40 0 -40 39q0 38 40 38h319q40 0 40 -38q0 -39 -40 -39h-319z" />
    <glyph glyph-name="tbar" unicode="&#x167;" horiz-adv-x="365" 
d="M279 -9q-92 0 -137 47t-45 136v236h-60q-42 0 -42 39t42 39h60v103q0 51 51 51q50 0 50 -51v-103h117q42 0 42 -39t-42 -39h-117v-228q0 -53 22.5 -80t73.5 -27q18 0 31 3.5t23 4.5q11 0 18 -7.5t7 -28.5q0 -16 -5.5 -28.5t-19.5 -16.5q-12 -5 -32.5 -8t-36.5 -3zM54 232
q-34 0 -34 32t34 32h236q34 0 34 -32t-34 -32h-236z" />
    <glyph glyph-name="Utilde" unicode="&#x168;" horiz-adv-x="733" 
d="M367 -9q-141 0 -215.5 74.5t-74.5 218.5v376q0 52 52 52t52 -52v-374q0 -205 186 -205t186 205v374q0 52 51 52t51 -52v-376q0 -144 -73 -218.5t-215 -74.5zM181 775q-13 0 -21 8.5t-5 24.5q11 54 43.5 83.5t79.5 29.5q27 0 51.5 -10.5t46.5 -24.5t42.5 -25t40.5 -11
q26 0 42.5 15t21.5 40q7 24 30 23q13 -1 21 -9.5t5 -23.5q-11 -54 -43 -84t-79 -30q-28 0 -52 11t-46.5 25t-43 25t-40.5 11q-26 0 -42.5 -15.5t-21.5 -39.5q-7 -24 -30 -23z" />
    <glyph glyph-name="utilde" unicode="&#x169;" horiz-adv-x="569" 
d="M245 -9q-177 0 -177 197v256q0 51 50 51q51 0 51 -51v-257q0 -59 24 -87t76 -28q57 0 92.5 38t35.5 102v232q0 51 51 51q50 0 50 -51v-400q0 -51 -49 -51t-49 51v34q-24 -43 -64 -65t-91 -22zM124 585q-12 1 -19 9t-4 24q8 44 34 79t76 35q24 0 43 -11t35 -25t32 -25
t35 -11q22 0 37.5 16t20.5 42q4 21 30 20q12 0 19 -8t4 -25q-8 -44 -34 -78.5t-76 -34.5q-24 0 -43 10.5t-35.5 24.5t-32.5 25t-34 11q-22 0 -37.5 -15.5t-20.5 -42.5q-4 -21 -30 -20z" />
    <glyph glyph-name="Umacron" unicode="&#x16a;" horiz-adv-x="733" 
d="M367 -9q-141 0 -215.5 74.5t-74.5 218.5v376q0 52 52 52t52 -52v-374q0 -205 186 -205t186 205v374q0 52 51 52t51 -52v-376q0 -144 -73 -218.5t-215 -74.5zM230 811q-34 0 -34 31q0 32 34 32h275q33 0 33 -32q0 -31 -33 -31h-275z" />
    <glyph glyph-name="umacron" unicode="&#x16b;" horiz-adv-x="569" 
d="M245 -9q-177 0 -177 197v256q0 51 50 51q51 0 51 -51v-257q0 -59 24 -87t76 -28q57 0 92.5 38t35.5 102v232q0 51 51 51q50 0 50 -51v-400q0 -51 -49 -51t-49 51v34q-24 -43 -64 -65t-91 -22zM162 622q-34 0 -34 32t34 32h245q33 0 33 -32t-33 -32h-245z" />
    <glyph glyph-name="Ubreve" unicode="&#x16c;" horiz-adv-x="733" 
d="M367 -9q-141 0 -215.5 74.5t-74.5 218.5v376q0 52 52 52t52 -52v-374q0 -205 186 -205t186 205v374q0 52 51 52t51 -52v-376q0 -144 -73 -218.5t-215 -74.5zM367 760q-62 0 -108.5 35t-62.5 104q-4 17 4.5 27.5t20.5 11.5q16 2 24.5 -6.5t11.5 -19.5q10 -48 41.5 -68
t68.5 -20t68.5 20t41.5 68q3 11 11.5 19.5t24.5 6.5q12 -1 20.5 -11.5t4.5 -27.5q-16 -69 -62.5 -104t-108.5 -35z" />
    <glyph glyph-name="ubreve" unicode="&#x16d;" horiz-adv-x="569" 
d="M245 -9q-177 0 -177 197v256q0 51 50 51q51 0 51 -51v-257q0 -59 24 -87t76 -28q57 0 92.5 38t35.5 102v232q0 51 51 51q50 0 50 -51v-400q0 -51 -49 -51t-49 51v34q-24 -43 -64 -65t-91 -22zM284 551q-67 0 -107 44.5t-50 116.5q-3 17 5.5 27.5t21.5 10.5q29 1 34 -30
q8 -52 33.5 -78.5t62.5 -26.5t63 26.5t33 78.5q5 31 34 30q13 0 21.5 -10.5t5.5 -27.5q-9 -72 -49.5 -116.5t-107.5 -44.5z" />
    <glyph glyph-name="Uring" unicode="&#x16e;" horiz-adv-x="733" 
d="M367 -9q-141 0 -215.5 74.5t-74.5 218.5v376q0 52 52 52t52 -52v-374q0 -205 186 -205t186 205v374q0 52 51 52t51 -52v-376q0 -144 -73 -218.5t-215 -74.5zM367 756q-52 0 -87 35t-35 85t35 84t87 34t87 -34t35 -84t-35 -85t-87 -35zM367 806q30 0 49.5 20t19.5 50
q0 29 -19.5 48.5t-49.5 19.5t-49.5 -19.5t-19.5 -48.5q0 -30 19.5 -50t49.5 -20z" />
    <glyph glyph-name="uring" unicode="&#x16f;" horiz-adv-x="569" 
d="M245 -9q-177 0 -177 197v256q0 51 50 51q51 0 51 -51v-257q0 -59 24 -87t76 -28q57 0 92.5 38t35.5 102v232q0 51 51 51q50 0 50 -51v-400q0 -51 -49 -51t-49 51v34q-24 -43 -64 -65t-91 -22zM284 547q-52 0 -87 35t-35 85t35 84t87 34t87 -34t35 -84t-35 -85t-87 -35z
M284 597q30 0 49.5 20t19.5 50q0 29 -19.5 48.5t-49.5 19.5t-49.5 -19.5t-19.5 -48.5q0 -30 19.5 -50t49.5 -20z" />
    <glyph glyph-name="Uhungarumlaut" unicode="&#x170;" horiz-adv-x="733" 
d="M367 -9q-141 0 -215.5 74.5t-74.5 218.5v376q0 52 52 52t52 -52v-374q0 -205 186 -205t186 205v374q0 52 51 52t51 -52v-376q0 -144 -73 -218.5t-215 -74.5zM467 769q-11 -14 -24.5 -12.5t-20.5 13t1 27.5l69 129q9 18 25 21t29.5 -4.5t17.5 -22t-9 -31.5zM333 771
q-11 -15 -25.5 -14t-22.5 12t0 26l64 130q10 18 25.5 21.5t29.5 -4t19 -22t-8 -31.5z" />
    <glyph glyph-name="uhungarumlaut" unicode="&#x171;" horiz-adv-x="569" 
d="M245 -9q-177 0 -177 197v256q0 51 50 51q51 0 51 -51v-257q0 -59 24 -87t76 -28q57 0 92.5 38t35.5 102v232q0 51 51 51q50 0 50 -51v-400q0 -51 -49 -51t-49 51v34q-24 -43 -64 -65t-91 -22zM382 562q-6 -15 -20.5 -17t-25 6.5t-6.5 26.5l41 159q6 21 21.5 28.5t31.5 3
t24.5 -17.5t0.5 -33zM245 562q-7 -15 -21 -17t-25 6.5t-6 26.5l41 159q6 21 21.5 28.5t31.5 3t24.5 -17.5t-0.5 -33z" />
    <glyph glyph-name="Uogonek" unicode="&#x172;" horiz-adv-x="733" 
d="M367 -9q-141 0 -215.5 74.5t-74.5 218.5v376q0 52 52 52t52 -52v-374q0 -205 186 -205t186 205v374q0 52 51 52t51 -52v-376q0 -144 -73 -218.5t-215 -74.5zM404 -194q-51 0 -81 27.5t-30 73.5q0 41 26.5 76t72.5 56l32 -39q-24 -10 -43.5 -31.5t-19.5 -50.5
q0 -27 16 -40.5t41 -13.5q16 0 32 5q21 6 30 -5t5 -26.5t-20 -22.5q-15 -5 -31 -7t-30 -2z" />
    <glyph glyph-name="uogonek" unicode="&#x173;" horiz-adv-x="569" 
d="M514 -185q-15 -5 -30.5 -7t-29.5 -2q-52 0 -81.5 27.5t-29.5 73.5q0 31 16.5 60.5t45.5 50.5q-5 11 -5 27v33q-24 -43 -64 -65t-91 -22q-177 0 -177 197v256q0 51 50 51q51 0 51 -51v-257q0 -59 24 -87t76 -28q57 0 92.5 38t35.5 102v232q0 51 51 51q50 0 50 -51v-400
q0 -21 -8.5 -33t-23.5 -18q-22 -10 -39 -29.5t-17 -45.5q0 -27 16.5 -40.5t40.5 -13.5q16 0 33 5q21 6 29.5 -5t5 -26.5t-20.5 -22.5z" />
    <glyph glyph-name="Wcircumflex" unicode="&#x174;" horiz-adv-x="1107" 
d="M319 -7q-42 0 -58 45l-215 613q-9 26 3.5 43.5t41.5 17.5q22 0 34.5 -10t19.5 -32l177 -520l181 518q17 44 53 44q20 0 31.5 -11t20.5 -34l179 -523l181 526q7 21 19.5 31.5t33.5 10.5q26 0 38.5 -17.5t2.5 -43.5l-216 -614q-9 -22 -22 -33t-35 -11q-23 0 -36 11t-21 34
l-178 510l-180 -511q-8 -22 -20.5 -33t-34.5 -11zM463 770q-14 -15 -30.5 -12.5t-24.5 15.5t4 29l81 113q23 33 61 33t62 -33l80 -113q12 -16 4 -29t-24.5 -15.5t-30.5 12.5l-91 107z" />
    <glyph glyph-name="wcircumflex" unicode="&#x175;" horiz-adv-x="846" 
d="M249 -7q-44 0 -61 44l-147 389q-12 30 0.5 49.5t42.5 19.5q18 0 29 -8.5t20 -32.5l119 -336l124 340q14 37 50 37q37 0 50 -37l122 -342l122 340q8 23 20.5 31t28.5 8q30 0 38.5 -21t-1.5 -48l-147 -389q-18 -44 -60 -44q-45 0 -61 44l-115 312l-114 -312
q-16 -44 -60 -44zM561 589q9 -18 -0.5 -31t-25.5 -14.5t-26 14.5l-85 135l-85 -135q-10 -16 -26 -14.5t-25.5 14.5t-0.5 31l79 143q20 37 58 37q39 0 59 -37z" />
    <glyph glyph-name="Ycircumflex" unicode="&#x176;" horiz-adv-x="606" 
d="M303 -7q-52 0 -52 54v282l-224 312q-16 23 -5.5 47t42.5 24t55 -33l186 -259l186 259q13 18 25 25.5t30 7.5q31 0 41 -22.5t-9 -49.5l-224 -312v-281q0 -54 -51 -54zM212 770q-14 -15 -30.5 -12.5t-24.5 15.5t4 29l81 113q23 33 61 33t62 -33l80 -113q12 -16 4 -29
t-24.5 -15.5t-30.5 12.5l-91 107z" />
    <glyph glyph-name="ycircumflex" unicode="&#x177;" horiz-adv-x="520" 
d="M186 -187q-28 0 -38.5 20.5t1.5 47.5l59 132l-178 413q-12 27 -0.5 48t45.5 21q18 0 29.5 -9t20.5 -31l137 -338l139 338q9 23 21 31.5t33 8.5q27 0 37 -21t-1 -47l-250 -575q-10 -23 -22.5 -31t-32.5 -8zM398 589q9 -18 -0.5 -31t-25.5 -14.5t-26 14.5l-85 135l-85 -135
q-10 -16 -26 -14.5t-25.5 14.5t-0.5 31l79 143q20 37 58 37q39 0 59 -37z" />
    <glyph glyph-name="Ydieresis" unicode="&#x178;" horiz-adv-x="606" 
d="M303 -7q-52 0 -52 54v282l-224 312q-16 23 -5.5 47t42.5 24t55 -33l186 -259l186 259q13 18 25 25.5t30 7.5q31 0 41 -22.5t-9 -49.5l-224 -312v-281q0 -54 -51 -54zM394 795q-54 0 -54 54q0 52 54 52q53 0 53 -52q0 -54 -53 -54zM213 795q-54 0 -54 54q0 25 14.5 38.5
t39.5 13.5q54 0 54 -52q0 -54 -54 -54z" />
    <glyph glyph-name="Zacute" unicode="&#x179;" horiz-adv-x="596" 
d="M95 0q-39 0 -49 30.5t18 68.5l374 519h-351q-47 0 -47 44q0 43 47 43h425q40 0 50 -30t-18 -69l-375 -519h366q47 0 47 -43q0 -44 -47 -44h-440zM351 770q-13 -15 -29.5 -11.5t-24.5 17.5t3 30l84 123q12 18 29 19t31 -8.5t17.5 -24.5t-9.5 -30z" />
    <glyph glyph-name="zacute" unicode="&#x17a;" horiz-adv-x="468" 
d="M90 0q-22 0 -32.5 13t-9 32t17.5 37l252 328h-234q-39 0 -39 39t39 39h302q25 0 37 -13t10.5 -31.5t-16.5 -36.5l-255 -330h246q40 0 40 -38q0 -39 -40 -39h-318zM280 558q-10 -16 -27 -14.5t-27.5 14.5t-1.5 31l81 157q10 20 26.5 23t32 -5.5t21.5 -24t-6 -32.5z" />
    <glyph glyph-name="Zdotaccent" unicode="&#x17b;" horiz-adv-x="596" 
d="M95 0q-39 0 -49 30.5t18 68.5l374 519h-351q-47 0 -47 44q0 43 47 43h425q40 0 50 -30t-18 -69l-375 -519h366q47 0 47 -43q0 -44 -47 -44h-440zM309 797q-56 0 -56 54t56 54t56 -54t-56 -54z" />
    <glyph glyph-name="zdotaccent" unicode="&#x17c;" horiz-adv-x="468" 
d="M90 0q-22 0 -32.5 13t-9 32t17.5 37l252 328h-234q-39 0 -39 39t39 39h302q25 0 37 -13t10.5 -31.5t-16.5 -36.5l-255 -330h246q40 0 40 -38q0 -39 -40 -39h-318zM241 600q-56 0 -56 55q0 53 56 53q57 0 57 -53q0 -55 -57 -55z" />
    <glyph glyph-name="Zcaron" unicode="&#x17d;" horiz-adv-x="596" 
d="M95 0q-39 0 -49 30.5t18 68.5l374 519h-351q-47 0 -47 44q0 43 47 43h425q40 0 50 -30t-18 -69l-375 -519h366q47 0 47 -43q0 -44 -47 -44h-440zM309 755q-38 0 -61 33l-81 113q-12 17 -3.5 30t25 15.5t29.5 -13.5l91 -108l91 108q14 16 30.5 13.5t24.5 -15.5t-4 -30
l-80 -113q-23 -33 -62 -33z" />
    <glyph glyph-name="zcaron" unicode="&#x17e;" horiz-adv-x="468" 
d="M90 0q-22 0 -32.5 13t-9 32t17.5 37l252 328h-234q-39 0 -39 39t39 39h302q25 0 37 -13t10.5 -31.5t-16.5 -36.5l-255 -330h246q40 0 40 -38q0 -39 -40 -39h-318zM241 537q-38 0 -58 39l-79 143q-9 18 0.5 30.5t25.5 14.5t26 -14l85 -136l85 136q10 16 26 14t25.5 -14.5
t0.5 -30.5l-78 -143q-21 -39 -59 -39z" />
    <glyph glyph-name="uni0181" unicode="&#x181;" horiz-adv-x="817" 
d="M274 0q-56 0 -56 56v573h-29q-103 0 -103 -99v-19q0 -14 -10.5 -26.5t-32.5 -12.5t-32.5 13t-10.5 29v20q0 84 49 127.5t148 43.5h315q110 0 170.5 -48.5t60.5 -135.5q0 -57 -30 -98t-82 -60q61 -16 95 -59t34 -109q0 -94 -62.5 -144.5t-174.5 -50.5h-249zM318 397h177
q147 0 147 114t-147 114h-177v-228zM318 80h194q147 0 147 119q0 118 -147 118h-194v-237z" />
    <glyph glyph-name="uni018A" unicode="&#x18a;" horiz-adv-x="888" 
d="M274 0q-56 0 -56 56v573h-29q-103 0 -103 -99v-19q0 -14 -10.5 -26.5t-32.5 -12.5t-32.5 13t-10.5 29v20q0 84 48 127.5t143 43.5h276q174 0 268.5 -91t94.5 -261t-94.5 -261.5t-268.5 -91.5h-193zM321 87h139q262 0 262 266q0 265 -262 265h-139v-531z" />
    <glyph glyph-name="uni018F" unicode="&#x18f;" horiz-adv-x="775" 
d="M394 -9q-111 0 -186 46t-112.5 128.5t-37.5 191.5q0 40 35 40h515q-11 110 -76 168.5t-177 58.5q-59 0 -106 -12.5t-91 -40.5q-22 -12 -38.5 -6.5t-24.5 21t-4 33t23 29.5q49 32 113.5 49t138.5 17q107 0 186 -43.5t122.5 -124.5t43.5 -194q0 -111 -40.5 -192
t-113.5 -125t-170 -44zM390 78q95 0 152 60t66 174h-443q8 -115 64.5 -174.5t160.5 -59.5z" />
    <glyph glyph-name="florin" unicode="&#x192;" horiz-adv-x="600" 
d="M73 -189q-19 0 -31.5 11.5t-12.5 28.5t12 29t29 12h18q42 0 67.5 22t36.5 76l89 420h-79q-19 0 -31 11t-12 28t12 28t31 11h96l11 50q18 84 67 130t132 46h23q18 0 28 -11.5t10 -28.5q0 -18 -9.5 -30t-24.5 -12h-18q-46 0 -71.5 -21.5t-37.5 -76.5l-10 -46h84
q19 0 31 -11t12 -28t-12 -28t-31 -11h-100l-91 -424q-18 -84 -66.5 -129.5t-129.5 -45.5h-22z" />
    <glyph glyph-name="Ohorn" unicode="&#x1a0;" horiz-adv-x="775" 
d="M388 -9q-101 0 -175 44.5t-114.5 126t-40.5 191.5q0 111 40.5 192t114.5 125t175 44q100 0 174.5 -44t115 -125t40.5 -191q0 -111 -40.5 -192.5t-115 -126t-174.5 -44.5zM388 81q105 0 163.5 71.5t58.5 200.5t-58 200t-164 71q-105 0 -163.5 -71t-58.5 -200t58.5 -200.5
t163.5 -71.5zM491 649l-47 60q24 -2 42.5 -3t36.5 -1q58 0 80.5 25t22.5 71q0 40 45 40q21 0 32.5 -11.5t11.5 -31.5q0 -63 -39.5 -106t-104.5 -43h-80z" />
    <glyph glyph-name="ohorn" unicode="&#x1a1;" horiz-adv-x="565" 
d="M283 -9q-74 0 -128 31t-83.5 87.5t-29.5 134.5t29.5 134.5t83.5 87.5t128 31q72 0 126 -31t84 -87.5t30 -134.5t-30 -134.5t-84 -87.5t-126 -31zM283 69q62 0 100 45t38 130t-38 129.5t-100 44.5q-63 0 -101 -44.5t-38 -129.5t38 -130t101 -45zM393 431l-55 36v21
q60 0 81.5 24.5t21.5 71.5q0 36 45 36q44 0 44 -36q0 -67 -36.5 -107.5t-100.5 -45.5z" />
    <glyph glyph-name="Uhorn" unicode="&#x1af;" horiz-adv-x="733" 
d="M367 -9q-141 0 -215.5 74.5t-74.5 218.5v376q0 52 52 52t52 -52v-374q0 -205 186 -205t186 205v374q0 52 51 52t51 -52v-376q0 -144 -73 -218.5t-215 -74.5zM632 649l-55 35v21q58 0 81 24.5t23 74.5q0 37 45 37q44 0 44 -37q0 -68 -36.5 -109t-101.5 -46z" />
    <glyph glyph-name="uhorn" unicode="&#x1b0;" horiz-adv-x="569" 
d="M245 -9q-177 0 -177 197v256q0 51 50 51q51 0 51 -51v-257q0 -59 24 -87t76 -28q57 0 92.5 38t35.5 102v226q0 25 13 36.5t38 14.5q40 6 58 27t18 68q0 36 45 36q44 0 44 -36q0 -60 -30 -99.5t-85 -50.5v-390q0 -51 -49 -51t-49 51v34q-24 -43 -64 -65t-91 -22z" />
    <glyph glyph-name="uni01B3" unicode="&#x1b3;" horiz-adv-x="616" 
d="M303 -7q-52 0 -52 55v281l-224 312q-16 23 -5 47t43 24q21 0 31.5 -8t26.5 -30l182 -254l144 207q60 86 158 86q35 0 54.5 -8t19.5 -36q0 -17 -8.5 -26t-22.5 -8q-15 2 -26 2q-24 0 -47 -11t-42 -39l-181 -258v-281q0 -55 -51 -55z" />
    <glyph glyph-name="uni01B4" unicode="&#x1b4;" horiz-adv-x="560" 
d="M186 -187q-28 0 -38 21.5t2 47.5l58 131l-179 413q-11 28 0.5 48.5t45.5 20.5q18 0 29.5 -9t20.5 -31l137 -338l113 272q21 52 56 80t97 28q43 0 58 -10.5t15 -30.5q0 -42 -29 -42q-5 0 -12.5 1t-18.5 1q-29 0 -49.5 -16.5t-38.5 -57.5l-212 -490q-10 -23 -22.5 -31
t-32.5 -8z" />
    <glyph glyph-name="uni01C4" unicode="&#x1c4;" horiz-adv-x="1333" 
d="M138 0q-56 0 -56 56v593q0 56 56 56h193q174 0 268.5 -91t94.5 -261t-94.5 -261.5t-268.5 -91.5h-193zM186 87h139q261 0 261 266q0 265 -261 265h-139v-531zM831 0q-39 0 -49 30.5t18 68.5l374 519h-351q-47 0 -47 44q0 43 47 43h425q40 0 50 -30t-18 -69l-375 -519h366
q47 0 47 -43q0 -44 -47 -44h-440zM1045 755q-38 0 -61 33l-81 113q-12 17 -3.5 30t25 15.5t29.5 -13.5l91 -108l91 108q14 16 30.5 13.5t24.5 -15.5t-4 -30l-80 -113q-23 -33 -62 -33z" />
    <glyph glyph-name="uni01C5" unicode="&#x1c5;" horiz-adv-x="1220" 
d="M138 0q-56 0 -56 56v593q0 56 56 56h193q174 0 268.5 -91t94.5 -261t-94.5 -261.5t-268.5 -91.5h-193zM186 87h139q261 0 261 266q0 265 -261 265h-139v-531zM841 0q-22 0 -32.5 13t-9 32t17.5 37l252 328h-234q-39 0 -39 39t39 39h302q25 0 37 -13t10.5 -31.5
t-16.5 -36.5l-255 -330h246q40 0 40 -38q0 -39 -40 -39h-318zM992 537q-38 0 -58 39l-79 143q-9 18 0.5 30.5t25.5 14.5t26 -14l85 -136l85 136q10 16 26 14t25.5 -14.5t0.5 -30.5l-78 -143q-21 -39 -59 -39z" />
    <glyph glyph-name="uni01C6" unicode="&#x1c6;" horiz-adv-x="1059" 
d="M257 -9q-64 0 -112.5 30.5t-75.5 87.5t-27 135t27 134.5t75 87.5t113 31q55 0 98 -24t64 -65v253q0 51 50 51q51 0 51 -51v-617q0 -51 -50 -51t-50 51v38q-22 -42 -65 -66.5t-98 -24.5zM283 69q62 0 100 45t38 130t-38 129.5t-100 44.5q-63 0 -101 -44.5t-38 -129.5
t38 -130t101 -45zM681 0q-22 0 -32.5 13t-9 32t17.5 37l252 328h-234q-39 0 -39 39t39 39h302q25 0 37 -13t10.5 -31.5t-16.5 -36.5l-255 -330h246q40 0 40 -38q0 -39 -40 -39h-318zM832 537q-38 0 -58 39l-79 143q-9 18 0.5 30.5t25.5 14.5t26 -14l85 -136l85 136
q10 16 26 14t25.5 -14.5t0.5 -30.5l-78 -143q-21 -39 -59 -39z" />
    <glyph glyph-name="uni01C7" unicode="&#x1c7;" horiz-adv-x="929" 
d="M135 0q-53 0 -53 53v603q0 53 52 53t52 -53v-567h310q46 0 46 -44q0 -45 -46 -45h-361zM628 -6q-23 -2 -36 11.5t-13 33.5q0 15 9.5 27t27.5 13l31 2q98 8 98 112v467q0 52 51 52q52 0 52 -52v-467q0 -91 -47.5 -141t-138.5 -56z" />
    <glyph glyph-name="uni01C8" unicode="&#x1c8;" horiz-adv-x="798" 
d="M135 0q-53 0 -53 53v603q0 53 52 53t52 -53v-567h310q46 0 46 -44q0 -45 -46 -45h-361zM677 597q-30 0 -46.5 15t-16.5 42q0 57 63 57q62 0 62 -57t-62 -57zM545 -190q-23 -1 -35 9.5t-13.5 25.5t6.5 27t26 14q50 3 73.5 27t23.5 76v455q0 51 51 51q50 0 50 -51v-447
q0 -94 -45.5 -138t-136.5 -49z" />
    <glyph glyph-name="uni01C9" unicode="&#x1c9;" horiz-adv-x="553" 
d="M228 -9q-78 0 -117.5 45t-39.5 132v493q0 51 50 51q51 0 51 -51v-487q0 -99 80 -99q9 0 16 1t14 1q12 1 17 -6.5t5 -30.5q0 -41 -38 -47q-10 -1 -19.5 -1.5t-18.5 -0.5zM431 597q-30 0 -46.5 15t-16.5 42q0 57 63 57q62 0 62 -57t-62 -57zM299 -190q-23 -1 -35 9.5
t-13.5 25.5t6.5 27t26 14q50 3 73.5 27t23.5 76v455q0 51 51 51q50 0 50 -51v-447q0 -94 -45.5 -138t-136.5 -49z" />
    <glyph glyph-name="uni01CA" unicode="&#x1ca;" horiz-adv-x="1081" 
d="M131 -7q-49 0 -49 50v617q0 25 12.5 38.5t33.5 13.5q18 0 28 -6.5t22 -23.5l387 -510v491q0 49 48 49t48 -49v-621q0 -23 -11.5 -36t-30.5 -13t-30 7t-24 24l-387 511v-492q0 -50 -47 -50zM779 -6q-23 -2 -36 11.5t-13 33.5q0 15 9.5 27t27.5 13l31 2q98 8 98 112v467
q0 52 51 52q52 0 52 -52v-467q0 -91 -47.5 -141t-138.5 -56z" />
    <glyph glyph-name="uni01CB" unicode="&#x1cb;" horiz-adv-x="990" 
d="M131 -7q-49 0 -49 50v617q0 25 12.5 38.5t33.5 13.5q18 0 28 -6.5t22 -23.5l387 -510v491q0 49 48 49t48 -49v-621q0 -23 -11.5 -36t-30.5 -13t-30 7t-24 24l-387 511v-492q0 -50 -47 -50zM868 597q-30 0 -46.5 15t-16.5 42q0 57 63 57q62 0 62 -57t-62 -57zM736 -190
q-23 -1 -35 9.5t-13.5 25.5t6.5 27t26 14q50 3 73.5 27t23.5 76v455q0 51 51 51q50 0 50 -51v-447q0 -94 -45.5 -138t-136.5 -49z" />
    <glyph glyph-name="uni01CC" unicode="&#x1cc;" horiz-adv-x="822" 
d="M121 -7q-50 0 -50 51v400q0 51 49 51t49 -51v-37q25 44 68.5 67t97.5 23q173 0 173 -196v-257q0 -51 -50 -51q-51 0 -51 51v251q0 63 -24.5 92t-76.5 29q-61 0 -97.5 -38.5t-36.5 -101.5v-232q0 -51 -51 -51zM701 597q-30 0 -46.5 15t-16.5 42q0 57 63 57q62 0 62 -57
t-62 -57zM569 -190q-23 -1 -35 9.5t-13.5 25.5t6.5 27t26 14q50 3 73.5 27t23.5 76v455q0 51 51 51q50 0 50 -51v-447q0 -94 -45.5 -138t-136.5 -49z" />
    <glyph glyph-name="uni01CD" unicode="&#x1cd;" horiz-adv-x="736" 
d="M78 -7q-30 0 -41.5 19.5t1.5 47.5l271 608q10 23 25 33.5t35 10.5q18 0 33.5 -10.5t25.5 -33.5l271 -608q13 -29 2.5 -48t-39.5 -19q-22 0 -35 11t-23 34l-58 134h-357l-57 -134q-10 -24 -22 -34.5t-32 -10.5zM367 590l-141 -334h285l-142 334h-2zM369 755q-38 0 -61 33
l-81 113q-12 17 -3.5 30t25 15.5t29.5 -13.5l91 -108l91 108q14 16 30.5 13.5t24.5 -15.5t-4 -30l-80 -113q-23 -33 -62 -33z" />
    <glyph glyph-name="uni01CE" unicode="&#x1ce;" horiz-adv-x="537" 
d="M227 -9q-51 0 -91 20t-63.5 54t-23.5 77q0 54 27.5 85t91 45t171.5 14h34v26q0 57 -24 82t-79 25q-32 0 -66.5 -8t-71.5 -27q-21 -10 -34.5 -3t-18.5 22t1 31t25 24q44 20 87 29.5t81 9.5q100 0 148 -47.5t48 -148.5v-257q0 -51 -47 -51q-48 0 -48 51v37q-18 -42 -56 -66
t-91 -24zM247 63q54 0 90 38t36 96v27h-33q-73 0 -114.5 -7t-59 -23.5t-17.5 -45.5q0 -38 26 -61.5t72 -23.5zM275 537q-38 0 -58 39l-79 143q-9 18 0.5 30.5t25.5 14.5t26 -14l85 -136l85 136q10 16 26 14t25.5 -14.5t0.5 -30.5l-78 -143q-21 -39 -59 -39z" />
    <glyph glyph-name="uni01D4" unicode="&#x1d4;" horiz-adv-x="569" 
d="M245 -9q-177 0 -177 197v256q0 51 50 51q51 0 51 -51v-257q0 -59 24 -87t76 -28q57 0 92.5 38t35.5 102v232q0 51 51 51q50 0 50 -51v-400q0 -51 -49 -51t-49 51v34q-24 -43 -64 -65t-91 -22zM284 538q-38 0 -58 39l-79 143q-9 18 0.5 30.5t25.5 14.5t26 -14l85 -136
l85 136q10 16 26 14t25.5 -14.5t0.5 -30.5l-78 -143q-21 -39 -59 -39z" />
    <glyph glyph-name="uni01E5" unicode="&#x1e5;" horiz-adv-x="594" 
d="M292 -189q-54 0 -103.5 11t-92.5 36q-18 10 -21.5 25.5t3.5 29.5t20.5 20t29.5 -3q37 -22 80 -31.5t77 -9.5q83 1 117 52h-76q-15 0 -24.5 9.5t-9.5 23.5t9.5 23.5t24.5 9.5h98q1 10 1 22v104q-20 -44 -63.5 -68.5t-100.5 -24.5q-65 0 -114.5 29.5t-77 81t-27.5 117.5
q0 67 27.5 118.5t77 81t114.5 29.5q56 0 98.5 -24t63.5 -66v38q0 50 50 50t50 -50v-404q0 -17 -1 -34h36q15 0 24.5 -9.5t9.5 -23.5t-9.5 -23.5t-24.5 -9.5h-49q-46 -130 -217 -130zM284 118q63 0 101 41t38 109t-37.5 109t-101.5 41q-63 0 -101.5 -40.5t-38.5 -109.5
q0 -68 39 -109t101 -41z" />
    <glyph glyph-name="Gcaron" unicode="&#x1e6;" horiz-adv-x="731" 
d="M412 -9q-115 0 -194 43.5t-119.5 124.5t-40.5 193q0 111 41 192.5t119 125.5t187 44q60 0 117.5 -15.5t106.5 -50.5q17 -12 19.5 -29.5t-6 -33t-24.5 -21t-36 6.5q-39 27 -82 39.5t-95 12.5q-117 0 -178 -70.5t-61 -200.5q0 -133 62.5 -202t187.5 -69q76 0 151 25v189
h-129q-43 0 -43 40q0 38 43 38h173q43 0 43 -43v-252q0 -38 -28 -49q-43 -17 -101 -27.5t-113 -10.5zM396 755q-38 0 -61 33l-81 113q-12 17 -3.5 30t25 15.5t29.5 -13.5l91 -108l91 108q14 16 30.5 13.5t24.5 -15.5t-4 -30l-80 -113q-23 -33 -62 -33z" />
    <glyph glyph-name="gcaron" unicode="&#x1e7;" horiz-adv-x="594" 
d="M292 -189q-54 0 -104.5 11t-91.5 36q-18 10 -22 25t3.5 29t21 20.5t29.5 -2.5q44 -24 83.5 -32.5t73.5 -8.5q140 0 140 140v77q-21 -44 -65.5 -69t-99.5 -25q-66 0 -115 30.5t-76 85t-27 127.5q0 72 27 126.5t76 85t115 30.5q55 0 98.5 -24.5t64.5 -66.5v38q0 51 50 51
t50 -51v-403q0 -115 -59 -172.5t-172 -57.5zM284 91q64 0 102 44t38 120t-38 119.5t-102 43.5t-102 -43.5t-38 -119.5t38 -120t102 -44zM299 537q-38 0 -58 39l-79 143q-9 18 0.5 30.5t25.5 14.5t26 -14l85 -136l85 136q10 16 26 14t25.5 -14.5t0.5 -30.5l-78 -143
q-21 -39 -59 -39z" />
    <glyph glyph-name="uni01E9" unicode="&#x1e9;" horiz-adv-x="516" 
d="M121 -7q-50 0 -50 51v617q0 51 50 51q51 0 51 -51v-386h2l187 186q16 16 29 25t34 9q31 0 40.5 -23t-12.5 -46l-175 -173l193 -191q16 -16 15 -32t-13 -26.5t-30 -10.5q-23 0 -36.5 9t-31.5 27l-200 194h-2v-179q0 -51 -51 -51zM289 755q-38 0 -61 33l-81 113
q-12 17 -3.5 30t25 15.5t29.5 -13.5l91 -108l91 108q14 16 30.5 13.5t24.5 -15.5t-4 -30l-80 -113q-23 -33 -62 -33z" />
    <glyph glyph-name="uni01EA" unicode="&#x1ea;" horiz-adv-x="775" 
d="M388 -9q-101 0 -175 44.5t-114.5 126t-40.5 191.5q0 111 40.5 192t114.5 125t175 44q100 0 174.5 -44t115 -125t40.5 -191q0 -111 -40.5 -192.5t-115 -126t-174.5 -44.5zM388 81q105 0 163.5 71.5t58.5 200.5t-58 200t-164 71q-105 0 -163.5 -71t-58.5 -200t58.5 -200.5
t163.5 -71.5zM426 -194q-51 0 -81 27.5t-30 73.5q0 41 26.5 76t72.5 56l32 -39q-24 -10 -43.5 -31.5t-19.5 -50.5q0 -27 16 -40.5t41 -13.5q16 0 32 5q21 6 30 -5t5 -26.5t-20 -22.5q-15 -5 -31 -7t-30 -2z" />
    <glyph glyph-name="uni01EB" unicode="&#x1eb;" horiz-adv-x="565" 
d="M283 -9q-74 0 -128 31t-83.5 87.5t-29.5 134.5t29.5 134.5t83.5 87.5t128 31q72 0 126 -31t84 -87.5t30 -134.5t-30 -134.5t-84 -87.5t-126 -31zM283 69q62 0 100 45t38 130t-38 129.5t-100 44.5q-63 0 -101 -44.5t-38 -129.5t38 -130t101 -45zM322 -194q-51 0 -81 27.5
t-30 73.5q0 41 26.5 76t72.5 56l32 -39q-24 -10 -43.5 -31.5t-19.5 -50.5q0 -27 16 -40.5t41 -13.5q16 0 32 5q21 6 30 -5t5 -26.5t-20 -22.5q-15 -5 -31 -7t-30 -2z" />
    <glyph glyph-name="uni01EF" unicode="&#x1ef;" horiz-adv-x="504" 
d="M230 -189q-119 0 -196 46q-19 11 -23 27t3 30t21 19.5t32 -4.5q63 -40 153 -40q76 0 114.5 34.5t38.5 98.5q0 58 -38 89.5t-110 31.5h-76q-25 0 -29 19.5t14 38.5l193 206h-258q-43 0 -43 41q0 40 43 40h337q23 0 34 -13.5t9 -32.5t-18 -36l-179 -191h7q101 0 158 -49.5
t57 -137.5q0 -101 -65.5 -159t-178.5 -58zM238 537q-38 0 -58 39l-79 143q-9 18 0.5 30.5t25.5 14.5t26 -14l85 -136l85 136q10 16 26 14t25.5 -14.5t0.5 -30.5l-78 -143q-21 -39 -59 -39z" />
    <glyph glyph-name="Aringacute" unicode="&#x1fa;" horiz-adv-x="736" 
d="M78 -7q-30 0 -41.5 19.5t1.5 47.5l271 608q10 23 25 33.5t35 10.5q18 0 33.5 -10.5t25.5 -33.5l271 -608q13 -29 2.5 -48t-39.5 -19q-22 0 -35 11t-23 34l-58 134h-357l-57 -134q-10 -24 -22 -34.5t-32 -10.5zM367 590l-141 -334h285l-142 334h-2zM369 756q-50 0 -84 34
t-34 82q0 49 34 82t84 33q36 0 65 -18l71 66q15 14 30.5 8t21 -21t-9.5 -28l-75 -64q15 -26 15 -58q0 -48 -34 -82t-84 -34zM369 803q30 0 49.5 19.5t19.5 49.5q0 29 -19.5 49t-49.5 20t-49.5 -20t-19.5 -49q0 -30 19.5 -49.5t49.5 -19.5z" />
    <glyph glyph-name="aringacute" unicode="&#x1fb;" horiz-adv-x="537" 
d="M227 -9q-51 0 -91 20t-63.5 54t-23.5 77q0 54 27.5 85t91 45t171.5 14h34v26q0 57 -24 82t-79 25q-32 0 -66.5 -8t-71.5 -27q-21 -10 -34.5 -3t-18.5 22t1 31t25 24q44 20 87 29.5t81 9.5q100 0 148 -47.5t48 -148.5v-257q0 -51 -47 -51q-48 0 -48 51v37q-18 -42 -56 -66
t-91 -24zM247 63q54 0 90 38t36 96v27h-33q-73 0 -114.5 -7t-59 -23.5t-17.5 -45.5q0 -38 26 -61.5t72 -23.5zM275 543q-50 0 -84 33t-34 82q0 48 34 81.5t84 33.5q18 0 34.5 -5t30.5 -14l72 67q15 14 30.5 8t20.5 -21t-10 -28l-75 -64q15 -27 15 -58q0 -49 -34 -82t-84 -33
zM275 590q30 0 49.5 19t19.5 49t-19.5 49t-49.5 19t-49.5 -19t-19.5 -49t19.5 -49t49.5 -19z" />
    <glyph glyph-name="AEacute" unicode="&#x1fc;" horiz-adv-x="987" 
d="M47 -7q-34 0 -43 20t7 45l379 617q17 30 53 30h455q45 0 45 -41q0 -43 -45 -43h-378l48 -221h310q44 0 44 -42t-44 -42h-292l50 -232h262q45 0 45 -42t-45 -42h-297q-40 0 -49 39l-28 133h-336l-88 -146q-9 -17 -21 -25t-32 -8zM433 587l-196 -331h269l-71 331h-2z
M529 770q-13 -15 -29.5 -11.5t-24.5 17.5t3 30l84 123q12 18 29 19t31 -8.5t17.5 -24.5t-9.5 -30z" />
    <glyph glyph-name="aeacute" unicode="&#x1fd;" horiz-adv-x="863" 
d="M235 -9q-55 0 -97 20t-65.5 54t-23.5 77q0 54 28 85t92 44.5t172 13.5h33v26q0 57 -24.5 82.5t-77.5 25.5q-33 0 -67.5 -8t-72.5 -27q-20 -10 -33.5 -3t-18.5 22t1 31t25 24q44 20 87 29.5t81 9.5q124 0 165 -85q28 42 74 63.5t98 21.5q99 0 156.5 -64t57.5 -177v-3
q0 -30 -41 -30h-311q10 -154 156 -154q28 0 62 8t65 27q21 12 36.5 8.5t22 -17t2.5 -30t-23 -28.5q-34 -22 -79 -34t-86 -12q-75 0 -130.5 29t-83.5 87q-20 -55 -67 -85.5t-113 -30.5zM612 426q-59 0 -95.5 -37t-43.5 -104h266q-3 67 -35.5 104t-91.5 37zM248 63q56 0 91 39
t35 100v21h-34q-73 0 -114.5 -6.5t-59 -23t-17.5 -45.5q0 -38 26 -61.5t73 -23.5zM454 558q-10 -16 -27 -14.5t-27.5 14.5t-1.5 31l81 157q10 20 26.5 23t32 -5.5t21.5 -24t-6 -32.5z" />
    <glyph glyph-name="Oslashacute" unicode="&#x1fe;" horiz-adv-x="775" 
d="M388 -9q-101 0 -175 44.5t-114.5 126t-40.5 191.5q0 111 40.5 192t114.5 125t175 44q100 0 174.5 -44t115 -125t40.5 -191q0 -111 -40.5 -192.5t-115 -126t-174.5 -44.5zM388 81q105 0 163.5 71.5t58.5 200.5t-58 200t-164 71q-105 0 -163.5 -71t-58.5 -200t58.5 -200.5
t163.5 -71.5zM213 -27q-10 -18 -26 -20.5t-29.5 5.5t-19 23.5t5.5 33.5l43 73l30 49l280 481l23 40l43 74q10 17 25.5 20t29.5 -5t19 -23t-6 -34l-43 -73l-29 -49l-281 -480l-22 -41zM429 770q-13 -15 -29.5 -11.5t-24.5 17.5t3 30l84 123q12 18 29 19t31 -8.5t17.5 -24.5
t-9.5 -30z" />
    <glyph glyph-name="oslashacute" unicode="&#x1ff;" horiz-adv-x="565" 
d="M161 -32q-9 -14 -22 -16.5t-24.5 4.5t-15.5 19.5t6 28.5l21 38q-40 32 -62 84t-22 118q0 78 29.5 134.5t83.5 87.5t128 31q54 0 98 -18l24 41q8 14 21 16t24.5 -5t16 -19.5t-4.5 -27.5l-23 -39q40 -33 62 -84t22 -117q0 -78 -30 -134.5t-84 -87.5t-126 -31q-55 0 -99 17z
M144 244q0 -75 31 -120l164 283q-25 11 -56 11q-63 0 -101 -44.5t-38 -129.5zM283 69q62 0 100 45t38 130q0 74 -30 119l-165 -283q25 -11 57 -11zM321 558q-10 -16 -27 -14.5t-27.5 14.5t-1.5 31l81 157q10 20 26.5 23t32 -5.5t21.5 -24t-6 -32.5z" />
    <glyph glyph-name="uni0200" unicode="&#x200;" horiz-adv-x="736" 
d="M78 -7q-30 0 -41.5 19.5t1.5 47.5l271 608q10 23 25 33.5t35 10.5q18 0 33.5 -10.5t25.5 -33.5l271 -608q13 -29 2.5 -48t-39.5 -19q-22 0 -35 11t-23 34l-58 134h-357l-57 -134q-10 -24 -22 -34.5t-32 -10.5zM367 590l-141 -334h285l-142 334h-2zM270 769l-88 120
q-13 17 -9 31.5t17.5 22t29 4.5t25.5 -21l68 -129q8 -15 1 -27t-20.5 -13.5t-23.5 12.5zM403 771l-82 118q-13 17 -8 31.5t19 22t29.5 4t25.5 -21.5l65 -130q7 -15 -1 -26t-22.5 -12t-25.5 14z" />
    <glyph glyph-name="uni0201" unicode="&#x201;" horiz-adv-x="537" 
d="M227 -9q-51 0 -91 20t-63.5 54t-23.5 77q0 54 27.5 85t91 45t171.5 14h34v26q0 57 -24 82t-79 25q-32 0 -66.5 -8t-71.5 -27q-21 -10 -34.5 -3t-18.5 22t1 31t25 24q44 20 87 29.5t81 9.5q100 0 148 -47.5t48 -148.5v-257q0 -51 -47 -51q-48 0 -48 51v37q-18 -42 -56 -66
t-91 -24zM247 63q54 0 90 38t36 96v27h-33q-73 0 -114.5 -7t-59 -23.5t-17.5 -45.5q0 -38 26 -61.5t72 -23.5zM177 561l-66 156q-9 20 -0.5 33.5t24.5 17.5t31.5 -3.5t21.5 -28.5l42 -159q4 -18 -7 -26.5t-25 -6.5t-21 17zM314 561l-66 156q-9 20 -0.5 33.5t25 17.5t32 -3.5
t20.5 -28.5l41 -159q5 -18 -6 -26.5t-25 -6.5t-21 17z" />
    <glyph glyph-name="uni0202" unicode="&#x202;" horiz-adv-x="736" 
d="M78 -7q-30 0 -41.5 19.5t1.5 47.5l271 608q10 23 25 33.5t35 10.5q18 0 33.5 -10.5t25.5 -33.5l271 -608q13 -29 2.5 -48t-39.5 -19q-22 0 -35 11t-23 34l-58 134h-357l-57 -134q-10 -24 -22 -34.5t-32 -10.5zM367 590l-141 -334h285l-142 334h-2zM223 759
q-12 1 -20.5 12t-4.5 28q16 69 62.5 103.5t108.5 34.5t108.5 -34.5t62.5 -103.5q4 -17 -4.5 -28t-20.5 -12q-16 -1 -24.5 7t-11.5 19q-11 49 -42 69t-68 20t-68 -20t-42 -69q-3 -11 -11.5 -19t-24.5 -7z" />
    <glyph glyph-name="uni0203" unicode="&#x203;" horiz-adv-x="537" 
d="M227 -9q-51 0 -91 20t-63.5 54t-23.5 77q0 54 27.5 85t91 45t171.5 14h34v26q0 57 -24 82t-79 25q-32 0 -66.5 -8t-71.5 -27q-21 -10 -34.5 -3t-18.5 22t1 31t25 24q44 20 87 29.5t81 9.5q100 0 148 -47.5t48 -148.5v-257q0 -51 -47 -51q-48 0 -48 51v37q-18 -42 -56 -66
t-91 -24zM247 63q54 0 90 38t36 96v27h-33q-73 0 -114.5 -7t-59 -23.5t-17.5 -45.5q0 -38 26 -61.5t72 -23.5zM145 548q-13 0 -21.5 10.5t-5.5 27.5q9 72 49.5 116.5t107.5 44.5t107.5 -44.5t49.5 -116.5q3 -17 -5.5 -27.5t-21.5 -10.5q-29 -1 -34 30q-7 53 -33 79t-63 26
t-63 -26t-33 -79q-5 -31 -34 -30z" />
    <glyph glyph-name="uni0204" unicode="&#x204;" horiz-adv-x="589" 
d="M138 0q-56 0 -56 56v593q0 56 56 56h365q43 0 43 -41q0 -43 -43 -43h-321v-221h299q43 0 43 -42t-43 -42h-299v-232h321q43 0 43 -42t-43 -42h-365zM227 769l-88 120q-13 17 -9 31.5t17.5 22t29 4.5t25.5 -21l68 -129q8 -15 1 -27t-20.5 -13.5t-23.5 12.5zM360 771
l-82 118q-13 17 -8 31.5t19 22t29.5 4t25.5 -21.5l65 -130q7 -15 -1 -26t-22.5 -12t-25.5 14z" />
    <glyph glyph-name="uni0205" unicode="&#x205;" horiz-adv-x="537" 
d="M300 -9q-120 0 -189 67.5t-69 184.5q0 75 30.5 132.5t84.5 89.5t124 32q101 0 159 -64.5t58 -177.5q0 -34 -40 -34h-318q11 -152 161 -152q30 0 63 7.5t64 27.5q21 12 36.5 8.5t22.5 -17t2.5 -30t-23.5 -28.5q-34 -23 -79.5 -34.5t-86.5 -11.5zM285 426q-63 0 -100 -39
t-45 -104h273q-3 68 -36 105.5t-92 37.5zM184 561l-66 156q-9 20 -0.5 33.5t24.5 17.5t31.5 -3.5t21.5 -28.5l42 -159q4 -18 -7 -26.5t-25 -6.5t-21 17zM321 561l-66 156q-9 20 -0.5 33.5t25 17.5t32 -3.5t20.5 -28.5l41 -159q5 -18 -6 -26.5t-25 -6.5t-21 17z" />
    <glyph glyph-name="uni0206" unicode="&#x206;" horiz-adv-x="589" 
d="M138 0q-56 0 -56 56v593q0 56 56 56h365q43 0 43 -41q0 -43 -43 -43h-321v-221h299q43 0 43 -42t-43 -42h-299v-232h321q43 0 43 -42t-43 -42h-365zM180 759q-12 1 -20.5 12t-4.5 28q16 69 62.5 103.5t108.5 34.5t108.5 -34.5t62.5 -103.5q4 -17 -4.5 -28t-20.5 -12
q-16 -1 -24.5 7t-11.5 19q-11 49 -42 69t-68 20t-68 -20t-42 -69q-3 -11 -11.5 -19t-24.5 -7z" />
    <glyph glyph-name="uni0207" unicode="&#x207;" horiz-adv-x="537" 
d="M300 -9q-120 0 -189 67.5t-69 184.5q0 75 30.5 132.5t84.5 89.5t124 32q101 0 159 -64.5t58 -177.5q0 -34 -40 -34h-318q11 -152 161 -152q30 0 63 7.5t64 27.5q21 12 36.5 8.5t22.5 -17t2.5 -30t-23.5 -28.5q-34 -23 -79.5 -34.5t-86.5 -11.5zM285 426q-63 0 -100 -39
t-45 -104h273q-3 68 -36 105.5t-92 37.5zM152 548q-13 0 -21.5 10.5t-5.5 27.5q9 72 49.5 116.5t107.5 44.5t107.5 -44.5t49.5 -116.5q3 -17 -5.5 -27.5t-21.5 -10.5q-29 -1 -34 30q-7 53 -33 79t-63 26t-63 -26t-33 -79q-5 -31 -34 -30z" />
    <glyph glyph-name="uni0208" unicode="&#x208;" horiz-adv-x="268" 
d="M134 -7q-52 0 -52 53v613q0 53 52 53t52 -53v-613q0 -53 -52 -53zM35 769l-88 120q-13 17 -9 31.5t17.5 22t29 4.5t25.5 -21l68 -129q8 -15 1 -27t-20.5 -13.5t-23.5 12.5zM168 771l-82 118q-13 17 -8 31.5t19 22t29.5 4t25.5 -21.5l65 -130q7 -15 -1 -26t-22.5 -12
t-25.5 14z" />
    <glyph glyph-name="uni0209" unicode="&#x209;" horiz-adv-x="243" 
d="M121 -6q-50 0 -50 55v390q0 54 50 54q51 0 51 -54v-390q0 -55 -51 -55zM23 561l-66 156q-9 20 -0.5 33.5t24.5 17.5t31.5 -3.5t21.5 -28.5l42 -159q4 -18 -7 -26.5t-25 -6.5t-21 17zM160 561l-66 156q-9 20 -0.5 33.5t25 17.5t32 -3.5t20.5 -28.5l41 -159q5 -18 -6 -26.5
t-25 -6.5t-21 17z" />
    <glyph glyph-name="uni020A" unicode="&#x20a;" horiz-adv-x="268" 
d="M134 -7q-52 0 -52 53v613q0 53 52 53t52 -53v-613q0 -53 -52 -53zM-12 759q-12 1 -20.5 12t-4.5 28q16 69 62.5 103.5t108.5 34.5t108.5 -34.5t62.5 -103.5q4 -17 -4.5 -28t-20.5 -12q-16 -1 -24.5 7t-11.5 19q-11 49 -42 69t-68 20t-68 -20t-42 -69q-3 -11 -11.5 -19
t-24.5 -7z" />
    <glyph glyph-name="uni020B" unicode="&#x20b;" horiz-adv-x="243" 
d="M121 -6q-50 0 -50 55v390q0 54 50 54q51 0 51 -54v-390q0 -55 -51 -55zM-9 548q-13 0 -21.5 10.5t-5.5 27.5q9 72 49.5 116.5t107.5 44.5t107.5 -44.5t49.5 -116.5q3 -17 -5.5 -27.5t-21.5 -10.5q-29 -1 -34 30q-7 53 -33 79t-63 26t-63 -26t-33 -79q-5 -31 -34 -30z" />
    <glyph glyph-name="uni020C" unicode="&#x20c;" horiz-adv-x="775" 
d="M388 -9q-101 0 -175 44.5t-114.5 126t-40.5 191.5q0 111 40.5 192t114.5 125t175 44q100 0 174.5 -44t115 -125t40.5 -191q0 -111 -40.5 -192.5t-115 -126t-174.5 -44.5zM388 81q105 0 163.5 71.5t58.5 200.5t-58 200t-164 71q-105 0 -163.5 -71t-58.5 -200t58.5 -200.5
t163.5 -71.5zM288 769l-88 120q-13 17 -9 31.5t17.5 22t29 4.5t25.5 -21l68 -129q8 -15 1 -27t-20.5 -13.5t-23.5 12.5zM421 771l-82 118q-13 17 -8 31.5t19 22t29.5 4t25.5 -21.5l65 -130q7 -15 -1 -26t-22.5 -12t-25.5 14z" />
    <glyph glyph-name="uni020D" unicode="&#x20d;" horiz-adv-x="565" 
d="M283 -9q-74 0 -128 31t-83.5 87.5t-29.5 134.5t29.5 134.5t83.5 87.5t128 31q72 0 126 -31t84 -87.5t30 -134.5t-30 -134.5t-84 -87.5t-126 -31zM283 69q62 0 100 45t38 130t-38 129.5t-100 44.5q-63 0 -101 -44.5t-38 -129.5t38 -130t101 -45zM185 561l-66 156
q-9 20 -0.5 33.5t24.5 17.5t31.5 -3.5t21.5 -28.5l42 -159q4 -18 -7 -26.5t-25 -6.5t-21 17zM322 561l-66 156q-9 20 -0.5 33.5t25 17.5t32 -3.5t20.5 -28.5l41 -159q5 -18 -6 -26.5t-25 -6.5t-21 17z" />
    <glyph glyph-name="uni020E" unicode="&#x20e;" horiz-adv-x="775" 
d="M388 -9q-101 0 -175 44.5t-114.5 126t-40.5 191.5q0 111 40.5 192t114.5 125t175 44q100 0 174.5 -44t115 -125t40.5 -191q0 -111 -40.5 -192.5t-115 -126t-174.5 -44.5zM388 81q105 0 163.5 71.5t58.5 200.5t-58 200t-164 71q-105 0 -163.5 -71t-58.5 -200t58.5 -200.5
t163.5 -71.5zM241 759q-12 1 -20.5 12t-4.5 28q16 69 62.5 103.5t108.5 34.5t108.5 -34.5t62.5 -103.5q4 -17 -4.5 -28t-20.5 -12q-16 -1 -24.5 7t-11.5 19q-11 49 -42 69t-68 20t-68 -20t-42 -69q-3 -11 -11.5 -19t-24.5 -7z" />
    <glyph glyph-name="uni020F" unicode="&#x20f;" horiz-adv-x="565" 
d="M283 -9q-74 0 -128 31t-83.5 87.5t-29.5 134.5t29.5 134.5t83.5 87.5t128 31q72 0 126 -31t84 -87.5t30 -134.5t-30 -134.5t-84 -87.5t-126 -31zM283 69q62 0 100 45t38 130t-38 129.5t-100 44.5q-63 0 -101 -44.5t-38 -129.5t38 -130t101 -45zM153 548q-13 0 -21.5 10.5
t-5.5 27.5q9 72 49.5 116.5t107.5 44.5t107.5 -44.5t49.5 -116.5q3 -17 -5.5 -27.5t-21.5 -10.5q-29 -1 -34 30q-7 53 -33 79t-63 26t-63 -26t-33 -79q-5 -31 -34 -30z" />
    <glyph glyph-name="uni0210" unicode="&#x210;" horiz-adv-x="677" 
d="M134 -7q-52 0 -52 53v606q0 53 53 53h239q114 0 176 -54.5t62 -152.5q0 -79 -42 -129.5t-119 -67.5q48 -16 81 -77l86 -160q15 -27 6 -49t-41 -22q-22 0 -36 9t-24 29l-105 194q-21 39 -48.5 52.5t-70.5 13.5h-113v-245q0 -53 -52 -53zM186 369h171q154 0 154 127
q0 126 -154 126h-171v-253zM245 769l-88 120q-13 17 -9 31.5t17.5 22t29 4.5t25.5 -21l68 -129q8 -15 1 -27t-20.5 -13.5t-23.5 12.5zM378 771l-82 118q-13 17 -8 31.5t19 22t29.5 4t25.5 -21.5l65 -130q7 -15 -1 -26t-22.5 -12t-25.5 14z" />
    <glyph glyph-name="uni0211" unicode="&#x211;" horiz-adv-x="373" 
d="M122 -7q-51 0 -51 51v400q0 51 49 51t49 -51v-43q20 45 60.5 69t98.5 28q37 3 40 -40q4 -44 -43 -48l-19 -2q-133 -13 -133 -137v-227q0 -51 -51 -51zM122 561l-66 156q-9 20 -0.5 33.5t24.5 17.5t31.5 -3.5t21.5 -28.5l42 -159q4 -18 -7 -26.5t-25 -6.5t-21 17zM259 561
l-66 156q-9 20 -0.5 33.5t25 17.5t32 -3.5t20.5 -28.5l41 -159q5 -18 -6 -26.5t-25 -6.5t-21 17z" />
    <glyph glyph-name="uni0212" unicode="&#x212;" horiz-adv-x="677" 
d="M134 -7q-52 0 -52 53v606q0 53 53 53h239q114 0 176 -54.5t62 -152.5q0 -79 -42 -129.5t-119 -67.5q48 -16 81 -77l86 -160q15 -27 6 -49t-41 -22q-22 0 -36 9t-24 29l-105 194q-21 39 -48.5 52.5t-70.5 13.5h-113v-245q0 -53 -52 -53zM186 369h171q154 0 154 127
q0 126 -154 126h-171v-253zM198 759q-12 1 -20.5 12t-4.5 28q16 69 62.5 103.5t108.5 34.5t108.5 -34.5t62.5 -103.5q4 -17 -4.5 -28t-20.5 -12q-16 -1 -24.5 7t-11.5 19q-11 49 -42 69t-68 20t-68 -20t-42 -69q-3 -11 -11.5 -19t-24.5 -7z" />
    <glyph glyph-name="uni0213" unicode="&#x213;" horiz-adv-x="373" 
d="M122 -7q-51 0 -51 51v400q0 51 49 51t49 -51v-43q20 45 60.5 69t98.5 28q37 3 40 -40q4 -44 -43 -48l-19 -2q-133 -13 -133 -137v-227q0 -51 -51 -51zM90 548q-13 0 -21.5 10.5t-5.5 27.5q9 72 49.5 116.5t107.5 44.5t107.5 -44.5t49.5 -116.5q3 -17 -5.5 -27.5
t-21.5 -10.5q-29 -1 -34 30q-7 53 -33 79t-63 26t-63 -26t-33 -79q-5 -31 -34 -30z" />
    <glyph glyph-name="uni0214" unicode="&#x214;" horiz-adv-x="733" 
d="M367 -9q-141 0 -215.5 74.5t-74.5 218.5v376q0 52 52 52t52 -52v-374q0 -205 186 -205t186 205v374q0 52 51 52t51 -52v-376q0 -144 -73 -218.5t-215 -74.5zM268 769l-88 120q-13 17 -9 31.5t17.5 22t29 4.5t25.5 -21l68 -129q8 -15 1 -27t-20.5 -13.5t-23.5 12.5z
M401 771l-82 118q-13 17 -8 31.5t19 22t29.5 4t25.5 -21.5l65 -130q7 -15 -1 -26t-22.5 -12t-25.5 14z" />
    <glyph glyph-name="uni0215" unicode="&#x215;" horiz-adv-x="569" 
d="M245 -9q-177 0 -177 197v256q0 51 50 51q51 0 51 -51v-257q0 -59 24 -87t76 -28q57 0 92.5 38t35.5 102v232q0 51 51 51q50 0 50 -51v-400q0 -51 -49 -51t-49 51v34q-24 -43 -64 -65t-91 -22zM186 562l-66 156q-9 20 -0.5 33.5t24.5 17.5t31.5 -3.5t21.5 -28.5l42 -159
q4 -18 -7 -26.5t-25 -6.5t-21 17zM323 562l-66 156q-9 20 -0.5 33.5t25 17.5t32 -3.5t20.5 -28.5l41 -159q5 -18 -6 -26.5t-25 -6.5t-21 17z" />
    <glyph glyph-name="uni0216" unicode="&#x216;" horiz-adv-x="733" 
d="M367 -9q-141 0 -215.5 74.5t-74.5 218.5v376q0 52 52 52t52 -52v-374q0 -205 186 -205t186 205v374q0 52 51 52t51 -52v-376q0 -144 -73 -218.5t-215 -74.5zM221 759q-12 1 -20.5 12t-4.5 28q16 69 62.5 103.5t108.5 34.5t108.5 -34.5t62.5 -103.5q4 -17 -4.5 -28
t-20.5 -12q-16 -1 -24.5 7t-11.5 19q-11 49 -42 69t-68 20t-68 -20t-42 -69q-3 -11 -11.5 -19t-24.5 -7z" />
    <glyph glyph-name="uni0217" unicode="&#x217;" horiz-adv-x="569" 
d="M245 -9q-177 0 -177 197v256q0 51 50 51q51 0 51 -51v-257q0 -59 24 -87t76 -28q57 0 92.5 38t35.5 102v232q0 51 51 51q50 0 50 -51v-400q0 -51 -49 -51t-49 51v34q-24 -43 -64 -65t-91 -22zM154 549q-13 0 -21.5 10.5t-5.5 27.5q9 72 49.5 116.5t107.5 44.5
t107.5 -44.5t49.5 -116.5q3 -17 -5.5 -27.5t-21.5 -10.5q-29 -1 -34 30q-7 53 -33 79t-63 26t-63 -26t-33 -79q-5 -31 -34 -30z" />
    <glyph glyph-name="uni0218" unicode="&#x218;" horiz-adv-x="622" 
d="M317 -9q-69 0 -132.5 16t-110.5 48q-19 13 -23 31.5t3.5 34t23 21.5t35.5 -7q45 -29 95 -42.5t109 -13.5q85 0 125.5 30.5t40.5 79.5q0 40 -29 63.5t-97 37.5l-107 22q-95 20 -141.5 66t-46.5 124q0 63 33.5 111t93.5 74.5t138 26.5q62 0 116.5 -16t97.5 -49
q17 -12 20 -29t-5 -31.5t-24 -19.5t-37 8q-39 26 -80 37.5t-89 11.5q-74 0 -117.5 -33t-43.5 -88q0 -42 27 -67t90 -38l106 -22q100 -21 149 -64.5t49 -117.5q0 -62 -33 -108t-93 -71.5t-143 -25.5zM338 -255q-12 -14 -26.5 -12.5t-20.5 13.5t6 30q15 21 20 47q-57 3 -57 53
q0 25 15.5 38.5t42.5 13.5q59 0 59 -63q0 -29 -9.5 -62t-29.5 -58z" />
    <glyph glyph-name="uni0219" unicode="&#x219;" horiz-adv-x="484" 
d="M242 -9q-44 0 -91 10t-85 34q-17 10 -21 25t2 28t19.5 18.5t30.5 -3.5q39 -21 75 -30t71 -9q53 0 80 19t27 51q0 26 -18 40.5t-54 22.5l-95 19q-126 26 -126 130q0 69 55 110t144 41q90 0 155 -44q16 -10 19 -24.5t-4 -27t-20.5 -17.5t-31.5 4q-30 18 -60 26.5t-58 8.5
q-52 0 -79 -19.5t-27 -52.5q0 -50 66 -64l95 -19q65 -13 98.5 -44t33.5 -84q0 -70 -55 -109.5t-146 -39.5zM261 -255q-12 -14 -26.5 -12.5t-20.5 13.5t6 30q15 21 20 47q-57 3 -57 53q0 25 15.5 38.5t42.5 13.5q59 0 59 -63q0 -29 -9.5 -62t-29.5 -58z" />
    <glyph glyph-name="uni021A" unicode="&#x21a;" horiz-adv-x="611" 
d="M306 -7q-52 0 -52 53v572h-212q-45 0 -45 44q0 43 45 43h527q46 0 46 -43q0 -44 -46 -44h-212v-572q0 -53 -51 -53zM325 -255q-12 -14 -26.5 -12.5t-20.5 13.5t6 30q15 21 20 47q-57 3 -57 53q0 25 15.5 38.5t42.5 13.5q59 0 59 -63q0 -29 -9.5 -62t-29.5 -58z" />
    <glyph glyph-name="uni021B" unicode="&#x21b;" horiz-adv-x="365" 
d="M279 -9q-92 0 -137 47t-45 136v236h-60q-42 0 -42 39t42 39h60v103q0 51 51 51q50 0 50 -51v-103h117q42 0 42 -39t-42 -39h-117v-228q0 -53 22.5 -80t73.5 -27q18 0 31 3.5t23 4.5q11 0 18 -7.5t7 -28.5q0 -16 -5.5 -28.5t-19.5 -16.5q-12 -5 -32.5 -8t-36.5 -3z
M241 -255q-12 -14 -26.5 -12.5t-20.5 13.5t6 30q15 21 20 47q-57 3 -57 53q0 25 15.5 38.5t42.5 13.5q59 0 59 -63q0 -29 -9.5 -62t-29.5 -58z" />
    <glyph glyph-name="uni021F" unicode="&#x21f;" horiz-adv-x="576" 
d="M121 -7q-50 0 -50 51v617q0 51 50 51q51 0 51 -51v-249q25 42 67.5 63.5t95.5 21.5q173 0 173 -196v-257q0 -51 -50 -51q-51 0 -51 51v251q0 63 -24.5 92t-76.5 29q-61 0 -97.5 -38.5t-36.5 -101.5v-232q0 -51 -51 -51zM289 755q-38 0 -61 33l-81 113q-12 17 -3.5 30
t25 15.5t29.5 -13.5l91 -108l91 108q14 16 30.5 13.5t24.5 -15.5t-4 -30l-80 -113q-23 -33 -62 -33z" />
    <glyph glyph-name="uni0226" unicode="&#x226;" horiz-adv-x="736" 
d="M78 -7q-30 0 -41.5 19.5t1.5 47.5l271 608q10 23 25 33.5t35 10.5q18 0 33.5 -10.5t25.5 -33.5l271 -608q13 -29 2.5 -48t-39.5 -19q-22 0 -35 11t-23 34l-58 134h-357l-57 -134q-10 -24 -22 -34.5t-32 -10.5zM367 590l-141 -334h285l-142 334h-2zM369 797q-56 0 -56 54
t56 54t56 -54t-56 -54z" />
    <glyph glyph-name="uni0227" unicode="&#x227;" horiz-adv-x="537" 
d="M227 -9q-51 0 -91 20t-63.5 54t-23.5 77q0 54 27.5 85t91 45t171.5 14h34v26q0 57 -24 82t-79 25q-32 0 -66.5 -8t-71.5 -27q-21 -10 -34.5 -3t-18.5 22t1 31t25 24q44 20 87 29.5t81 9.5q100 0 148 -47.5t48 -148.5v-257q0 -51 -47 -51q-48 0 -48 51v37q-18 -42 -56 -66
t-91 -24zM247 63q54 0 90 38t36 96v27h-33q-73 0 -114.5 -7t-59 -23.5t-17.5 -45.5q0 -38 26 -61.5t72 -23.5zM275 600q-56 0 -56 55q0 53 56 53q57 0 57 -53q0 -55 -57 -55z" />
    <glyph glyph-name="uni0228" unicode="&#x228;" horiz-adv-x="589" 
d="M138 0q-56 0 -56 56v593q0 56 56 56h365q43 0 43 -41q0 -43 -43 -43h-321v-221h299q43 0 43 -42t-43 -42h-299v-232h321q43 0 43 -42t-43 -42h-365zM328 -194q-19 0 -39 3t-36 9q-18 7 -20 21.5t8 25t28 3.5q22 -8 53 -8q27 0 42 8.5t15 24.5q0 26 -38 26
q-8 0 -15.5 -0.5t-16.5 -3.5q-15 -4 -23 2t-5 25l12 78h58l-10 -61q8 1 15 1q39 0 63 -18.5t24 -51.5q0 -37 -32 -60.5t-83 -23.5z" />
    <glyph glyph-name="uni022A" unicode="&#x22a;" horiz-adv-x="775" 
d="M388 -9q-101 0 -175 44.5t-114.5 126t-40.5 191.5q0 111 40.5 192t114.5 125t175 44q100 0 174.5 -44t115 -125t40.5 -191q0 -111 -40.5 -192.5t-115 -126t-174.5 -44.5zM388 81q105 0 163.5 71.5t58.5 200.5t-58 200t-164 71q-105 0 -163.5 -71t-58.5 -200t58.5 -200.5
t163.5 -71.5zM267 925q-37 0 -37 32q0 31 37 31h240q37 0 37 -31q0 -32 -37 -32h-240zM297 789q-25 0 -39.5 11.5t-14.5 32.5q0 44 54 44t54 -44t-54 -44zM478 789q-54 0 -54 44t54 44q53 0 53 -44t-53 -44z" />
    <glyph glyph-name="uni022B" unicode="&#x22b;" horiz-adv-x="565" 
d="M283 -9q-74 0 -128 31t-83.5 87.5t-29.5 134.5t29.5 134.5t83.5 87.5t128 31q72 0 126 -31t84 -87.5t30 -134.5t-30 -134.5t-84 -87.5t-126 -31zM283 69q62 0 100 45t38 130t-38 129.5t-100 44.5q-63 0 -101 -44.5t-38 -129.5t38 -130t101 -45zM163 707q-37 0 -37 32
t37 32h240q37 0 37 -32t-37 -32h-240zM193 571q-25 0 -39.5 12t-14.5 33q0 43 54 43t54 -43q0 -45 -54 -45zM374 571q-54 0 -54 45q0 43 54 43q53 0 53 -43q0 -45 -53 -45z" />
    <glyph glyph-name="uni022C" unicode="&#x22c;" horiz-adv-x="775" 
d="M388 -9q-101 0 -175 44.5t-114.5 126t-40.5 191.5q0 111 40.5 192t114.5 125t175 44q100 0 174.5 -44t115 -125t40.5 -191q0 -111 -40.5 -192.5t-115 -126t-174.5 -44.5zM388 81q105 0 163.5 71.5t58.5 200.5t-58 200t-164 71q-105 0 -163.5 -71t-58.5 -200t58.5 -200.5
t163.5 -71.5zM267 925q-37 0 -37 32q0 31 37 31h240q37 0 37 -31q0 -32 -37 -32h-240zM249 766q-12 0 -18.5 9t-2.5 24q9 37 34 55.5t60 18.5q27 0 48.5 -12t40.5 -24t39 -12q16 0 28 6.5t17 22.5q8 22 31 21q12 -1 18.5 -9.5t2.5 -23.5q-9 -37 -34 -56t-60 -19
q-28 0 -49.5 12.5t-40.5 24.5t-38 12q-16 0 -28 -7t-17 -22q-8 -23 -31 -21z" />
    <glyph glyph-name="uni022D" unicode="&#x22d;" horiz-adv-x="565" 
d="M283 -9q-74 0 -128 31t-83.5 87.5t-29.5 134.5t29.5 134.5t83.5 87.5t128 31q72 0 126 -31t84 -87.5t30 -134.5t-30 -134.5t-84 -87.5t-126 -31zM283 69q62 0 100 45t38 130t-38 129.5t-100 44.5q-63 0 -101 -44.5t-38 -129.5t38 -130t101 -45zM163 707q-37 0 -37 32
t37 32h240q37 0 37 -32t-37 -32h-240zM145 548q-12 1 -18.5 9.5t-2.5 23.5q9 37 34 56t60 19q27 0 48.5 -12.5t40.5 -24.5t39 -12q34 0 45 29q8 23 31 22q12 -1 18.5 -10t2.5 -24q-9 -36 -34 -55t-60 -19q-28 0 -49.5 12t-40.5 24t-38 12q-35 0 -45 -28q-8 -23 -31 -22z" />
    <glyph glyph-name="uni0230" unicode="&#x230;" horiz-adv-x="775" 
d="M388 -9q-101 0 -175 44.5t-114.5 126t-40.5 191.5q0 111 40.5 192t114.5 125t175 44q100 0 174.5 -44t115 -125t40.5 -191q0 -111 -40.5 -192.5t-115 -126t-174.5 -44.5zM388 81q105 0 163.5 71.5t58.5 200.5t-58 200t-164 71q-105 0 -163.5 -71t-58.5 -200t58.5 -200.5
t163.5 -71.5zM267 925q-37 0 -37 32q0 31 37 31h240q37 0 37 -31q0 -32 -37 -32h-240zM388 789q-25 0 -39.5 11.5t-14.5 32.5q0 44 54 44t54 -44t-54 -44z" />
    <glyph glyph-name="uni0231" unicode="&#x231;" horiz-adv-x="565" 
d="M283 -9q-74 0 -128 31t-83.5 87.5t-29.5 134.5t29.5 134.5t83.5 87.5t128 31q72 0 126 -31t84 -87.5t30 -134.5t-30 -134.5t-84 -87.5t-126 -31zM283 69q62 0 100 45t38 130t-38 129.5t-100 44.5q-63 0 -101 -44.5t-38 -129.5t38 -130t101 -45zM163 707q-37 0 -37 32
t37 32h240q37 0 37 -32t-37 -32h-240zM284 571q-25 0 -39.5 12t-14.5 33q0 43 54 43t54 -43q0 -45 -54 -45z" />
    <glyph glyph-name="uni0232" unicode="&#x232;" horiz-adv-x="606" 
d="M303 -7q-52 0 -52 54v282l-224 312q-16 23 -5.5 47t42.5 24t55 -33l186 -259l186 259q13 18 25 25.5t30 7.5q31 0 41 -22.5t-9 -49.5l-224 -312v-281q0 -54 -51 -54zM166 811q-34 0 -34 31q0 32 34 32h275q33 0 33 -32q0 -31 -33 -31h-275z" />
    <glyph glyph-name="uni0233" unicode="&#x233;" horiz-adv-x="520" 
d="M186 -187q-28 0 -38.5 20.5t1.5 47.5l59 132l-178 413q-12 27 -0.5 48t45.5 21q18 0 29.5 -9t20.5 -31l137 -338l139 338q9 23 21 31.5t33 8.5q27 0 37 -21t-1 -47l-250 -575q-10 -23 -22.5 -31t-32.5 -8zM139 621q-34 0 -34 32t34 32h245q33 0 33 -32t-33 -32h-245z" />
    <glyph glyph-name="uni0237" unicode="&#x237;" horiz-adv-x="246" 
d="M-7 -190q-23 -1 -35 9.5t-13.5 25.5t6.5 27t26 14q50 3 73.5 27t23.5 76v455q0 51 51 51q50 0 50 -51v-447q0 -94 -45.5 -138t-136.5 -49z" />
    <glyph glyph-name="uni0253" unicode="&#x253;" horiz-adv-x="591" 
d="M333 -9q-55 0 -98 24.5t-65 66.5v-38q0 -51 -49 -51q-50 0 -50 51v489q0 85 45 133t132 48q38 0 53.5 -11t15.5 -31t-8 -31.5t-23 -9.5q-5 0 -11.5 1t-15.5 1q-42 0 -64.5 -25t-22.5 -74v-125q22 40 64.5 64t96.5 24q65 0 113.5 -31t75 -87.5t26.5 -134.5t-26.5 -135
t-75 -87.5t-113.5 -30.5zM308 69q63 0 100.5 45t37.5 130t-37.5 129.5t-100.5 44.5t-100.5 -44.5t-37.5 -129.5t37.5 -130t100.5 -45z" />
    <glyph glyph-name="uni0257" unicode="&#x257;" horiz-adv-x="591" 
d="M257 -9q-64 0 -112.5 30.5t-75.5 87.5t-27 135t27 134.5t75 87.5t113 31q55 0 98 -24t64 -65v125q0 85 45 133t133 48q37 0 52.5 -11t15.5 -31t-8 -31.5t-22 -9.5q-6 0 -12.5 1t-15.5 1q-41 0 -64 -25t-23 -74v-490q0 -51 -50 -51t-50 51v38q-22 -42 -65 -66.5t-98 -24.5
zM283 70q62 0 100 44.5t38 129.5t-38 129.5t-100 44.5q-63 0 -101 -44.5t-38 -129.5t38 -129.5t101 -44.5z" />
    <glyph glyph-name="uni0259" unicode="&#x259;" horiz-adv-x="537" 
d="M259 -9q-105 0 -162.5 63.5t-57.5 178.5q0 33 40 33h319q-12 152 -162 152q-29 0 -62.5 -8t-64.5 -28q-21 -12 -36.5 -8t-22 18t-2 30t22.5 28q34 23 79.5 35t86.5 12q120 0 189 -68t69 -184q0 -76 -30 -133.5t-83 -89t-123 -31.5zM257 62q61 0 97 38t43 104h-269
q4 -69 35.5 -105.5t93.5 -36.5z" />
    <glyph glyph-name="uni0292" unicode="&#x292;" horiz-adv-x="504" 
d="M230 -189q-119 0 -196 46q-19 11 -23 27t3 30t21 19.5t32 -4.5q63 -40 153 -40q76 0 114.5 34.5t38.5 98.5q0 58 -38 89.5t-110 31.5h-76q-25 0 -29 19.5t14 38.5l193 206h-258q-43 0 -43 41q0 40 43 40h337q23 0 34 -13.5t9 -32.5t-18 -36l-179 -191h7q101 0 158 -49.5
t57 -137.5q0 -101 -65.5 -159t-178.5 -58z" />
    <glyph glyph-name="uni02B9" unicode="&#x2b9;" horiz-adv-x="231" 
d="M116 415q-14 0 -24.5 9.5t-12.5 29.5l-17 199q-3 26 13 42.5t41 16.5t40.5 -16t12.5 -43l-16 -199q-1 -20 -11.5 -29.5t-25.5 -9.5z" />
    <glyph glyph-name="uni02BA" unicode="&#x2ba;" horiz-adv-x="417" 
d="M116 415q-14 0 -25 10t-13 29l-16 199q-3 25 13 42t41 17t40.5 -16.5t12.5 -42.5l-16 -199q-1 -19 -11.5 -29t-25.5 -10zM302 415q-14 0 -25 10t-13 29l-16 199q-3 25 13 42t41 17t40.5 -16.5t12.5 -42.5l-16 -199q-1 -19 -11.5 -29t-25.5 -10z" />
    <glyph glyph-name="uni02BB" unicode="&#x2bb;" horiz-adv-x="500" 
d="M251 561q-59 0 -59 63q0 29 9.5 62t29.5 57q12 15 26.5 13.5t20.5 -13.5t-6 -30q-15 -21 -20 -47q57 -3 57 -53q0 -25 -15.5 -38.5t-42.5 -13.5z" />
    <glyph glyph-name="uni02BC" unicode="&#x2bc;" horiz-adv-x="336" 
d="M187 584q-12 -15 -26.5 -13.5t-20.5 14t6 30.5q15 21 19 47q-27 1 -41.5 15t-14.5 37q0 25 15 39t43 14q59 0 59 -63q0 -29 -9.5 -62.5t-29.5 -57.5z" />
    <glyph glyph-name="uni02BE" unicode="&#x2be;" horiz-adv-x="500" 
d="M277 556q-16 -4 -25 2.5t-9 18.5t7 17.5t21 11.5q30 12 30 48q0 16 -8 29.5t-22 19.5q-14 5 -21 10.5t-7 18.5q0 11 9 18t25 3q35 -8 56 -36t21 -63t-21 -62.5t-56 -35.5z" />
    <glyph glyph-name="uni02BF" unicode="&#x2bf;" horiz-adv-x="500" 
d="M224 556q-35 8 -56 35.5t-21 62.5t21 63t56 36q16 4 24.5 -3t8.5 -18q0 -13 -6.5 -18.5t-20.5 -10.5q-31 -13 -31 -49q0 -35 31 -48q14 -6 20.5 -11.5t6.5 -17.5t-8.5 -18.5t-24.5 -2.5z" />
    <glyph glyph-name="circumflex" unicode="&#x2c6;" horiz-adv-x="500" 
d="M387 589q9 -18 -0.5 -31t-25.5 -14.5t-26 14.5l-85 135l-85 -135q-10 -16 -26 -14.5t-25.5 14.5t-0.5 31l79 143q20 37 58 37q39 0 59 -37z" />
    <glyph glyph-name="caron" unicode="&#x2c7;" horiz-adv-x="500" 
d="M250 537q-38 0 -58 39l-79 143q-9 18 0.5 30.5t25.5 14.5t26 -14l85 -136l85 136q10 16 26 14t25.5 -14.5t0.5 -30.5l-78 -143q-21 -39 -59 -39z" />
    <glyph glyph-name="uni02C8" unicode="&#x2c8;" horiz-adv-x="500" 
d="M250 587q-35 0 -35 36v144q0 37 35 37t35 -37v-144q0 -36 -35 -36z" />
    <glyph glyph-name="uni02C9" unicode="&#x2c9;" horiz-adv-x="500" 
d="M124 621q-34 0 -34 32t34 32h252q34 0 34 -32t-34 -32h-252z" />
    <glyph glyph-name="uni02CA" unicode="&#x2ca;" horiz-adv-x="500" 
d="M289 558q-10 -16 -27 -14.5t-27.5 14.5t-1.5 31l81 157q10 20 27 23t32 -5t21 -24t-6 -34z" />
    <glyph glyph-name="uni02CB" unicode="&#x2cb;" horiz-adv-x="500" 
d="M212 558l-100 149q-11 17 -5.5 32.5t21 24t32.5 5.5t27 -23l80 -157q9 -18 -1 -31t-27 -14.5t-27 14.5z" />
    <glyph glyph-name="uni02CC" unicode="&#x2cc;" horiz-adv-x="500" 
d="M250 -277q-35 0 -35 36v145q0 36 35 36t35 -36v-145q0 -36 -35 -36z" />
    <glyph glyph-name="breve" unicode="&#x2d8;" horiz-adv-x="500" 
d="M250 550q-67 0 -107 44.5t-50 116.5q-3 17 5.5 27.5t21.5 10.5q29 1 34 -30q8 -52 33.5 -78.5t62.5 -26.5t63 26.5t33 78.5q5 31 34 30q13 0 21.5 -10.5t5.5 -27.5q-9 -72 -49.5 -116.5t-107.5 -44.5z" />
    <glyph glyph-name="dotaccent" unicode="&#x2d9;" horiz-adv-x="500" 
d="M250 600q-56 0 -56 55q0 53 56 53q57 0 57 -53q0 -55 -57 -55z" />
    <glyph glyph-name="ring" unicode="&#x2da;" horiz-adv-x="500" 
d="M250 546q-52 0 -87 35t-35 85t35 84t87 34t87 -34t35 -84t-35 -85t-87 -35zM250 596q30 0 49.5 20t19.5 50q0 29 -19.5 48.5t-49.5 19.5t-49.5 -19.5t-19.5 -48.5q0 -30 19.5 -50t49.5 -20z" />
    <glyph glyph-name="ogonek" unicode="&#x2db;" horiz-adv-x="500" 
d="M230 -194q-51 0 -81 27.5t-30 73.5q0 41 26.5 76t72.5 56l32 -39q-24 -10 -43.5 -31.5t-19.5 -50.5q0 -27 16 -40.5t41 -13.5q16 0 32 5q21 6 30 -5t5 -26.5t-20 -22.5q-15 -5 -31 -7t-30 -2z" />
    <glyph glyph-name="tilde" unicode="&#x2dc;" horiz-adv-x="500" 
d="M90 584q-12 1 -19 9t-4 24q8 44 34 79t76 35q24 0 43 -11t35 -25t32 -25t35 -11q22 0 37.5 16t20.5 42q4 21 30 20q12 0 19 -8t4 -25q-8 -44 -34 -78.5t-76 -34.5q-24 0 -43 10.5t-35.5 24.5t-32.5 25t-34 11q-22 0 -37.5 -15.5t-20.5 -42.5q-4 -21 -30 -20z" />
    <glyph glyph-name="hungarumlaut" unicode="&#x2dd;" horiz-adv-x="500" 
d="M348 561q-6 -15 -20.5 -17t-25 6.5t-6.5 26.5l41 159q6 21 21.5 28.5t31.5 3t24.5 -17.5t0.5 -33zM211 561q-7 -15 -21 -17t-25 6.5t-6 26.5l41 159q6 21 21.5 28.5t31.5 3t24.5 -17.5t-0.5 -33z" />
    <glyph glyph-name="gravecomb" unicode="&#x300;" 
d="M-38 558l-100 149q-11 17 -5.5 32.5t21 24t32.5 5.5t27 -23l80 -157q9 -18 -1 -31t-27 -14.5t-27 14.5z" />
    <glyph glyph-name="acutecomb" unicode="&#x301;" 
d="M39 558q-10 -16 -27 -14.5t-27.5 14.5t-1.5 31l81 157q10 20 26.5 23t32 -5.5t21.5 -24t-6 -32.5z" />
    <glyph glyph-name="uni0302" unicode="&#x302;" 
d="M137 589q9 -18 -0.5 -31t-25.5 -14.5t-26 14.5l-85 135l-85 -135q-10 -16 -26 -14.5t-25.5 14.5t-0.5 31l79 143q20 37 58 37q39 0 59 -37z" />
    <glyph glyph-name="tildecomb" unicode="&#x303;" 
d="M-160 584q-12 1 -19 9t-4 24q8 44 34 79t76 35q24 0 43 -11t35 -25t32 -25t35 -11q22 0 37.5 16t20.5 42q4 21 30 20q12 0 19 -8t4 -25q-8 -44 -34 -78.5t-76 -34.5q-24 0 -43 10.5t-35.5 24.5t-32.5 25t-34 11q-22 0 -37.5 -15.5t-20.5 -42.5q-4 -21 -30 -20z" />
    <glyph glyph-name="uni0304" unicode="&#x304;" 
d="M-122 621q-34 0 -34 32t34 32h245q33 0 33 -32t-33 -32h-245z" />
    <glyph glyph-name="uni0306" unicode="&#x306;" 
d="M0 550q-67 0 -107 44.5t-50 116.5q-3 17 5.5 27.5t21.5 10.5q29 1 34 -30q8 -52 33.5 -78.5t62.5 -26.5t63 26.5t33 78.5q5 31 34 30q13 0 21.5 -10.5t5.5 -27.5q-9 -72 -49.5 -116.5t-107.5 -44.5z" />
    <glyph glyph-name="uni0307" unicode="&#x307;" 
d="M0 600q-56 0 -56 55q0 53 56 53q57 0 57 -53q0 -55 -57 -55z" />
    <glyph glyph-name="uni0308" unicode="&#x308;" 
d="M91 600q-54 0 -54 54q0 52 54 52q53 0 53 -52q0 -54 -53 -54zM-90 600q-54 0 -54 54q0 25 14.5 38.5t39.5 13.5q54 0 54 -52q0 -54 -54 -54z" />
    <glyph glyph-name="hookabovecomb" unicode="&#x309;" 
d="M0 545q-32 0 -32 25q0 23 9 38.5t20.5 26.5t20.5 21t9 24q0 27 -43 27q-9 0 -19.5 -1.5t-21.5 -5.5q-28 -9 -36 11q-10 26 19 38q17 7 37 10t42 3q48 0 75 -18.5t27 -51.5q0 -25 -11.5 -40t-26 -26.5t-26 -24.5t-11.5 -33q0 -23 -32 -23z" />
    <glyph glyph-name="uni030A" unicode="&#x30a;" 
d="M0 546q-52 0 -87 35t-35 85t35 84t87 34t87 -34t35 -84t-35 -85t-87 -35zM0 596q30 0 49.5 20t19.5 50q0 29 -19.5 48.5t-49.5 19.5t-49.5 -19.5t-19.5 -48.5q0 -30 19.5 -50t49.5 -20z" />
    <glyph glyph-name="uni030B" unicode="&#x30b;" 
d="M98 561q-6 -15 -20.5 -17t-25 6.5t-6.5 26.5l41 159q6 21 21.5 28.5t31.5 3t24.5 -17.5t0.5 -33zM-39 561q-7 -15 -21 -17t-25 6.5t-6 26.5l41 159q6 21 21.5 28.5t31.5 3t24.5 -17.5t-0.5 -33z" />
    <glyph glyph-name="uni030C" unicode="&#x30c;" 
d="M0 537q-38 0 -58 39l-79 143q-9 18 0.5 30.5t25.5 14.5t26 -14l85 -136l85 136q10 16 26 14t25.5 -14.5t0.5 -30.5l-78 -143q-21 -39 -59 -39z" />
    <glyph glyph-name="uni030F" unicode="&#x30f;" 
d="M-98 561l-66 156q-9 20 -0.5 33.5t24.5 17.5t31.5 -3.5t21.5 -28.5l42 -159q4 -18 -7 -26.5t-25 -6.5t-21 17zM39 561l-66 156q-9 20 -0.5 33.5t25 17.5t32 -3.5t20.5 -28.5l41 -159q5 -18 -6 -26.5t-25 -6.5t-21 17z" />
    <glyph glyph-name="uni0311" unicode="&#x311;" 
d="M-130 548q-13 0 -21.5 10.5t-5.5 27.5q9 72 49.5 116.5t107.5 44.5t107.5 -44.5t49.5 -116.5q3 -17 -5.5 -27.5t-21.5 -10.5q-29 -1 -34 30q-7 53 -33 79t-63 26t-63 -26t-33 -79q-5 -31 -34 -30z" />
    <glyph glyph-name="uni0312" unicode="&#x312;" 
d="M1 561q-59 0 -59 63q0 29 9.5 62t29.5 57q12 15 26.5 13.5t20.5 -13.5t-6 -30q-15 -21 -20 -47q57 -3 57 -53q0 -25 -15.5 -38.5t-42.5 -13.5z" />
    <glyph glyph-name="uni031B" unicode="&#x31b;" 
d="M55 431l-55 36v21q60 0 81.5 24.5t21.5 71.5q0 36 45 36q44 0 44 -36q0 -67 -36.5 -107.5t-100.5 -45.5z" />
    <glyph glyph-name="dotbelowcomb" unicode="&#x323;" 
d="M0 -199q-56 0 -56 55q0 54 56 54q57 0 57 -54q0 -55 -57 -55z" />
    <glyph glyph-name="uni0324" unicode="&#x324;" 
d="M91 -190q-54 0 -54 53q0 54 54 54q53 0 53 -54q0 -53 -53 -53zM-90 -190q-25 0 -39.5 14t-14.5 39q0 54 54 54t54 -54q0 -53 -54 -53z" />
    <glyph glyph-name="uni0326" unicode="&#x326;" 
d="M19 -255q-12 -14 -26.5 -12.5t-20.5 13.5t6 30q15 21 20 47q-57 3 -57 53q0 25 15.5 38.5t42.5 13.5q59 0 59 -63q0 -29 -9.5 -62t-29.5 -58z" />
    <glyph glyph-name="uni0327" unicode="&#x327;" 
d="M2 -194q-19 0 -39 3t-36 9q-18 7 -20 21.5t8 25t28 3.5q22 -8 53 -8q27 0 42 8.5t15 24.5q0 26 -38 26q-8 0 -15.5 -0.5t-16.5 -3.5q-15 -4 -23 2t-5 25l12 78h58l-10 -61q8 1 15 1q39 0 63 -18.5t24 -51.5q0 -37 -32 -60.5t-83 -23.5z" />
    <glyph glyph-name="uni0328" unicode="&#x328;" 
d="M-20 -194q-51 0 -81 27.5t-30 73.5q0 41 26.5 76t72.5 56l32 -39q-24 -10 -43.5 -31.5t-19.5 -50.5q0 -27 16 -40.5t41 -13.5q16 0 32 5q21 6 30 -5t5 -26.5t-20 -22.5q-15 -5 -31 -7t-30 -2z" />
    <glyph glyph-name="uni032E" unicode="&#x32e;" 
d="M0 -215q-61 0 -102.5 32t-53.5 90q-4 18 3.5 28t20.5 11q14 2 23 -4t13 -21q8 -35 33 -54t63 -19t63 19t33 54q4 15 13 21t23 4q13 -1 20.5 -11t3.5 -28q-13 -58 -54 -90t-102 -32z" />
    <glyph glyph-name="uni0331" unicode="&#x331;" 
d="M-122 -160q-34 0 -34 32t34 32h245q33 0 33 -32t-33 -32h-245z" />
    <glyph glyph-name="uni0335" unicode="&#x335;" 
d="M-159 528q-39 0 -39 37q0 36 39 36h318q40 0 40 -36q0 -37 -40 -37h-318z" />
    <glyph glyph-name="uni0337" unicode="&#x337;" 
d="M-91 258q-19 -11 -34.5 -6t-23.5 18.5t-4.5 30t22.5 27.5l223 129q19 11 35 6t24 -18.5t4 -29.5t-23 -27z" />
    <glyph glyph-name="uni0338" unicode="&#x338;" 
d="M-123 -30q-8 -14 -21 -16.5t-24.5 4t-15.5 19.5t5 29l301 516q8 14 21 16t24.5 -5t16 -19.5t-4.5 -28.5z" />
    <glyph glyph-name="uni0394" unicode="&#x394;" horiz-adv-x="737" 
d="M97 0q-36 0 -47.5 25t7.5 67l250 572q18 41 62 41q43 0 60 -41l251 -572q19 -43 6 -67.5t-47 -24.5h-542zM367 589l-215 -505h433l-216 505h-2z" />
    <glyph glyph-name="Sigma" unicode="&#x3a3;" horiz-adv-x="600" 
d="M93 -180q-26 0 -39 15.5t-11.5 39t19.5 47.5l247 341l-247 340q-29 38 -19 70t50 32h420q54 0 54 -43q0 -44 -54 -44h-345l219 -303q21 -29 21.5 -52.5t-21.5 -52.5l-219 -303h345q54 0 54 -44q0 -43 -54 -43h-420z" />
    <glyph glyph-name="uni03A9" unicode="&#x3a9;" horiz-adv-x="788" 
d="M76 0q-44 0 -44 43t44 43h152q-91 61 -133 139.5t-42 174.5q0 98 43 168.5t120 108t178 37.5t177.5 -37.5t120 -108t43.5 -168.5q0 -96 -41.5 -174.5t-133.5 -139.5h152q44 0 44 -43t-44 -43h-218q-23 0 -35.5 14t-12.5 35q0 17 7 28.5t22 23.5q78 62 114.5 133.5
t36.5 153.5q0 113 -62 174.5t-170 61.5t-170.5 -61.5t-62.5 -174.5q0 -79 37 -152.5t116 -134.5q16 -12 22.5 -24t6.5 -29q0 -20 -13 -34t-36 -14h-218z" />
    <glyph glyph-name="uni03BC" unicode="&#x3bc;" horiz-adv-x="569" 
d="M119 -187q-50 0 -50 51v580q0 51 50 51q51 0 51 -51v-256q0 -59 24 -87.5t76 -28.5q56 0 92 38.5t36 102.5v231q0 51 50 51q51 0 51 -51v-400q0 -51 -49 -51q-24 0 -36.5 12.5t-12.5 31.5v50q-18 -47 -54 -71.5t-79 -24.5q-35 0 -61.5 10.5t-44.5 37.5l6 -175
q3 -51 -49 -51z" />
    <glyph glyph-name="pi" unicode="&#x3c0;" horiz-adv-x="602" 
d="M90 -7q-27 0 -38.5 15.5t-3.5 43.5q24 80 38 169.5t15 188.5h-61q-20 0 -31.5 10.5t-11.5 28.5q0 39 45 39h483q45 0 45 -39t-44 -39h-78v-220q0 -56 22.5 -84t71.5 -28q10 0 18.5 1.5t13.5 1.5q10 0 16.5 -7t6.5 -25q0 -32 -20 -44t-55 -12q-93 0 -134 51.5t-41 140.5
v225h-145q-2 -114 -15.5 -207t-37.5 -169q-13 -41 -59 -41z" />
    <glyph glyph-name="uni0400" unicode="&#x400;" horiz-adv-x="589" 
d="M138 0q-56 0 -56 56v593q0 56 56 56h365q43 0 43 -41q0 -43 -43 -43h-321v-221h299q43 0 43 -42t-43 -42h-299v-232h321q43 0 43 -42t-43 -42h-365zM284 770l-100 115q-14 15 -10 30t18 24.5t30.5 8.5t29.5 -19l84 -123q11 -16 2.5 -30t-24.5 -17.5t-30 11.5z" />
    <glyph glyph-name="uni0401" unicode="&#x401;" horiz-adv-x="589" 
d="M138 0q-56 0 -56 56v593q0 56 56 56h365q43 0 43 -41q0 -43 -43 -43h-321v-221h299q43 0 43 -42t-43 -42h-299v-232h321q43 0 43 -42t-43 -42h-365zM417 795q-54 0 -54 54q0 52 54 52q53 0 53 -52q0 -54 -53 -54zM236 795q-54 0 -54 54q0 25 14.5 38.5t39.5 13.5
q54 0 54 -52q0 -54 -54 -54z" />
    <glyph glyph-name="uni0402" unicode="&#x402;" horiz-adv-x="855" 
d="M584 -189q-23 0 -47.5 2.5t-43.5 8.5q-20 6 -27.5 20.5t-4.5 30t15 25t31 4.5q32 -8 66 -8q59 0 91.5 40t32.5 117v89q0 108 -49 158t-145 50q-86 0 -146 -35v-267q0 -53 -51 -53q-52 0 -52 53v572h-212q-45 0 -45 44q0 43 45 43h527q46 0 46 -43q0 -44 -46 -44h-212
v-213q27 15 69 24t87 9q140 0 213.5 -72.5t73.5 -219.5v-91q0 -118 -58.5 -181t-157.5 -63z" />
    <glyph glyph-name="uni0403" unicode="&#x403;" horiz-adv-x="550" 
d="M134 -7q-52 0 -52 53v606q0 53 54 53h361q45 0 45 -43q0 -44 -45 -44h-311v-572q0 -53 -52 -53zM321 770q-13 -15 -29.5 -11.5t-24.5 17.5t3 30l84 123q12 18 29 19t31 -8.5t17.5 -24.5t-9.5 -30z" />
    <glyph glyph-name="uni0404" unicode="&#x404;" horiz-adv-x="676" 
d="M398 -9q-107 0 -183 44t-116.5 125.5t-40.5 192.5t40.5 192t116.5 125t183 44q58 0 113 -15.5t101 -50.5q20 -14 23.5 -32.5t-6 -33.5t-27 -19.5t-39.5 9.5q-37 26 -76.5 38t-85.5 12q-103 0 -162.5 -58.5t-69.5 -163.5h299q45 0 45 -41q0 -42 -45 -42h-301
q10 -114 70 -174t164 -60q47 0 87 12.5t79 39.5q22 15 38 10t23.5 -21.5t3.5 -35.5t-23 -32q-43 -33 -97 -49t-114 -16z" />
    <glyph glyph-name="uni0405" unicode="&#x405;" horiz-adv-x="622" 
d="M317 -9q-69 0 -132.5 16t-110.5 48q-19 13 -23 31.5t3.5 34t23 21.5t35.5 -7q45 -29 95 -42.5t109 -13.5q85 0 125.5 30.5t40.5 79.5q0 40 -29 63.5t-97 37.5l-107 22q-95 20 -141.5 66t-46.5 124q0 63 33.5 111t93.5 74.5t138 26.5q62 0 116.5 -16t97.5 -49
q17 -12 20 -29t-5 -31.5t-24 -19.5t-37 8q-39 26 -80 37.5t-89 11.5q-74 0 -117.5 -33t-43.5 -88q0 -42 27 -67t90 -38l106 -22q100 -21 149 -64.5t49 -117.5q0 -62 -33 -108t-93 -71.5t-143 -25.5z" />
    <glyph glyph-name="uni0406" unicode="&#x406;" horiz-adv-x="268" 
d="M134 -7q-52 0 -52 53v613q0 53 52 53t52 -53v-613q0 -53 -52 -53z" />
    <glyph glyph-name="uni0407" unicode="&#x407;" horiz-adv-x="268" 
d="M134 -7q-52 0 -52 53v613q0 53 52 53t52 -53v-613q0 -53 -52 -53zM225 795q-54 0 -54 54q0 52 54 52q53 0 53 -52q0 -54 -53 -54zM44 795q-54 0 -54 54q0 25 14.5 38.5t39.5 13.5q54 0 54 -52q0 -54 -54 -54z" />
    <glyph glyph-name="uni0408" unicode="&#x408;" horiz-adv-x="338" 
d="M36 -6q-23 -2 -36 11.5t-13 33.5q0 15 9.5 27t27.5 13l31 2q98 8 98 112v467q0 52 51 52q52 0 52 -52v-467q0 -91 -47.5 -141t-138.5 -56z" />
    <glyph glyph-name="uni0409" unicode="&#x409;" horiz-adv-x="1131" 
d="M603 0q-56 0 -56 56v562h-269v-152q0 -128 -20.5 -218.5t-61 -150t-99.5 -95.5q-19 -13 -37 -10t-31 22t-7.5 36t24.5 32q43 28 73.5 76t46.5 128.5t16 205.5v157q0 56 56 56h357q56 0 56 -56v-247h202q111 0 173.5 -50.5t62.5 -149.5t-62.5 -150.5t-173.5 -51.5h-250z
M651 84h190q147 0 147 117t-147 117h-190v-234z" />
    <glyph glyph-name="uni040A" unicode="&#x40a;" horiz-adv-x="1165" 
d="M134 -7q-52 0 -52 53v613q0 53 52 53t52 -53v-258h395v258q0 53 52 53q51 0 51 -53v-257h202q112 0 174.5 -50.5t62.5 -149.5t-62.5 -150.5t-174.5 -51.5h-249q-56 0 -56 56v258h-395v-268q0 -53 -52 -53zM684 84h190q148 0 148 117t-148 117h-190v-234z" />
    <glyph glyph-name="uni040B" unicode="&#x40b;" horiz-adv-x="856" 
d="M306 -7q-52 0 -52 53v572h-212q-45 0 -45 44q0 43 45 43h527q46 0 46 -43q0 -44 -46 -44h-212v-213q30 16 74.5 24.5t89.5 8.5q136 0 208.5 -72.5t72.5 -219.5v-100q0 -53 -53 -53q-51 0 -51 53v94q0 109 -47.5 158.5t-140.5 49.5q-40 0 -79.5 -7.5t-73.5 -27.5v-267
q0 -53 -51 -53z" />
    <glyph glyph-name="uni040C" unicode="&#x40c;" horiz-adv-x="656" 
d="M134 -7q-52 0 -52 53v614q0 52 52 52t52 -52v-262h113l186 287q14 22 33.5 26t36 -5.5t22 -27.5t-8.5 -40l-171 -257q42 -16 74 -49.5t57 -83.5l89 -183q13 -25 4.5 -43t-27 -25t-38.5 -0.5t-31 29.5l-84 179q-27 57 -63 81.5t-89 24.5h-103v-265q0 -53 -52 -53zM374 770
q-13 -15 -29.5 -11.5t-24.5 17.5t3 30l84 123q12 18 29 19t31 -8.5t17.5 -24.5t-9.5 -30z" />
    <glyph glyph-name="uni040D" unicode="&#x40d;" horiz-adv-x="743" 
d="M126 -7q-44 0 -44 52v618q0 49 49 49q47 0 47 -49v-494l387 513q13 17 24 23.5t30 6.5t30.5 -13t11.5 -35v-621q0 -50 -48 -50t-48 50v494l-387 -513q-12 -17 -22.5 -24t-29.5 -7zM330 770l-100 115q-14 15 -10 30t18 24.5t30.5 8.5t29.5 -19l84 -123q11 -16 2.5 -30
t-24.5 -17.5t-30 11.5z" />
    <glyph glyph-name="uni040E" unicode="&#x40e;" horiz-adv-x="651" 
d="M261 -7q-27 0 -41 20t2 50l77 149l-268 430q-17 28 -4 49t42 21q20 0 31 -9.5t22 -26.5l226 -369l188 368q8 15 19.5 26t32.5 11q27 0 41 -19.5t-3 -50.5l-313 -612q-7 -15 -19 -26t-33 -11zM328 760q-64 0 -111.5 27.5t-72.5 81.5q-7 17 -2 28t18 16q25 8 41 -21
q19 -35 50 -53.5t78 -18.5t78 18.5t50 53.5q16 29 41 21q13 -5 17.5 -15.5t-3.5 -27.5q-26 -54 -74 -82t-110 -28z" />
    <glyph glyph-name="uni040F" unicode="&#x40f;" horiz-adv-x="760" 
d="M381 -168q-46 0 -46 48v120h-197q-56 0 -56 56v603q0 53 52 53t52 -53v-572h389v572q0 53 52 53q51 0 51 -53v-603q0 -56 -55 -56h-197v-120q0 -48 -45 -48z" />
    <glyph glyph-name="uni0410" unicode="&#x410;" horiz-adv-x="736" 
d="M78 -7q-30 0 -41.5 19.5t1.5 47.5l271 608q10 23 25 33.5t35 10.5q18 0 33.5 -10.5t25.5 -33.5l271 -608q13 -29 2.5 -48t-39.5 -19q-22 0 -35 11t-23 34l-58 134h-357l-57 -134q-10 -24 -22 -34.5t-32 -10.5zM367 590l-141 -334h285l-142 334h-2z" />
    <glyph glyph-name="uni0411" unicode="&#x411;" horiz-adv-x="666" 
d="M138 0q-56 0 -56 56v593q0 56 56 56h383q43 0 43 -41q0 -43 -43 -43h-339v-219h206q111 0 173.5 -50.5t62.5 -149.5t-62.5 -150.5t-173.5 -51.5h-250zM182 84h194q147 0 147 117t-147 117h-194v-234z" />
    <glyph glyph-name="uni0412" unicode="&#x412;" horiz-adv-x="682" 
d="M138 0q-56 0 -56 56v593q0 56 56 56h238q110 0 170.5 -48.5t60.5 -135.5q0 -57 -30 -98t-82 -60q61 -16 95 -59t34 -109q0 -94 -62.5 -144.5t-173.5 -50.5h-250zM182 397h178q146 0 146 114t-146 114h-178v-228zM182 80h194q147 0 147 119q0 118 -147 118h-194v-237z" />
    <glyph glyph-name="uni0413" unicode="&#x413;" horiz-adv-x="550" 
d="M134 -7q-52 0 -52 53v606q0 53 54 53h361q45 0 45 -43q0 -44 -45 -44h-311v-572q0 -53 -52 -53z" />
    <glyph glyph-name="uni0414" unicode="&#x414;" horiz-adv-x="788" 
d="M62 -168q-47 0 -47 48v155q0 49 50 49h20q50 62 74 170t24 268v127q0 56 56 56h371q55 0 55 -56v-565h51q49 0 49 -49v-155q0 -48 -45 -48q-47 0 -47 48v120h-565v-120q0 -48 -46 -48zM191 84h371v537h-282v-107q0 -154 -22 -257.5t-67 -172.5z" />
    <glyph glyph-name="uni0415" unicode="&#x415;" horiz-adv-x="589" 
d="M138 0q-56 0 -56 56v593q0 56 56 56h365q43 0 43 -41q0 -43 -43 -43h-321v-221h299q43 0 43 -42t-43 -42h-299v-232h321q43 0 43 -42t-43 -42h-365z" />
    <glyph glyph-name="uni0416" unicode="&#x416;" horiz-adv-x="989" 
d="M495 -7q-50 0 -50 53v265h-77q-54 0 -90 -25t-63 -81l-84 -179q-11 -23 -31 -29.5t-39 0.5t-27 25t5 43l89 183q49 102 132 133l-171 257q-14 22 -8.5 40t22 27.5t36 5.5t33.5 -26l187 -287h86v262q0 52 50 52t50 -52v-262h86l187 287q13 22 33 26t36.5 -5.5t22 -27.5
t-9.5 -40l-170 -257q42 -16 74 -49.5t57 -83.5l89 -183q13 -25 4.5 -43t-27 -25t-38.5 -0.5t-31 29.5l-85 179q-27 57 -62.5 81.5t-88.5 24.5h-77v-265q0 -53 -50 -53z" />
    <glyph glyph-name="uni0417" unicode="&#x417;" horiz-adv-x="638" 
d="M308 -9q-76 0 -140 18t-110 52q-18 13 -21.5 30.5t4.5 32t24 19t37 -7.5q82 -55 199 -55q91 0 133.5 30.5t42.5 91.5q0 114 -147 114h-134q-45 0 -45 42q0 41 45 41h118q146 0 146 111q0 53 -39 84.5t-119 31.5q-49 0 -95.5 -12.5t-85.5 -38.5q-21 -13 -37.5 -8t-24 20
t-3.5 32.5t23 29.5q48 33 108.5 49t124.5 16q125 0 188 -53t63 -140q0 -57 -30 -98t-81 -60q60 -16 94 -59t34 -109q0 -94 -66.5 -149t-205.5 -55z" />
    <glyph glyph-name="uni0418" unicode="&#x418;" horiz-adv-x="743" 
d="M126 -7q-44 0 -44 52v618q0 49 49 49q47 0 47 -49v-494l387 513q13 17 24 23.5t30 6.5t30.5 -13t11.5 -35v-621q0 -50 -48 -50t-48 50v494l-387 -513q-12 -17 -22.5 -24t-29.5 -7z" />
    <glyph glyph-name="uni0419" unicode="&#x419;" horiz-adv-x="743" 
d="M126 -7q-44 0 -44 52v618q0 49 49 49q47 0 47 -49v-494l387 513q13 17 24 23.5t30 6.5t30.5 -13t11.5 -35v-621q0 -50 -48 -50t-48 50v494l-387 -513q-12 -17 -22.5 -24t-29.5 -7zM371 760q-64 0 -111.5 27.5t-72.5 81.5q-7 17 -2 28t18 16q25 8 41 -21q19 -35 50 -53.5
t78 -18.5t78 18.5t50 53.5q16 29 41 21q13 -5 17.5 -15.5t-3.5 -27.5q-26 -54 -74 -82t-110 -28z" />
    <glyph glyph-name="uni041A" unicode="&#x41a;" horiz-adv-x="656" 
d="M134 -7q-52 0 -52 53v614q0 52 52 52t52 -52v-262h113l186 287q14 22 33.5 26t36 -5.5t22 -27.5t-8.5 -40l-171 -257q42 -16 74 -49.5t57 -83.5l89 -183q13 -25 4.5 -43t-27 -25t-38.5 -0.5t-31 29.5l-84 179q-27 57 -63 81.5t-89 24.5h-103v-265q0 -53 -52 -53z" />
    <glyph glyph-name="uni041B" unicode="&#x41b;" horiz-adv-x="746" 
d="M612 -7q-52 0 -52 53v572h-282v-152q0 -129 -21 -218.5t-61 -149t-98 -97.5q-19 -13 -37.5 -9.5t-31.5 22.5t-8 37t25 31q44 28 74.5 76t46 128.5t15.5 205.5v157q0 56 56 56h370q55 0 55 -56v-603q0 -53 -51 -53z" />
    <glyph glyph-name="uni041C" unicode="&#x41c;" horiz-adv-x="861" 
d="M132 -7q-48 0 -48 49v621q0 49 48 49q21 0 32.5 -8t21.5 -26l246 -460l246 460q10 18 21.5 26t31.5 8q46 0 46 -49v-621q0 -49 -46 -49q-47 0 -47 49v474l-210 -387q-8 -15 -17 -22t-25 -7q-17 0 -26.5 7.5t-17.5 21.5l-210 386v-473q0 -49 -46 -49z" />
    <glyph glyph-name="uni041D" unicode="&#x41d;" horiz-adv-x="767" 
d="M134 -7q-52 0 -52 53v613q0 53 52 53t52 -53v-258h395v258q0 53 52 53q51 0 51 -53v-613q0 -53 -51 -53q-52 0 -52 53v268h-395v-268q0 -53 -52 -53z" />
    <glyph glyph-name="uni041E" unicode="&#x41e;" horiz-adv-x="775" 
d="M388 -9q-101 0 -175 44.5t-114.5 126t-40.5 191.5q0 111 40.5 192t114.5 125t175 44q100 0 174.5 -44t115 -125t40.5 -191q0 -111 -40.5 -192.5t-115 -126t-174.5 -44.5zM388 81q105 0 163.5 71.5t58.5 200.5t-58 200t-164 71q-105 0 -163.5 -71t-58.5 -200t58.5 -200.5
t163.5 -71.5z" />
    <glyph glyph-name="uni041F" unicode="&#x41f;" horiz-adv-x="760" 
d="M134 -7q-52 0 -52 53v603q0 56 56 56h485q55 0 55 -56v-603q0 -53 -51 -53q-52 0 -52 53v572h-389v-572q0 -53 -52 -53z" />
    <glyph glyph-name="uni0420" unicode="&#x420;" horiz-adv-x="642" 
d="M134 -7q-52 0 -52 53v606q0 53 53 53h239q114 0 176 -56.5t62 -158.5q0 -103 -62 -159.5t-176 -56.5h-188v-228q0 -53 -52 -53zM186 357h173q152 0 152 133q0 132 -152 132h-173v-265z" />
    <glyph glyph-name="uni0421" unicode="&#x421;" horiz-adv-x="676" 
d="M398 -9q-107 0 -183 44t-116.5 125.5t-40.5 192.5t40.5 192t116.5 125t183 44q59 0 113.5 -16t94.5 -46q22 -14 25.5 -33.5t-6 -35t-27.5 -20.5t-40 10q-34 25 -73.5 37t-83.5 12q-114 0 -174 -70t-60 -199t60 -199.5t174 -70.5q44 0 84.5 12t76.5 38q22 14 39 9.5
t26 -19.5t6 -33.5t-21 -31.5q-42 -33 -97.5 -50t-116.5 -17z" />
    <glyph glyph-name="uni0422" unicode="&#x422;" horiz-adv-x="611" 
d="M306 -7q-52 0 -52 53v572h-212q-45 0 -45 44q0 43 45 43h527q46 0 46 -43q0 -44 -46 -44h-212v-572q0 -53 -51 -53z" />
    <glyph glyph-name="uni0423" unicode="&#x423;" horiz-adv-x="651" 
d="M261 -7q-27 0 -41 20t2 50l77 149l-268 430q-17 28 -4 49t42 21q20 0 31 -9.5t22 -26.5l226 -369l188 368q8 15 19.5 26t32.5 11q27 0 41 -19.5t-3 -50.5l-313 -612q-7 -15 -19 -26t-33 -11z" />
    <glyph glyph-name="uni0424" unicode="&#x424;" horiz-adv-x="863" 
d="M432 -31q-52 0 -52 53v34q-100 0 -172.5 36t-111 104t-38.5 162q0 143 84.5 222.5t237.5 79.5v28q0 53 52 53t52 -53v-28q153 0 237.5 -79.5t84.5 -222.5q0 -95 -39 -162.5t-111 -103.5t-172 -36v-34q0 -53 -52 -53zM494 579h-11v-442h11q91 0 148 57.5t57 163.5
q0 109 -56 165t-149 56zM369 137h11v442h-11q-93 0 -149 -56t-56 -165q0 -106 57.5 -163.5t147.5 -57.5z" />
    <glyph glyph-name="uni0425" unicode="&#x425;" horiz-adv-x="660" 
d="M88 -7q-30 0 -43 22.5t6 48.5l221 296l-208 279q-21 27 -8 50t43 23t54 -33l178 -243l176 243q24 33 55 33q30 0 43 -22.5t-8 -50.5l-208 -279l220 -296q19 -26 6.5 -48.5t-43.5 -22.5q-30 0 -55 33l-187 256l-186 -256q-25 -33 -56 -33z" />
    <glyph glyph-name="uni0426" unicode="&#x426;" horiz-adv-x="801" 
d="M733 -170q-47 0 -47 47v123h-548q-56 0 -56 56v603q0 53 52 53t52 -53v-572h389v572q0 53 52 53q51 0 51 -53v-572h51q49 0 49 -50v-160q0 -47 -45 -47z" />
    <glyph glyph-name="uni0427" unicode="&#x427;" horiz-adv-x="685" 
d="M551 -7q-51 0 -51 53v241q-29 -15 -74.5 -23.5t-90.5 -8.5q-135 0 -207 73t-72 219v112q0 53 51 53q52 0 52 -53v-106q0 -108 47 -158t139 -50q41 0 81 8t74 27v279q0 53 51 53q52 0 52 -53v-613q0 -53 -52 -53z" />
    <glyph glyph-name="uni0428" unicode="&#x428;" horiz-adv-x="1061" 
d="M138 0q-56 0 -56 56v603q0 53 51 53t51 -53v-572h296v572q0 53 50 53q51 0 51 -53v-572h296v572q0 53 50 53q51 0 51 -53v-603q0 -56 -55 -56h-785z" />
    <glyph glyph-name="uni0429" unicode="&#x429;" horiz-adv-x="1100" 
d="M1032 -168q-46 0 -46 48v120h-848q-56 0 -56 56v603q0 53 51 53t51 -53v-572h296v572q0 53 50 53q51 0 51 -53v-572h296v572q0 53 50 53q51 0 51 -53v-572h50q50 0 50 -50v-157q0 -48 -46 -48z" />
    <glyph glyph-name="uni042A" unicode="&#x42a;" horiz-adv-x="798" 
d="M269 0q-55 0 -55 56v562h-171q-46 0 -46 44q0 43 46 43h219q56 0 56 -56v-247h201q112 0 174 -50.5t62 -149.5t-62 -150.5t-174 -51.5h-250zM318 84h190q147 0 147 117t-147 117h-190v-234z" />
    <glyph glyph-name="uni042B" unicode="&#x42b;" horiz-adv-x="876" 
d="M138 0q-56 0 -56 56v603q0 53 52 53t52 -53v-257h172q111 0 173.5 -50.5t62.5 -149.5t-62.5 -150.5t-173.5 -51.5h-220zM741 -7q-51 0 -51 53v613q0 53 51 53q52 0 52 -53v-613q0 -53 -52 -53zM186 84h160q147 0 147 117t-147 117h-160v-234z" />
    <glyph glyph-name="uni042C" unicode="&#x42c;" horiz-adv-x="666" 
d="M138 0q-56 0 -56 56v603q0 53 52 53t52 -53v-257h202q111 0 173.5 -50.5t62.5 -149.5t-62.5 -150.5t-173.5 -51.5h-250zM186 84h190q147 0 147 117t-147 117h-190v-234z" />
    <glyph glyph-name="uni042D" unicode="&#x42d;" horiz-adv-x="676" 
d="M278 -9q-60 0 -114 16t-98 49q-18 14 -22 33t3.5 35t23.5 21.5t38 -9.5q39 -28 79.5 -40.5t87.5 -12.5q103 0 163.5 60.5t69.5 173.5h-301q-45 0 -45 41q0 42 45 42h299q-11 106 -67.5 164t-157.5 58q-46 0 -88 -13.5t-79 -37.5q-22 -14 -40 -9.5t-27 19.5t-5.5 33.5
t23.5 31.5q48 35 105 51.5t115 16.5q105 0 179.5 -44.5t113.5 -125.5t39 -191q0 -111 -40.5 -192.5t-116.5 -125.5t-183 -44z" />
    <glyph glyph-name="uni042E" unicode="&#x42e;" horiz-adv-x="1029" 
d="M649 -9q-91 0 -160 39t-110 111.5t-48 172.5h-145v-268q0 -53 -52 -53t-52 53v613q0 53 52 53t52 -53v-258h145q9 97 50 167.5t109.5 108t158.5 37.5q99 0 171 -44t111.5 -125t39.5 -192t-39.5 -192.5t-112 -125.5t-170.5 -44zM649 81q102 0 158 71.5t56 200.5t-55.5 200
t-158.5 71q-101 0 -157 -71t-56 -200t56 -200.5t157 -71.5z" />
    <glyph glyph-name="uni042F" unicode="&#x42f;" horiz-adv-x="678" 
d="M545 -7q-52 0 -52 53v245h-103q-43 0 -70.5 -13.5t-48.5 -52.5l-109 -200q-13 -24 -33.5 -30t-38 3t-24.5 28t6 44l84 154q32 59 78 76q-80 16 -124 67t-44 131q0 98 62 152.5t176 54.5h237q55 0 55 -56v-603q0 -53 -51 -53zM321 369h172v253h-172q-154 0 -154 -126
q0 -127 154 -127z" />
    <glyph glyph-name="uni0430" unicode="&#x430;" horiz-adv-x="549" 
d="M233 -9q-51 0 -91 20t-63.5 54t-23.5 77q0 54 27.5 85t91 45t171.5 14h34v26q0 57 -24 82t-79 25q-32 0 -66.5 -8t-71.5 -27q-21 -10 -34.5 -3t-18.5 22t1 31t25 24q44 20 87 29.5t81 9.5q100 0 148 -47.5t48 -148.5v-257q0 -51 -47 -51q-48 0 -48 51v37q-18 -42 -56 -66
t-91 -24zM253 63q54 0 90 38t36 96v27h-33q-73 0 -114.5 -7t-59 -23.5t-17.5 -45.5q0 -38 26 -61.5t72 -23.5z" />
    <glyph glyph-name="uni0431" unicode="&#x431;" horiz-adv-x="577" 
d="M292 -9q-113 0 -178.5 71t-65.5 209v74q0 146 62 222.5t185 108.5l139 37q46 12 56 -30q4 -21 -6.5 -35t-32.5 -20l-149 -38q-78 -20 -118 -73t-40 -131v-4q23 48 67.5 76t106.5 28t109.5 -29.5t74.5 -84.5t27 -130q0 -77 -29.5 -133.5t-83 -87t-124.5 -30.5zM288 69
q66 0 102.5 43.5t36.5 125.5q0 81 -37 125.5t-102 44.5q-64 0 -101 -43.5t-37 -119.5q0 -87 36.5 -131.5t101.5 -44.5z" />
    <glyph glyph-name="uni0432" unicode="&#x432;" horiz-adv-x="556" 
d="M127 0q-51 0 -51 51v385q0 52 51 52h198q90 0 131.5 -33.5t41.5 -94.5q0 -38 -21.5 -66.5t-58.5 -41.5q46 -11 71 -42t25 -74q0 -63 -47 -99.5t-134 -36.5h-206zM171 281h147q41 0 63.5 19t22.5 52q0 34 -22.5 52t-63.5 18h-147v-141zM171 65h156q94 0 94 76q0 75 -94 75
h-156v-151z" />
    <glyph glyph-name="uni0433" unicode="&#x433;" horiz-adv-x="445" 
d="M127 -7q-51 0 -51 53v385q0 57 57 57h260q44 0 44 -40q0 -41 -44 -41h-216v-361q0 -53 -50 -53z" />
    <glyph glyph-name="uni0434" unicode="&#x434;" horiz-adv-x="604" 
d="M70 -137q-44 0 -44 46v123q0 48 49 48h6q32 49 45.5 111.5t13.5 154.5v85q0 57 57 57h247q57 0 57 -57v-351h30q48 0 48 -48v-123q0 -46 -43 -46t-43 46v91h-380v-91q0 -46 -43 -46zM174 80h231v329h-177v-84q0 -69 -14 -134t-40 -111z" />
    <glyph glyph-name="uni0435" unicode="&#x435;" horiz-adv-x="548" 
d="M306 -9q-120 0 -189 67.5t-69 184.5q0 75 30.5 132.5t84.5 89.5t124 32q101 0 159 -64.5t58 -177.5q0 -34 -40 -34h-318q11 -152 161 -152q30 0 63 7.5t64 27.5q21 12 36.5 8.5t22.5 -17t2.5 -30t-23.5 -28.5q-34 -23 -79.5 -34.5t-86.5 -11.5zM291 426q-63 0 -100 -39
t-45 -104h273q-3 68 -36 105.5t-92 37.5z" />
    <glyph glyph-name="uni0436" unicode="&#x436;" horiz-adv-x="803" 
d="M402 -7q-50 0 -50 51v167h-57q-38 0 -59.5 -13.5t-44.5 -51.5l-73 -125q-12 -22 -31 -26t-36 4t-24 25t6 38l66 112q23 39 43.5 62t45.5 34l-115 150q-15 19 -12 36.5t17.5 27.5t32.5 7.5t33 -21.5l138 -180h70v152q0 51 50 51q51 0 51 -51v-152h69l138 180
q14 20 32.5 22t32.5 -7.5t17.5 -27t-11.5 -37.5l-115 -151q25 -10 45.5 -32.5t43.5 -62.5l66 -112q12 -21 5 -38t-23.5 -25t-35 -3.5t-31.5 25.5l-73 125q-23 38 -44.5 51.5t-58.5 13.5h-57v-167q0 -51 -51 -51z" />
    <glyph glyph-name="uni0437" unicode="&#x437;" horiz-adv-x="508" 
d="M246 -9q-52 0 -100.5 10.5t-84.5 31.5q-18 10 -23.5 25.5t0 29.5t20 19t35.5 -6q32 -18 72 -26.5t79 -8.5q68 0 97.5 18.5t29.5 55.5q0 34 -24 52t-68 18h-88q-20 0 -30.5 10t-10.5 27q0 37 41 37h77q39 0 62.5 17.5t23.5 48.5q0 33 -26 52.5t-88 19.5q-38 0 -72.5 -8
t-66.5 -24q-20 -10 -34.5 -5t-20.5 18.5t-1.5 28t22.5 23.5q41 22 88 32t100 10q95 0 143.5 -36.5t48.5 -100.5q0 -38 -21 -66.5t-58 -41.5q45 -10 71 -40.5t26 -75.5q0 -67 -56 -106t-163 -39z" />
    <glyph glyph-name="uni0438" unicode="&#x438;" horiz-adv-x="593" 
d="M123 -7q-47 0 -47 54v399q0 49 46 49t46 -49v-312l245 328q9 13 22 23t36 10q46 0 46 -54v-399q0 -49 -45 -49q-47 0 -47 49v311l-245 -328q-9 -12 -22 -22t-35 -10z" />
    <glyph glyph-name="uni0439" unicode="&#x439;" horiz-adv-x="593" 
d="M123 -7q-47 0 -47 54v399q0 49 46 49t46 -49v-312l245 328q9 13 22 23t36 10q46 0 46 -54v-399q0 -49 -45 -49q-47 0 -47 49v311l-245 -328q-9 -12 -22 -22t-35 -10zM297 550q-57 0 -102.5 27.5t-65.5 81.5q-12 33 16 43q26 9 41 -22q33 -71 111 -71q77 0 111 71
q15 31 41 22q13 -5 17.5 -16t-2.5 -27q-50 -109 -167 -109z" />
    <glyph glyph-name="uni043A" unicode="&#x43a;" horiz-adv-x="541" 
d="M127 -7q-51 0 -51 51v398q0 51 51 51q50 0 50 -51v-152h82l138 180q14 20 32.5 22t33 -7.5t18 -27t-10.5 -37.5l-115 -151q24 -11 44.5 -33.5t42.5 -61.5l66 -112q12 -21 5 -38t-23.5 -25t-35 -4t-31.5 26l-73 125q-23 38 -44.5 51.5t-59.5 13.5h-69v-167q0 -51 -50 -51z
" />
    <glyph glyph-name="uni043B" unicode="&#x43b;" horiz-adv-x="585" 
d="M458 -7q-50 0 -50 51v363h-177v-59q0 -149 -33 -231t-110 -118q-21 -9 -38 -2.5t-25 21.5t-3.5 32t24.5 29q54 31 72.5 93.5t18.5 178.5v80q0 57 57 57h258q57 0 57 -57v-387q0 -51 -51 -51z" />
    <glyph glyph-name="uni043C" unicode="&#x43c;" horiz-adv-x="671" 
d="M121 -7q-45 0 -45 48v400q0 54 46 54q22 0 34 -11t20 -25l160 -280l159 280q9 15 21 25.5t33 10.5q46 0 46 -54v-400q0 -48 -45 -48q-44 0 -44 48v290l-135 -234q-5 -9 -13 -16t-22 -7q-15 0 -22.5 7.5t-12.5 15.5l-136 234v-290q0 -48 -44 -48z" />
    <glyph glyph-name="uni043D" unicode="&#x43d;" horiz-adv-x="596" 
d="M127 -7q-51 0 -51 51v400q0 51 51 51q50 0 50 -51v-153h243v153q0 51 50 51q51 0 51 -51v-400q0 -51 -51 -51q-50 0 -50 51v167h-243v-167q0 -51 -50 -51z" />
    <glyph glyph-name="uni043E" unicode="&#x43e;" horiz-adv-x="577" 
d="M289 -9q-74 0 -128 31t-83.5 87.5t-29.5 134.5t29.5 134.5t83.5 87.5t128 31q72 0 126 -31t84 -87.5t30 -134.5t-30 -134.5t-84 -87.5t-126 -31zM289 69q62 0 100 45t38 130t-38 129.5t-100 44.5q-63 0 -101 -44.5t-38 -129.5t38 -130t101 -45z" />
    <glyph glyph-name="uni043F" unicode="&#x43f;" horiz-adv-x="593" 
d="M127 -7q-51 0 -51 51v387q0 57 57 57h328q57 0 57 -57v-387q0 -51 -51 -51q-50 0 -50 51v363h-240v-363q0 -51 -50 -51z" />
    <glyph glyph-name="uni0440" unicode="&#x440;" horiz-adv-x="602" 
d="M127 -187q-50 0 -50 51v580q0 51 49 51q50 0 50 -51v-38q22 42 65 66.5t98 24.5q65 0 113.5 -31t75 -87.5t26.5 -134.5t-26.5 -135t-75 -87.5t-113.5 -30.5q-54 0 -96.5 23.5t-64.5 64.5v-215q0 -51 -51 -51zM314 69q63 0 100.5 45t37.5 130t-37.5 129.5t-100.5 44.5
t-100.5 -44.5t-37.5 -129.5t37.5 -130t100.5 -45z" />
    <glyph glyph-name="uni0441" unicode="&#x441;" horiz-adv-x="479" 
d="M292 -9q-75 0 -129.5 31.5t-84.5 89t-30 135.5q0 116 66 183t178 67q35 0 73.5 -10.5t71.5 -34.5q16 -10 18.5 -25.5t-5 -29t-21.5 -18t-32 5.5q-24 17 -49 24.5t-48 7.5q-71 0 -109.5 -44.5t-38.5 -126.5t38.5 -128.5t109.5 -46.5q23 0 47.5 7t49.5 24q18 10 31.5 5
t20 -18.5t4 -29t-18.5 -25.5q-32 -23 -69.5 -33t-72.5 -10z" />
    <glyph glyph-name="uni0442" unicode="&#x442;" horiz-adv-x="457" 
d="M229 -7q-51 0 -51 51v363h-136q-44 0 -44 41q0 40 44 40h373q44 0 44 -40q0 -41 -44 -41h-136v-363q0 -51 -50 -51z" />
    <glyph glyph-name="uni0443" unicode="&#x443;" horiz-adv-x="531" 
d="M192 -187q-28 0 -38.5 20.5t1.5 47.5l59 132l-178 413q-12 27 -0.5 48t45.5 21q18 0 29.5 -9t20.5 -31l137 -338l139 338q9 23 21 31.5t33 8.5q27 0 37 -21t-1 -47l-250 -575q-10 -23 -22.5 -31t-32.5 -8z" />
    <glyph glyph-name="uni0444" unicode="&#x444;" horiz-adv-x="814" 
d="M407 -187q-50 0 -50 53v208q-38 -83 -130 -83q-53 0 -93.5 31t-63 88t-22.5 134q0 78 22.5 134.5t63 87.5t93.5 31q46 0 79 -22t51 -61v245q0 53 50 53q51 0 51 -53v-244q18 39 51 60.5t78 21.5q53 0 93.5 -31t63 -87.5t22.5 -134.5q0 -77 -22.5 -134t-62.5 -88t-94 -31
q-90 0 -129 82v-207q0 -53 -51 -53zM254 68q48 0 76.5 44t28.5 132q0 87 -28.5 131t-76.5 44q-47 0 -76 -44t-29 -131q0 -88 28.5 -132t76.5 -44zM560 68q48 0 76.5 44t28.5 132q0 87 -28.5 131t-76.5 44t-76 -44t-28 -131q0 -88 28 -132t76 -44z" />
    <glyph glyph-name="uni0445" unicode="&#x445;" horiz-adv-x="546" 
d="M94 -6q-27 0 -38.5 22t10.5 50l150 186l-139 172q-23 27 -11 49t38 22q19 0 31.5 -6.5t23.5 -21.5l115 -146l116 146q11 15 23 21.5t31 6.5q26 0 38 -22t-11 -50l-139 -172l150 -185q22 -27 10.5 -49.5t-38.5 -22.5q-33 0 -55 28l-126 158l-125 -158q-11 -14 -23 -21
t-31 -7z" />
    <glyph glyph-name="uni0446" unicode="&#x446;" horiz-adv-x="609" 
d="M541 -137q-43 0 -43 44v93h-371q-51 0 -51 51v393q0 51 51 51q50 0 50 -51v-364h228v364q0 51 51 51q50 0 50 -51v-364h30q48 0 48 -48v-125q0 -44 -43 -44z" />
    <glyph glyph-name="uni0447" unicode="&#x447;" horiz-adv-x="562" 
d="M437 -7q-51 0 -51 54v141q-54 -31 -122 -31q-106 0 -157 51t-51 155v81q0 51 50 51q51 0 51 -51v-73q0 -69 28.5 -100t94.5 -31q32 0 57 7t48 24v171q0 53 51 53q50 0 50 -53v-395q0 -54 -49 -54z" />
    <glyph glyph-name="uni0448" unicode="&#x448;" horiz-adv-x="814" 
d="M127 0q-51 0 -51 51v393q0 51 48 51t48 -51v-364h187v364q0 51 48 51t48 -51v-364h187v364q0 51 48 51t48 -51v-393q0 -51 -51 -51h-560z" />
    <glyph glyph-name="uni0449" unicode="&#x449;" horiz-adv-x="841" 
d="M773 -137q-43 0 -43 44v93h-603q-51 0 -51 51v393q0 51 48 51t48 -51v-364h187v364q0 51 48 51t48 -51v-364h187v364q0 51 48 51t48 -51v-364h30q48 0 48 -48v-125q0 -44 -43 -44z" />
    <glyph glyph-name="uni044A" unicode="&#x44a;" horiz-adv-x="623" 
d="M206 0q-51 0 -51 51v356h-112q-45 0 -45 41q0 40 45 40h162q51 0 51 -52v-117h138q95 0 143.5 -40.5t48.5 -117.5q0 -74 -50.5 -117.5t-141.5 -43.5h-188zM256 69h125q52 0 81 22.5t29 69.5q0 46 -28.5 67.5t-81.5 21.5h-125v-181z" />
    <glyph glyph-name="uni044B" unicode="&#x44b;" horiz-adv-x="751" 
d="M127 0q-51 0 -51 51v393q0 51 51 51q50 0 50 -51v-125h139q94 0 143 -40.5t49 -117.5q0 -74 -51 -117.5t-141 -43.5h-189zM624 -7q-50 0 -50 51v400q0 51 50 51q51 0 51 -51v-400q0 -51 -51 -51zM177 69h126q52 0 81 22.5t29 69.5q0 46 -29 67.5t-81 21.5h-126v-181z" />
    <glyph glyph-name="uni044C" unicode="&#x44c;" horiz-adv-x="544" 
d="M127 0q-51 0 -51 51v393q0 51 51 51q50 0 50 -51v-125h139q94 0 143 -40.5t49 -117.5q0 -74 -51 -117.5t-141 -43.5h-189zM177 69h126q52 0 81 22.5t29 69.5q0 46 -29 67.5t-81 21.5h-126v-181z" />
    <glyph glyph-name="uni044D" unicode="&#x44d;" horiz-adv-x="500" 
d="M204 -9q-43 0 -87 12t-74 33q-17 10 -19.5 25t5 28t21 18t28.5 -5q27 -19 58.5 -28t60.5 -9q68 0 108.5 37.5t49.5 107.5h-201q-44 0 -44 37t44 37h201q-9 63 -48 100.5t-110 37.5q-28 0 -59.5 -8.5t-59.5 -27.5q-16 -10 -29 -5.5t-20 17t-4.5 27.5t19.5 26
q30 20 73.5 33t86.5 13q115 0 181.5 -67t66.5 -183q0 -79 -30 -136.5t-86 -88.5t-132 -31z" />
    <glyph glyph-name="uni044E" unicode="&#x44e;" horiz-adv-x="790" 
d="M502 -9q-101 0 -164 59t-73 161h-90v-167q0 -51 -49 -51q-50 0 -50 51v400q0 51 50 51q49 0 49 -51v-153h91q14 96 76 151t160 55q73 0 127 -31t83.5 -87.5t29.5 -134.5t-29.5 -134.5t-83.5 -87.5t-127 -31zM502 69q63 0 100.5 45t37.5 130t-37.5 129.5t-100.5 44.5
t-100.5 -44.5t-37.5 -129.5t37.5 -130t100.5 -45z" />
    <glyph glyph-name="uni044F" unicode="&#x44f;" horiz-adv-x="549" 
d="M426 -7q-47 0 -47 48v137h-63q-35 0 -60.5 -18t-40.5 -46l-53 -93q-14 -23 -33.5 -27t-36.5 6t-23.5 28.5t5.5 39.5l40 68q12 20 30.5 36.5t40.5 24.5q-62 10 -95 46.5t-33 95.5q0 68 46 108.5t137 40.5h181q52 0 52 -52v-395q0 -23 -13 -35.5t-34 -12.5zM261 247h118
v172h-118q-55 0 -81 -22.5t-26 -62.5q0 -41 26 -64t81 -23z" />
    <glyph glyph-name="uni0450" unicode="&#x450;" horiz-adv-x="548" 
d="M306 -9q-120 0 -189 67.5t-69 184.5q0 75 30.5 132.5t84.5 89.5t124 32q101 0 159 -64.5t58 -177.5q0 -34 -40 -34h-318q11 -152 161 -152q30 0 63 7.5t64 27.5q21 12 36.5 8.5t22.5 -17t2.5 -30t-23.5 -28.5q-34 -23 -79.5 -34.5t-86.5 -11.5zM291 426q-63 0 -100 -39
t-45 -104h273q-3 68 -36 105.5t-92 37.5zM250 558l-100 149q-11 17 -5.5 32.5t21 24t32.5 5.5t27 -23l80 -157q9 -18 -1 -31t-27 -14.5t-27 14.5z" />
    <glyph glyph-name="uni0451" unicode="&#x451;" horiz-adv-x="548" 
d="M306 -9q-120 0 -189 67.5t-69 184.5q0 75 30.5 132.5t84.5 89.5t124 32q101 0 159 -64.5t58 -177.5q0 -34 -40 -34h-318q11 -152 161 -152q30 0 63 7.5t64 27.5q21 12 36.5 8.5t22.5 -17t2.5 -30t-23.5 -28.5q-34 -23 -79.5 -34.5t-86.5 -11.5zM291 426q-63 0 -100 -39
t-45 -104h273q-3 68 -36 105.5t-92 37.5zM379 600q-54 0 -54 54q0 52 54 52q53 0 53 -52q0 -54 -53 -54zM198 600q-54 0 -54 54q0 25 14.5 38.5t39.5 13.5q54 0 54 -52q0 -54 -54 -54z" />
    <glyph glyph-name="uni0452" unicode="&#x452;" horiz-adv-x="588" 
d="M358 -175q-23 -8 -38.5 -0.5t-21.5 22.5t-0.5 30t24.5 22q56 20 73.5 58t17.5 101v237q0 63 -24 92t-76 29q-61 0 -98 -38.5t-37 -101.5v-232q0 -51 -50 -51q-51 0 -51 51v505h-56q-40 0 -40 37q0 36 40 36h56v43q0 22 13.5 34.5t37.5 12.5q50 0 50 -47v-43h161
q40 0 40 -36q0 -37 -40 -37h-161v-138q25 42 68 64t96 22q172 0 172 -196v-240q0 -95 -35.5 -152.5t-120.5 -83.5z" />
    <glyph glyph-name="uni0453" unicode="&#x453;" horiz-adv-x="445" 
d="M127 -7q-51 0 -51 53v385q0 57 57 57h260q44 0 44 -40q0 -41 -44 -41h-216v-361q0 -53 -50 -53zM277 558q-10 -16 -27 -14.5t-27.5 14.5t-1.5 31l81 157q10 20 26.5 23t32 -5.5t21.5 -24t-6 -32.5z" />
    <glyph glyph-name="uni0454" unicode="&#x454;" horiz-adv-x="501" 
d="M297 -9q-77 0 -132.5 31t-86 88.5t-30.5 136.5q0 116 67.5 183t186.5 67q42 0 86 -12.5t71 -33.5q16 -12 18.5 -27t-5 -27.5t-20.5 -17t-28 5.5q-28 19 -60 28t-61 9q-73 0 -111 -39t-47 -99h202q44 0 44 -37t-44 -37h-202q9 -70 49.5 -107.5t108.5 -37.5q29 0 60.5 9
t59.5 28q15 10 28 5.5t20 -17.5t4.5 -28t-19.5 -26q-28 -22 -72 -33.5t-87 -11.5z" />
    <glyph glyph-name="uni0455" unicode="&#x455;" horiz-adv-x="496" 
d="M248 -9q-44 0 -91 10t-85 34q-17 10 -21 25t2 28t19.5 18.5t30.5 -3.5q39 -21 75 -30t71 -9q53 0 80 19t27 51q0 26 -18 40.5t-54 22.5l-95 19q-126 26 -126 130q0 69 55 110t144 41q90 0 155 -44q16 -10 19 -24.5t-4 -27t-20.5 -17.5t-31.5 4q-30 18 -60 26.5t-58 8.5
q-52 0 -79 -19.5t-27 -52.5q0 -50 66 -64l95 -19q65 -13 98.5 -44t33.5 -84q0 -70 -55 -109.5t-146 -39.5z" />
    <glyph glyph-name="uni0456" unicode="&#x456;" horiz-adv-x="254" 
d="M127 597q-30 0 -46.5 15t-16.5 42q0 57 63 57t63 -57t-63 -57zM127 -6q-50 0 -50 55v390q0 54 50 54q51 0 51 -54v-390q0 -55 -51 -55z" />
    <glyph glyph-name="uni0457" unicode="&#x457;" horiz-adv-x="254" 
d="M127 -6q-50 0 -50 55v390q0 54 50 54q51 0 51 -54v-390q0 -55 -51 -55zM218 600q-54 0 -54 54q0 52 54 52q53 0 53 -52q0 -54 -53 -54zM37 600q-54 0 -54 54q0 25 14.5 38.5t39.5 13.5q54 0 54 -52q0 -54 -54 -54z" />
    <glyph glyph-name="uni0458" unicode="&#x458;" horiz-adv-x="258" 
d="M131 597q-30 0 -46.5 15t-16.5 42q0 57 63 57q62 0 62 -57t-62 -57zM-1 -190q-23 -1 -35 9.5t-13.5 25.5t6.5 27t26 14q50 3 73.5 27t23.5 76v455q0 51 51 51q50 0 50 -51v-447q0 -94 -45.5 -138t-136.5 -49z" />
    <glyph glyph-name="uni0459" unicode="&#x459;" horiz-adv-x="874" 
d="M88 -1q-21 -9 -37.5 -2.5t-24 22t-3 33t25.5 28.5q50 30 69 92t19 179v80q0 57 57 57h256q57 0 57 -57v-112h138q95 0 143.5 -40.5t48.5 -117.5q0 -74 -50.5 -117.5t-141.5 -43.5h-186q-51 0 -51 51v356h-177v-59q0 -149 -33 -231.5t-110 -117.5zM507 69h125
q52 0 81 22.5t29 69.5q0 46 -28.5 67.5t-81.5 21.5h-125v-181z" />
    <glyph glyph-name="uni045A" unicode="&#x45a;" horiz-adv-x="887" 
d="M127 -7q-51 0 -51 51v400q0 51 51 51q50 0 50 -51v-153h243v153q0 51 50 51q51 0 51 -51v-125h138q95 0 143.5 -40.5t48.5 -117.5q0 -74 -51 -117.5t-141 -43.5h-188q-51 0 -51 51v160h-243v-167q0 -51 -50 -51zM521 69h125q51 0 80 22.5t29 69.5q0 46 -28.5 67.5
t-80.5 21.5h-125v-181z" />
    <glyph glyph-name="uni045B" unicode="&#x45b;" horiz-adv-x="587" 
d="M127 -7q-50 0 -50 51v505h-53q-39 0 -39 37q0 36 39 36h53v43q0 47 50 47q24 0 37.5 -12.5t13.5 -34.5v-43h153q40 0 40 -36q0 -37 -40 -37h-153v-137q25 42 67.5 63.5t95.5 21.5q173 0 173 -196v-257q0 -51 -50 -51q-51 0 -51 51v251q0 63 -24.5 92t-76.5 29
q-61 0 -97.5 -38.5t-36.5 -101.5v-232q0 -51 -51 -51z" />
    <glyph glyph-name="uni045C" unicode="&#x45c;" horiz-adv-x="541" 
d="M127 -7q-51 0 -51 51v398q0 51 51 51q50 0 50 -51v-152h82l138 180q14 20 32.5 22t33 -7.5t18 -27t-10.5 -37.5l-115 -151q24 -11 44.5 -33.5t42.5 -61.5l66 -112q12 -21 5 -38t-23.5 -25t-35 -4t-31.5 26l-73 125q-23 38 -44.5 51.5t-59.5 13.5h-69v-167q0 -51 -50 -51z
M337 558q-10 -16 -27 -14.5t-27.5 14.5t-1.5 31l81 157q10 20 26.5 23t32 -5.5t21.5 -24t-6 -32.5z" />
    <glyph glyph-name="uni045D" unicode="&#x45d;" horiz-adv-x="593" 
d="M123 -7q-47 0 -47 54v399q0 49 46 49t46 -49v-312l245 328q9 13 22 23t36 10q46 0 46 -54v-399q0 -49 -45 -49q-47 0 -47 49v311l-245 -328q-9 -12 -22 -22t-35 -10zM259 558l-100 149q-11 17 -5.5 32.5t21 24t32.5 5.5t27 -23l80 -157q9 -18 -1 -31t-27 -14.5t-27 14.5z
" />
    <glyph glyph-name="uni045E" unicode="&#x45e;" horiz-adv-x="531" 
d="M192 -187q-28 0 -38.5 20.5t1.5 47.5l59 132l-178 413q-12 27 -0.5 48t45.5 21q18 0 29.5 -9t20.5 -31l137 -338l139 338q9 23 21 31.5t33 8.5q27 0 37 -21t-1 -47l-250 -575q-10 -23 -22.5 -31t-32.5 -8zM266 550q-57 0 -102.5 27.5t-65.5 81.5q-12 33 16 43
q26 9 41 -22q33 -71 111 -71q77 0 111 71q15 31 41 22q13 -5 17.5 -16t-2.5 -27q-50 -109 -167 -109z" />
    <glyph glyph-name="uni045F" unicode="&#x45f;" horiz-adv-x="593" 
d="M296 -137q-43 0 -43 44v93h-126q-51 0 -51 51v393q0 51 51 51q50 0 50 -51v-364h240v364q0 51 50 51q51 0 51 -51v-393q0 -51 -52 -51h-127v-93q0 -44 -43 -44z" />
    <glyph glyph-name="uni0462" unicode="&#x462;" horiz-adv-x="733" 
d="M208 0q-55 0 -55 56v474h-139q-41 0 -41 39t41 39h139v51q0 53 50 53t50 -53v-51h203q41 0 41 -39t-41 -39h-203v-128h201q112 0 174.5 -50.5t62.5 -149.5t-62.5 -150.5t-174.5 -51.5h-246zM252 84h191q148 0 148 117t-148 117h-191v-234z" />
    <glyph glyph-name="uni0463" unicode="&#x463;" horiz-adv-x="624" 
d="M206 0q-51 0 -51 51v364h-116q-41 0 -41 36q0 37 41 37h116v172q0 52 50 52q51 0 51 -52v-172h131q40 0 40 -37q0 -36 -40 -36h-131v-96h139q95 0 143.5 -40.5t48.5 -117.5q0 -74 -51 -117.5t-141 -43.5h-189zM256 69h126q52 0 81 22.5t29 69.5q0 46 -29 67.5t-81 21.5
h-126v-181z" />
    </font>
</defs>
</svg>
