<svg width="1440" height="681" viewBox="0 0 1440 681" fill="none" xmlns="http://www.w3.org/2000/svg">
<g clip-path="url(#clip0_626_13452)">
<rect width="1440" height="681" fill="#F7F8F9"/>
<g opacity="0.4">
<rect width="1440" height="1320" transform="translate(0 45)" fill="#F7F8F9"/>
<line x1="0.5" y1="-3" x2="0.499969" y2="717" stroke="#D5DAE1"/>
<line x1="1464" y1="21.5" x2="-24" y2="21.5" stroke="#D5DAE1"/>
<line x1="1464" y1="45.5" x2="-24" y2="45.5" stroke="#D5DAE1"/>
<line x1="1464" y1="69.5" x2="-24" y2="69.5" stroke="#D5DAE1"/>
<line x1="1464" y1="93.5" x2="-24" y2="93.5" stroke="#D5DAE1"/>
<line x1="1464" y1="117.5" x2="-24" y2="117.5" stroke="#D5DAE1"/>
<line x1="1464" y1="141.5" x2="-24" y2="141.5" stroke="#D5DAE1"/>
<line x1="1464" y1="165.5" x2="-24" y2="165.5" stroke="#D5DAE1"/>
<line x1="1464" y1="189.5" x2="-24" y2="189.5" stroke="#D5DAE1"/>
<line x1="1464" y1="213.5" x2="-24" y2="213.5" stroke="#D5DAE1"/>
<line x1="1464" y1="237.5" x2="-24" y2="237.5" stroke="#D5DAE1"/>
<line x1="1464" y1="261.5" x2="-24" y2="261.5" stroke="#D5DAE1"/>
<line x1="1464" y1="285.5" x2="-24" y2="285.5" stroke="#D5DAE1"/>
<line x1="1464" y1="309.5" x2="-24" y2="309.5" stroke="#D5DAE1"/>
<line x1="1464" y1="333.5" x2="-24" y2="333.5" stroke="#D5DAE1"/>
<line x1="1464" y1="357.5" x2="-24" y2="357.5" stroke="#D5DAE1"/>
<line x1="1464" y1="381.5" x2="-24" y2="381.5" stroke="#D5DAE1"/>
<line x1="1464" y1="405.5" x2="-24" y2="405.5" stroke="#D5DAE1"/>
<line x1="1464" y1="429.5" x2="-24" y2="429.5" stroke="#D5DAE1"/>
<line x1="1464" y1="453.5" x2="-24" y2="453.5" stroke="#D5DAE1"/>
<line x1="1464" y1="477.5" x2="-24" y2="477.5" stroke="#D5DAE1"/>
<line x1="1464" y1="501.5" x2="-24" y2="501.5" stroke="#D5DAE1"/>
<line x1="1464" y1="525.5" x2="-24" y2="525.5" stroke="#D5DAE1"/>
<line x1="1464" y1="549.5" x2="-24" y2="549.5" stroke="#D5DAE1"/>
<line x1="1464" y1="573.5" x2="-24" y2="573.5" stroke="#D5DAE1"/>
<line x1="1464" y1="597.5" x2="-24" y2="597.5" stroke="#D5DAE1"/>
<line x1="1464" y1="621.5" x2="-24" y2="621.5" stroke="#D5DAE1"/>
<line x1="1464" y1="645.5" x2="-24" y2="645.5" stroke="#D5DAE1"/>
<line x1="1464" y1="669.5" x2="-24" y2="669.5" stroke="#D5DAE1"/>
<line x1="24.5" y1="-3" x2="24.5" y2="717" stroke="#D5DAE1"/>
<line x1="24.5" y1="-3" x2="24.5" y2="717" stroke="#D5DAE1"/>
<line x1="48.5" y1="-3" x2="48.5" y2="717" stroke="#D5DAE1"/>
<line x1="72.5" y1="-3" x2="72.5" y2="717" stroke="#D5DAE1"/>
<line x1="96.5" y1="-3" x2="96.5" y2="717" stroke="#D5DAE1"/>
<line x1="120.5" y1="-3" x2="120.5" y2="717" stroke="#D5DAE1"/>
<line x1="144.5" y1="-3" x2="144.5" y2="717" stroke="#D5DAE1"/>
<line x1="168.5" y1="-3" x2="168.5" y2="717" stroke="#D5DAE1"/>
<line x1="192.5" y1="-3" x2="192.5" y2="717" stroke="#D5DAE1"/>
<line x1="216.5" y1="-3" x2="216.5" y2="717" stroke="#D5DAE1"/>
<line x1="240.5" y1="-3" x2="240.5" y2="717" stroke="#D5DAE1"/>
<line x1="264.5" y1="-3" x2="264.5" y2="717" stroke="#D5DAE1"/>
<line x1="288.5" y1="-3" x2="288.5" y2="717" stroke="#D5DAE1"/>
<line x1="312.5" y1="-3" x2="312.5" y2="717" stroke="#D5DAE1"/>
<line x1="336.5" y1="-3" x2="336.5" y2="717" stroke="#D5DAE1"/>
<line x1="360.5" y1="-3" x2="360.5" y2="717" stroke="#D5DAE1"/>
<line x1="384.5" y1="-3" x2="384.5" y2="717" stroke="#D5DAE1"/>
<line x1="408.5" y1="-3" x2="408.5" y2="717" stroke="#D5DAE1"/>
<line x1="432.5" y1="-3" x2="432.5" y2="717" stroke="#D5DAE1"/>
<line x1="456.5" y1="-3" x2="456.5" y2="717" stroke="#D5DAE1"/>
<line x1="480.5" y1="-3" x2="480.5" y2="717" stroke="#D5DAE1"/>
<line x1="504.5" y1="-3" x2="504.5" y2="717" stroke="#D5DAE1"/>
<line x1="528.5" y1="-3" x2="528.5" y2="717" stroke="#D5DAE1"/>
<line x1="552.5" y1="-3" x2="552.5" y2="717" stroke="#D5DAE1"/>
<line x1="576.5" y1="-3" x2="576.5" y2="717" stroke="#D5DAE1"/>
<line x1="600.5" y1="-3" x2="600.5" y2="717" stroke="#D5DAE1"/>
<line x1="624.5" y1="-3" x2="624.5" y2="717" stroke="#D5DAE1"/>
<line x1="648.5" y1="-3" x2="648.5" y2="717" stroke="#D5DAE1"/>
<line x1="672.5" y1="-3" x2="672.5" y2="717" stroke="#D5DAE1"/>
<line x1="696.5" y1="-3" x2="696.5" y2="717" stroke="#D5DAE1"/>
<line x1="720.5" y1="-3" x2="720.5" y2="717" stroke="#D5DAE1"/>
<line x1="744.5" y1="-3" x2="744.5" y2="717" stroke="#D5DAE1"/>
<line x1="768.5" y1="-3" x2="768.5" y2="717" stroke="#D5DAE1"/>
<line x1="792.5" y1="-3" x2="792.5" y2="717" stroke="#D5DAE1"/>
<line x1="816.5" y1="-3" x2="816.5" y2="717" stroke="#D5DAE1"/>
<line x1="840.5" y1="-3" x2="840.5" y2="717" stroke="#D5DAE1"/>
<line x1="864.5" y1="-3" x2="864.5" y2="717" stroke="#D5DAE1"/>
<line x1="888.5" y1="-3" x2="888.5" y2="717" stroke="#D5DAE1"/>
<line x1="912.5" y1="-3" x2="912.5" y2="717" stroke="#D5DAE1"/>
<line x1="936.5" y1="-3" x2="936.5" y2="717" stroke="#D5DAE1"/>
<line x1="960.5" y1="-3" x2="960.5" y2="717" stroke="#D5DAE1"/>
<line x1="984.5" y1="-3" x2="984.5" y2="717" stroke="#D5DAE1"/>
<line x1="1008.5" y1="-3" x2="1008.5" y2="717" stroke="#D5DAE1"/>
<line x1="1032.5" y1="-3" x2="1032.5" y2="717" stroke="#D5DAE1"/>
<line x1="1056.5" y1="-3" x2="1056.5" y2="717" stroke="#D5DAE1"/>
<line x1="1080.5" y1="-3" x2="1080.5" y2="717" stroke="#D5DAE1"/>
<line x1="1104.5" y1="-3" x2="1104.5" y2="717" stroke="#D5DAE1"/>
<line x1="1128.5" y1="-3" x2="1128.5" y2="717" stroke="#D5DAE1"/>
<line x1="1152.5" y1="-3" x2="1152.5" y2="717" stroke="#D5DAE1"/>
<line x1="1176.5" y1="-3" x2="1176.5" y2="717" stroke="#D5DAE1"/>
<line x1="1200.5" y1="-3" x2="1200.5" y2="717" stroke="#D5DAE1"/>
<line x1="1224.5" y1="-3" x2="1224.5" y2="717" stroke="#D5DAE1"/>
<line x1="1248.5" y1="-3" x2="1248.5" y2="717" stroke="#D5DAE1"/>
<line x1="1272.5" y1="-3" x2="1272.5" y2="717" stroke="#D5DAE1"/>
<line x1="1296.5" y1="-3" x2="1296.5" y2="717" stroke="#D5DAE1"/>
<line x1="1320.5" y1="-3" x2="1320.5" y2="717" stroke="#D5DAE1"/>
<line x1="1344.5" y1="-3" x2="1344.5" y2="717" stroke="#D5DAE1"/>
<line x1="1368.5" y1="-3" x2="1368.5" y2="717" stroke="#D5DAE1"/>
<line x1="1392.5" y1="-3" x2="1392.5" y2="717" stroke="#D5DAE1"/>
<line x1="1416.5" y1="-3" x2="1416.5" y2="717" stroke="#D5DAE1"/>
</g>
<rect width="1440" height="681" fill="url(#paint0_radial_626_13452)"/>
</g>
<defs>
<radialGradient id="paint0_radial_626_13452" cx="0" cy="0" r="1" gradientUnits="userSpaceOnUse" gradientTransform="translate(720 340.5) rotate(90) scale(340.5 720)">
<stop stop-color="#F7F8F9" stop-opacity="0"/>
<stop offset="1" stop-color="#F7F8F9"/>
</radialGradient>
<clipPath id="clip0_626_13452">
<rect width="1440" height="681" fill="white"/>
</clipPath>
</defs>
</svg>
