<svg width="180" height="81" viewBox="0 0 180 81" fill="none" xmlns="http://www.w3.org/2000/svg">
<path d="M179.4 71.8V72.3H156.9C156.9 76.6 151.9 80.1 145.7 80.1C139.5 80.1 134.5 76.6 134.5 72.3H112.1C112.1 76.6 107.1 80.1 100.9 80.1C94.7 80.1 89.7 76.6 89.7 72.3H67.3C67.3 76.6 62.3 80.1 56.1 80.1C49.9 80.1 44.9 76.6 44.9 72.3H22.4C22.4 76.6 17.4 80.1 11.2 80.1C5 80.1 0 76.6 0 72.3H22.4V71.8C22.4 67.5 27.5 64 33.7 64C39.9 64 44.9 67.5 44.9 71.8V72.3H67.3V71.8C67.3 67.5 72.3 64 78.5 64C84.7 64 89.7 67.5 89.7 71.8V72.3H112.1V71.8C112.1 67.5 117.1 64 123.3 64C129.5 64 134.5 67.5 134.5 71.8V72.3H156.9V71.8C156.9 67.5 162 64 168.2 64C174.4 64 179.4 67.5 179.4 71.8Z" fill="#3B82F6"/>
<path d="M179.4 55.8V56.3H156.9C156.9 60.6 151.9 64.1 145.7 64.1C139.5 64.1 134.5 60.6 134.5 56.3H112.1C112.1 60.6 107.1 64.1 100.9 64.1C94.7 64.1 89.7 60.6 89.7 56.3H67.3C67.3 60.6 62.3 64.1 56.1 64.1C49.9 64.1 44.9 60.6 44.9 56.3H22.4C22.4 60.6 17.4 64.1 11.2 64.1C5 64.1 0 60.6 0 56.3H22.4V55.8C22.4 51.5 27.5 48 33.7 48C39.9 48 44.9 51.5 44.9 55.8V56.3H67.3V55.8C67.3 51.5 72.3 48 78.5 48C84.7 48 89.7 51.5 89.7 55.8V56.3H112.1V55.8C112.1 51.5 117.1 48 123.3 48C129.5 48 134.5 51.5 134.5 55.8V56.3H156.9V55.8C156.9 51.5 162 48 168.2 48C174.4 48 179.4 51.5 179.4 55.8Z" fill="#3B82F6"/>
<path d="M179.4 39.8V40.3H156.9C156.9 44.6 151.9 48.1 145.7 48.1C139.5 48.1 134.5 44.6 134.5 40.3H112.1C112.1 44.6 107.1 48.1 100.9 48.1C94.7 48.1 89.7 44.6 89.7 40.3H67.3C67.3 44.6 62.3 48.1 56.1 48.1C49.9 48.1 44.9 44.6 44.9 40.3H22.4C22.4 44.6 17.4 48.1 11.2 48.1C5 48.1 0 44.6 0 40.3H22.4V39.8C22.4 35.5 27.5 32 33.7 32C39.9 32 44.9 35.5 44.9 39.8V40.3H67.3V39.8C67.3 35.5 72.3 32 78.5 32C84.7 32 89.7 35.5 89.7 39.8V40.3H112.1V39.8C112.1 35.5 117.1 32 123.3 32C129.5 32 134.5 35.5 134.5 39.8V40.3H156.9V39.8C156.9 35.5 162 32 168.2 32C174.4 32 179.4 35.5 179.4 39.8Z" fill="#3B82F6"/>
<path d="M179.4 23.8V24.3H156.9C156.9 28.6 151.9 32.1 145.7 32.1C139.5 32.1 134.5 28.6 134.5 24.3H112.1C112.1 28.6 107.1 32.1 100.9 32.1C94.7 32.1 89.7 28.6 89.7 24.3H67.3C67.3 28.6 62.3 32.1 56.1 32.1C49.9 32.1 44.9 28.6 44.9 24.3H22.4C22.4 28.6 17.4 32.1 11.2 32.1C5 32.1 0 28.6 0 24.3H22.4V23.8C22.4 19.5 27.5 16 33.7 16C39.9 16 44.9 19.5 44.9 23.8V24.3H67.3V23.8C67.3 19.5 72.3 16 78.5 16C84.7 16 89.7 19.5 89.7 23.8V24.3H112.1V23.8C112.1 19.5 117.1 16 123.3 16C129.5 16 134.5 19.5 134.5 23.8V24.3H156.9V23.8C156.9 19.5 162 16 168.2 16C174.4 16 179.4 19.5 179.4 23.8Z" fill="#3B82F6"/>
<path d="M179.4 7.79999V8.29999H156.9C156.9 12.6 151.9 16.1 145.7 16.1C139.5 16.1 134.5 12.6 134.5 8.29999H112.1C112.1 12.6 107.1 16.1 100.9 16.1C94.7 16.1 89.7 12.6 89.7 8.29999H67.3C67.3 12.6 62.3 16.1 56.1 16.1C49.9 16.1 44.9 12.6 44.9 8.29999H22.4C22.4 12.6 17.4 16.1 11.2 16.1C5 16.1 0 12.6 0 8.29999H22.4V7.79999C22.4 3.49999 27.5 0 33.7 0C39.9 0 44.9 3.49999 44.9 7.79999V8.29999H67.3V7.79999C67.3 3.49999 72.3 0 78.5 0C84.7 0 89.7 3.49999 89.7 7.79999V8.29999H112.1V7.79999C112.1 3.49999 117.1 0 123.3 0C129.5 0 134.5 3.49999 134.5 7.79999V8.29999H156.9V7.79999C156.9 3.49999 162 0 168.2 0C174.4 0 179.4 3.49999 179.4 7.79999Z" fill="#3B82F6"/>
</svg>
